<?xml version="1.0" encoding="utf-8"?>
<!-- Generator: Adobe Illustrator 20.1.0, SVG Export Plug-In . SVG Version: 6.00 Build 0)  -->
<svg version="1.1" id="Layer_1" xmlns="http://www.w3.org/2000/svg" xmlns:xlink="http://www.w3.org/1999/xlink" x="0px" y="0px"
	 viewBox="0 0 185.3 35.5" style="enable-background:new 0 0 185.3 35.5;" xml:space="preserve">
<style type="text/css">
	.st0{fill:none;}
	.st1{fill:#444444;}
</style>
<g>
	<rect y="2.8" class="st0" width="185.3" height="32.7"/>
	<path class="st1" d="M8.3,26C8,26,7.5,26,7,26c-0.5,0-1.1,0-1.7,0L3,26c-0.4,0-1,0-1.7,0c0,0-0.1-0.1-0.1-0.2s0-0.2,0.1-0.2
		c0.7,0,1.2-0.1,1.5-0.2c0.3-0.1,0.5-0.3,0.7-0.6c0.1-0.3,0.2-0.8,0.2-1.4V8.6c0-0.6-0.1-1.1-0.2-1.4C3.3,6.9,3.1,6.7,2.8,6.6
		C2.5,6.4,2,6.4,1.3,6.4c-0.1,0-0.1-0.1-0.1-0.2S1.3,6,1.3,6L3,6c1,0,1.8,0.1,2.3,0.1c0.9,0,1.8,0,2.7-0.1c1.1,0,1.9-0.1,2.2-0.1
		c2.2,0,4.1,0.4,5.7,1.3c1.7,0.9,3,2,3.9,3.5c0.9,1.5,1.4,3.1,1.4,5c0,2.1-0.5,3.9-1.4,5.5c-0.9,1.6-2.2,2.8-3.8,3.7
		c-1.6,0.9-3.4,1.3-5.3,1.3C10,26.1,9.2,26.1,8.3,26z M14,24.4c1-0.7,1.9-1.7,2.4-3.1s0.9-3,0.9-4.9c0-1.8-0.3-3.5-0.8-4.9
		c-0.6-1.5-1.3-2.7-2.4-3.5c-1-0.9-2.2-1.3-3.6-1.3C9.3,6.6,8.4,6.8,7.9,7C7.4,7.3,7.1,7.8,7.1,8.7v14.4c0,0.9,0.2,1.5,0.7,1.8
		c0.4,0.4,1.3,0.5,2.6,0.5C11.8,25.4,13,25,14,24.4z"/>
	<path class="st1" d="M36.3,24.3c0.1,0,0.1,0,0.2,0.1s0,0.2-0.1,0.2l-3.3,1.6c-0.1,0-0.2,0.1-0.3,0.1c-0.3,0-0.7-0.2-1-0.5
		c-0.3-0.4-0.5-0.9-0.7-1.5l-1.4,1c-0.5,0.4-0.9,0.6-1.4,0.8c-0.4,0.2-0.9,0.2-1.4,0.2c-0.9,0-1.6-0.2-2.1-0.6
		c-0.5-0.4-0.7-1-0.7-1.7c0-0.6,0.1-1,0.4-1.4s0.6-0.6,1-0.8c0.4-0.2,1-0.4,1.7-0.7l0.8-0.3l2.9-1.1v-1.8c0-1.4-0.1-2.4-0.3-3
		c-0.2-0.6-0.6-0.9-1.1-0.9c-1.1,0-1.8,0.9-1.9,2.6c-0.1,0.6-0.3,1.1-0.6,1.4c-0.3,0.3-0.7,0.4-1.3,0.4c-0.5,0-0.9-0.1-1.2-0.3
		c-0.2-0.2-0.4-0.5-0.4-0.9c0-0.6,0.4-1.3,1.1-1.8c0.7-0.6,1.6-1.1,2.7-1.4c1.1-0.4,2-0.5,2.8-0.5c0.9,0,1.7,0.3,2.3,0.9
		c0.6,0.6,0.9,1.5,0.9,2.7v5.7c0,0.6,0.1,1.1,0.3,1.4c0.2,0.3,0.5,0.5,0.9,0.5C35.6,24.5,35.9,24.4,36.3,24.3L36.3,24.3z M31,23.7
		c0-0.1,0-0.2,0-0.4v-3.1l-1.4,0.6c-0.1,0-0.3,0.1-0.6,0.2c-0.4,0.1-0.7,0.4-0.9,0.7c-0.3,0.3-0.4,0.7-0.4,1.1
		c0,0.5,0.2,0.9,0.5,1.2c0.3,0.3,0.7,0.4,1.1,0.4c0.3,0,0.7-0.1,1.1-0.4L31,23.7z"/>
	<path class="st1" d="M50.5,13.8c0,0.1,0,0.2-0.1,0.2c-0.6,0-1.2,0.2-1.6,0.7c-0.5,0.5-0.9,1.2-1.4,2.2L43.5,26
		c0,0.1-0.1,0.2-0.4,0.2c-0.2,0-0.3-0.1-0.4-0.2l-4.9-9.7c-0.4-0.9-0.8-1.6-1.2-1.8S36,14,35.5,14c-0.1,0-0.1-0.1-0.1-0.2
		s0-0.2,0.1-0.2c0.4,0,0.7,0,1,0l2.1,0l2.5,0c0.4,0,0.9,0,1.5,0c0.1,0,0.1,0.1,0.1,0.2s0,0.2-0.1,0.2c-1.2,0-1.9,0.2-1.9,0.7
		c0,0.1,0.1,0.3,0.2,0.5l3.6,6.7l2.1-5.1c0.2-0.4,0.3-0.8,0.3-1.2c0-0.5-0.2-0.9-0.5-1.2c-0.4-0.3-0.9-0.4-1.5-0.4
		c0,0-0.1-0.1-0.1-0.2s0-0.2,0.1-0.2c0.6,0,1,0,1.3,0l1.9,0l1.3,0c0.3,0,0.7,0,1.2,0C50.5,13.6,50.5,13.7,50.5,13.8z"/>
	<path class="st1" d="M51.2,25.8c0-0.1,0-0.2,0.1-0.2c0.7,0,1.1-0.2,1.3-0.5c0.2-0.3,0.4-0.9,0.4-1.7v-5.7c0-0.7-0.1-1.2-0.2-1.6
		c-0.1-0.3-0.4-0.5-0.7-0.5c-0.3,0-0.7,0.1-1.2,0.4h0c-0.1,0-0.1-0.1-0.2-0.2c0-0.1,0-0.2,0-0.2l4.8-2.2l0.1,0
		c0.1,0,0.2,0.1,0.3,0.2c0.1,0.1,0.2,0.2,0.2,0.3v0.7c0,0.9-0.1,1.9-0.1,3.1v5.8c0,0.9,0.1,1.4,0.4,1.7c0.2,0.3,0.7,0.5,1.4,0.5
		c0.1,0,0.1,0.1,0.1,0.2s0,0.2-0.1,0.2c-0.6,0-1,0-1.3,0l-1.9,0l-1.9,0c-0.3,0-0.8,0-1.3,0C51.2,26,51.2,25.9,51.2,25.8z M52.9,9.6
		c-0.3-0.3-0.5-0.8-0.5-1.4c0-0.6,0.2-1,0.5-1.3c0.4-0.3,0.8-0.5,1.4-0.5s1.1,0.2,1.4,0.5c0.3,0.3,0.5,0.8,0.5,1.3
		c0,0.6-0.2,1.1-0.5,1.4c-0.3,0.3-0.8,0.5-1.4,0.5C53.7,10.2,53.2,10,52.9,9.6z"/>
	<path class="st1" d="M74.5,23.9c0.1,0,0.1,0.1,0.2,0.2c0.1,0.1,0.1,0.2,0,0.2l-4.4,2.1l-0.2,0c-0.2,0-0.4-0.2-0.5-0.6
		c-0.2-0.4-0.3-1-0.3-1.7c-1.6,1.5-3.2,2.2-4.8,2.2c-0.9,0-1.8-0.2-2.5-0.7c-0.8-0.5-1.4-1.2-1.8-2.2c-0.4-0.9-0.7-2.1-0.7-3.3
		c0-1.6,0.4-2.9,1.1-4c0.8-1,1.7-1.8,2.8-2.3c1.1-0.5,2.2-0.7,3.4-0.7c0.8,0,1.6,0.1,2.5,0.4V7.2c0-0.7-0.1-1.3-0.2-1.6
		c-0.1-0.3-0.4-0.5-0.7-0.5c-0.3,0-0.7,0.1-1.2,0.4h0c-0.1,0-0.2-0.1-0.2-0.2c-0.1-0.1-0.1-0.2,0-0.2l4.7-2.2l0.1,0
		c0.1,0,0.2,0,0.4,0.1c0.1,0.1,0.2,0.2,0.2,0.3v19.1c0,0.7,0.1,1.2,0.2,1.5c0.1,0.3,0.4,0.4,0.7,0.4C73.5,24.3,73.9,24.2,74.5,23.9
		L74.5,23.9z M69.3,23.5v-0.2v-7.8c-0.4-0.5-0.8-0.9-1.3-1.2c-0.5-0.2-1-0.4-1.7-0.4c-1.2,0-2,0.4-2.6,1.2c-0.6,0.8-0.9,2.1-0.9,3.9
		s0.3,3.2,1,4.2c0.6,1,1.5,1.5,2.5,1.5C67.3,24.9,68.3,24.4,69.3,23.5z"/>
	<path class="st1" d="M91.9,6.2c0,0.1,0,0.2-0.1,0.2c-0.6,0-1,0.1-1.2,0.2c-0.3,0.1-0.4,0.3-0.5,0.7c-0.1,0.3-0.1,0.8-0.1,1.4v17.5
		c0,2.4-0.6,4.3-1.8,5.6c-1.2,1.3-2.8,2-4.9,2c-0.8,0-1.5-0.2-2-0.5c-0.5-0.3-0.8-0.8-0.8-1.4c0-0.4,0.1-0.8,0.4-1.1
		c0.3-0.3,0.7-0.5,1.2-0.5c0.5,0,0.9,0.2,1.2,0.5c0.3,0.3,0.5,0.8,0.8,1.3c0.1,0.3,0.3,0.6,0.4,0.8c0.1,0.2,0.3,0.3,0.5,0.3
		c0.4,0,0.8-0.4,1-1.1c0.2-0.7,0.3-1.9,0.3-3.6V8.6c0-0.6-0.1-1.1-0.2-1.4c-0.1-0.3-0.4-0.5-0.8-0.6c-0.4-0.1-0.9-0.2-1.7-0.2
		c0,0-0.1-0.1-0.1-0.2s0-0.2,0.1-0.2l2,0c1,0,1.8,0.1,2.5,0.1c0.6,0,1.3,0,2.2-0.1l1.5,0C91.8,6,91.9,6.1,91.9,6.2z"/>
	<path class="st1" d="M95,25.8c-0.4-0.4-0.5-0.8-0.5-1.4c0-0.6,0.2-1,0.5-1.3s0.8-0.5,1.4-0.5s1.1,0.2,1.4,0.5
		c0.3,0.3,0.5,0.8,0.5,1.4c0,0.6-0.2,1.1-0.5,1.4c-0.3,0.3-0.8,0.5-1.4,0.5S95.4,26.2,95,25.8z"/>
	<path class="st1" d="M124.7,7.4c-0.5-0.7-1.3-1-2.2-1c0,0-0.1-0.1-0.1-0.2s0-0.2,0.1-0.2l1.5,0c0.8,0,1.5,0.1,2,0.1
		c0.4,0,1,0,1.8-0.1l1.5,0c0,0,0.1,0.1,0.1,0.2s0,0.2-0.1,0.2c-0.8,0-1.5,0.3-2,1c-0.5,0.7-0.7,1.6-0.7,2.7V19c0,1.5-0.3,2.8-1,3.9
		c-0.7,1.1-1.6,2-2.8,2.6c-1.2,0.6-2.6,0.9-4.2,0.9c-1.6,0-3-0.3-4.2-0.9c-1.2-0.6-2.2-1.5-2.9-2.6c-0.7-1.1-1-2.5-1-4V8.6
		c0-0.6-0.1-1.1-0.2-1.4c-0.1-0.3-0.3-0.5-0.6-0.6c-0.3-0.1-0.8-0.2-1.5-0.2c-0.1,0-0.1-0.1-0.1-0.2s0-0.2,0.1-0.2l1.7,0
		c1,0,1.8,0.1,2.3,0.1c0.6,0,1.5,0,2.4-0.1l1.6,0c0.1,0,0.1,0.1,0.1,0.2s0,0.2-0.1,0.2c-0.7,0-1.1,0.1-1.5,0.2
		c-0.3,0.1-0.5,0.3-0.6,0.7c-0.1,0.3-0.2,0.8-0.2,1.4v9.2c0,2.5,0.5,4.4,1.5,5.6c1,1.2,2.4,1.8,4.3,1.8c1.8,0,3.2-0.5,4.2-1.6
		c1-1.1,1.5-2.6,1.5-4.6v-8.9C125.5,8.9,125.2,8,124.7,7.4z"/>
	<path class="st1" d="M145,25.8c0,0.1,0,0.2-0.1,0.2c-0.6,0-1,0-1.3,0l-1.9,0l-1.9,0c-0.3,0-0.8,0-1.3,0c-0.1,0-0.1-0.1-0.1-0.2
		s0-0.2,0.1-0.2c0.7,0,1.1-0.2,1.3-0.5c0.2-0.3,0.4-0.9,0.4-1.7v-4.6c0-1.2-0.2-2-0.6-2.6s-1.1-0.8-2-0.8c-0.5,0-1,0.1-1.6,0.3
		c-0.5,0.2-1,0.5-1.4,0.9v6.8c0,0.9,0.1,1.4,0.4,1.7c0.2,0.3,0.7,0.5,1.4,0.5c0.1,0,0.1,0.1,0.1,0.2s0,0.2-0.1,0.2c-0.6,0-1,0-1.3,0
		l-1.9,0l-1.9,0c-0.3,0-0.8,0-1.3,0c-0.1,0-0.1-0.1-0.1-0.2s0-0.2,0.1-0.2c0.7,0,1.1-0.2,1.3-0.5c0.2-0.3,0.4-0.9,0.4-1.7v-6
		c0-0.7-0.1-1.1-0.2-1.5c-0.2-0.3-0.4-0.5-0.8-0.5c-0.4,0-0.9,0.1-1.5,0.4h-0.1c-0.1,0-0.1-0.1-0.1-0.2c0-0.1,0-0.2,0-0.2l4.4-2.2
		c0.1,0,0.2-0.1,0.2-0.1c0.2,0,0.5,0.2,0.7,0.7c0.2,0.5,0.3,1.1,0.4,1.9c1.5-1.7,3.1-2.6,4.9-2.6c1.2,0,2.1,0.4,2.7,1.1
		c0.7,0.7,1,1.7,1,2.9v6.1c0,0.9,0.1,1.4,0.4,1.7c0.2,0.3,0.7,0.5,1.4,0.5C144.9,25.6,145,25.7,145,25.8z"/>
	<path class="st1" d="M156.5,24.9c0.8,0.1,1.5,0.4,2,0.9s0.8,1.3,0.8,2.3c0,1.2-0.4,2.3-1.1,3.4s-1.7,1.9-3,2.5s-2.6,1-4,1
		c-1.5,0-2.7-0.3-3.6-1c-0.9-0.7-1.4-1.6-1.4-2.6c0-1.5,1.1-2.9,3.2-4.4c-1.5-0.3-2.3-1.1-2.3-2.3c0-1.3,0.7-2.5,2.2-3.5
		c-0.8-0.4-1.4-0.9-1.9-1.6c-0.5-0.7-0.7-1.4-0.7-2.2c0-0.9,0.3-1.6,0.8-2.2c0.6-0.6,1.3-1.1,2.1-1.4c0.9-0.3,1.7-0.5,2.6-0.5
		c1.3,0,2.5,0.3,3.5,1c1.1-0.7,2.3-1.1,3.5-1.1c0.2,0,0.3,0.3,0.3,0.9c0,0.3,0,0.7-0.1,1c-0.1,0.4-0.2,0.5-0.3,0.4
		c-0.9-0.4-1.7-0.5-2.4-0.5h-0.3c0.6,0.7,0.9,1.5,0.9,2.3c0,0.9-0.3,1.6-0.8,2.3c-0.6,0.7-1.3,1.2-2.1,1.5c-0.9,0.4-1.8,0.5-2.7,0.5
		c-0.7,0-1.3-0.1-1.8-0.3c-0.3,0.4-0.5,0.8-0.5,1.4c0,0.6,0.2,1,0.5,1.2c0.3,0.3,0.7,0.4,1.2,0.5s1.3,0.1,2.3,0.1
		C154.7,24.7,155.7,24.8,156.5,24.9z M155.7,33c0.6-0.7,1-1.6,1-2.8c0-0.9-0.2-1.6-0.6-2c-0.4-0.4-0.9-0.7-1.5-0.8
		c-0.6-0.1-1.5-0.2-2.7-0.2c-0.2,0-0.5,0-0.8,0c-0.3,0-0.6,0-0.9-0.1c-0.7,0.5-1.1,1.4-1.1,2.6c0,1.4,0.4,2.4,1.2,3.2
		c0.8,0.7,1.8,1.1,2.9,1.1C154.2,34,155.1,33.7,155.7,33z M149.9,16.5c0,0.9,0.1,1.7,0.4,2.4c0.3,0.7,0.6,1.3,1,1.7s0.9,0.6,1.3,0.6
		c0.5,0,0.9-0.2,1.2-0.7c0.3-0.5,0.5-1.2,0.5-2.1c0-0.9-0.1-1.7-0.4-2.4c-0.3-0.7-0.7-1.1-1.1-1.5c-0.5-0.3-0.9-0.5-1.4-0.5
		C150.4,14,149.9,14.8,149.9,16.5z"/>
	<path class="st1" d="M171.9,23.9c0,0,0.1,0,0.1,0.1c0.1,0.1,0.1,0.1,0,0.2c-0.8,0.8-1.6,1.3-2.4,1.7c-0.8,0.3-1.7,0.5-2.7,0.5
		c-1.3,0-2.5-0.3-3.5-0.8c-1-0.6-1.7-1.3-2.2-2.3s-0.8-2-0.8-3.1c0-1.2,0.3-2.4,0.9-3.4c0.6-1,1.5-1.9,2.6-2.5s2.3-0.9,3.7-0.9
		c1.3,0,2.3,0.3,3.1,0.9c0.7,0.6,1.1,1.5,1.1,2.8c0,0.7-0.1,1-0.4,1l-7.8,0c0,0.1,0,0.4,0,0.7c0,1.9,0.4,3.3,1.3,4.4
		c0.9,1.1,2.1,1.6,3.7,1.6c0.6,0,1.1-0.1,1.5-0.2S171.1,24.3,171.9,23.9L171.9,23.9z M164.7,14.9c-0.5,0.6-0.8,1.4-0.9,2.5l4.6-0.1
		c0-1.1-0.2-1.9-0.5-2.5c-0.3-0.6-0.8-0.9-1.5-0.9C165.8,14,165.2,14.3,164.7,14.9z"/>
	<path class="st1" d="M183.8,13.9c0.5,0.4,0.7,0.8,0.7,1.3c0,0.4-0.1,0.8-0.4,1.1s-0.6,0.4-1.1,0.4c-0.3,0-0.6-0.1-0.8-0.2
		c-0.2-0.1-0.4-0.3-0.6-0.6c-0.2-0.2-0.4-0.4-0.5-0.5c-0.1-0.1-0.3-0.1-0.5-0.1c-0.2,0-0.4,0.1-0.7,0.2s-0.6,0.5-1.1,1v6.9
		c0,0.9,0.2,1.4,0.6,1.7c0.4,0.3,1.2,0.5,2.2,0.5c0.1,0,0.1,0.1,0.1,0.2s0,0.2-0.1,0.2c-0.7,0-1.3,0-1.8,0l-2.6,0l-1.9,0
		c-0.3,0-0.8,0-1.3,0c-0.1,0-0.1-0.1-0.1-0.2s0-0.2,0.1-0.2c0.7,0,1.1-0.2,1.3-0.5c0.2-0.3,0.4-0.9,0.4-1.7v-6
		c0-0.7-0.1-1.1-0.2-1.5c-0.2-0.3-0.4-0.5-0.8-0.5c-0.4,0-0.9,0.1-1.5,0.4h-0.1c-0.1,0-0.1-0.1-0.1-0.2c0-0.1,0-0.2,0-0.2l4.4-2.2
		c0.1,0,0.2-0.1,0.2-0.1c0.2,0,0.5,0.2,0.7,0.7c0.2,0.4,0.3,1,0.4,1.8c0.9-0.9,1.6-1.5,2.2-1.9c0.6-0.4,1.1-0.5,1.5-0.5
		C182.9,13.3,183.4,13.5,183.8,13.9z"/>
</g>
<g>
</g>
<g>
</g>
<g>
</g>
<g>
</g>
<g>
</g>
<g>
</g>
<g>
</g>
<g>
</g>
<g>
</g>
<g>
</g>
<g>
</g>
<g>
</g>
<g>
</g>
<g>
</g>
<g>
</g>
</svg>
