<?xml version="1.0" encoding="utf-8"?>
<!-- Generator: Adobe Illustrator 20.1.0, SVG Export Plug-In . SVG Version: 6.00 Build 0)  -->
<svg version="1.1" id="Layer_1" xmlns="http://www.w3.org/2000/svg" xmlns:xlink="http://www.w3.org/1999/xlink" x="0px" y="0px"
	 viewBox="0 0 35.5 185.3" style="enable-background:new 0 0 35.5 185.3;" xml:space="preserve">
<style type="text/css">
	.st0{fill:none;}
	.st1{fill:#444444;}
</style>
<g>
	<rect class="st0" width="32.7" height="185.3"/>
	<path class="st1" d="M9.5,8.3c0-0.3,0-0.8,0.1-1.3c0-0.5,0-1.1,0-1.7l0-2.4c0-0.4,0-1,0-1.7c0,0,0.1-0.1,0.2-0.1s0.2,0,0.2,0.1
		c0,0.7,0.1,1.2,0.2,1.5c0.1,0.3,0.3,0.5,0.6,0.7c0.3,0.1,0.8,0.2,1.4,0.2h14.8c0.6,0,1.1-0.1,1.4-0.2c0.3-0.1,0.5-0.3,0.6-0.6
		C29,2.5,29.1,2,29.1,1.3c0-0.1,0.1-0.1,0.2-0.1s0.2,0,0.2,0.1l0,1.7c0,1-0.1,1.8-0.1,2.3c0,0.9,0,1.8,0.1,2.7
		c0,1.1,0.1,1.9,0.1,2.2c0,2.2-0.4,4.1-1.3,5.7c-0.9,1.7-2,3-3.5,3.9c-1.5,0.9-3.1,1.4-5,1.4c-2.1,0-3.9-0.5-5.5-1.4
		c-1.6-0.9-2.8-2.2-3.7-3.8c-0.9-1.6-1.3-3.4-1.3-5.3C9.4,10,9.4,9.2,9.5,8.3z M11.1,14c0.7,1,1.7,1.9,3.1,2.4s3,0.9,4.9,0.9
		c1.8,0,3.5-0.3,4.9-0.8c1.5-0.6,2.7-1.3,3.5-2.4c0.9-1,1.3-2.2,1.3-3.6c0-1.3-0.1-2.2-0.4-2.7c-0.3-0.5-0.8-0.7-1.6-0.7H12.4
		c-0.9,0-1.5,0.2-1.8,0.7c-0.4,0.4-0.5,1.3-0.5,2.6C10.1,11.8,10.4,13,11.1,14z"/>
	<path class="st1" d="M11.2,36.3c0,0.1,0,0.1-0.1,0.2s-0.2,0-0.2-0.1l-1.6-3.3c0-0.1-0.1-0.2-0.1-0.3c0-0.3,0.2-0.7,0.5-1
		c0.4-0.3,0.9-0.5,1.5-0.7l-1-1.4c-0.4-0.5-0.6-0.9-0.8-1.4c-0.2-0.4-0.2-0.9-0.2-1.4c0-0.9,0.2-1.6,0.6-2.1c0.4-0.5,1-0.7,1.7-0.7
		c0.6,0,1,0.1,1.4,0.4s0.6,0.6,0.8,1c0.2,0.4,0.4,1,0.7,1.7l0.3,0.8l1.1,2.9h1.8c1.4,0,2.4-0.1,3-0.3c0.6-0.2,0.9-0.6,0.9-1.1
		c0-1.1-0.9-1.8-2.6-1.9c-0.6-0.1-1.1-0.3-1.4-0.6c-0.3-0.3-0.4-0.7-0.4-1.3c0-0.5,0.1-0.9,0.3-1.2c0.2-0.2,0.5-0.4,0.9-0.4
		c0.6,0,1.3,0.4,1.8,1.1c0.6,0.7,1.1,1.6,1.4,2.7c0.4,1.1,0.5,2,0.5,2.8c0,0.9-0.3,1.7-0.9,2.3c-0.6,0.6-1.5,0.9-2.7,0.9h-5.7
		c-0.6,0-1.1,0.1-1.4,0.3c-0.3,0.2-0.5,0.5-0.5,0.9C11,35.6,11.1,35.9,11.2,36.3L11.2,36.3z M11.8,31c0.1,0,0.2,0,0.4,0h3.1
		l-0.6-1.4c0-0.1-0.1-0.3-0.2-0.6c-0.1-0.4-0.4-0.7-0.7-0.9c-0.3-0.3-0.7-0.4-1.1-0.4c-0.5,0-0.9,0.2-1.2,0.5
		c-0.3,0.3-0.4,0.7-0.4,1.1c0,0.3,0.1,0.7,0.4,1.1L11.8,31z"/>
	<path class="st1" d="M21.7,50.5c-0.1,0-0.2,0-0.2-0.1c0-0.6-0.2-1.2-0.7-1.6c-0.5-0.5-1.2-0.9-2.2-1.4l-9.1-3.9
		c-0.1,0-0.2-0.1-0.2-0.4c0-0.2,0.1-0.3,0.2-0.4l9.7-4.9c0.9-0.4,1.6-0.8,1.8-1.2s0.4-0.8,0.4-1.2c0-0.1,0.1-0.1,0.2-0.1
		s0.2,0,0.2,0.1c0,0.4,0,0.7,0,1l0,2.1l0,2.5c0,0.4,0,0.9,0,1.5c0,0.1-0.1,0.1-0.2,0.1s-0.2,0-0.2-0.1c0-1.2-0.2-1.9-0.7-1.9
		c-0.1,0-0.3,0.1-0.5,0.2l-6.7,3.6l5.1,2.1c0.4,0.2,0.8,0.3,1.2,0.3c0.5,0,0.9-0.2,1.2-0.5c0.3-0.4,0.4-0.9,0.4-1.5
		c0,0,0.1-0.1,0.2-0.1s0.2,0,0.2,0.1c0,0.6,0,1,0,1.3l0,1.9l0,1.3c0,0.3,0,0.7,0,1.2C21.8,50.5,21.8,50.5,21.7,50.5z"/>
	<path class="st1" d="M9.7,51.2c0.1,0,0.2,0,0.2,0.1c0,0.7,0.2,1.1,0.5,1.3c0.3,0.2,0.9,0.4,1.7,0.4h5.7c0.7,0,1.2-0.1,1.6-0.2
		c0.3-0.1,0.5-0.4,0.5-0.7c0-0.3-0.1-0.7-0.4-1.2v0c0-0.1,0.1-0.1,0.2-0.2c0.1,0,0.2,0,0.2,0l2.2,4.8l0,0.1c0,0.1-0.1,0.2-0.2,0.3
		C21.9,56,21.8,56,21.7,56H21c-0.9,0-1.9-0.1-3.1-0.1h-5.8c-0.9,0-1.4,0.1-1.7,0.4C10,56.6,9.9,57,9.9,57.7c0,0.1-0.1,0.1-0.2,0.1
		s-0.2,0-0.2-0.1c0-0.6,0-1,0-1.3l0-1.9l0-1.9c0-0.3,0-0.8,0-1.3C9.5,51.2,9.6,51.2,9.7,51.2z M25.8,52.9c0.3-0.3,0.8-0.5,1.4-0.5
		c0.6,0,1,0.2,1.3,0.5c0.3,0.4,0.5,0.8,0.5,1.4s-0.2,1.1-0.5,1.4c-0.3,0.3-0.8,0.5-1.3,0.5c-0.6,0-1.1-0.2-1.4-0.5
		c-0.3-0.3-0.5-0.8-0.5-1.4C25.3,53.7,25.5,53.2,25.8,52.9z"/>
	<path class="st1" d="M11.6,74.5c0,0.1-0.1,0.1-0.2,0.2c-0.1,0.1-0.2,0.1-0.2,0l-2.1-4.4l0-0.2c0-0.2,0.2-0.4,0.6-0.5
		c0.4-0.2,1-0.3,1.7-0.3c-1.5-1.6-2.2-3.2-2.2-4.8c0-0.9,0.2-1.8,0.7-2.5c0.5-0.8,1.2-1.4,2.2-1.8c0.9-0.4,2.1-0.7,3.3-0.7
		c1.6,0,2.9,0.4,4,1.1c1,0.8,1.8,1.7,2.3,2.8s0.7,2.2,0.7,3.4c0,0.8-0.1,1.6-0.4,2.5h6.5c0.7,0,1.3-0.1,1.6-0.2
		c0.3-0.1,0.5-0.4,0.5-0.7c0-0.3-0.1-0.7-0.4-1.2v0c0-0.1,0.1-0.2,0.2-0.2c0.1-0.1,0.2-0.1,0.2,0l2.2,4.7l0,0.1c0,0.1,0,0.2-0.1,0.4
		c-0.1,0.1-0.2,0.2-0.3,0.2H13.2c-0.7,0-1.2,0.1-1.5,0.2c-0.3,0.1-0.4,0.4-0.4,0.7C11.2,73.5,11.3,73.9,11.6,74.5L11.6,74.5z
		 M12,69.3h0.2h7.8c0.5-0.4,0.9-0.8,1.2-1.3c0.2-0.5,0.4-1,0.4-1.7c0-1.2-0.4-2-1.2-2.6c-0.8-0.6-2.1-0.9-3.9-0.9s-3.2,0.3-4.2,1
		c-1,0.6-1.5,1.5-1.5,2.5C10.6,67.3,11.1,68.3,12,69.3z"/>
	<path class="st1" d="M29.3,91.9c-0.1,0-0.2,0-0.2-0.1c0-0.6-0.1-1-0.2-1.2c-0.1-0.3-0.3-0.4-0.7-0.5c-0.3-0.1-0.8-0.1-1.4-0.1H9.4
		c-2.4,0-4.3-0.6-5.6-1.8c-1.3-1.2-2-2.8-2-4.9c0-0.8,0.2-1.5,0.5-2c0.3-0.5,0.8-0.8,1.4-0.8c0.4,0,0.8,0.1,1.1,0.4
		c0.3,0.3,0.5,0.7,0.5,1.2c0,0.5-0.2,0.9-0.5,1.2c-0.3,0.3-0.8,0.5-1.3,0.8c-0.3,0.1-0.6,0.3-0.8,0.4c-0.2,0.1-0.3,0.3-0.3,0.5
		c0,0.4,0.4,0.8,1.1,1c0.7,0.2,1.9,0.3,3.6,0.3h19.8c0.6,0,1.1-0.1,1.4-0.2c0.3-0.1,0.5-0.4,0.6-0.8c0.1-0.4,0.2-0.9,0.2-1.7
		c0,0,0.1-0.1,0.2-0.1s0.2,0,0.2,0.1l0,2c0,1-0.1,1.8-0.1,2.5c0,0.6,0,1.3,0.1,2.2l0,1.5C29.5,91.8,29.4,91.9,29.3,91.9z"/>
	<path class="st1" d="M9.7,95c0.4-0.4,0.8-0.5,1.4-0.5c0.6,0,1,0.2,1.3,0.5s0.5,0.8,0.5,1.4s-0.2,1.1-0.5,1.4
		c-0.3,0.3-0.8,0.5-1.4,0.5c-0.6,0-1.1-0.2-1.4-0.5c-0.3-0.3-0.5-0.8-0.5-1.4S9.3,95.4,9.7,95z"/>
	<path class="st1" d="M28.1,124.7c0.7-0.5,1-1.3,1-2.2c0,0,0.1-0.1,0.2-0.1s0.2,0,0.2,0.1l0,1.5c0,0.8-0.1,1.5-0.1,2
		c0,0.4,0,1,0.1,1.8l0,1.5c0,0-0.1,0.1-0.2,0.1s-0.2,0-0.2-0.1c0-0.8-0.3-1.5-1-2c-0.7-0.5-1.6-0.7-2.7-0.7h-8.9
		c-1.5,0-2.8-0.3-3.9-1c-1.1-0.7-2-1.6-2.6-2.8c-0.6-1.2-0.9-2.6-0.9-4.2c0-1.6,0.3-3,0.9-4.2c0.6-1.2,1.5-2.2,2.6-2.9
		c1.1-0.7,2.5-1,4-1h10.3c0.6,0,1.1-0.1,1.4-0.2c0.3-0.1,0.5-0.3,0.6-0.6c0.1-0.3,0.2-0.8,0.2-1.5c0-0.1,0.1-0.1,0.2-0.1
		s0.2,0,0.2,0.1l0,1.7c0,1-0.1,1.8-0.1,2.3c0,0.6,0,1.5,0.1,2.4l0,1.6c0,0.1-0.1,0.1-0.2,0.1s-0.2,0-0.2-0.1c0-0.7-0.1-1.1-0.2-1.5
		c-0.1-0.3-0.3-0.5-0.7-0.6c-0.3-0.1-0.8-0.2-1.4-0.2h-9.2c-2.5,0-4.4,0.5-5.6,1.5c-1.2,1-1.8,2.4-1.8,4.3c0,1.8,0.5,3.2,1.6,4.2
		c1.1,1,2.6,1.5,4.6,1.5h8.9C26.5,125.5,27.5,125.2,28.1,124.7z"/>
	<path class="st1" d="M9.7,145c-0.1,0-0.2,0-0.2-0.1c0-0.6,0-1,0-1.3l0-1.9l0-1.9c0-0.3,0-0.8,0-1.3c0-0.1,0.1-0.1,0.2-0.1
		s0.2,0,0.2,0.1c0,0.7,0.2,1.1,0.5,1.3c0.3,0.2,0.9,0.4,1.7,0.4h4.6c1.2,0,2-0.2,2.6-0.6s0.8-1.1,0.8-2c0-0.5-0.1-1-0.3-1.6
		c-0.2-0.5-0.5-1-0.9-1.4h-6.8c-0.9,0-1.4,0.1-1.7,0.4c-0.3,0.2-0.5,0.7-0.5,1.4c0,0.1-0.1,0.1-0.2,0.1s-0.2,0-0.2-0.1
		c0-0.6,0-1,0-1.3l0-1.9l0-1.9c0-0.3,0-0.8,0-1.3c0-0.1,0.1-0.1,0.2-0.1s0.2,0,0.2,0.1c0,0.7,0.2,1.1,0.5,1.3
		c0.3,0.2,0.9,0.4,1.7,0.4h6c0.7,0,1.1-0.1,1.5-0.2c0.3-0.2,0.5-0.4,0.5-0.8c0-0.4-0.1-0.9-0.4-1.5v-0.1c0-0.1,0.1-0.1,0.2-0.1
		c0.1,0,0.2,0,0.2,0l2.2,4.4c0,0.1,0.1,0.2,0.1,0.2c0,0.2-0.2,0.5-0.7,0.7c-0.5,0.2-1.1,0.3-1.9,0.4c1.7,1.5,2.6,3.1,2.6,4.9
		c0,1.2-0.4,2.1-1.1,2.7c-0.7,0.7-1.7,1-2.9,1h-6.1c-0.9,0-1.4,0.1-1.7,0.4c-0.3,0.2-0.5,0.7-0.5,1.4C9.9,144.9,9.8,145,9.7,145z"/>
	<path class="st1" d="M10.6,156.5c-0.1,0.8-0.4,1.5-0.9,2s-1.3,0.8-2.3,0.8c-1.2,0-2.3-0.4-3.4-1.1s-1.9-1.7-2.5-3s-1-2.6-1-4
		c0-1.5,0.3-2.7,1-3.6c0.7-0.9,1.6-1.4,2.6-1.4c1.5,0,2.9,1.1,4.4,3.2c0.3-1.5,1.1-2.3,2.3-2.3c1.3,0,2.5,0.7,3.5,2.2
		c0.4-0.8,0.9-1.4,1.6-1.9c0.7-0.5,1.4-0.7,2.2-0.7c0.9,0,1.6,0.3,2.2,0.8c0.6,0.6,1.1,1.3,1.4,2.1c0.3,0.9,0.5,1.7,0.5,2.6
		c0,1.3-0.3,2.5-1,3.5c0.7,1.1,1.1,2.3,1.1,3.5c0,0.2-0.3,0.3-0.9,0.3c-0.3,0-0.7,0-1-0.1c-0.4-0.1-0.5-0.2-0.4-0.3
		c0.4-0.9,0.5-1.7,0.5-2.4v-0.3c-0.7,0.6-1.5,0.9-2.3,0.9c-0.9,0-1.6-0.3-2.3-0.8c-0.7-0.6-1.2-1.3-1.5-2.1
		c-0.4-0.9-0.5-1.8-0.5-2.7c0-0.7,0.1-1.3,0.3-1.8c-0.4-0.3-0.8-0.5-1.4-0.5c-0.6,0-1,0.2-1.2,0.5c-0.3,0.3-0.4,0.7-0.5,1.2
		s-0.1,1.3-0.1,2.3C10.8,154.7,10.7,155.7,10.6,156.5z M2.5,155.7c0.7,0.6,1.6,1,2.8,1c0.9,0,1.6-0.2,2-0.6c0.4-0.4,0.7-0.9,0.8-1.5
		c0.1-0.6,0.2-1.5,0.2-2.7c0-0.2,0-0.5,0-0.8c0-0.3,0-0.6,0.1-0.9c-0.5-0.7-1.4-1.1-2.6-1.1c-1.4,0-2.4,0.4-3.2,1.2
		c-0.7,0.8-1.1,1.8-1.1,2.9C1.5,154.2,1.8,155.1,2.5,155.7z M19,149.9c-0.9,0-1.7,0.1-2.4,0.4c-0.7,0.3-1.3,0.6-1.7,1
		s-0.6,0.9-0.6,1.3c0,0.5,0.2,0.9,0.7,1.2c0.5,0.3,1.2,0.5,2.1,0.5c0.9,0,1.7-0.1,2.4-0.4c0.7-0.3,1.1-0.7,1.5-1.1
		c0.3-0.5,0.5-0.9,0.5-1.4C21.5,150.4,20.6,149.9,19,149.9z"/>
	<path class="st1" d="M11.6,171.9c0,0,0,0.1-0.1,0.1c-0.1,0.1-0.1,0.1-0.2,0c-0.8-0.8-1.3-1.6-1.7-2.4c-0.3-0.8-0.5-1.7-0.5-2.7
		c0-1.3,0.3-2.5,0.8-3.5c0.6-1,1.3-1.7,2.3-2.2s2-0.8,3.1-0.8c1.2,0,2.4,0.3,3.4,0.9c1,0.6,1.9,1.5,2.5,2.6s0.9,2.3,0.9,3.7
		c0,1.3-0.3,2.3-0.9,3.1c-0.6,0.7-1.5,1.1-2.8,1.1c-0.7,0-1-0.1-1-0.4l0-7.8c-0.1,0-0.4,0-0.7,0c-1.9,0-3.3,0.4-4.4,1.3
		c-1.1,0.9-1.6,2.1-1.6,3.7c0,0.6,0.1,1.1,0.2,1.5S11.2,171.1,11.6,171.9L11.6,171.9z M20.6,164.7c-0.6-0.5-1.4-0.8-2.5-0.9l0.1,4.6
		c1.1,0,1.9-0.2,2.5-0.5c0.6-0.3,0.9-0.8,0.9-1.5C21.5,165.8,21.2,165.2,20.6,164.7z"/>
	<path class="st1" d="M21.6,183.8c-0.4,0.5-0.8,0.7-1.3,0.7c-0.4,0-0.8-0.1-1.1-0.4s-0.4-0.6-0.4-1.1c0-0.3,0.1-0.6,0.2-0.8
		c0.1-0.2,0.3-0.4,0.6-0.6c0.2-0.2,0.4-0.4,0.5-0.5c0.1-0.1,0.1-0.3,0.1-0.5c0-0.2-0.1-0.4-0.2-0.7s-0.5-0.6-1-1.1h-6.9
		c-0.9,0-1.4,0.2-1.7,0.6c-0.3,0.4-0.5,1.2-0.5,2.2c0,0.1-0.1,0.1-0.2,0.1s-0.2,0-0.2-0.1c0-0.7,0-1.3,0-1.8l0-2.6l0-1.9
		c0-0.3,0-0.8,0-1.3c0-0.1,0.1-0.1,0.2-0.1s0.2,0,0.2,0.1c0,0.7,0.2,1.1,0.5,1.3c0.3,0.2,0.9,0.4,1.7,0.4h6c0.7,0,1.1-0.1,1.5-0.2
		c0.3-0.2,0.5-0.4,0.5-0.8c0-0.4-0.1-0.9-0.4-1.5v-0.1c0-0.1,0.1-0.1,0.2-0.1c0.1,0,0.2,0,0.2,0l2.2,4.4c0,0.1,0.1,0.2,0.1,0.2
		c0,0.2-0.2,0.5-0.7,0.7c-0.4,0.2-1,0.3-1.8,0.4c0.9,0.9,1.5,1.6,1.9,2.2c0.4,0.6,0.5,1.1,0.5,1.5C22.2,182.9,22,183.4,21.6,183.8z"
		/>
</g>
<g>
</g>
<g>
</g>
<g>
</g>
<g>
</g>
<g>
</g>
<g>
</g>
<g>
</g>
<g>
</g>
<g>
</g>
<g>
</g>
<g>
</g>
<g>
</g>
<g>
</g>
<g>
</g>
<g>
</g>
</svg>
