<?xml version="1.0" encoding="utf-8"?>
<!-- Generator: Adobe Illustrator 22.1.0, SVG Export Plug-In . SVG Version: 6.00 Build 0)  -->
<svg version="1.1" id="Layer_1" xmlns="http://www.w3.org/2000/svg" xmlns:xlink="http://www.w3.org/1999/xlink" x="0px" y="0px"
	 width="71px" height="66.4px" viewBox="0 0 71 66.4" style="enable-background:new 0 0 71 66.4;" xml:space="preserve">
<g>
	<path d="M35.5,38c10.5,0,19-8.5,19-19S46,0,35.5,0s-19,8.5-19,19S25,38,35.5,38z"/>
	<path d="M50.5,39.9l-0.6-0.1l-0.5,0.3c-4.1,2.7-9,4.2-13.9,4.2s-9.8-1.5-13.9-4.2l-0.5-0.3l-0.6,0.1C7.1,43.3,0,51.9,0,64.9v1.5
		h69.7l1.3-0.1v-1.5C71,51.9,63.9,43.3,50.5,39.9z"/>
</g>
</svg>
