<svg xmlns="http://www.w3.org/2000/svg" xmlns:xlink="http://www.w3.org/1999/xlink" xml:space="preserve" version="1.1" style="shape-rendering:geometricPrecision;text-rendering:geometricPrecision;image-rendering:optimizeQuality;" viewBox="0 0 333 324" x="0px" y="0px" fill-rule="evenodd" clip-rule="evenodd"><defs><style type="text/css">
   
    .fil0 {fill:black;fill-rule:nonzero; stroke-width:25;}
   
  </style></defs><g><path class="fil0" d="M267 100l59 0c4,0 7,3 7,7l0 210c0,4 -3,7 -7,7l-210 0c-4,0 -7,-3 -7,-7l0 -63 -102 0c-4,0 -7,-3 -7,-7l0 -207c0,-6 8,-9 12,-4l45 44c12,-47 55,-80 103,-80 57,0 104,44 107,100zm-198 -8l106 107c45,-7 79,-46 79,-92 0,-52 -42,-93 -94,-93 -45,0 -84,33 -91,78zm-55 -35l0 183 102 0 81 0c-61,-61 -122,-122 -183,-183zm305 57l-52 0c-3,45 -35,87 -80,97l32 31c3,4 2,12 -5,12l-91 0 0 56 196 0 0 -196z"></path></g></svg>