<svg xmlns="http://www.w3.org/2000/svg" xmlns:xlink="http://www.w3.org/1999/xlink" version="1.1" x="0px" y="0px" viewBox="-255 347 100 100" style="enable-background:new -255 347 100 100;" xml:space="preserve"><style type="text/css">
</style><path class="" d="M-170.5,437.5h-26c-2.8,0-5-2.2-5-5v-34c0-2.8,2.2-5,5-5h26c2.8,0,5,2.2,5,5v34  C-165.5,435.3-167.7,437.5-170.5,437.5z M-170.5,387.5h-26c-2.8,0-5-2.2-5-5v-20c0-2.8,2.2-5,5-5h26c2.8,0,5,2.2,5,5v20  C-165.5,385.3-167.7,387.5-170.5,387.5z M-212.5,437.5h-26c-2.8,0-5-2.2-5-5v-20c0-2.8,2.2-5,5-5h26c2.8,0,5,2.2,5,5v20  C-207.5,435.3-209.7,437.5-212.5,437.5z M-212.5,401.5h-26c-2.8,0-5-2.2-5-5v-34c0-2.8,2.2-5,5-5h26c2.8,0,5,2.2,5,5v34  C-207.5,399.3-209.7,401.5-212.5,401.5z"></path></svg>