<?xml version="1.0" encoding="utf-8"?>
<!-- Generator: Adobe Illustrator 22.1.0, SVG Export Plug-In . SVG Version: 6.00 Build 0)  -->
<svg version="1.1" id="Layer_1" xmlns="http://www.w3.org/2000/svg" xmlns:xlink="http://www.w3.org/1999/xlink" x="0px" y="0px"
	 width="612px" height="792px" viewBox="0 0 612 792" style="enable-background:new 0 0 612 792;" xml:space="preserve">
<style type="text/css">
	.st0{clip-path:url(#SVGID_2_);fill:#542E91;}
	.st1{clip-path:url(#SVGID_2_);}
	.st2{opacity:0.5;clip-path:url(#SVGID_4_);}
	.st3{clip-path:url(#SVGID_6_);fill:#59439A;}
	.st4{clip-path:url(#SVGID_6_);fill:#542E91;}
	.st5{clip-path:url(#SVGID_6_);fill:#401B63;}
	.st6{clip-path:url(#SVGID_6_);fill:#A39CCC;}
	.st7{clip-path:url(#SVGID_6_);fill:#7666AD;}
	.st8{fill:#FFFFFF;}
	.st9{clip-path:url(#SVGID_2_);fill:#FFFFFF;}
	.st10{clip-path:url(#SVGID_8_);fill:#FFFFFF;}
	.st11{fill:#E1E2F2;}
</style>
<g>
	<defs>
		<rect id="SVGID_1_" width="612" height="792"/>
	</defs>
	<clipPath id="SVGID_2_">
		<use xlink:href="#SVGID_1_"  style="overflow:visible;"/>
	</clipPath>
	<rect class="st0" width="612" height="792"/>
	<g class="st1">
		<defs>
			<rect id="SVGID_3_" width="612" height="792"/>
		</defs>
		<clipPath id="SVGID_4_">
			<use xlink:href="#SVGID_3_"  style="overflow:visible;"/>
		</clipPath>
		<g class="st2">
			<g>
				<defs>
					<rect id="SVGID_5_" x="-1095.75" y="-1374.37012" width="2858.62988" height="3173.26025"/>
				</defs>
				<clipPath id="SVGID_6_">
					<use xlink:href="#SVGID_5_"  style="overflow:visible;"/>
				</clipPath>
				<polygon class="st3" points="482.41989,249.53851 1159.03882,922.95654 -200.34109,1797.59448 				"/>
				<polygon class="st4" points="117.0562,-1099.90515 573.20514,-305.65112 434.34818,71.86682 				"/>
				<polygon class="st5" points="116.9973,-1099.94275 434.31427,71.95129 -200.35069,1797.44226 				"/>
				<polygon class="st4" points="434.34009,72.04187 482.37308,249.48389 -200.10193,1796.92981 				"/>
				<polygon class="st6" points="482.45029,249.46698 601.90326,-255.67603 994.60126,428.10199 				"/>
				<polygon class="st7" points="434.36841,71.9541 573.24438,-305.5929 601.85938,-255.74487 482.40741,249.3811 				"/>
				<polygon class="st7" points="482.53049,249.56238 994.65045,428.18637 1246.47839,866.69037 1159.09839,922.9234 				"/>
			</g>
		</g>
	</g>
	<g class="st1">
		<path class="st8" d="M80.62305,104.52979c-0.47217,0.47168-1.23975,0.83398-2.08447,0.83398
			c-0.7793,0-1.54736-0.28564-2.10645-0.83398c-0.84521-0.82275-0.97656-1.96387-0.97656-3.20361s0.13135-2.38086,0.97656-3.20361
			c0.55908-0.54834,1.32715-0.8335,2.10645-0.8335c0.84473,0,1.60156,0.3291,2.07324,0.80078
			c0.44971,0.46045,0.73535,1.05322,0.76807,1.77734h-1.00928c-0.01123-0.42822-0.17578-0.80078-0.42773-1.08643
			c-0.30762-0.33984-0.81201-0.57031-1.4043-0.57031c-0.52686,0-1.04248,0.2085-1.41553,0.59229
			c-0.63623,0.6582-0.6582,1.71143-0.6582,2.52344s0.02197,1.86523,0.6582,2.52344c0.37305,0.38379,0.88867,0.59229,1.41553,0.59229
			c0.59229,0,1.10791-0.25244,1.41504-0.59229c0.25244-0.28516,0.41699-0.69141,0.42773-1.11914h1.00928
			C81.35791,103.45459,81.07275,104.06885,80.62305,104.52979z"/>
		<path class="st8" d="M87.37256,105.20996v-3.5874h-3.72998v3.5874h-0.97656v-7.77832h0.97656v3.24707h3.72998v-3.24707h0.97656
			v7.77832H87.37256z"/>
		<path class="st8" d="M90.28223,105.20996v-7.77832h0.99854v7.77832H90.28223z"/>
		<path class="st8" d="M97.86426,104.52979c-0.47217,0.47168-1.23975,0.83398-2.08447,0.83398
			c-0.7793,0-1.54736-0.28564-2.10645-0.83398c-0.84521-0.82275-0.97656-1.96387-0.97656-3.20361s0.13135-2.38086,0.97656-3.20361
			c0.55908-0.54834,1.32715-0.8335,2.10645-0.8335c0.84473,0,1.60156,0.3291,2.07324,0.80078
			c0.44971,0.46045,0.73535,1.05322,0.76807,1.77734h-1.00928c-0.01123-0.42822-0.17578-0.80078-0.42773-1.08643
			c-0.30762-0.33984-0.81201-0.57031-1.4043-0.57031c-0.52686,0-1.04248,0.2085-1.41553,0.59229
			c-0.63623,0.6582-0.6582,1.71143-0.6582,2.52344s0.02197,1.86523,0.6582,2.52344c0.37305,0.38379,0.88867,0.59229,1.41553,0.59229
			c0.59229,0,1.10791-0.25244,1.41504-0.59229c0.25244-0.28516,0.41699-0.69141,0.42773-1.11914h1.00928
			C98.59912,103.45459,98.31396,104.06885,97.86426,104.52979z"/>
		<path class="st8" d="M104.36133,105.20996l-0.63623-1.84326h-3.37891l-0.62549,1.84326h-0.9873l2.74268-7.77832h1.14111
			l2.75342,7.77832H104.36133z M102.02441,98.40771l-1.37109,4.0376h2.75342L102.02441,98.40771z"/>
		<path class="st8" d="M111.00098,105.20996l-0.16455-0.93262c-0.38379,0.63623-1.23975,1.08643-2.11768,1.08643
			c-0.77881,0-1.53564-0.25244-2.09521-0.80127c-0.79004-0.76758-1.00928-1.84277-1.00928-3.23633
			c0-1.23975,0.16455-2.38086,1.00928-3.20361c0.55957-0.54834,1.31641-0.8335,2.09521-0.8335
			c0.87793,0,1.68994,0.30713,2.22754,0.87744c0.37305,0.39502,0.63623,0.88867,0.66895,1.51416h-1.02002
			c-0.0332-0.3623-0.15381-0.61426-0.35107-0.85596c-0.35107-0.41699-0.88867-0.61426-1.52539-0.61426
			c-0.52637,0-1.04199,0.2085-1.41504,0.59229c-0.63623,0.6582-0.68018,1.71143-0.68018,2.52344
			c0,0.77881,0.05469,1.89795,0.70215,2.55615c0.37305,0.38428,0.8667,0.55957,1.39307,0.55957
			c0.54883,0,1.06445-0.18652,1.41553-0.5376c0.51563-0.50439,0.66943-1.26172,0.66943-1.97461h-2.08496v-0.91064h2.9624v4.19092
			H111.00098z"/>
		<path class="st8" d="M117.99219,104.52979c-0.55957,0.54834-1.31689,0.83398-2.0957,0.83398s-1.53613-0.28564-2.0957-0.83398
			c-0.84473-0.82275-0.99805-1.96387-0.99805-3.20361s0.15332-2.38086,0.99805-3.20361
			c0.55957-0.54834,1.31689-0.8335,2.0957-0.8335s1.53613,0.28516,2.0957,0.8335c0.84473,0.82275,0.99805,1.96387,0.99805,3.20361
			S118.83691,103.70703,117.99219,104.52979z M117.31152,98.80273c-0.37256-0.38379-0.88818-0.58154-1.41504-0.58154
			c-0.52637,0-1.04199,0.19775-1.41504,0.58154c-0.63672,0.6582-0.66943,1.71143-0.66943,2.52344s0.03271,1.86523,0.66943,2.52344
			c0.37305,0.38379,0.88867,0.58154,1.41504,0.58154c0.52686,0,1.04248-0.19775,1.41504-0.58154
			c0.63672-0.6582,0.66943-1.71143,0.66943-2.52344S117.94824,99.46094,117.31152,98.80273z"/>
	</g>
	<g class="st1">
	</g>
	<g class="st1">
		<path class="st8" d="M124.00879,98.33105v2.53418h3.62012v0.92188h-3.62012v3.42285h-0.97656v-7.77832h5.03564v0.89941H124.00879z
			"/>
		<path class="st8" d="M129.21094,105.20996v-7.77832h0.99854v7.77832H129.21094z"/>
		<path class="st8" d="M132.14111,105.20996v-7.77832h5.2002v0.89941h-4.22363v2.36963h3.70801v0.92188h-3.70801v2.68799h4.22363
			v0.89941H132.14111z"/>
		<path class="st8" d="M138.72607,105.20996v-7.77832h0.97656v6.86768h3.74072v0.91064H138.72607z"/>
		<path class="st8" d="M149.18359,104.43115c-0.54883,0.52637-1.28369,0.77881-2.04053,0.77881h-2.70996v-7.77832h2.70996
			c0.75684,0,1.4917,0.26318,2.04053,0.78955c0.85547,0.81201,0.99805,1.9751,0.99805,3.09424
			C150.18164,102.43408,150.02832,103.61914,149.18359,104.43115z M148.52539,98.86865
			c-0.3623-0.36182-0.87793-0.5376-1.38232-0.5376h-1.7334v5.97949h1.7334c0.50439,0,1.02002-0.17578,1.38232-0.5376
			c0.61426-0.62549,0.66895-1.62402,0.66895-2.45752C149.19434,100.48145,149.13965,99.50488,148.52539,98.86865z"/>
	</g>
	<g class="st1">
	</g>
	<g class="st1">
		<path class="st8" d="M159.12695,104.57373c-0.5376,0.52637-1.37109,0.77881-2.20508,0.77881
			c-0.94336,0-1.70068-0.26318-2.22705-0.74609c-0.49365-0.46045-0.83398-1.12988-0.83398-1.86475h1.02051
			c0,0.46045,0.23047,0.92139,0.54834,1.22852c0.35107,0.34033,0.94336,0.48291,1.49219,0.48291
			c0.59229,0,1.09717-0.12109,1.44824-0.4502c0.24121-0.21924,0.39502-0.49365,0.39502-0.91016
			c0-0.60352-0.38428-1.1084-1.30566-1.25098l-1.229-0.18652c-1.1626-0.17529-2.07324-0.82275-2.07324-2.0625
			c0-0.58154,0.26318-1.14111,0.68018-1.53613c0.5376-0.50439,1.22852-0.76758,2.04053-0.76758
			c0.75684,0,1.50293,0.25195,2.01855,0.74561c0.47168,0.4502,0.72412,1.00977,0.74609,1.66797h-1.02002
			c-0.02197-0.38428-0.16455-0.72412-0.38428-0.97656c-0.29639-0.34033-0.76807-0.5376-1.37109-0.5376
			c-0.55957,0-1.04248,0.15381-1.38281,0.5376c-0.19727,0.23047-0.31787,0.49365-0.31787,0.84473
			c0,0.70215,0.58154,1.02051,1.16309,1.09717c0.43848,0.05469,0.8667,0.13184,1.29443,0.19727
			c1.29443,0.18652,2.16113,0.97656,2.16113,2.20557C159.78516,103.71777,159.51074,104.20068,159.12695,104.57373z"/>
		<path class="st8" d="M163.28711,98.34229v6.86768h-0.9873v-6.86768h-2.31494v-0.91064h5.61719v0.91064H163.28711z"/>
		<path class="st8" d="M169.19189,105.35254c-1.74463,0-2.84131-1.05322-2.84131-2.99512v-4.92578h0.97607v4.94775
			c0,1.23975,0.51563,2.0625,1.86523,2.0625s1.86523-0.82275,1.86523-2.0625v-4.94775h0.97607v4.92578
			C172.0332,104.29932,170.93604,105.35254,169.19189,105.35254z"/>
		<path class="st8" d="M178.49756,104.43115c-0.54883,0.52637-1.28369,0.77881-2.04053,0.77881h-2.70996v-7.77832h2.70996
			c0.75684,0,1.4917,0.26318,2.04053,0.78955c0.85547,0.81201,0.99854,1.9751,0.99854,3.09424
			C179.49609,102.43408,179.34229,103.61914,178.49756,104.43115z M177.83936,98.86865
			c-0.3623-0.36182-0.87793-0.5376-1.38232-0.5376h-1.7334v5.97949h1.7334c0.50439,0,1.02002-0.17578,1.38232-0.5376
			c0.61426-0.62549,0.66895-1.62402,0.66895-2.45752C178.5083,100.48145,178.45361,99.50488,177.83936,98.86865z"/>
		<path class="st8" d="M180.91357,105.20996v-7.77832h0.99854v7.77832H180.91357z"/>
		<path class="st8" d="M183.84375,105.20996v-7.77832h5.2002v0.89941h-4.22363v2.36963h3.70801v0.92188h-3.70801v2.68799h4.22363
			v0.89941H183.84375z"/>
		<path class="st8" d="M195.03662,104.57373c-0.5376,0.52637-1.37158,0.77881-2.20508,0.77881
			c-0.94336,0-1.70068-0.26318-2.22705-0.74609c-0.49365-0.46045-0.83398-1.12988-0.83398-1.86475h1.02051
			c0,0.46045,0.23047,0.92139,0.54834,1.22852c0.35107,0.34033,0.94336,0.48291,1.49219,0.48291
			c0.59229,0,1.09717-0.12109,1.44824-0.4502c0.24121-0.21924,0.39502-0.49365,0.39502-0.91016
			c0-0.60352-0.38428-1.1084-1.30566-1.25098l-1.229-0.18652c-1.1626-0.17529-2.07324-0.82275-2.07324-2.0625
			c0-0.58154,0.26318-1.14111,0.68018-1.53613c0.5376-0.50439,1.22852-0.76758,2.04053-0.76758
			c0.75684,0,1.50293,0.25195,2.01855,0.74561c0.47168,0.4502,0.72412,1.00977,0.74609,1.66797h-1.02002
			c-0.02197-0.38428-0.16504-0.72412-0.38428-0.97656c-0.29639-0.34033-0.76807-0.5376-1.37109-0.5376
			c-0.55957,0-1.04248,0.15381-1.38281,0.5376c-0.19727,0.23047-0.31787,0.49365-0.31787,0.84473
			c0,0.70215,0.58154,1.02051,1.16309,1.09717c0.43848,0.05469,0.8667,0.13184,1.29443,0.19727
			c1.29443,0.18652,2.16113,0.97656,2.16113,2.20557C195.69482,103.71777,195.4209,104.20068,195.03662,104.57373z"/>
	</g>
	<rect x="75.735" y="92.841" class="st9" width="119.616" height="0.70801"/>
	<polygon class="st9" points="75.8863,73.02972 75.8863,73.57776 77.25829,75.11774 77.25829,85.69476 75.4053,86.21173 
		75.4053,86.83173 80.42229,86.83173 80.42229,86.20776 78.84129,85.78973 78.43829,85.29376 78.43829,76.46777 87.23129,86.93677 
		88.00529,86.93677 88.00529,74.35773 89.86729,73.79376 89.86729,73.13678 84.7763,73.13678 84.7763,73.87677 86.39429,74.28278 
		86.7883,74.77875 86.7883,83.13977 86.78429,83.12878 86.6813,83.12878 78.14829,73.02972 	"/>
	<g class="st1">
		<defs>
			<rect id="SVGID_7_" x="72" y="72" width="131.576" height="37.81299"/>
		</defs>
		<clipPath id="SVGID_8_">
			<use xlink:href="#SVGID_7_"  style="overflow:visible;"/>
		</clipPath>
		<path class="st10" d="M94.7141,87.06134c-2.483,0-4.862-1.59302-4.862-4.98602c0-3.37201,2.524-5.06903,4.862-5.06903
			c2.441,0,4.903,1.53101,4.903,4.90302C99.6171,85.15729,97.01009,87.06134,94.7141,87.06134 M97.6931,82.19928
			c0-2.31696-1.262-4.28198-3.248-4.28198c-1.779,0-2.669,1.55103-2.669,3.86804c0,2.31696,1.117,4.34497,3.20699,4.34497
			C96.76209,86.13031,97.6931,84.5163,97.6931,82.19928"/>
		<path class="st10" d="M124.5875,81.20618c0-2.31696-1.303-2.77197-2.814-2.77197c-1.282,0-2.11,0.95099-2.11,0.95099
			l0.001,1.53204v4.42798l0.396,0.49701l1.337,0.46698l0.003,0.52399h-4.817v-0.53796l1.36501-0.51703l-0.00201-9.97198
			c0-1.80402-0.45499-2.29602-1.448-2.29602v-0.47601l3.062-1.034h0.20699c0,0-0.104,2.13104-0.104,3.724v2.875
			c0,0,1.986-1.59296,3.352-1.59296c1.696,0,3.26801,0.70398,3.26801,3.20697l-0.001,5.13202l0.395,0.49701l1.33799,0.46698
			l0.00301,0.52399h-4.81699v-0.53796l1.324-0.50299L124.5875,81.20618z"/>
		<path class="st10" d="M144.1297,81.51654c0,2.87604,1.63399,4.07605,3.49599,4.07605c1.15901,0,2.54501-0.47601,2.54501-0.47601
			l0.20699,0.39301c-0.49699,0.49597-1.883,1.55096-3.62099,1.55096c-2.358,0-4.468-1.758-4.468-4.98499
			c0-2.93799,2.02699-5.06903,4.55099-5.06903c1.965,0,3.496,1.17902,3.496,3.414c0,0.57904-0.103,1.09601-0.103,1.09601H144.1297z
			 M147.1707,80.73053c0.993-0.04095,1.34499-0.22699,1.34499-1.24097c0-0.86902-0.62099-1.53101-1.94499-1.53101
			c-1.386,0-2.44099,1.22003-2.44099,2.875L147.1707,80.73053z"/>
		<path class="st10" d="M152.60851,86.68848c-0.145-0.06195-0.51701-0.26898-0.53801-0.70294l-0.12399-1.966h0.90999
			c0.248,1.34497,1.15901,2.21399,2.33801,2.21399c1.2,0,1.67599-0.62103,1.67599-1.448c0-0.78601-0.642-1.20001-1.42799-1.61401
			l-1.05501-0.53802c-1.50999-0.76495-2.255-1.38599-2.255-2.87598c0-1.86102,1.345-2.75098,3.43401-2.75098
			c1.46899,0,2.60699,0.55896,2.60699,0.55896l-0.269,2.42004h-0.84799c0-1.51001-0.621-2.06903-1.88301-2.06903
			c-0.84799,0-1.63399,0.33099-1.63399,1.159c0,0.66199,0.269,0.95203,1.903,1.79999l0.931,0.47601
			c1.69699,0.86902,2.172,1.59302,2.172,2.99902c0,1.69696-1.696,2.70996-3.351,2.70996
			C154.1395,87.06049,153.2085,86.93652,152.60851,86.68848"/>
		<path class="st10" d="M168.87511,81.51654c0,2.87604,1.63399,4.07605,3.49599,4.07605c1.15901,0,2.54501-0.47601,2.54501-0.47601
			l0.20699,0.39301c-0.49699,0.49597-1.883,1.55096-3.62099,1.55096c-2.358,0-4.468-1.758-4.468-4.98499
			c0-2.93799,2.02699-5.06903,4.55099-5.06903c1.965,0,3.496,1.17902,3.496,3.414c0,0.57904-0.103,1.09601-0.103,1.09601H168.87511z
			 M171.91611,80.73053c0.993-0.04095,1.34499-0.22699,1.34499-1.24097c0-0.86902-0.62099-1.53101-1.94499-1.53101
			c-1.386,0-2.44099,1.22003-2.44099,2.875L171.91611,80.73053z"/>
		<path class="st10" d="M194.3425,85.84253l-0.39601-0.49799l0.02-5.23499c0-2.41998-1.57201-3.10303-3.186-3.10303
			c-1.36499,0-3.289,1.59302-3.289,1.59302c0-0.86902,0.041-1.65497,0.041-1.65497h-0.16499l-3.021,1.09698v0.49597
			c1.159,0,1.46899,1.034,1.46899,2.896v4.34503l-1.36501,0.51697v0.53802h4.75601l0.03799-0.52399l-1.338-0.46704l-0.395-0.49799
			l0.00101-5.93799c0,0,0.724-0.97198,2.02699-0.97198c1.345,0,2.731,0.47498,2.731,2.77197l-0.064,4.591l-1.321,0.49799v0.53802
			h4.75699l0.03801-0.52399L194.3425,85.84253z"/>
		<path class="st10" d="M136.9213,86.93683l-2.216-6.14496l-2.54001,6.14496h-0.868l-2.495-7.59198
			c-0.35201-0.95197-0.55301-1.51099-1.215-1.51099v-0.57898h4.084v0.58496l-1.244,0.40802l1.862,6.289l1.63499-3.92999
			l0.38-0.99799l-0.561-1.599l-0.709-0.17603v-0.57898h3.94901v0.61896l-1.24501,0.37402l2.099,6.289l2.179-6.24799
			l-1.40599-0.49603v-0.53796h3.703v0.57898c-0.849,0.104-1.26201,0.33099-1.92401,2.02802l-2.493,7.07495H136.9213z"/>
		<path class="st10" d="M115.4376,85.40588c0,0-0.579,0.37201-1.44801,0.37201c-0.931,0-1.779-0.51697-1.759-1.79999l0.083-5.41998
			h3.062v-0.00104h0.028l0.041-0.336h0.002l0.207-1.69897l-0.394-0.07098l-0.29601,0.64899l-0.169,0.14203l-2.434,0.09399v0.00098
			l-0.026,0.00098v-2.46198l-1.2,0.20697l-0.51701,2.33704l-1.697,0.16602v0.80701c0.931,0,1.697,0.08295,1.697,0.97198
			c0,0.89001-0.08299,3.68201-0.08299,4.79999c0,2.10999,0.807,2.896,2.15199,2.896c1.158,0,2.11-0.47601,2.979-1.17902
			L115.4376,85.40588z"/>
		<path class="st10" d="M166.0853,85.40588c0,0-0.57901,0.37201-1.44801,0.37201c-0.931,0-1.77899-0.51697-1.75899-1.79999
			l0.08299-5.41998h3.062v-0.00104h0.006l0.041-0.336h0.00201l0.20599-1.69897l-0.39301-0.07098l-0.29599,0.64899l-0.16901,0.14203
			l-2.43401,0.09399v0.00195h-0.004v-2.46198l-1.2,0.20697l-0.517,2.33704l-1.69701,0.16602v0.80701
			c0.931,0,1.69701,0.08295,1.69701,0.97198c0,0.89001-0.08299,3.68201-0.08299,4.79999c0,2.10999,0.80699,2.896,2.15199,2.896
			c1.158,0,2.11-0.47601,2.979-1.17902L166.0853,85.40588z"/>
		<path class="st10" d="M107.736,77.13068L107.736,77.13068h-0.00101c-0.00999-0.00397-0.361-0.12396-1.033-0.12396
			c-1.449,0-2.959,2.276-2.959,2.276c0-1.26202,0.042-2.33801,0.042-2.33801h-0.166l-2.958,1.09601v0.49701
			c1.117,0,1.468,1.013,1.468,2.73096v4.51001l-1.365,0.51703v0.53796h4.756l-0.002-0.52399l-1.33801-0.46698l-0.395-0.49799
			v-4.42804c0-1.36597,1.075-2.13098,2.234-2.13098c0.237,0,0.48,0.05902,0.688,0.12903l0.32401,0.47797l0.39899,0.03198
			L107.736,77.13068z"/>
		<path class="st10" d="M183.4021,77.13068L183.4021,77.13068h-0.00101c-0.00999-0.00397-0.36101-0.12396-1.033-0.12396
			c-1.44899,0-2.959,2.276-2.959,2.276c0-1.26202,0.04201-2.33801,0.04201-2.33801h-0.166l-2.95801,1.09601v0.49701
			c1.117,0,1.46901,1.013,1.46901,2.73096v4.51001l-1.366,0.51703v0.53796h4.75699l-0.00299-0.52399l-1.33801-0.46698
			l-0.39499-0.49799v-4.42804c0-1.36597,1.075-2.13098,2.23399-2.13098c0.237,0,0.48,0.05902,0.688,0.12903l0.32401,0.47797
			l0.39899,0.03198L183.4021,77.13068z"/>
	</g>
	<g class="st1">
		<path class="st8" d="M92.97607,268.78467h4.21533c-1.08789,5.71143-5.43945,9.45117-11.25293,9.45117
			c-6.66309,0-12.03467-5.06543-12.03467-12.03467c0-6.96973,5.37158-12.03516,12.03467-12.03516
			c5.81348,0,10.16504,3.73975,11.25293,9.45117h-4.21533c-0.88428-3.50146-3.3999-5.5415-7.0376-5.5415
			c-4.52148,0-7.88721,3.33154-7.88721,8.12549c0,4.79346,3.36572,8.125,7.88721,8.125
			C89.57617,274.32617,92.0918,272.28613,92.97607,268.78467z"/>
		<path class="st8" d="M117.49023,268.88672v8.87305h-3.90967v-8.63525c0-2.82178-1.49609-4.38525-3.94385-4.38525
			c-1.39355,0-2.92383,0.81592-4.14746,2.31152v10.70898h-3.94336v-24.1377h3.94336v9.3833
			c1.39404-1.15576,3.02588-1.83594,4.96338-1.83594C114.66846,261.16943,117.49023,264.229,117.49023,268.88672z"/>
		<path class="st8" d="M121.87695,255.86621c0-1.39404,1.08789-2.41406,2.44775-2.41406s2.44775,1.02002,2.44775,2.41406
			c0,1.32568-1.08789,2.3457-2.44775,2.3457S121.87695,257.19189,121.87695,255.86621z M126.29639,261.6792v16.08057h-3.90967
			V261.6792H126.29639z"/>
		<path class="st8" d="M142.95557,271.74219h4.01172c-0.50977,3.80762-3.80762,6.3916-7.88721,6.3916
			c-4.82764,0-8.5332-3.6377-8.5332-8.39746c0-4.79346,3.70557-8.43066,8.5332-8.43066c4.07959,0,7.37744,2.61768,7.88721,6.39111
			h-4.01172c-0.37402-1.69971-1.86963-2.82178-3.87549-2.82178c-2.7876,0-4.62354,2.1416-4.62354,4.86133
			s1.83594,4.86182,4.62354,4.86182C141.08594,274.59814,142.58154,273.47607,142.95557,271.74219z"/>
		<path class="st8" d="M167.09521,261.6792v16.08057h-3.90967v-1.12207c-1.32568,0.95215-2.99121,1.49609-4.9292,1.49609
			c-4.48779,0-8.09131-3.73975-8.09131-8.39746c0-4.69141,3.60352-8.43066,8.09131-8.43066
			c1.93799,0,3.60352,0.54395,4.9292,1.49561v-1.12207H167.09521z M163.18555,272.45605v-5.47314
			c-1.12158-1.66602-2.68555-2.27783-4.35156-2.27783c-2.75342,0-4.75928,2.3457-4.75928,5.03125
			c0,2.65186,2.00586,4.99756,4.75928,4.99756C160.5,274.73389,162.06396,274.12207,163.18555,272.45605z"/>
		<path class="st8" d="M188.31104,261.6792v16.08057c0,4.99756-3.39941,8.02344-8.15918,8.02344
			c-4.52148,0-7.9209-2.75391-8.29492-6.66357h3.97754c0.27197,1.83594,1.86963,3.09375,4.31738,3.09375
			s4.24951-1.59814,4.24951-4.45361v-1.90381c-1.32568,0.95166-3.02539,1.49561-4.96338,1.49561
			c-4.4873,0-8.05713-3.70557-8.05713-7.95508c0-4.79346,3.56982-8.22705,8.05713-8.22705c1.93799,0,3.6377,0.54395,4.96338,1.49561
			v-0.98584H188.31104z M184.40137,271.67432v-4.82764c-1.12158-1.66553-2.75342-2.27734-4.38525-2.27734
			c-2.7876,0-4.72559,2.03955-4.72559,4.82715c0,2.24414,1.93799,4.58984,4.72559,4.58984
			C181.64795,273.98633,183.27979,273.34033,184.40137,271.67432z"/>
		<path class="st8" d="M209.39063,269.73633c0,4.89551-3.67139,8.5332-8.53271,8.5332c-4.89551,0-8.56738-3.6377-8.56738-8.5332
			c0-4.86133,3.67188-8.43066,8.56738-8.43066C205.71924,261.30566,209.39063,264.875,209.39063,269.73633z M205.48145,269.73633
			c0-2.71973-1.87012-4.86133-4.62354-4.86133c-2.78809,0-4.65771,2.1416-4.65771,4.86133
			c0,2.75391,1.86963,4.96387,4.65771,4.96387C203.61133,274.7002,205.48145,272.49023,205.48145,269.73633z"/>
		<path class="st8" d="M227.20703,265.0791h10.94727v3.77344h-10.94727v8.90723h-4.0791v-23.11768h16.52197v3.77344h-12.44287
			V265.0791z"/>
		<path class="st8" d="M242.91504,255.86621c0-1.39404,1.08789-2.41406,2.44775-2.41406s2.44775,1.02002,2.44775,2.41406
			c0,1.32568-1.08789,2.3457-2.44775,2.3457S242.91504,257.19189,242.91504,255.86621z M247.33447,261.6792v16.08057h-3.90967
			V261.6792H247.33447z"/>
		<path class="st8" d="M267.86914,270.75635h-0.03369h-12.44287c0.33984,2.27783,1.90381,4.0459,4.82764,4.0459
			c1.56396,0,2.68555-0.51025,3.26367-1.49609h4.18164c-0.91797,2.95752-3.87549,4.96338-7.54736,4.96338
			c-5.1333,0-8.56738-3.77344-8.56738-8.5332c0-4.9292,3.43408-8.56689,8.46533-8.56689c4.55566,0,7.92139,3.33154,7.95508,8.29541
			C267.97119,270.04248,267.9375,270.34863,267.86914,270.75635z M255.46045,268.34277h8.5332
			c-0.27197-2.37988-1.69971-3.8418-3.97754-3.8418C257.39844,264.50098,255.90234,266.13281,255.46045,268.34277z"/>
		<path class="st8" d="M275.92822,277.75977h-3.94385v-24.1377h3.94385V277.75977z"/>
		<path class="st8" d="M296.87061,277.75977h-3.90967V276.604c-1.32568,0.98584-2.99121,1.52979-4.9292,1.52979
			c-4.48779,0-8.09131-3.73975-8.09131-8.43115c0-4.65771,3.60352-8.39697,8.09131-8.39697
			c1.93799,0,3.60352,0.54395,4.9292,1.49561v-9.1792h3.90967V277.75977z M292.96094,272.45605v-5.50732
			c-1.12158-1.63184-2.68555-2.24365-4.35156-2.24365c-2.75342,0-4.75928,2.3457-4.75928,4.99756
			c0,2.68555,2.00586,5.03125,4.75928,5.03125C290.27539,274.73389,291.83936,274.12207,292.96094,272.45605z"/>
		<path class="st8" d="M329.51074,261.47559h-4.0459c-0.37402-2.31201-1.9043-3.8418-5.06543-3.8418
			c-2.78809,0-4.58984,1.25781-4.58984,3.36572c0,1.76758,1.32617,2.61768,3.74023,3.09375l2.92285,0.57764
			c4.41992,0.88428,6.93555,2.65186,6.93555,6.35742c0,4.31787-3.56934,7.20752-8.94141,7.20752
			c-5.67676,0-9.51855-3.06006-9.92676-8.02344h4.0459c0.4082,2.71973,2.65137,4.41943,6.11914,4.41943
			c2.82227,0,4.52148-1.18945,4.52148-3.12744c0-1.22412-0.78125-2.41357-3.39941-2.85596l-3.80762-0.74756
			c-4.4873-0.8501-6.52734-3.12793-6.52734-6.56152c0-4.31738,3.43359-7.20703,8.63477-7.20703
			C324.20703,254.13232,328.9668,255.8999,329.51074,261.47559z"/>
		<path class="st8" d="M345.45605,277.58984c-1.80176,0.54395-2.61719,0.67969-4.01074,0.67969
			c-3.8418,0-6.22168-2.5498-6.22168-6.69727v-6.59521h-3.67188v-3.29785h3.67188v-5.88135h3.90918v5.88135h5.94922v3.29785
			h-5.94922v6.59521c0,2.14209,1.15625,3.05957,3.05957,3.05957c0.88379,0,1.87012-0.16992,2.71973-0.40771L345.45605,277.58984z"/>
		<path class="st8" d="M364.76758,277.75977h-3.90918v-1.35986c-1.39453,1.18994-3.02637,1.86963-4.99805,1.86963
			c-4.21484,0-7.03711-3.05957-7.03711-7.7168v-8.87354h3.91016v8.63525c0,2.7876,1.49512,4.38574,3.94336,4.38574
			c1.42773,0,2.95801-0.8501,4.18164-2.37988V261.6792h3.90918V277.75977z"/>
		<path class="st8" d="M385.88184,277.75977h-3.90918V276.604c-1.32617,0.98584-2.99219,1.52979-4.92969,1.52979
			c-4.4873,0-8.09082-3.73975-8.09082-8.43115c0-4.65771,3.60352-8.39697,8.09082-8.39697c1.9375,0,3.60352,0.54395,4.92969,1.49561
			v-9.1792h3.90918V277.75977z M381.97266,272.45605v-5.50732c-1.12207-1.63184-2.68555-2.24365-4.35156-2.24365
			c-2.75391,0-4.75977,2.3457-4.75977,4.99756c0,2.68555,2.00586,5.03125,4.75977,5.03125
			C379.28711,274.73389,380.85059,274.12207,381.97266,272.45605z"/>
		<path class="st8" d="M390.5752,255.86621c0-1.39404,1.08789-2.41406,2.44727-2.41406c1.36035,0,2.44824,1.02002,2.44824,2.41406
			c0,1.32568-1.08789,2.3457-2.44824,2.3457C391.66309,258.21191,390.5752,257.19189,390.5752,255.86621z M394.99414,261.6792
			v16.08057h-3.90918V261.6792H394.99414z"/>
		<path class="st8" d="M415.5293,270.75635h-0.03418h-12.44238c0.33984,2.27783,1.90332,4.0459,4.82715,4.0459
			c1.56348,0,2.68555-0.51025,3.26367-1.49609h4.18164c-0.91797,2.95752-3.87598,4.96338-7.54785,4.96338
			c-5.13281,0-8.56641-3.77344-8.56641-8.5332c0-4.9292,3.43359-8.56689,8.46484-8.56689c4.55566,0,7.9209,3.33154,7.95508,8.29541
			C415.63086,270.04248,415.59668,270.34863,415.5293,270.75635z M403.12012,268.34277h8.5332
			c-0.27148-2.37988-1.7002-3.8418-3.97754-3.8418C405.05859,264.50098,403.5625,266.13281,403.12012,268.34277z"/>
		<path class="st8" d="M422.12598,272.35449c0.34082,1.90381,1.76855,2.71973,3.94434,2.71973
			c1.90332,0,3.22949-0.68018,3.22949-1.76807c0-0.8501-0.67969-1.46191-1.93848-1.69971l-3.50098-0.57813
			c-2.44824-0.44189-4.75977-1.69971-4.75977-4.62354c0-3.22949,2.75391-5.16748,6.76563-5.16748
			c2.75391,0,6.73145,0.95215,7.10547,5.3374l-3.6377,0.03418c-0.13672-1.63184-1.63184-2.3457-3.46777-2.3457
			c-1.9043,0-2.88965,0.78174-2.88965,1.73389c0,0.78174,0.54395,1.52979,2.27734,1.83594l2.99219,0.47559
			c2.44727,0.44189,4.79297,1.52979,4.79297,4.65771c0,3.43359-3.02539,5.30322-7.07129,5.30322
			c-3.67188,0-7.07129-1.52979-7.44531-5.94922L422.12598,272.35449z"/>
	</g>
	<g class="st1">
	</g>
	<g class="st1">
		<path class="st8" d="M94.40381,307.34033c0,3.84131-3.09375,6.42529-8.26123,6.42529H74.04004v-23.11768h11.42285
			c4.99707,0,7.9209,2.37988,7.9209,6.15332c0,2.14209-1.18994,4.35156-3.1958,5.06543
			C93.00977,302.47852,94.40381,304.8584,94.40381,307.34033z M79.78516,300.06494h4.75977
			c2.17578,0,3.36523-0.98584,3.36523-2.48193c0-1.46143-1.15576-2.24365-3.36523-2.24365h-4.75977V300.06494z M85.36084,309.00586
			c2.37939,0,3.43359-1.05371,3.43359-2.41357c0-1.42773-1.18994-2.1416-3.29785-2.1416h-5.71143v4.55518H85.36084z"/>
		<path class="st8" d="M109.02441,302.24072c-2.68604,0.10205-4.38574,0.81592-5.67773,2.07373v9.45117h-5.5415v-16.48828h5.5415
			v1.76758c1.46191-1.25781,3.22998-2.03955,5.67773-2.03955V302.24072z"/>
		<path class="st8" d="M129.0835,297.27734v16.48828h-5.50781v-0.91797c-1.22363,0.78223-2.68555,1.25781-4.52148,1.25781
			c-4.45361,0-8.19287-3.70557-8.19287-8.60107c0-4.9292,3.73926-8.60107,8.19287-8.60107
			c1.83594,0,3.29785,0.47607,4.52148,1.25781v-0.88379H129.0835z M123.57568,308.0542v-5.1333
			c-1.05371-1.15625-2.20947-1.53027-3.39941-1.53027c-2.24365,0-3.90967,1.83594-3.90967,4.11377s1.66602,4.07959,3.90967,4.07959
			C121.36621,309.58398,122.52197,309.24414,123.57568,308.0542z"/>
		<path class="st8" d="M150.19678,304.34863v9.41699h-5.50732v-8.5332c0-2.3457-1.18994-3.46777-3.02588-3.46777
			c-0.98584,0-2.03955,0.54395-2.9917,1.63184v10.36914h-5.5415v-16.48828h5.5415v1.08789
			c1.32617-1.02002,2.75391-1.59766,4.52148-1.59766C147.34131,296.76758,150.19678,299.65723,150.19678,304.34863z"/>
		<path class="st8" d="M171.37891,313.76563h-5.50781v-0.8501c-1.22363,0.78223-2.68555,1.2583-4.52148,1.2583
			c-4.45361,0-8.19287-3.70605-8.19287-8.63525c0-4.89551,3.73926-8.56738,8.19287-8.56738
			c1.83594,0,3.29785,0.47607,4.52148,1.25781v-8.60107h5.50781V313.76563z M165.87109,308.12207v-5.1333
			c-1.05371-1.15576-2.20947-1.52979-3.39941-1.52979c-2.24365,0-3.90967,1.83594-3.90967,4.07959
			c0,2.31152,1.66602,4.11328,3.90967,4.11328C163.66162,309.65186,164.81738,309.31201,165.87109,308.12207z"/>
		<path class="st8" d="M207.04297,313.76563h-4.2832l-0.23828-2.7876c-1.66602,2.03955-4.07959,3.26367-7.30908,3.26367
			c-7.24121,0-12.30713-5.16748-12.30713-11.79688c0-7.20752,5.30371-12.27295,12.34082-12.27295
			c5.67773,0,10.57324,3.1958,11.55908,8.70313h-6.05127c-0.98633-2.68555-3.29785-3.43359-5.37158-3.43359
			c-3.97754,0-6.66357,2.7876-6.66357,6.86719c0,3.6377,2.61816,6.5957,6.69727,6.5957c2.68604,0,4.72559-1.32617,5.88184-3.53564
			l-6.62939-0.06836v-4.52148h12.37451V313.76563z"/>
		<path class="st8" d="M227.9873,313.76563h-5.50732v-1.08789c-1.32568,1.02002-2.75342,1.59766-4.52148,1.59766
			c-4.18164,0-7.03711-2.88965-7.03711-7.58105v-9.41699h5.50732v8.56689c0,2.34619,1.22363,3.46777,3.02539,3.46777
			c1.02002,0,2.07422-0.57764,3.02588-1.63184v-10.40283h5.50732V313.76563z"/>
		<path class="st8" d="M231.69531,291.59961c0-1.80176,1.42773-3.12744,3.22949-3.12744c1.76758,0,3.22949,1.32568,3.22949,3.12744
			c0,1.76807-1.46191,3.09375-3.22949,3.09375C233.12305,294.69336,231.69531,293.36768,231.69531,291.59961z M237.7124,297.27734
			v16.48828h-5.50732v-16.48828H237.7124z"/>
		<path class="st8" d="M259.26709,313.76563h-5.50781v-0.8501c-1.22363,0.78223-2.68555,1.2583-4.52148,1.2583
			c-4.45361,0-8.19287-3.70605-8.19287-8.63525c0-4.89551,3.73926-8.56738,8.19287-8.56738
			c1.83594,0,3.29785,0.47607,4.52148,1.25781v-8.60107h5.50781V313.76563z M253.75928,308.12207v-5.1333
			c-1.05371-1.15576-2.20947-1.52979-3.39941-1.52979c-2.24365,0-3.90967,1.83594-3.90967,4.07959
			c0,2.31152,1.66602,4.11328,3.90967,4.11328C251.5498,309.65186,252.70557,309.31201,253.75928,308.12207z"/>
		<path class="st8" d="M279.59863,306.86426h-11.729c0.37402,1.63184,1.46191,2.92383,3.70557,2.92383
			c1.15625,0,2.04004-0.44189,2.51611-1.18994h5.47314c-0.81592,3.3999-3.97754,5.64355-8.05713,5.64355
			c-5.40527,0-9.00879-3.70557-9.00879-8.7373c0-5.09961,3.50146-8.73682,8.73682-8.73682
			c4.82764,0,8.46533,3.29736,8.46533,8.39697C279.70068,305.81055,279.6665,306.35449,279.59863,306.86426z M267.90381,303.80469
			h6.52734c-0.30615-1.87012-1.39404-2.7876-3.09375-2.7876C269.43359,301.01709,268.31152,302.10498,267.90381,303.80469z"/>
		<path class="st8" d="M288.50781,313.76563h-5.5415v-24.1377h5.5415V313.76563z"/>
		<path class="st8" d="M292.17969,291.59961c0-1.80176,1.42822-3.12744,3.22998-3.12744c1.76758,0,3.22949,1.32568,3.22949,3.12744
			c0,1.76807-1.46191,3.09375-3.22949,3.09375C293.60791,294.69336,292.17969,293.36768,292.17969,291.59961z M298.19727,297.27734
			v16.48828h-5.50732v-16.48828H298.19727z"/>
		<path class="st8" d="M319.44629,304.34863v9.41699h-5.50781v-8.5332c0-2.3457-1.19043-3.46777-3.02539-3.46777
			c-0.98633,0-2.04004,0.54395-2.99219,1.63184v10.36914h-5.5415v-16.48828h5.5415v1.08789
			c1.32617-1.02002,2.75391-1.59766,4.52148-1.59766C316.58984,296.76758,319.44629,299.65723,319.44629,304.34863z"/>
		<path class="st8" d="M339.50586,306.86426h-11.72949c0.37402,1.63184,1.46191,2.92383,3.70605,2.92383
			c1.15527,0,2.03906-0.44189,2.51563-1.18994h5.47363c-0.81641,3.3999-3.97754,5.64355-8.05762,5.64355
			c-5.40527,0-9.00879-3.70557-9.00879-8.7373c0-5.09961,3.50098-8.73682,8.7373-8.73682c4.82715,0,8.46484,3.29736,8.46484,8.39697
			C339.60742,305.81055,339.57324,306.35449,339.50586,306.86426z M327.81055,303.80469h6.52734
			c-0.30566-1.87012-1.39355-2.7876-3.09375-2.7876C329.34082,301.01709,328.21875,302.10498,327.81055,303.80469z"/>
		<path class="st8" d="M346.64746,308.12207c0.23828,1.42773,1.39355,2.10791,3.16113,2.10791
			c1.42871,0,2.3457-0.44189,2.3457-1.18994c0-0.54395-0.47559-0.95166-1.49512-1.12207l-3.43359-0.61182
			c-2.82227-0.44189-4.8623-2.07373-4.8623-4.9292c0-3.50195,2.99219-5.5415,7.37793-5.5415
			c3.50098,0,7.44531,1.35986,7.7168,5.71143h-4.92969c-0.10156-1.25781-1.3252-1.90381-2.78711-1.90381
			c-1.39355,0-2.07422,0.54395-2.07422,1.22363c0,0.54395,0.4082,1.08789,1.73438,1.32617l3.05957,0.50977
			c3.09375,0.57813,5.16699,1.93799,5.16699,4.89551c0,3.80762-3.33105,5.67725-7.75098,5.67725
			c-4.2832,0-7.78516-1.80176-8.125-6.18701L346.64746,308.12207z"/>
	</g>
	<g class="st1">
		<path class="st11" d="M97.12061,617.96191h-1.98877l-3.29199-9.93164h1.91895l2.40918,7.57813l2.39551-7.57813h1.8208
			L97.12061,617.96191z"/>
		<path class="st11" d="M106.86523,614.86621h-4.87451c-0.01416,0.56055,0.18213,1.09277,0.53223,1.42871
			c0.25244,0.23828,0.60254,0.44824,1.07861,0.44824c0.50439,0,0.8125-0.09766,1.06445-0.35059
			c0.1543-0.15332,0.28027-0.34961,0.35059-0.61621h1.68066c-0.04199,0.43457-0.33594,1.00879-0.61621,1.34473
			c-0.61621,0.72852-1.52686,1.02246-2.45117,1.02246c-0.99463,0-1.72314-0.34961-2.29736-0.89648
			c-0.72852-0.7002-1.12061-1.72266-1.12061-2.91309c0-1.16309,0.3501-2.19922,1.05029-2.91406
			c0.54639-0.55957,1.33105-0.92383,2.32568-0.92383c1.07813,0,2.05908,0.43359,2.66113,1.34473
			c0.53223,0.79785,0.6582,1.625,0.63037,2.53516C106.87939,614.37598,106.86523,614.71191,106.86523,614.86621z
			 M104.68018,612.31641c-0.23779-0.25195-0.60205-0.41992-1.10645-0.41992c-0.53223,0-0.9668,0.22461-1.21875,0.56055
			c-0.25195,0.32227-0.36426,0.6582-0.37842,1.13477h3.15186C105.11426,613.04492,104.96045,612.625,104.68018,612.31641z"/>
		<path class="st11" d="M111.89014,612.23242c-1.23242,0-1.87695,0.88281-1.87695,2.05957v3.66992h-1.76465v-7.28418h1.48486
			l0.15381,1.09277c0.33643-0.84082,1.20459-1.19043,2.05908-1.19043c0.18213,0,0.36426,0.01367,0.54639,0.04199v1.68066
			C112.29639,612.26074,112.08643,612.23242,111.89014,612.23242z"/>
		<path class="st11" d="M118.40039,617.30371c-0.58789,0.58789-1.49854,0.83984-2.49316,0.83984
			c-0.92432,0-1.75098-0.26563-2.35303-0.83984c-0.42041-0.40625-0.77051-1.00879-0.77051-1.69531h1.63867
			c0,0.32227,0.16797,0.67285,0.39209,0.85449c0.28027,0.22461,0.60254,0.32227,1.10693,0.32227
			c0.58838,0,1.48486-0.12598,1.48486-0.9248c0-0.41992-0.28027-0.7002-0.72852-0.76953
			c-0.64453-0.09863-1.37305-0.14063-2.01709-0.28027c-0.99463-0.21094-1.66699-1.02246-1.66699-1.94727
			c0-0.74219,0.30811-1.26074,0.74268-1.63867c0.53223-0.46289,1.30225-0.72852,2.21289-0.72852
			c0.86865,0,1.75098,0.28027,2.2832,0.85449c0.39209,0.41992,0.64453,0.96582,0.64453,1.49902h-1.66699
			c0-0.28027-0.12598-0.50488-0.29395-0.68652c-0.21045-0.20996-0.58838-0.33691-0.95264-0.33691
			c-0.25244,0-0.49023,0-0.75635,0.1123c-0.30811,0.12598-0.56055,0.39258-0.56055,0.77051
			c0,0.51855,0.44824,0.67285,0.84033,0.72852c0.65869,0.08398,0.84082,0.09766,1.55518,0.20996
			c1.14844,0.18262,1.98877,0.91016,1.98877,2.05957C119.03076,616.40723,118.77881,616.92578,118.40039,617.30371z"/>
		<path class="st11" d="M120.37158,609.66992v-1.80762h1.87695v1.80762H120.37158z M120.42773,617.96191v-7.28418h1.77881v7.28418
			H120.42773z"/>
		<path class="st11" d="M129.58691,617.00977c-0.50439,0.61621-1.44287,1.13379-2.54932,1.13379s-2.04492-0.51758-2.54932-1.13379
			c-0.54639-0.68652-0.85449-1.45703-0.85449-2.68945c0-1.2334,0.30811-2.00391,0.85449-2.68945
			c0.50439-0.61719,1.44287-1.13477,2.54932-1.13477s2.04492,0.51758,2.54932,1.13477
			c0.54639,0.68555,0.85449,1.45605,0.85449,2.68945C130.44141,615.55273,130.1333,616.32324,129.58691,617.00977z
			 M128.14404,612.48535c-0.23779-0.25293-0.63037-0.46289-1.10645-0.46289s-0.86865,0.20996-1.10645,0.46289
			c-0.42041,0.46191-0.51855,1.14844-0.51855,1.83496c0,0.68555,0.09814,1.37207,0.51855,1.83496
			c0.23779,0.25195,0.63037,0.46191,1.10645,0.46191s0.86865-0.20996,1.10645-0.46191
			c0.42041-0.46289,0.51855-1.14941,0.51855-1.83496C128.6626,613.63379,128.56445,612.94727,128.14404,612.48535z"/>
		<path class="st11" d="M136.30615,617.96191v-4.46875c0-0.85449-0.27979-1.37207-1.20459-1.37207
			c-0.61621,0-1.02246,0.3916-1.26074,0.92383c-0.25195,0.57422-0.23779,1.33105-0.23779,1.94727v2.96973h-1.75098v-7.28418h1.4707
			l0.12598,0.93848c0.43408-0.77051,1.30273-1.12012,2.14307-1.12012c1.55469,0,2.46533,1.09277,2.46533,2.60547v4.86035H136.30615z
			"/>
		<path class="st11" d="M145.19482,617.96191v-7.66211l-2.14307,1.55469v-1.90527l2.39502-1.72266h1.49902v9.73535H145.19482z"/>
		<path class="st11" d="M150.12109,617.96191v-2.18555h2.12939v2.18555H150.12109z"/>
		<path class="st11" d="M159.23828,617.27539c-0.50391,0.49023-1.21875,0.86816-2.26904,0.86816
			c-1.05078,0-1.76514-0.37793-2.26904-0.86816c-1.00879-0.9668-1.16309-2.59082-1.16309-4.18848
			c0-1.59668,0.1543-3.22168,1.16309-4.1875c0.50391-0.49023,1.21826-0.85449,2.26904-0.85449
			c1.05029,0,1.76514,0.36426,2.26904,0.85449c1.00879,0.96582,1.1626,2.59082,1.1626,4.1875
			C160.40088,614.68457,160.24707,616.30859,159.23828,617.27539z M156.96924,609.65527c-1.80713,0-1.65283,2.1709-1.65283,3.43164
			s-0.1543,3.43262,1.65283,3.43262s1.65283-2.17188,1.65283-3.43262S158.77637,609.65527,156.96924,609.65527z"/>
	</g>
	<g class="st1">
		<path class="st11" d="M101.5752,633.96387v-8.37695l-3.08154,8.2373H97.5127l-3.08154-8.30664v8.44629h-1.19043v-9.93164h1.79297
			l2.99756,8.08301l2.9834-8.08301h1.75098v9.93164H101.5752z"/>
		<path class="st11" d="M110.35107,634.06152c-0.63037,0-1.02246-0.47559-1.02246-1.07813h-0.02832
			c-0.40625,0.71387-1.28857,1.16211-2.2832,1.16211c-1.62451,0-2.43701-1.0918-2.43701-2.18457
			c0-0.91016,0.58838-2.10156,2.521-2.21289l2.15723-0.12695v-0.51758c0-0.35059-0.04199-0.78516-0.36426-1.0791
			c-0.23779-0.22363-0.58789-0.36426-1.1626-0.36426c-0.64404,0-1.05029,0.18262-1.28857,0.4209
			c-0.22412,0.22363-0.3501,0.50391-0.3501,0.85449h-1.1626c0.01416-0.64453,0.25195-1.10742,0.61621-1.48535
			c0.47607-0.50391,1.31689-0.75586,2.18506-0.75586c1.37305,0,2.15723,0.58789,2.49365,1.3584
			c0.14014,0.32227,0.20996,0.68652,0.20996,1.09277v3.43164c0,0.37793,0.1543,0.47656,0.39209,0.47656
			c0.12598,0,0.30811-0.04199,0.30811-0.04199v0.88184C110.8833,634.01953,110.64502,634.06152,110.35107,634.06152z
			 M109.2583,630.5459l-1.90479,0.1123c-0.71436,0.04199-1.55469,0.37793-1.55469,1.27441
			c0,0.63086,0.39209,1.21875,1.40039,1.21875c0.54639,0,1.07861-0.18164,1.45703-0.57422
			c0.41992-0.43457,0.60205-1.02246,0.60205-1.61133V630.5459z"/>
		<path class="st11" d="M114.95557,635.4209c-0.33643,0.91016-0.85449,1.5127-1.91895,1.5127
			c-0.58838,0-0.98096-0.1123-1.07861-0.14063v-1.03613c0,0,0.37793,0.1123,0.84033,0.1123
			c0.50439,0,0.86865-0.18262,1.06445-0.71484l0.44824-1.19043l-2.82959-7.08789h1.34473l2.0874,5.58887l1.98877-5.58887h1.24707
			L114.95557,635.4209z"/>
		<path class="st11" d="M122.05176,633.96387v-1.02246l3.93604-4.86035c0.36426-0.46289,0.53223-0.89648,0.53223-1.40137
			c0-0.99414-0.57422-1.56836-1.59668-1.56836c-0.86865,0-1.65283,0.47559-1.65283,1.76465h-1.23291
			c0-1.69531,1.14893-2.8291,2.87158-2.8291c1.06445,0,1.89111,0.41992,2.38135,1.10645
			c0.29443,0.41992,0.44824,0.89648,0.44824,1.5127c0,0.77051-0.29395,1.41504-0.82666,2.07324l-3.30566,4.10449h4.28662v1.12012
			H122.05176z"/>
		<path class="st11" d="M134.78027,633.31934c-0.47607,0.47656-1.13477,0.82617-2.10107,0.82617s-1.625-0.34961-2.10107-0.82617
			c-0.98047-0.99414-1.14893-2.35352-1.14893-4.23047s0.16846-3.24902,1.14893-4.24414
			c0.47607-0.47559,1.13477-0.79785,2.10107-0.79785s1.625,0.32227,2.10107,0.79785
			c0.98047,0.99512,1.14844,2.36719,1.14844,4.24414S135.76074,632.3252,134.78027,633.31934z M133.88379,625.57324
			c-0.28027-0.26563-0.68652-0.44824-1.20459-0.44824s-0.92432,0.18262-1.20459,0.44824
			c-0.82666,0.78418-0.79834,2.19922-0.79834,3.51563c0,1.31738-0.02832,2.73145,0.79834,3.5166
			c0.28027,0.26563,0.68652,0.44824,1.20459,0.44824s0.92432-0.18262,1.20459-0.44824
			c0.82666-0.78516,0.79834-2.19922,0.79834-3.5166C134.68213,627.77246,134.71045,626.35742,133.88379,625.57324z"/>
		<path class="st11" d="M140.40723,633.96387v-8.37695l-2.31152,1.69531v-1.33105l2.38135-1.72266h1.14844v9.73535H140.40723z"/>
		<path class="st11" d="M150.61426,633.08105c-0.57422,0.68652-1.48486,1.06445-2.50732,1.06445s-1.93311-0.37793-2.50732-1.06445
			c-0.39209-0.46191-0.64453-1.0498-0.64453-1.79297c0-1.06445,0.63037-1.98828,1.52686-2.39453
			c-0.79834-0.4209-1.33057-1.26074-1.33057-2.19922c0-0.79883,0.32227-1.42871,0.79834-1.87695
			c0.54639-0.50488,1.30273-0.77051,2.15723-0.77051s1.61084,0.26563,2.15723,0.77051
			c0.47607,0.44824,0.79834,1.07813,0.79834,1.87695c0,0.93848-0.53223,1.77832-1.33057,2.19922
			c0.89648,0.40625,1.52686,1.33008,1.52686,2.39453C151.25879,632.03125,151.00635,632.61914,150.61426,633.08105z
			 M148.10693,629.41113c-1.23291,0-1.94727,0.78516-1.94727,1.82129c0,1.14844,0.8125,1.86328,1.94727,1.86328
			s1.94678-0.71484,1.94678-1.86328C150.05371,630.19629,149.33936,629.41113,148.10693,629.41113z M148.10693,625.08301
			c-0.96631,0-1.75098,0.61621-1.75098,1.61133c0,0.89648,0.63037,1.68066,1.75098,1.68066s1.75098-0.78418,1.75098-1.68066
			C149.85791,625.69922,149.07324,625.08301,148.10693,625.08301z"/>
	</g>
</g>
</svg>
