<?xml version="1.0" encoding="utf-8"?>
<!-- Generator: Adobe Illustrator 22.1.0, SVG Export Plug-In . SVG Version: 6.00 Build 0)  -->
<svg version="1.1" id="Layer_1" xmlns="http://www.w3.org/2000/svg" xmlns:xlink="http://www.w3.org/1999/xlink" x="0px" y="0px"
	 width="3000px" height="2000px" viewBox="0 0 3000 2000" style="enable-background:new 0 0 3000 2000;" xml:space="preserve">
<style type="text/css">
	.st0{clip-path:url(#SVGID_2_);fill:#542E91;}
	.st1{clip-path:url(#SVGID_2_);}
	.st2{opacity:0.5;clip-path:url(#SVGID_4_);}
	.st3{clip-path:url(#SVGID_6_);fill:#59439A;}
	.st4{clip-path:url(#SVGID_6_);fill:#542E91;}
	.st5{clip-path:url(#SVGID_6_);fill:#401B63;}
	.st6{clip-path:url(#SVGID_6_);fill:#A39CCC;}
	.st7{clip-path:url(#SVGID_6_);fill:#7666AD;}
	.st8{fill:#FFFFFF;}
	.st9{clip-path:url(#SVGID_2_);fill:#FFFFFF;}
	.st10{clip-path:url(#SVGID_8_);fill:#FFFFFF;}
	.st11{fill:#E1E2F2;}
</style>
<g>
	<defs>
		<rect id="SVGID_1_" x="-283" y="-240" width="3761.63647" height="4868"/>
	</defs>
	<clipPath id="SVGID_2_">
		<use xlink:href="#SVGID_1_"  style="overflow:visible;"/>
	</clipPath>
	<rect x="-283" y="-240" class="st0" width="3761.63647" height="4868"/>
	<g class="st1">
		<defs>
			<rect id="SVGID_3_" x="-283" y="-240" width="3761.63647" height="4868"/>
		</defs>
		<clipPath id="SVGID_4_">
			<use xlink:href="#SVGID_3_"  style="overflow:visible;"/>
		</clipPath>
		<g class="st2">
			<g>
				<defs>
					<rect id="SVGID_5_" x="-7017.98877" y="-8687.51758" width="17570.46875" height="19504.33203"/>
				</defs>
				<clipPath id="SVGID_6_">
					<use xlink:href="#SVGID_5_"  style="overflow:visible;"/>
				</clipPath>
				<polygon class="st3" points="2682.17676,1293.77966 6840.99121,5432.91992 -1514.3894,10808.85156 				"/>
				<polygon class="st4" points="436.48178,-7000.52832 3240.18506,-2118.67383 2386.70581,201.72688 				"/>
				<polygon class="st5" points="436.11975,-7000.75928 2386.49731,202.24608 -1514.44849,10807.91504 				"/>
				<polygon class="st4" points="2386.65601,202.80281 2681.88916,1293.44385 -1512.91943,10804.76563 				"/>
				<polygon class="st6" points="2682.36353,1293.33997 3416.57715,-1811.50366 5830.28125,2391.31372 				"/>
				<polygon class="st7" points="2386.83008,202.26334 3240.42627,-2118.31592 3416.30737,-1811.92688 2682.1001,1292.81213 				"/>
				<polygon class="st7" points="2682.85669,1293.92639 5830.58398,2391.83228 7378.43555,5087.08154 6841.35742,5432.71582 				"/>
			</g>
		</g>
	</g>
	<g class="st1">
		<path class="st8" d="M212.55957,402.48828c-2.90088,2.90088-7.62305,5.12695-12.81738,5.12695
			c-4.78955,0-9.51172-1.75391-12.95215-5.12695c-5.19434-5.05908-6.00391-12.0752-6.00391-19.69775
			c0-7.62305,0.80957-14.63867,6.00391-19.69824c3.44043-3.37305,8.1626-5.12695,12.95215-5.12695
			c5.19434,0,9.84912,2.02393,12.75,4.9248c2.76563,2.83301,4.51953,6.47607,4.72217,10.92822h-6.20654
			c-0.06738-2.63086-1.0791-4.9248-2.63086-6.67871c-1.88867-2.09082-4.9917-3.50781-8.63477-3.50781
			c-3.23779,0-6.40869,1.28174-8.70215,3.64307c-3.9126,4.04736-4.04736,10.52344-4.04736,15.51563
			c0,4.9917,0.13477,11.46777,4.04736,15.51563c2.29346,2.36084,5.46436,3.64258,8.70215,3.64258
			c3.64307,0,6.81348-1.55176,8.70215-3.64258c1.55176-1.75391,2.56348-4.25,2.63086-6.88086h6.20654
			C217.0791,395.87744,215.3252,399.65527,212.55957,402.48828z"/>
		<path class="st8" d="M254.04541,406.6709v-22.05908h-22.93604v22.05908h-6.00391v-47.82861h6.00391v19.96777h22.93604v-19.96777
			h6.00391v47.82861H254.04541z"/>
		<path class="st8" d="M271.91992,406.6709v-47.82861h6.13867v47.82861H271.91992z"/>
		<path class="st8" d="M318.53271,402.48828c-2.90088,2.90088-7.62305,5.12695-12.81738,5.12695
			c-4.78955,0-9.51172-1.75391-12.95215-5.12695c-5.19434-5.05908-6.00391-12.0752-6.00391-19.69775
			c0-7.62305,0.80957-14.63867,6.00391-19.69824c3.44043-3.37305,8.1626-5.12695,12.95215-5.12695
			c5.19434,0,9.84912,2.02393,12.75,4.9248c2.76563,2.83301,4.51953,6.47607,4.72217,10.92822h-6.20654
			c-0.06738-2.63086-1.0791-4.9248-2.63086-6.67871c-1.88867-2.09082-4.9917-3.50781-8.63477-3.50781
			c-3.23779,0-6.40869,1.28174-8.70215,3.64307c-3.9126,4.04736-4.04736,10.52344-4.04736,15.51563
			c0,4.9917,0.13477,11.46777,4.04736,15.51563c2.29346,2.36084,5.46436,3.64258,8.70215,3.64258
			c3.64307,0,6.81348-1.55176,8.70215-3.64258c1.55176-1.75391,2.56348-4.25,2.63086-6.88086h6.20654
			C323.05225,395.87744,321.29834,399.65527,318.53271,402.48828z"/>
		<path class="st8" d="M358.46631,406.6709l-3.9126-11.33301h-20.77734l-3.84521,11.33301h-6.07129l16.86475-47.82861h7.01611
			l16.93213,47.82861H358.46631z M344.09766,364.84619l-8.43213,24.8252h16.93213L344.09766,364.84619z"/>
		<path class="st8" d="M399.27734,406.6709l-1.01172-5.73389c-2.36133,3.9126-7.62305,6.67822-13.01953,6.67822
			c-4.79004,0-9.44434-1.55127-12.88477-4.92432c-4.85742-4.72217-6.20654-11.33301-6.20654-19.90039
			c0-7.62305,1.01221-14.63867,6.20654-19.69824c3.44043-3.37305,8.09473-5.12695,12.88477-5.12695
			c5.39648,0,10.38867,1.88916,13.69385,5.39697c2.29395,2.42822,3.9126,5.46387,4.11523,9.30908h-6.27393
			c-0.20215-2.22607-0.94434-3.77783-2.15869-5.26172c-2.15869-2.56348-5.46387-3.77783-9.37646-3.77783
			c-3.23828,0-6.40869,1.28174-8.70264,3.64307c-3.9126,4.04736-4.18213,10.52344-4.18213,15.51563
			c0,4.78955,0.33691,11.67041,4.31738,15.71777c2.29346,2.36133,5.3291,3.44043,8.56738,3.44043
			c3.37256,0,6.54346-1.14697,8.70215-3.30566c3.17041-3.10303,4.11475-7.75781,4.11475-12.14258h-12.81689v-5.59912h18.21387
			v25.76953H399.27734z"/>
		<path class="st8" d="M442.24707,402.48828c-3.44043,3.37305-8.09521,5.12695-12.88477,5.12695s-9.44434-1.75391-12.88477-5.12695
			c-5.19434-5.05908-6.13867-12.0752-6.13867-19.69775c0-7.62305,0.94434-14.63867,6.13867-19.69824
			c3.44043-3.37305,8.09521-5.12695,12.88477-5.12695s9.44434,1.75391,12.88477,5.12695
			c5.19434,5.05957,6.13867,12.0752,6.13867,19.69824C448.38574,390.41309,447.44141,397.4292,442.24707,402.48828z
			 M438.06445,367.2749c-2.29346-2.36133-5.46387-3.57568-8.70215-3.57568c-3.23779,0-6.4082,1.21436-8.70215,3.57568
			c-3.9126,4.04736-4.11475,10.52344-4.11475,15.51563c0,4.9917,0.20215,11.46777,4.11475,15.51563
			c2.29395,2.36084,5.46436,3.5752,8.70215,3.5752c3.23828,0,6.40869-1.21436,8.70215-3.5752
			c3.91309-4.04785,4.11523-10.52393,4.11523-15.51563C442.17969,377.79834,441.97754,371.32227,438.06445,367.2749z"/>
	</g>
	<g class="st1">
	</g>
	<g class="st1">
		<path class="st8" d="M479.21973,364.37402v15.58301h22.26123v5.6665h-22.26123v21.04736h-6.00391v-47.82861h30.96338v5.53174
			H479.21973z"/>
		<path class="st8" d="M511.19385,406.6709v-47.82861h6.13867v47.82861H511.19385z"/>
		<path class="st8" d="M529.20361,406.6709v-47.82861h31.97559v5.53174h-25.97168v14.57129h22.80078v5.6665h-22.80078v16.52734
			h25.97168v5.53174H529.20361z"/>
		<path class="st8" d="M569.67822,406.6709v-47.82861h6.00391v42.22949h23.00342v5.59912H569.67822z"/>
		<path class="st8" d="M633.96484,401.88135c-3.37305,3.23779-7.89258,4.78955-12.54736,4.78955h-16.66211v-47.82861h16.66211
			c4.65479,0,9.17432,1.61914,12.54736,4.85693c5.26172,4.99219,6.13867,12.14307,6.13867,19.02393
			C640.10352,389.60352,639.15918,396.88916,633.96484,401.88135z M629.91748,367.67969
			c-2.22607-2.22607-5.39697-3.30566-8.5-3.30566h-10.6582v36.76514h10.6582c3.10303,0,6.27393-1.0791,8.5-3.30518
			c3.77783-3.84521,4.11475-9.98438,4.11475-15.11084C634.03223,377.59619,633.69531,371.59229,629.91748,367.67969z"/>
	</g>
	<g class="st1">
	</g>
	<g class="st1">
		<path class="st8" d="M695.08398,402.7583c-3.30566,3.23779-8.43262,4.78955-13.55908,4.78955
			c-5.80176,0-10.45654-1.61914-13.69434-4.5874c-3.03564-2.83301-5.12695-6.94824-5.12695-11.46777h6.27393
			c0,2.83301,1.4165,5.6665,3.37256,7.55518c2.15869,2.09131,5.80176,2.96826,9.1748,2.96826
			c3.64258,0,6.74561-0.7417,8.9043-2.76563c1.48438-1.34912,2.42871-3.03564,2.42871-5.59912
			c0-3.71045-2.36133-6.81348-8.02783-7.69043l-7.55518-1.14697c-7.15088-1.0791-12.75-5.05908-12.75-12.68213
			c0-3.5752,1.61914-7.01563,4.18262-9.44434c3.30566-3.10303,7.55518-4.72217,12.54736-4.72217
			c4.65479,0,9.2417,1.55176,12.4126,4.5874c2.90039,2.76563,4.45215,6.20605,4.58691,10.25391h-6.27344
			c-0.13477-2.36133-1.01221-4.45264-2.36133-6.00391c-1.82129-2.09131-4.72217-3.30566-8.43213-3.30566
			c-3.44043,0-6.40869,0.94434-8.5,3.30566c-1.21436,1.4165-1.95605,3.03564-1.95605,5.19434
			c0,4.31738,3.5752,6.27344,7.15039,6.74561c2.69824,0.3374,5.32959,0.80957,7.96045,1.21436
			c7.95996,1.14697,13.28906,6.00391,13.28906,13.55957C699.13135,397.49658,697.44531,400.46484,695.08398,402.7583z"/>
		<path class="st8" d="M720.64941,364.44141v42.22949h-6.07129v-42.22949h-14.23389v-5.59912h34.53906v5.59912H720.64941z"/>
		<path class="st8" d="M756.94141,407.54785c-10.72607,0-17.47168-6.47607-17.47168-18.4165v-30.28906h6.00342v30.42432
			c0,7.62256,3.1709,12.68213,11.46826,12.68213s11.46826-5.05957,11.46826-12.68213v-30.42432h6.00342v30.28906
			C774.41309,401.07178,767.66748,407.54785,756.94141,407.54785z"/>
		<path class="st8" d="M814.14502,401.88135c-3.37305,3.23779-7.89258,4.78955-12.54736,4.78955h-16.66211v-47.82861h16.66211
			c4.65479,0,9.17432,1.61914,12.54736,4.85693c5.26172,4.99219,6.13916,12.14307,6.13916,19.02393
			C820.28418,389.60352,819.33936,396.88916,814.14502,401.88135z M810.09766,367.67969
			c-2.22607-2.22607-5.39697-3.30566-8.5-3.30566h-10.6582v36.76514h10.6582c3.10303,0,6.27393-1.0791,8.5-3.30518
			c3.77783-3.84521,4.11475-9.98438,4.11475-15.11084C814.2124,377.59619,813.87549,371.59229,810.09766,367.67969z"/>
		<path class="st8" d="M828.98438,406.6709v-47.82861h6.13867v47.82861H828.98438z"/>
		<path class="st8" d="M846.99463,406.6709v-47.82861h31.97559v5.53174h-25.97168v14.57129h22.80078v5.6665h-22.80078v16.52734
			h25.97168v5.53174H846.99463z"/>
		<path class="st8" d="M915.80176,402.7583c-3.30566,3.23779-8.43262,4.78955-13.55908,4.78955
			c-5.80176,0-10.45654-1.61914-13.69434-4.5874c-3.03564-2.83301-5.12695-6.94824-5.12695-11.46777h6.27393
			c0,2.83301,1.4165,5.6665,3.37256,7.55518c2.15869,2.09131,5.80176,2.96826,9.1748,2.96826
			c3.64258,0,6.74561-0.7417,8.9043-2.76563c1.48438-1.34912,2.42871-3.03564,2.42871-5.59912
			c0-3.71045-2.36133-6.81348-8.02783-7.69043l-7.55518-1.14697c-7.15088-1.0791-12.75-5.05908-12.75-12.68213
			c0-3.5752,1.61914-7.01563,4.18262-9.44434c3.30566-3.10303,7.55518-4.72217,12.54736-4.72217
			c4.65479,0,9.2417,1.55176,12.4126,4.5874c2.90039,2.76563,4.45215,6.20605,4.58691,10.25391h-6.27344
			c-0.13477-2.36133-1.01221-4.45264-2.36133-6.00391c-1.82129-2.09131-4.72217-3.30566-8.43213-3.30566
			c-3.44043,0-6.40869,0.94434-8.5,3.30566c-1.21436,1.4165-1.95605,3.03564-1.95605,5.19434
			c0,4.31738,3.5752,6.27344,7.15039,6.74561c2.69824,0.3374,5.32959,0.80957,7.96045,1.21436
			c7.95996,1.14697,13.28906,6.00391,13.28906,13.55957C919.84912,397.49658,918.16309,400.46484,915.80176,402.7583z"/>
	</g>
	<rect x="182.5025" y="330.64395" class="st9" width="735.21552" height="4.35175"/>
	<polygon class="st9" points="183.43245,208.87462 183.43245,212.24309 191.86537,221.70851 191.86537,286.71982 
		180.47598,289.89737 180.47598,293.70813 211.31279,293.70813 211.31279,289.87299 201.59521,287.30356 199.11819,284.2551 
		199.11819,230.00647 253.16406,294.35376 257.92145,294.35376 257.92145,217.03714 269.36615,213.57076 269.36615,209.53264 
		238.07452,209.53264 238.07452,214.08095 248.01949,216.57646 250.44121,219.62492 250.44121,271.01566 250.4166,270.94812 
		249.78352,270.94812 197.33572,208.87462 	"/>
	<g class="st1">
		<defs>
			<rect id="SVGID_7_" x="159.54546" y="202.54546" width="808.72723" height="232.4162"/>
		</defs>
		<clipPath id="SVGID_8_">
			<use xlink:href="#SVGID_7_"  style="overflow:visible;"/>
		</clipPath>
		<path class="st10" d="M299.15683,295.11945c-15.26166,0-29.88409-9.79141-29.88409-30.64642
			c0-20.72592,15.5137-31.1566,29.88409-31.1566c15.00354,0,30.13614,9.41026,30.13614,30.13622
			C329.29297,283.41626,313.2691,295.11945,299.15683,295.11945 M317.46719,265.23495
			c0-14.24107-7.75687-26.31905-19.96375-26.31905c-10.93454,0-16.40491,9.53333-16.40491,23.7748
			c0,14.24109,6.8656,26.70621,19.71167,26.70621C311.74478,289.39691,317.46719,279.47644,317.46719,265.23495"/>
		<path class="st10" d="M482.77267,259.13089c0-14.24107-8.00885-17.03783-17.29617-17.03783
			c-7.87976,0-12.96906,5.84521-12.96906,5.84521l0.00616,9.41664v27.21643l2.43402,3.05484l8.2178,2.87027l0.01843,3.22067
			h-29.60754v-3.30658l8.38998-3.17789l-0.01236-61.29245c0-11.08833-2.7966-14.11241-8.90005-14.11241v-2.9258l18.8205-6.35542
			h1.27228c0,0-0.63922,13.09837-0.63922,22.88942v17.6711c0,0,12.20688-9.79106,20.60294-9.79106
			c10.42441,0,20.0867,4.32698,20.0867,19.71153l-0.00616,31.54378l2.42786,3.05484l8.22391,2.87027l0.01846,3.22067h-29.60748
			v-3.30658l8.13791-3.09161L482.77267,259.13089z"/>
		<path class="st10" d="M602.88812,261.03854c0,17.67746,10.04321,25.05328,21.48792,25.05328
			c7.12384,0,15.64288-2.92578,15.64288-2.92578l1.27222,2.41559c-3.05475,3.04846-11.57379,9.53293-22.25629,9.53293
			c-14.49335,0-27.4624-10.80545-27.4624-30.64001c0-18.05826,12.45886-31.15663,27.97253-31.15663
			c12.07776,0,21.48804,7.24678,21.48804,20.98404c0,3.55907-0.63306,6.73659-0.63306,6.73659H602.88812z M621.57953,256.20734
			c6.10339-0.25171,8.26691-1.39517,8.26691-7.62755c0-5.34138-3.81689-9.41028-11.95483-9.41028
			c-8.51904,0-15.00348,7.49889-15.00348,17.6711L621.57953,256.20734z"/>
		<path class="st10" d="M655.00281,292.82767c-0.8913-0.3808-3.17786-1.65329-3.30688-4.32062l-0.76215-12.08398h5.59326
			c1.52429,8.26682,7.12378,13.60822,14.37048,13.60822c7.37573,0,10.30145-3.81714,10.30145-8.90005
			c0-4.83121-3.94604-7.37585-8.7771-9.9205l-6.48456-3.30695c-9.28113-4.70175-13.86035-8.51892-13.86035-17.67708
			c0-11.43871,8.26703-16.90878,21.10699-16.90878c9.02911,0,16.0238,3.43562,16.0238,3.43562l-1.65338,14.87473h-5.21216
			c0-9.28122-3.81696-12.71722-11.57385-12.71722c-5.21216,0-10.04321,2.03444-10.04321,7.12373
			c0,4.06888,1.65338,5.85159,11.69672,11.06355l5.72235,2.92581c10.43048,5.34137,13.3501,9.79141,13.3501,18.43338
			c0,10.4303-10.42438,16.65668-20.5968,16.65668C664.41296,295.1142,658.69061,294.35226,655.00281,292.82767"/>
		<path class="st10" d="M754.98486,261.03854c0,17.67746,10.04327,25.05328,21.48798,25.05328
			c7.12384,0,15.64282-2.92578,15.64282-2.92578l1.27222,2.41559c-3.05475,3.04846-11.57373,9.53293-22.25623,9.53293
			c-14.49341,0-27.46246-10.80545-27.46246-30.64001c0-18.05826,12.45886-31.15663,27.97253-31.15663
			c12.07782,0,21.4881,7.24678,21.4881,20.98404c0,3.55907-0.63312,6.73659-0.63312,6.73659H754.98486z M773.67627,256.20734
			c6.10339-0.25171,8.26691-1.39517,8.26691-7.62755c0-5.34138-3.81689-9.41028-11.95483-9.41028
			c-8.51898,0-15.00348,7.49889-15.00348,17.6711L773.67627,256.20734z"/>
		<path class="st10" d="M911.51929,287.62808l-2.43408-3.06085l0.12299-32.17667c0-14.87434-9.66229-19.07265-19.58264-19.07265
			c-8.38989,0-20.21576,9.79143-20.21576,9.79143c0-5.34138,0.25201-10.17221,0.25201-10.17221h-1.01416l-18.56842,6.74258v3.04848
			c7.12372,0,9.02911,6.35542,9.02911,17.80013v26.7066l-8.38995,3.17752v3.30695h29.23267l0.23352-3.22067l-8.22394-2.87064
			l-2.42792-3.06085l0.00623-36.49765c0,0,4.45001-5.97427,12.45886-5.97427c8.26697,0,16.78601,2.91943,16.78601,17.03784
			l-0.39337,28.21844l-8.11951,3.06085v3.30695h29.23871l0.23358-3.22067L911.51929,287.62808z"/>
		<path class="st10" d="M558.58191,294.35416l-13.62061-37.76978l-15.61206,37.76978h-5.33508l-15.33542-46.66385
			c-2.1636-5.85123-3.39905-9.28723-7.46793-9.28723v-3.55867h25.10217v3.59544l-7.64624,2.50787l11.4447,38.65512
			l10.04944-24.15555l2.33569-6.13409l-3.44818-9.82819l-4.35785-1.08194v-3.55867h24.2724v3.8044l-7.6524,2.29892
			l12.90143,38.65512l13.39313-38.40302l-8.64185-3.04884v-3.30658h22.76038v3.55867
			c-5.21832,0.63927-7.7569,2.03445-11.82587,12.46513l-15.32312,43.48595H558.58191z"/>
		<path class="st10" d="M426.53311,284.94424c0,0-3.55881,2.28653-8.90012,2.28653c-5.72235,0-10.93454-3.17752-10.81158-11.06354
			l0.51016-33.31375h18.82043v-0.00636h0.17212l0.25198-2.06522h0.0123l1.27231-10.44269l-2.42166-0.43629l-1.8194,3.98897
			l-1.03876,0.87299l-14.96048,0.57773v0.006l-0.15982,0.00601v-15.13245l-7.37573,1.27214l-3.17776,14.3645l-10.43054,1.02042
			v4.96024c5.72238,0,10.43054,0.50983,10.43054,5.97427c0,5.47044-0.5101,22.63133-0.5101,29.50294
			c0,12.96896,4.96021,17.80014,13.22714,17.80014c7.11765,0,12.96906-2.92578,18.31036-7.24677L426.53311,284.94424z"/>
		<path class="st10" d="M737.8374,284.94424c0,0-3.55884,2.28653-8.90015,2.28653c-5.72235,0-10.93451-3.17752-10.81158-11.06354
			l0.51013-33.31375h18.82043v-0.00636h0.03687l0.25201-2.06522h0.01239l1.26611-10.44269l-2.41559-0.43629l-1.81927,3.98897
			l-1.03882,0.87299l-14.96051,0.57773v0.01201h-0.0246v-15.13245l-7.37573,1.27214l-3.17767,14.3645l-10.4306,1.02042v4.96024
			c5.72235,0,10.4306,0.50983,10.4306,5.97427c0,5.47044-0.51013,22.63133-0.51013,29.50294
			c0,12.96896,4.96014,17.80014,13.22717,17.80014c7.11761,0,12.96899-2.92578,18.3103-7.24677L737.8374,284.94424z"/>
		<path class="st10" d="M379.19553,234.08098L379.19553,234.08098h-0.0062c-0.06143-0.02438-2.21887-0.76193-6.34927-0.76193
			c-8.90622,0-18.18741,13.98936-18.18741,13.98936c0-7.75699,0.25815-14.37051,0.25815-14.37051h-1.02029l-18.18124,6.73657
			v3.05486c6.86563,0,9.02301,6.22636,9.02301,16.78572v27.72061l-8.38989,3.17792v3.30658h29.23254l-0.01227-3.22067
			l-8.224-2.87027l-2.42786-3.06085v-27.2168c0-8.39587,6.60745-13.09801,13.73123-13.09801
			c1.4567,0,2.95026,0.36276,4.22873,0.79306l1.99149,2.93781l2.45242,0.19658L379.19553,234.08098z"/>
		<path class="st10" d="M844.27454,234.08098L844.27454,234.08098h-0.00623c-0.0614-0.02438-2.21887-0.76193-6.3493-0.76193
			c-8.90619,0-18.18738,13.98936-18.18738,13.98936c0-7.75699,0.25818-14.37051,0.25818-14.37051h-1.02032l-18.18127,6.73657
			v3.05486c6.8656,0,9.02924,6.22636,9.02924,16.78572v27.72061l-8.39606,3.17792v3.30658h29.23865l-0.01837-3.22067
			l-8.22406-2.87027l-2.4278-3.06085v-27.2168c0-8.39587,6.60742-13.09801,13.73114-13.09801
			c1.45673,0,2.95032,0.36276,4.22882,0.79306l1.99146,2.93781l2.45239,0.19658L844.27454,234.08098z"/>
	</g>
	<g class="st1">
		<path class="st8" d="M288.49121,1412.06934h25.91406c-6.6875,35.10938-33.4375,58.09766-69.17383,58.09766
			c-40.96094,0-73.98047-31.13867-73.98047-73.98047s33.01953-73.98047,73.98047-73.98047
			c35.73633,0,62.48633,22.98828,69.17383,58.09766h-25.91406c-5.43359-21.52539-20.89844-34.06445-43.25977-34.06445
			c-27.79492,0-48.48438,20.48047-48.48438,49.94727s20.68945,49.94727,48.48438,49.94727
			C267.59277,1446.13379,283.05762,1433.59473,288.49121,1412.06934z"/>
		<path class="st8" d="M439.16455,1412.69629v54.54492h-24.0332v-53.08203c0-17.3457-9.19531-26.95898-24.24219-26.95898
			c-8.56836,0-17.97266,5.01563-25.49609,14.21094v65.83008h-24.24219V1318.8623h24.24219v57.67969
			c8.56836-7.10547,18.59961-11.28516,30.51172-11.28516C421.81885,1365.25684,439.16455,1384.06543,439.16455,1412.69629z"/>
		<path class="st8" d="M466.11816,1332.65527c0-8.56836,6.6875-14.83789,15.04688-14.83789s15.04688,6.26953,15.04688,14.83789
			c0,8.15039-6.6875,14.41992-15.04688,14.41992S466.11816,1340.80566,466.11816,1332.65527z M493.28613,1368.3916v98.84961
			h-24.0332v-98.84961H493.28613z"/>
		<path class="st8" d="M595.68506,1430.25098h24.66016c-3.13477,23.40625-23.40625,39.28906-48.48438,39.28906
			c-29.67578,0-52.45508-22.36133-52.45508-51.61914c0-29.4668,22.7793-51.82813,52.45508-51.82813
			c25.07813,0,45.34961,16.0918,48.48438,39.28906h-24.66016c-2.29883-10.44922-11.49414-17.3457-23.82422-17.3457
			c-17.13672,0-28.42188,13.16602-28.42188,29.88477s11.28516,29.88477,28.42188,29.88477
			C584.19092,1447.80566,593.38623,1440.90918,595.68506,1430.25098z"/>
		<path class="st8" d="M744.06104,1368.3916v98.84961h-24.0332v-6.89648c-8.15039,5.85156-18.39063,9.19531-30.30273,9.19531
			c-27.58594,0-49.73828-22.98828-49.73828-51.61914c0-28.83984,22.15234-51.82813,49.73828-51.82813
			c11.91211,0,22.15234,3.34375,30.30273,9.19531v-6.89648H744.06104z M720.02783,1434.63965v-33.64648
			c-6.89648-10.24023-16.50977-14.00195-26.75-14.00195c-16.92773,0-29.25781,14.41992-29.25781,30.92969
			c0,16.30078,12.33008,30.7207,29.25781,30.7207C703.51807,1448.6416,713.13135,1444.87988,720.02783,1434.63965z"/>
		<path class="st8" d="M874.46289,1368.3916v98.84961c0,30.7207-20.89844,49.32031-50.15625,49.32031
			c-27.79492,0-48.69336-16.92773-50.99219-40.96094h24.45117c1.67188,11.28516,11.49414,19.01758,26.54102,19.01758
			s26.12305-9.82227,26.12305-27.37695v-11.70313c-8.15039,5.85156-18.59961,9.19531-30.51172,9.19531
			c-27.58594,0-49.5293-22.7793-49.5293-48.90234c0-29.4668,21.94336-50.57422,49.5293-50.57422
			c11.91211,0,22.36133,3.34375,30.51172,9.19531v-6.06055H874.46289z M850.42969,1429.83301v-29.67578
			c-6.89648-10.24023-16.92773-14.00195-26.95898-14.00195c-17.13672,0-29.04883,12.53906-29.04883,29.67578
			c0,13.79297,11.91211,28.21289,29.04883,28.21289C833.50195,1444.04395,843.5332,1440.07324,850.42969,1429.83301z"/>
		<path class="st8" d="M1004.02979,1417.9209c0,30.09375-22.57031,52.45508-52.45508,52.45508
			c-30.09375,0-52.66406-22.36133-52.66406-52.45508c0-29.88477,22.57031-51.82813,52.66406-51.82813
			C981.45947,1366.09277,1004.02979,1388.03613,1004.02979,1417.9209z M979.99658,1417.9209
			c0-16.71875-11.49414-29.88477-28.42188-29.88477c-17.13672,0-28.63086,13.16602-28.63086,29.88477
			c0,16.92773,11.49414,30.51172,28.63086,30.51172C968.50244,1448.43262,979.99658,1434.84863,979.99658,1417.9209z"/>
		<path class="st8" d="M1113.52783,1389.29004h67.29297v23.19727h-67.29297v54.75391h-25.07813v-142.10938h101.56641v23.19727
			h-76.48828V1389.29004z"/>
		<path class="st8" d="M1210.07373,1332.65527c0-8.56836,6.6875-14.83789,15.04688-14.83789s15.04688,6.26953,15.04688,14.83789
			c0,8.15039-6.6875,14.41992-15.04688,14.41992S1210.07373,1340.80566,1210.07373,1332.65527z M1237.2417,1368.3916v98.84961
			h-24.0332v-98.84961H1237.2417z"/>
		<path class="st8" d="M1363.46484,1424.19043h-0.20898h-76.48828c2.08984,14.00195,11.70313,24.86914,29.67578,24.86914
			c9.61328,0,16.50977-3.13477,20.0625-9.19531h25.70508c-5.64258,18.18164-23.82422,30.51172-46.39453,30.51172
			c-31.55664,0-52.66406-23.19727-52.66406-52.45508c0-30.30273,21.10742-52.66406,52.03711-52.66406
			c28.00391,0,48.69336,20.48047,48.90234,50.99219C1364.0918,1419.80176,1363.88281,1421.68262,1363.46484,1424.19043z
			 M1287.18555,1409.35254h52.45508c-1.67188-14.62891-10.44922-23.61523-24.45117-23.61523
			C1299.09766,1385.7373,1289.90234,1395.76855,1287.18555,1409.35254z"/>
		<path class="st8" d="M1412.98975,1467.24121h-24.24219V1318.8623h24.24219V1467.24121z"/>
		<path class="st8" d="M1541.72266,1467.24121h-24.0332v-7.10547c-8.15039,6.06055-18.39063,9.4043-30.30273,9.4043
			c-27.58594,0-49.73828-22.98828-49.73828-51.82813c0-28.63086,22.15234-51.61914,49.73828-51.61914
			c11.91211,0,22.15234,3.34375,30.30273,9.19531v-56.42578h24.0332V1467.24121z M1517.68945,1434.63965v-33.85547
			c-6.89648-10.03125-16.50977-13.79297-26.75-13.79297c-16.92773,0-29.25781,14.41992-29.25781,30.7207
			c0,16.50977,12.33008,30.92969,29.25781,30.92969C1501.17969,1448.6416,1510.79297,1444.87988,1517.68945,1434.63965z"/>
		<path class="st8" d="M1742.33887,1367.1377h-24.86914c-2.29883-14.21094-11.70313-23.61523-31.13867-23.61523
			c-17.13672,0-28.21289,7.73242-28.21289,20.68945c0,10.86719,8.15039,16.0918,22.98828,19.01758l17.97266,3.55273
			c27.16797,5.43359,42.63281,16.30078,42.63281,39.08008c0,26.54102-21.94336,44.30469-54.96289,44.30469
			c-34.90039,0-58.51563-18.80859-61.02344-49.32031h24.86914c2.50781,16.71875,16.30078,27.16797,37.61719,27.16797
			c17.3457,0,27.79492-7.31445,27.79492-19.22656c0-7.52344-4.80664-14.83789-20.89844-17.55469l-23.40625-4.59766
			c-27.58594-5.22461-40.125-19.22656-40.125-40.33398c0-26.54102,21.10742-44.30469,53.08203-44.30469
			C1709.7373,1321.99707,1738.99512,1332.86426,1742.33887,1367.1377z"/>
		<path class="st8" d="M1840.34961,1466.19629c-11.07617,3.34375-16.0918,4.17969-24.66016,4.17969
			c-23.61523,0-38.24414-15.67383-38.24414-41.16992v-40.54297H1754.875v-20.27148h22.57031v-36.1543h24.0332v36.1543h36.57227
			v20.27148h-36.57227v40.54297c0,13.16602,7.10547,18.80859,18.80859,18.80859c5.43359,0,11.49414-1.04492,16.71875-2.50781
			L1840.34961,1466.19629z"/>
		<path class="st8" d="M1959.05078,1467.24121h-24.0332v-8.35938c-8.56836,7.31445-18.59961,11.49414-30.7207,11.49414
			c-25.91406,0-43.25977-18.80859-43.25977-47.43945v-54.54492h24.0332v53.08203c0,17.13672,9.19531,26.95898,24.24219,26.95898
			c8.77734,0,18.18164-5.22461,25.70508-14.62891v-65.41211h24.0332V1467.24121z"/>
		<path class="st8" d="M2088.82422,1467.24121h-24.0332v-7.10547c-8.15039,6.06055-18.39063,9.4043-30.30273,9.4043
			c-27.58594,0-49.73828-22.98828-49.73828-51.82813c0-28.63086,22.15234-51.61914,49.73828-51.61914
			c11.91211,0,22.15234,3.34375,30.30273,9.19531v-56.42578h24.0332V1467.24121z M2064.79102,1434.63965v-33.85547
			c-6.89648-10.03125-16.50977-13.79297-26.75-13.79297c-16.92773,0-29.25781,14.41992-29.25781,30.7207
			c0,16.50977,12.33008,30.92969,29.25781,30.92969C2048.28125,1448.6416,2057.89453,1444.87988,2064.79102,1434.63965z"/>
		<path class="st8" d="M2117.65918,1332.65527c0-8.56836,6.6875-14.83789,15.04688-14.83789s15.04688,6.26953,15.04688,14.83789
			c0,8.15039-6.6875,14.41992-15.04688,14.41992S2117.65918,1340.80566,2117.65918,1332.65527z M2144.82715,1368.3916v98.84961
			h-24.0332v-98.84961H2144.82715z"/>
		<path class="st8" d="M2271.05078,1424.19043h-0.20898h-76.48828c2.08984,14.00195,11.70313,24.86914,29.67578,24.86914
			c9.61328,0,16.50977-3.13477,20.0625-9.19531h25.70508c-5.64258,18.18164-23.82422,30.51172-46.39453,30.51172
			c-31.55664,0-52.66406-23.19727-52.66406-52.45508c0-30.30273,21.10742-52.66406,52.03711-52.66406
			c28.00391,0,48.69336,20.48047,48.90234,50.99219C2271.67773,1419.80176,2271.46875,1421.68262,2271.05078,1424.19043z
			 M2194.77148,1409.35254h52.45508c-1.67188-14.62891-10.44922-23.61523-24.45117-23.61523
			C2206.68359,1385.7373,2197.48828,1395.76855,2194.77148,1409.35254z"/>
		<path class="st8" d="M2311.58984,1434.0127c2.08984,11.70313,10.86719,16.71875,24.24219,16.71875
			c11.70313,0,19.85352-4.17969,19.85352-10.86719c0-5.22461-4.17969-8.98633-11.91211-10.44922l-21.52539-3.55273
			c-15.04688-2.7168-29.25781-10.44922-29.25781-28.42188c0-19.85352,16.92773-31.76563,41.58789-31.76563
			c16.92773,0,41.37891,5.85156,43.67773,32.81055l-22.36133,0.20898c-0.83594-10.03125-10.03125-14.41992-21.31641-14.41992
			c-11.70313,0-17.76367,4.80664-17.76367,10.6582c0,4.80664,3.34375,9.4043,14.00195,11.28516l18.39063,2.92578
			c15.04688,2.7168,29.4668,9.4043,29.4668,28.63086c0,21.10742-18.59961,32.60156-43.46875,32.60156
			c-22.57031,0-43.46875-9.4043-45.76758-36.57227L2311.58984,1434.0127z"/>
	</g>
	<g class="st1">
	</g>
	<g class="st1">
		<path class="st8" d="M297.26855,1649.05176c0,23.61523-19.01758,39.49805-50.7832,39.49805h-74.39844v-142.10938h70.21875
			c30.7207,0,48.69336,14.62891,48.69336,37.82617c0,13.16602-7.31445,26.75-19.64453,31.13867
			C288.7002,1619.16699,297.26855,1633.7959,297.26855,1649.05176z M207.40527,1604.3291h29.25781
			c13.375,0,20.68945-6.06055,20.68945-15.25586c0-8.98633-7.10547-13.79297-20.68945-13.79297h-29.25781V1604.3291z
			 M241.67871,1659.29199c14.62891,0,21.10742-6.47852,21.10742-14.83789c0-8.77734-7.31445-13.16602-20.27148-13.16602h-35.10938
			v28.00391H241.67871z"/>
		<path class="st8" d="M387.12549,1617.7041c-16.50977,0.62695-26.95898,5.01563-34.90039,12.74805v58.09766h-34.06445v-101.35742
			h34.06445v10.86719c8.98633-7.73242,19.85352-12.53906,34.90039-12.53906V1617.7041z"/>
		<path class="st8" d="M510.42188,1587.19238v101.35742h-33.85547v-5.64258c-7.52344,4.80664-16.50977,7.73242-27.79492,7.73242
			c-27.37695,0-50.36523-22.7793-50.36523-52.87305c0-30.30273,22.98828-52.87305,50.36523-52.87305
			c11.28516,0,20.27148,2.92578,27.79492,7.73242v-5.43359H510.42188z M476.56641,1653.44043v-31.55664
			c-6.47852-7.10547-13.58398-9.4043-20.89844-9.4043c-13.79297,0-24.0332,11.28516-24.0332,25.28711
			s10.24023,25.07813,24.0332,25.07813C462.98242,1662.84473,470.08789,1660.75488,476.56641,1653.44043z"/>
		<path class="st8" d="M640.19678,1630.66113v57.88867h-33.85547v-52.45508c0-14.41992-7.31445-21.31641-18.59961-21.31641
			c-6.06055,0-12.53906,3.34375-18.39063,10.03125v63.74023h-34.06445v-101.35742h34.06445v6.6875
			c8.15039-6.26953,16.92773-9.82227,27.79492-9.82227C622.64209,1584.05762,640.19678,1601.82129,640.19678,1630.66113z"/>
		<path class="st8" d="M770.38867,1688.5498H736.5332v-5.22461c-7.52344,4.80664-16.50977,7.73242-27.79492,7.73242
			c-27.37695,0-50.36523-22.7793-50.36523-53.08203c0-30.09375,22.98828-52.66406,50.36523-52.66406
			c11.28516,0,20.27148,2.92578,27.79492,7.73242v-52.87305h33.85547V1688.5498z M736.5332,1653.8584v-31.55664
			c-6.47852-7.10547-13.58398-9.4043-20.89844-9.4043c-13.79297,0-24.0332,11.28516-24.0332,25.07813
			c0,14.21094,10.24023,25.28711,24.0332,25.28711C722.94922,1663.2627,730.05469,1661.17285,736.5332,1653.8584z"/>
		<path class="st8" d="M989.60547,1688.5498h-26.33203l-1.46289-17.13672c-10.24023,12.53906-25.07813,20.0625-44.93164,20.0625
			c-44.51367,0-75.65234-31.76563-75.65234-72.51758c0-44.30469,32.60156-75.44336,75.86133-75.44336
			c34.90039,0,64.99414,19.64453,71.05469,53.5h-37.19922c-6.06055-16.50977-20.27148-21.10742-33.01953-21.10742
			c-24.45117,0-40.96094,17.13672-40.96094,42.21484c0,22.36133,16.0918,40.54297,41.16992,40.54297
			c16.50977,0,29.04883-8.15039,36.1543-21.73438l-40.75195-0.41797v-27.79492h76.07031V1688.5498z"/>
		<path class="st8" d="M1118.33398,1688.5498h-33.85547v-6.6875c-8.15039,6.26953-16.92773,9.82227-27.79492,9.82227
			c-25.70508,0-43.25977-17.76367-43.25977-46.60352v-57.88867h33.85547v52.66406c0,14.41992,7.52344,21.31641,18.59961,21.31641
			c6.26953,0,12.74805-3.55273,18.59961-10.03125v-63.94922h33.85547V1688.5498z"/>
		<path class="st8" d="M1141.10791,1552.29199c0-11.07617,8.77734-19.22656,19.85352-19.22656
			c10.86719,0,19.85352,8.15039,19.85352,19.22656c0,10.86719-8.98633,19.01758-19.85352,19.01758
			C1149.88525,1571.30957,1141.10791,1563.15918,1141.10791,1552.29199z M1178.09814,1587.19238v101.35742h-33.85547v-101.35742
			H1178.09814z"/>
		<path class="st8" d="M1310.59131,1688.5498h-33.85547v-5.22461c-7.52344,4.80664-16.50977,7.73242-27.79492,7.73242
			c-27.37695,0-50.36523-22.7793-50.36523-53.08203c0-30.09375,22.98828-52.66406,50.36523-52.66406
			c11.28516,0,20.27148,2.92578,27.79492,7.73242v-52.87305h33.85547V1688.5498z M1276.73584,1653.8584v-31.55664
			c-6.47852-7.10547-13.58398-9.4043-20.89844-9.4043c-13.79297,0-24.0332,11.28516-24.0332,25.07813
			c0,14.21094,10.24023,25.28711,24.0332,25.28711C1263.15186,1663.2627,1270.25732,1661.17285,1276.73584,1653.8584z"/>
		<path class="st8" d="M1435.55957,1646.12598h-72.09961c2.29883,10.03125,8.98633,17.97266,22.7793,17.97266
			c7.10547,0,12.53906-2.7168,15.46484-7.31445h33.64648c-5.01563,20.89844-24.45117,34.69141-49.5293,34.69141
			c-33.22852,0-55.38086-22.7793-55.38086-53.70898c0-31.34766,21.52539-53.70898,53.70898-53.70898
			c29.67578,0,52.03711,20.27148,52.03711,51.61914C1436.18652,1639.64746,1435.97754,1642.99121,1435.55957,1646.12598z
			 M1363.66895,1627.31738h40.125c-1.88086-11.49414-8.56836-17.13672-19.01758-17.13672
			C1373.07324,1610.18066,1366.17676,1616.86816,1363.66895,1627.31738z"/>
		<path class="st8" d="M1490.31055,1688.5498h-34.06445V1540.1709h34.06445V1688.5498z"/>
		<path class="st8" d="M1512.87891,1552.29199c0-11.07617,8.77734-19.22656,19.85352-19.22656
			c10.86719,0,19.85352,8.15039,19.85352,19.22656c0,10.86719-8.98633,19.01758-19.85352,19.01758
			C1521.65625,1571.30957,1512.87891,1563.15918,1512.87891,1552.29199z M1549.86914,1587.19238v101.35742h-33.85547v-101.35742
			H1549.86914z"/>
		<path class="st8" d="M1680.48047,1630.66113v57.88867H1646.625v-52.45508c0-14.41992-7.31445-21.31641-18.59961-21.31641
			c-6.06055,0-12.53906,3.34375-18.39063,10.03125v63.74023h-34.06445v-101.35742h34.06445v6.6875
			c8.15039-6.26953,16.92773-9.82227,27.79492-9.82227C1662.92578,1584.05762,1680.48047,1601.82129,1680.48047,1630.66113z"/>
		<path class="st8" d="M1803.77637,1646.12598h-72.09961c2.29883,10.03125,8.98633,17.97266,22.7793,17.97266
			c7.10547,0,12.53906-2.7168,15.46484-7.31445h33.64648c-5.01563,20.89844-24.45117,34.69141-49.5293,34.69141
			c-33.22852,0-55.38086-22.7793-55.38086-53.70898c0-31.34766,21.52539-53.70898,53.70898-53.70898
			c29.67578,0,52.03711,20.27148,52.03711,51.61914C1804.40332,1639.64746,1804.19434,1642.99121,1803.77637,1646.12598z
			 M1731.88574,1627.31738h40.125c-1.88086-11.49414-8.56836-17.13672-19.01758-17.13672
			C1741.29004,1610.18066,1734.39355,1616.86816,1731.88574,1627.31738z"/>
		<path class="st8" d="M1847.66016,1653.8584c1.46289,8.77734,8.56836,12.95703,19.43555,12.95703
			c8.77734,0,14.41992-2.7168,14.41992-7.31445c0-3.34375-2.92578-5.85156-9.19531-6.89648l-21.10742-3.76172
			c-17.3457-2.7168-29.88477-12.74805-29.88477-30.30273c0-21.52539,18.39063-34.06445,45.34961-34.06445
			c21.52539,0,45.76758,8.35938,47.43945,35.10938h-30.30273c-0.62695-7.73242-8.15039-11.70313-17.13672-11.70313
			c-8.56836,0-12.74805,3.34375-12.74805,7.52344c0,3.34375,2.50781,6.6875,10.6582,8.15039l18.80859,3.13477
			c19.01758,3.55273,31.76563,11.91211,31.76563,30.09375c0,23.40625-20.48047,34.90039-47.64844,34.90039
			c-26.33203,0-47.85742-11.07617-49.94727-38.03516L1847.66016,1653.8584z"/>
	</g>
	<g class="st1">
		<path class="st11" d="M313.92969,3558.28223h-12.21826l-20.22021-61.00586h11.78809l14.7998,46.55078l14.71338-46.55078h11.18555
			L313.92969,3558.28223z"/>
		<path class="st11" d="M373.81885,3539.2666h-29.94336c-0.08594,3.44141,1.11865,6.71094,3.26953,8.77637
			c1.54883,1.46289,3.7002,2.75293,6.62549,2.75293c3.09766,0,4.99072-0.60156,6.53955-2.15039
			c0.94629-0.94629,1.7207-2.15137,2.15088-3.78613h10.3252c-0.25781,2.66699-2.06494,6.19531-3.78564,8.25977
			c-3.78613,4.47461-9.37891,6.28125-15.05762,6.28125c-6.10938,0-10.5835-2.15039-14.11133-5.50684
			c-4.47461-4.30176-6.88379-10.58301-6.88379-17.89648c0-7.1416,2.15137-13.50879,6.45361-17.89746
			c3.35547-3.44141,8.17383-5.67871,14.2832-5.67871c6.62549,0,12.64844,2.66699,16.34814,8.25977
			c3.27002,4.9043,4.04443,9.98145,3.87207,15.57422C373.90479,3536.25488,373.81885,3538.32031,373.81885,3539.2666z
			 M360.396,3523.60645c-1.46289-1.54883-3.69971-2.58105-6.79736-2.58105c-3.27002,0-5.93701,1.37598-7.48584,3.44141
			c-1.54883,1.97949-2.2373,4.04395-2.32324,6.96973h19.35986C363.06348,3528.08105,362.1167,3525.49902,360.396,3523.60645z"/>
		<path class="st11" d="M404.71143,3523.08984c-7.57178,0-11.52979,5.4209-11.52979,12.64844v22.54395h-10.8418v-44.74316h9.12061
			l0.94678,6.71191c2.06494-5.16309,7.39941-7.31445,12.64844-7.31445c1.11865,0,2.2373,0.08594,3.35547,0.25879v10.3252
			C407.20654,3523.26172,405.91602,3523.08984,404.71143,3523.08984z"/>
		<path class="st11" d="M444.72363,3554.23828c-3.61426,3.61328-9.20703,5.16211-15.31592,5.16211
			c-5.6792,0-10.75586-1.63477-14.45557-5.16211c-2.58154-2.49512-4.73242-6.19531-4.73242-10.41113h10.06689
			c0,1.97852,1.03271,4.12988,2.40967,5.24805c1.7207,1.37695,3.69971,1.97949,6.79736,1.97949
			c3.61377,0,9.12061-0.77441,9.12061-5.67871c0-2.58203-1.7207-4.30273-4.47412-4.73242
			c-3.95801-0.60254-8.43262-0.86133-12.39063-1.72168c-6.10889-1.29004-10.23926-6.28125-10.23926-11.95996
			c0-4.56055,1.89307-7.74414,4.56055-10.06738c3.26953-2.83887,8.00195-4.47363,13.59473-4.47363
			c5.33496,0,10.75586,1.7207,14.02539,5.24805c2.40918,2.58203,3.95801,5.9375,3.95801,9.20703h-10.23926
			c0-1.7207-0.77441-3.09766-1.80713-4.21582c-1.29053-1.29102-3.61377-2.06543-5.85059-2.06543
			c-1.54883,0-3.01172,0-4.64648,0.68848c-1.89307,0.77441-3.44189,2.40918-3.44189,4.73242
			c0,3.18359,2.75342,4.12988,5.1626,4.47461c4.04395,0.51563,5.1626,0.60156,9.55078,1.29004
			c7.05566,1.11914,12.21826,5.59277,12.21826,12.64844C448.59521,3548.73145,447.04688,3551.91504,444.72363,3554.23828z"/>
		<path class="st11" d="M456.8584,3507.34375v-11.09961h11.52979v11.09961H456.8584z M457.20215,3558.28223v-44.74316h10.92773
			v44.74316H457.20215z"/>
		<path class="st11" d="M513.47656,3552.43164c-3.09766,3.78516-8.8623,6.96875-15.66016,6.96875
			c-6.79736,0-12.5625-3.18359-15.65967-6.96875c-3.35596-4.2168-5.24902-8.94922-5.24902-16.52051
			c0-7.57227,1.89307-12.30469,5.24902-16.52051c3.09717-3.78613,8.8623-6.96973,15.65967-6.96973
			c6.79785,0,12.5625,3.18359,15.66016,6.96973c3.35596,4.21582,5.24902,8.94824,5.24902,16.52051
			C518.72559,3543.48242,516.83252,3548.21484,513.47656,3552.43164z M504.61426,3524.63867
			c-1.46289-1.54883-3.87207-2.83887-6.79785-2.83887c-2.92529,0-5.33447,1.29004-6.79736,2.83887
			c-2.58154,2.83984-3.18359,7.05566-3.18359,11.27246c0,4.21582,0.60205,8.43164,3.18359,11.27148
			c1.46289,1.54883,3.87207,2.83887,6.79736,2.83887c2.92578,0,5.33496-1.29004,6.79785-2.83887
			c2.58105-2.83984,3.18359-7.05566,3.18359-11.27148C507.79785,3531.69434,507.19531,3527.47852,504.61426,3524.63867z"/>
		<path class="st11" d="M554.78076,3558.28223v-27.44824c0-5.24902-1.72119-8.43262-7.3999-8.43262
			c-3.78613,0-6.28125,2.40918-7.74414,5.67969c-1.54883,3.52734-1.46289,8.17383-1.46289,11.95996v18.24121h-10.75537v-44.74316
			h9.03467l0.77441,5.76465c2.66748-4.73242,8.00195-6.88281,13.16455-6.88281c9.55127,0,15.14404,6.71094,15.14404,16.00391
			v29.85742H554.78076z"/>
		<path class="st11" d="M609.42236,3558.28223v-47.06641l-13.16504,9.55078v-11.70215l14.71387-10.58301h9.20654v59.80078H609.42236
			z"/>
		<path class="st11" d="M639.71289,3558.28223v-13.42285h13.0791v13.42285H639.71289z"/>
		<path class="st11" d="M695.72949,3554.06641c-3.09766,3.01074-7.48584,5.33398-13.93945,5.33398
			c-6.45313,0-10.84131-2.32324-13.93896-5.33398c-6.19531-5.9375-7.1416-15.91895-7.1416-25.72754
			c0-9.80957,0.94629-19.79004,7.1416-25.72754c3.09766-3.01172,7.48584-5.24805,13.93896-5.24805
			c6.45361,0,10.8418,2.23633,13.93945,5.24805c6.19531,5.9375,7.1416,15.91797,7.1416,25.72754
			C702.87109,3538.14746,701.9248,3548.12891,695.72949,3554.06641z M681.79004,3507.25781
			c-11.09961,0-10.15283,13.33691-10.15283,21.08105s-0.94678,21.08105,10.15283,21.08105
			c11.1001,0,10.15332-13.33691,10.15332-21.08105S692.89014,3507.25781,681.79004,3507.25781z"/>
	</g>
	<g class="st1">
		<path class="st11" d="M341.29199,3656.63574v-51.4541l-18.92969,50.59375h-6.02295l-18.93018-51.02441v51.88477h-7.31348
			v-61.00586h11.01367l18.41357,49.64844l18.32715-49.64844h10.75586v61.00586H341.29199z"/>
		<path class="st11" d="M395.24609,3657.23828c-3.87207,0-6.28125-2.92578-6.28125-6.62598h-0.17236
			c-2.49512,4.38867-7.91602,7.1416-14.0249,7.1416c-9.98145,0-14.97168-6.71094-14.97168-13.42285
			c0-5.59277,3.61377-12.90625,15.48779-13.59473l13.25098-0.77441v-3.18359c0-2.15137-0.2583-4.81836-2.2373-6.625
			c-1.46289-1.37695-3.61377-2.2373-7.1416-2.2373c-3.95801,0-6.45313,1.11816-7.91602,2.58105
			c-1.37695,1.37695-2.15137,3.09766-2.15137,5.24902h-7.1416c0.08594-3.95801,1.54883-6.79785,3.78613-9.12109
			c2.92529-3.09766,8.08789-4.64648,13.42285-4.64648c8.43213,0,13.25098,3.61426,15.31592,8.34668
			c0.86035,1.97852,1.29053,4.21582,1.29053,6.71094v21.08105c0,2.32324,0.94678,2.92578,2.40918,2.92578
			c0.77441,0,1.89307-0.25781,1.89307-0.25781v5.41992C398.51563,3656.97949,397.05273,3657.23828,395.24609,3657.23828z
			 M388.53467,3635.64063l-11.70215,0.68848c-4.38818,0.25879-9.55078,2.32324-9.55078,7.83008
			c0,3.87207,2.40918,7.48633,8.60449,7.48633c3.35547,0,6.625-1.11914,8.94824-3.52832
			c2.58154-2.66699,3.7002-6.28125,3.7002-9.89453V3635.64063z"/>
		<path class="st11" d="M423.55713,3665.58398c-2.06494,5.59277-5.24854,9.29297-11.78809,9.29297
			c-3.61377,0-6.02295-0.68848-6.62549-0.86035v-6.36719c0,0,2.32324,0.68848,5.1626,0.68848
			c3.09766,0,5.33496-1.11914,6.53955-4.38867l2.75342-7.31348l-17.38086-43.53809h8.26025l12.82031,34.33105l12.21826-34.33105
			h7.6582L423.55713,3665.58398z"/>
		<path class="st11" d="M467.18457,3656.63574v-6.28125l24.17822-29.85742c2.2373-2.83984,3.27002-5.50684,3.27002-8.60449
			c0-6.10938-3.52783-9.63672-9.80908-9.63672c-5.33496,0-10.15332,2.92578-10.15332,10.8418h-7.57178
			c0-10.41211,7.05566-17.38086,17.63867-17.38086c6.53955,0,11.61621,2.58105,14.62793,6.79688
			c1.80664,2.58105,2.75342,5.50684,2.75342,9.29297c0,4.73242-1.80713,8.69043-5.07666,12.73438l-20.30664,25.21094h26.32959
			v6.88379H467.18457z"/>
		<path class="st11" d="M545.40137,3652.67773c-2.92529,2.92578-6.96973,5.07617-12.90674,5.07617
			s-9.98096-2.15039-12.90625-5.07617c-6.02344-6.10938-7.05566-14.45508-7.05566-25.98535s1.03223-19.96191,7.05566-26.07129
			c2.92529-2.92578,6.96924-4.9043,12.90625-4.9043s9.98145,1.97852,12.90674,4.9043
			c6.02295,6.10938,7.05566,14.54102,7.05566,26.07129S551.42432,3646.56836,545.40137,3652.67773z M539.89453,3605.09473
			c-1.7207-1.63477-4.21631-2.75293-7.3999-2.75293s-5.67871,1.11816-7.39941,2.75293
			c-5.07666,4.81934-4.90479,13.50977-4.90479,21.59766s-0.17188,16.77832,4.90479,21.59668
			c1.7207,1.63477,4.21582,2.75391,7.39941,2.75391s5.6792-1.11914,7.3999-2.75391
			c5.07666-4.81836,4.90479-13.50879,4.90479-21.59668S544.97119,3609.91406,539.89453,3605.09473z"/>
		<path class="st11" d="M579.99414,3656.63574v-51.4541l-14.19775,10.41113v-8.1748l14.62793-10.58301h7.05566v59.80078H579.99414z"
			/>
		<path class="st11" d="M642.72266,3651.21484c-3.52734,4.21582-9.12061,6.53906-15.40186,6.53906
			s-11.87402-2.32324-15.40186-6.53906c-2.40918-2.83984-3.95801-6.45313-3.95801-11.01367
			c0-6.53906,3.87207-12.21777,9.37891-14.71387c-4.9043-2.58105-8.17432-7.74316-8.17432-13.50879
			c0-4.9043,1.979-8.77637,4.90479-11.5293c3.35547-3.09766,8.00195-4.73242,13.25049-4.73242
			c5.24902,0,9.89502,1.63477,13.25098,4.73242c2.92529,2.75293,4.90479,6.625,4.90479,11.5293
			c0,5.76563-3.27002,10.92773-8.17432,13.50879c5.50684,2.49609,9.37891,8.1748,9.37891,14.71387
			C646.68115,3644.76172,645.13232,3648.375,642.72266,3651.21484z M627.3208,3628.6709
			c-7.57178,0-11.95996,4.81934-11.95996,11.18652c0,7.05566,4.99072,11.44336,11.95996,11.44336
			c6.96973,0,11.96045-4.3877,11.96045-11.44336C639.28125,3633.49023,634.89307,3628.6709,627.3208,3628.6709z
			 M627.3208,3602.08398c-5.93701,0-10.75537,3.78516-10.75537,9.89453c0,5.50684,3.87207,10.3252,10.75537,10.3252
			c6.88379,0,10.75586-4.81836,10.75586-10.3252C638.07666,3605.86914,633.25781,3602.08398,627.3208,3602.08398z"/>
	</g>
</g>
</svg>
