<?xml version="1.0" encoding="utf-8"?>
<!-- Generator: Adobe Illustrator 20.1.0, SVG Export Plug-In . SVG Version: 6.00 Build 0)  -->
<svg version="1.1" id="Layer_1" xmlns="http://www.w3.org/2000/svg" xmlns:xlink="http://www.w3.org/1999/xlink" x="0px" y="0px"
	 viewBox="0 0 612 792" style="enable-background:new 0 0 612 792;" xml:space="preserve">
<style type="text/css">
	.st0{clip-path:url(#SVGID_2_);fill:#542E91;}
	.st1{clip-path:url(#SVGID_2_);}
	.st2{opacity:0.5;clip-path:url(#SVGID_4_);}
	.st3{clip-path:url(#SVGID_6_);fill:#59439A;}
	.st4{clip-path:url(#SVGID_6_);fill:#542E91;}
	.st5{clip-path:url(#SVGID_6_);fill:#401B63;}
	.st6{clip-path:url(#SVGID_6_);fill:#A39CCC;}
	.st7{clip-path:url(#SVGID_6_);fill:#7666AD;}
</style>
<g>
	<defs>
		<rect id="SVGID_1_" x="-295.6" y="-139" width="927.3" height="1200"/>
	</defs>
	<clipPath id="SVGID_2_">
		<use xlink:href="#SVGID_1_"  style="overflow:visible;"/>
	</clipPath>
	<rect x="-295.6" y="-139" class="st0" width="927.3" height="1200"/>
	<g class="st1">
		<defs>
			<rect id="SVGID_3_" x="-295.6" y="-139" width="927.3" height="1200"/>
		</defs>
		<clipPath id="SVGID_4_">
			<use xlink:href="#SVGID_3_"  style="overflow:visible;"/>
		</clipPath>
		<g class="st2">
			<g>
				<defs>
					<rect id="SVGID_5_" x="-1955.9" y="-2221.4" width="4331.3" height="4808"/>
				</defs>
				<clipPath id="SVGID_6_">
					<use xlink:href="#SVGID_5_"  style="overflow:visible;"/>
				</clipPath>
				<polygon class="st3" points="435.3,239.1 1460.5,1259.4 -599.2,2584.6 				"/>
				<polygon class="st4" points="-118.3,-1805.5 572.9,-602.1 362.5,-30.1 				"/>
				<polygon class="st5" points="-118.4,-1805.6 362.4,-30 -599.2,2584.4 				"/>
				<polygon class="st4" points="362.5,-29.8 435.2,239 -598.8,2583.6 				"/>
				<polygon class="st6" points="435.3,239 616.3,-526.4 1211.3,509.6 				"/>
				<polygon class="st7" points="362.5,-30 572.9,-602 616.3,-526.5 435.3,238.8 				"/>
				<polygon class="st7" points="435.5,239.1 1211.4,509.8 1593,1174.2 1460.6,1259.4 				"/>
			</g>
		</g>
	</g>
	<g class="st1">
	</g>
	<g class="st1">
	</g>
	<g class="st1">
		<defs>
			<rect id="SVGID_7_" x="-186.5" y="-29.9" width="199.4" height="57.3"/>
		</defs>
		<clipPath id="SVGID_8_">
			<use xlink:href="#SVGID_7_"  style="overflow:visible;"/>
		</clipPath>
	</g>
	<g class="st1">
	</g>
</g>
</svg>
