<?xml version="1.0" encoding="utf-8"?>
<!-- Generator: Adobe Illustrator 21.0.0, SVG Export Plug-In . SVG Version: 6.00 Build 0)  -->
<svg version="1.1" id="icons" xmlns="http://www.w3.org/2000/svg" xmlns:xlink="http://www.w3.org/1999/xlink" x="0px" y="0px" viewBox="0 0 200 200" enable-background="new 0 0 200 200" xml:space="preserve">
<g>
	<circle fill="#EDEDED" cx="96" cy="100" r="75"/>
	<path fill="#E8E8E8" d="M96,25c41.421,0,75,33.579,75,75s-33.579,75-75,75"/>
	<polygon fill="#E4E0EE" points="68,107.381 68,110.535 133.309,187.439 137.763,187.439 137.761,174.196 81.022,107.381 	"/>
	<polygon fill="#E4E0EE" points="92,98.381 92,101.535 157.309,178.439 161.763,178.439 161.761,165.196 105.022,98.381 	"/>
	<polygon fill="#E4E0EE" points="103,73.381 103,76.535 168.309,153.439 172.763,153.439 172.761,140.196 116.022,73.381 	"/>
	<g>
		<path fill="#989898" d="M144,38c1.104,0,2,0.896,2,2v2c0,1.104-0.896,2-2,2s-2-0.896-2-2v-2C142,38.896,142.896,38,144,38z
			 M144,18c-1.104,0-2-0.896-2-2v-2c0-1.104,0.896-2,2-2s2,0.896,2,2v2C146,17.104,145.104,18,144,18z M158,26c1.104,0,2,0.896,2,2
			s-0.896,2-2,2h-2c-1.104,0-2-0.896-2-2s0.896-2,2-2H158z M134,28c0,1.104-0.896,2-2,2h-2c-1.105,0-2-0.896-2-2s0.895-2,2-2h2
			C133.104,26,134,26.896,134,28z M153.9,35.071l1.414,1.414c0.781,0.781,0.781,2.048,0,2.829c-0.781,0.781-2.048,0.781-2.829,0
			l-1.414-1.414c-0.781-0.781-0.781-2.048,0-2.829S153.118,34.29,153.9,35.071L153.9,35.071z M134.1,20.929l-1.414-1.415
			c-0.781-0.781-0.781-2.048,0-2.828c0.781-0.781,2.048-0.781,2.828,0l1.414,1.414c0.781,0.781,0.781,2.047,0,2.829
			C136.147,21.71,134.881,21.71,134.1,20.929L134.1,20.929z M153.9,20.929c-0.781,0.781-2.048,0.781-2.829,0
			c-0.781-0.781-0.781-2.048,0-2.829l1.414-1.414c0.781-0.781,2.048-0.781,2.829,0c0.781,0.781,0.781,2.048,0,2.828L153.9,20.929z
			 M134.1,35.071c0.781-0.781,2.048-0.781,2.829,0s0.781,2.048,0,2.828l-1.414,1.414c-0.781,0.781-2.048,0.781-2.829,0
			c-0.781-0.781-0.781-2.048,0-2.828L134.1,35.071L134.1,35.071z"/>
		<path fill="#989898" d="M144,20c-4.419,0-8,3.582-8,8s3.581,8,8,8c4.418,0,8-3.582,8-8S148.419,20,144,20z M144,33
			c-2.762,0-5-2.239-5-5s2.238-5,5-5s5,2.239,5,5S146.762,33,144,33z"/>
	</g>
	<path fill="#666666" d="M49.157,128.244v2.195c0,0.584-0.422,1.098-0.902,1.098h-1.803c-0.48,0-0.902-0.514-0.902-1.098v-2.195
		c0-0.584,0.422-1.098,0.902-1.098h1.803C48.735,127.146,49.157,127.66,49.157,128.244z M49.157,119.463v2.195
		c0,0.584-0.422,1.098-0.902,1.098h-1.803c-0.48,0-0.902-0.514-0.902-1.098v-2.195c0-0.584,0.422-1.098,0.902-1.098h1.803
		C48.735,118.366,49.157,118.88,49.157,119.463z M56.369,119.463v2.195c0,0.584-0.422,1.098-0.902,1.098h-1.803
		c-0.48,0-0.902-0.514-0.902-1.098v-2.195c0-0.584,0.422-1.098,0.902-1.098h1.803C55.947,118.366,56.369,118.88,56.369,119.463z
		 M49.157,110.683v2.195c0,0.584-0.422,1.098-0.902,1.098h-1.803c-0.48,0-0.902-0.514-0.902-1.098v-2.195
		c0-0.584,0.422-1.098,0.902-1.098h1.803C48.735,109.585,49.157,110.099,49.157,110.683z M70.794,128.244v2.195
		c0,0.584-0.422,1.098-0.902,1.098H68.09c-0.48,0-0.902-0.514-0.902-1.098v-2.195c0-0.584,0.422-1.098,0.902-1.098h1.803
		C70.372,127.146,70.794,127.66,70.794,128.244z M63.582,119.463v2.195c0,0.584-0.422,1.098-0.902,1.098h-1.803
		c-0.48,0-0.902-0.514-0.902-1.098v-2.195c0-0.584,0.422-1.098,0.902-1.098h1.803C63.16,118.366,63.582,118.88,63.582,119.463z
		 M56.369,110.683v2.195c0,0.584-0.422,1.098-0.902,1.098h-1.803c-0.48,0-0.902-0.514-0.902-1.098v-2.195
		c0-0.584,0.422-1.098,0.902-1.098h1.803C55.947,109.585,56.369,110.099,56.369,110.683z M49.157,101.902v2.195
		c0,0.584-0.422,1.098-0.902,1.098h-1.803c-0.48,0-0.902-0.514-0.902-1.098v-2.195c0-0.584,0.422-1.098,0.902-1.098h1.803
		C48.735,100.805,49.157,101.319,49.157,101.902z M70.794,119.463v2.195c0,0.584-0.422,1.098-0.902,1.098H68.09
		c-0.48,0-0.902-0.514-0.902-1.098v-2.195c0-0.584,0.422-1.098,0.902-1.098h1.803C70.372,118.366,70.794,118.88,70.794,119.463z
		 M63.582,110.683v2.195c0,0.584-0.422,1.098-0.902,1.098h-1.803c-0.48,0-0.902-0.514-0.902-1.098v-2.195
		c0-0.584,0.422-1.098,0.902-1.098h1.803C63.16,109.585,63.582,110.099,63.582,110.683z M56.369,101.902v2.195
		c0,0.584-0.422,1.098-0.902,1.098h-1.803c-0.48,0-0.902-0.514-0.902-1.098v-2.195c0-0.584,0.422-1.098,0.902-1.098h1.803
		C55.947,100.805,56.369,101.319,56.369,101.902z M49.157,93.122v2.195c0,0.584-0.422,1.098-0.902,1.098h-1.803
		c-0.48,0-0.902-0.514-0.902-1.098v-2.195c0-0.584,0.422-1.098,0.902-1.098h1.803C48.735,92.024,49.157,92.538,49.157,93.122z
		 M70.794,110.683v2.195c0,0.584-0.422,1.098-0.902,1.098H68.09c-0.48,0-0.902-0.514-0.902-1.098v-2.195
		c0-0.584,0.422-1.098,0.902-1.098h1.803C70.372,109.585,70.794,110.099,70.794,110.683z M63.582,101.902v2.195
		c0,0.584-0.422,1.098-0.902,1.098h-1.803c-0.48,0-0.902-0.514-0.902-1.098v-2.195c0-0.584,0.422-1.098,0.902-1.098h1.803
		C63.16,100.805,63.582,101.319,63.582,101.902z M56.369,93.122v2.195c0,0.584-0.422,1.098-0.902,1.098h-1.803
		c-0.48,0-0.902-0.514-0.902-1.098v-2.195c0-0.584,0.422-1.098,0.902-1.098h1.803C55.947,92.024,56.369,92.538,56.369,93.122z
		 M70.794,101.902v2.195c0,0.584-0.422,1.098-0.902,1.098H68.09c-0.48,0-0.902-0.514-0.902-1.098v-2.195
		c0-0.584,0.422-1.098,0.902-1.098h1.803C70.372,100.805,70.794,101.319,70.794,101.902z M63.582,93.122v2.195
		c0,0.584-0.422,1.098-0.902,1.098h-1.803c-0.48,0-0.902-0.514-0.902-1.098v-2.195c0-0.584,0.422-1.098,0.902-1.098h1.803
		C63.16,92.024,63.582,92.538,63.582,93.122z M70.794,93.122v2.195c0,0.584-0.422,1.098-0.902,1.098H68.09
		c-0.48,0-0.902-0.514-0.902-1.098v-2.195c0-0.584,0.422-1.098,0.902-1.098h1.803C70.372,92.024,70.794,92.538,70.794,93.122z
		 M63.582,140.317h10.819V87.634H41.944v52.683h10.819v-7.683c0-0.584,0.422-1.098,0.902-1.098h9.016
		c0.48,0,0.902,0.514,0.902,1.098V140.317z M78.007,85.439v57.073c0,1.201-0.817,2.195-1.803,2.195H40.141
		c-0.986,0-1.803-0.994-1.803-2.195V85.439c0-1.201,0.817-2.195,1.803-2.195h36.063C77.19,83.244,78.007,84.238,78.007,85.439z"/>
	<path fill="#989898" d="M127.283,123.07v1.568c0,0.417-0.515,0.784-1.101,0.784h-2.202c-0.586,0-1.101-0.367-1.101-0.784v-1.568
		c0-0.417,0.515-0.784,1.101-0.784h2.202C126.768,122.286,127.283,122.653,127.283,123.07z M127.283,116.798v1.568
		c0,0.417-0.515,0.784-1.101,0.784h-2.202c-0.586,0-1.101-0.367-1.101-0.784v-1.568c0-0.417,0.515-0.784,1.101-0.784h2.202
		C126.768,116.014,127.283,116.381,127.283,116.798z M136.092,116.798v1.568c0,0.417-0.515,0.784-1.101,0.784h-2.202
		c-0.586,0-1.101-0.367-1.101-0.784v-1.568c0-0.417,0.515-0.784,1.101-0.784h2.202C135.577,116.014,136.092,116.381,136.092,116.798
		z M127.283,110.526v1.568c0,0.417-0.515,0.784-1.101,0.784h-2.202c-0.586,0-1.101-0.367-1.101-0.784v-1.568
		c0-0.417,0.515-0.784,1.101-0.784h2.202C126.768,109.742,127.283,110.109,127.283,110.526z M153.71,123.07v1.568
		c0,0.417-0.515,0.784-1.101,0.784h-2.202c-0.586,0-1.101-0.367-1.101-0.784v-1.568c0-0.417,0.515-0.784,1.101-0.784h2.202
		C153.195,122.286,153.71,122.653,153.71,123.07z M144.901,116.798v1.568c0,0.417-0.515,0.784-1.101,0.784h-2.202
		c-0.586,0-1.101-0.367-1.101-0.784v-1.568c0-0.417,0.515-0.784,1.101-0.784h2.202C144.386,116.014,144.901,116.381,144.901,116.798
		z M136.092,110.526v1.568c0,0.417-0.515,0.784-1.101,0.784h-2.202c-0.586,0-1.101-0.367-1.101-0.784v-1.568
		c0-0.417,0.515-0.784,1.101-0.784h2.202C135.577,109.742,136.092,110.109,136.092,110.526z M127.283,104.254v1.568
		c0,0.417-0.515,0.784-1.101,0.784h-2.202c-0.586,0-1.101-0.367-1.101-0.784v-1.568c0-0.417,0.515-0.784,1.101-0.784h2.202
		C126.768,103.47,127.283,103.837,127.283,104.254z M153.71,116.798v1.568c0,0.417-0.515,0.784-1.101,0.784h-2.202
		c-0.586,0-1.101-0.367-1.101-0.784v-1.568c0-0.417,0.515-0.784,1.101-0.784h2.202C153.195,116.014,153.71,116.381,153.71,116.798z
		 M144.901,110.526v1.568c0,0.417-0.515,0.784-1.101,0.784h-2.202c-0.586,0-1.101-0.367-1.101-0.784v-1.568
		c0-0.417,0.515-0.784,1.101-0.784h2.202C144.386,109.742,144.901,110.109,144.901,110.526z M136.092,104.254v1.568
		c0,0.417-0.515,0.784-1.101,0.784h-2.202c-0.586,0-1.101-0.367-1.101-0.784v-1.568c0-0.417,0.515-0.784,1.101-0.784h2.202
		C135.577,103.47,136.092,103.837,136.092,104.254z M127.283,97.983v1.568c0,0.417-0.515,0.784-1.101,0.784h-2.202
		c-0.586,0-1.101-0.367-1.101-0.784v-1.568c0-0.417,0.515-0.784,1.101-0.784h2.202C126.768,97.199,127.283,97.566,127.283,97.983z
		 M153.71,110.526v1.568c0,0.417-0.515,0.784-1.101,0.784h-2.202c-0.586,0-1.101-0.367-1.101-0.784v-1.568
		c0-0.417,0.515-0.784,1.101-0.784h2.202C153.195,109.742,153.71,110.109,153.71,110.526z M144.901,104.254v1.568
		c0,0.417-0.515,0.784-1.101,0.784h-2.202c-0.586,0-1.101-0.367-1.101-0.784v-1.568c0-0.417,0.515-0.784,1.101-0.784h2.202
		C144.386,103.47,144.901,103.837,144.901,104.254z M136.092,97.983v1.568c0,0.417-0.515,0.784-1.101,0.784h-2.202
		c-0.586,0-1.101-0.367-1.101-0.784v-1.568c0-0.417,0.515-0.784,1.101-0.784h2.202C135.577,97.199,136.092,97.566,136.092,97.983z
		 M153.71,104.254v1.568c0,0.417-0.515,0.784-1.101,0.784h-2.202c-0.586,0-1.101-0.367-1.101-0.784v-1.568
		c0-0.417,0.515-0.784,1.101-0.784h2.202C153.195,103.47,153.71,103.837,153.71,104.254z M144.901,97.983v1.568
		c0,0.417-0.515,0.784-1.101,0.784h-2.202c-0.586,0-1.101-0.367-1.101-0.784v-1.568c0-0.417,0.515-0.784,1.101-0.784h2.202
		C144.386,97.199,144.901,97.566,144.901,97.983z M153.71,97.983v1.568c0,0.417-0.515,0.784-1.101,0.784h-2.202
		c-0.586,0-1.101-0.367-1.101-0.784v-1.568c0-0.417,0.515-0.784,1.101-0.784h2.202C153.195,97.199,153.71,97.566,153.71,97.983z
		 M144.901,131.693h13.214V94.063h-39.64v37.631h13.214v-5.488c0-0.417,0.515-0.784,1.101-0.784H143.8
		c0.586,0,1.101,0.367,1.101,0.784V131.693z M162.519,92.495v40.767c0,0.858-0.998,1.568-2.202,1.568h-44.045
		c-1.205,0-2.202-0.71-2.202-1.568V92.495c0-0.858,0.998-1.568,2.202-1.568h44.045C161.522,90.927,162.519,91.637,162.519,92.495z"
		/>
	<path fill="#FFFFFF" stroke="#989898" stroke-width="3" stroke-miterlimit="10" d="M152.554,40.337
		c0-3.136-2.164-5.763-5.079-6.473C147.351,28.948,143.332,25,138.39,25c-2.895,0-5.472,1.355-7.136,3.466
		c-0.934-1.207-2.394-1.984-4.038-1.984c-2.819,0-5.104,2.287-5.104,5.108c0,0.246,0.018,0.487,0.052,0.724
		c-0.428-0.078-0.87-0.12-1.321-0.12c-4.086,0-7.399,3.315-7.399,7.403S116.757,47,120.843,47l25.065-0.001
		C149.58,46.993,152.554,44.012,152.554,40.337z"/>
	<path fill="#FFFFFF" stroke="#CCCCCC" stroke-width="3" stroke-miterlimit="10" d="M23,56.837c0-3.136,2.017-5.763,4.733-6.473
		c0.116-4.916,3.86-8.863,8.465-8.863c2.697,0,5.099,1.355,6.65,3.466c0.87-1.207,2.231-1.984,3.762-1.984
		c2.627,0,4.757,2.287,4.757,5.108c0,0.246-0.017,0.487-0.048,0.724c0.399-0.078,0.81-0.12,1.231-0.12
		c3.808,0,6.895,3.315,6.895,7.403S56.357,63.5,52.549,63.5l-23.356-0.001C25.771,63.493,23,60.512,23,56.837z"/>
	<g>
		<path fill="#336688" d="M69.657,149.5c-2.275,0-4.126-2.115-4.126-4.714V61.214c0-2.6,1.851-4.714,4.126-4.714h52.526
			c2.275,0,4.127,2.115,4.127,4.714v83.571c0,2.6-1.852,4.714-4.127,4.714H69.657z M102.29,140.071
			c0.006-0.028,0.01-0.063,0.01-0.107v-9.643c0-0.043-0.004-0.079-0.01-0.107H89.552c-0.006,0.028-0.01,0.063-0.01,0.107v9.643
			c0,0.043,0.004,0.079,0.01,0.107H102.29z M112.794,127.214c0.007-0.028,0.011-0.064,0.011-0.107v-3.214
			c0-0.043-0.004-0.079-0.011-0.107h-2.231c-0.006,0.028-0.01,0.064-0.01,0.107v3.214c0,0.043,0.004,0.079,0.01,0.107H112.794z
			 M81.278,127.214c0.007-0.028,0.011-0.064,0.011-0.107v-3.214c0-0.043-0.004-0.079-0.011-0.107h-2.231
			c-0.007,0.028-0.011,0.064-0.011,0.107v3.214c0,0.043,0.004,0.079,0.011,0.107H81.278z M112.795,114.357
			c0.006-0.028,0.01-0.063,0.01-0.107v-3.214c0-0.043-0.004-0.079-0.01-0.107h-2.232c-0.006,0.028-0.01,0.063-0.01,0.107v3.214
			c0,0.043,0.004,0.079,0.01,0.107H112.795z M102.29,114.357c0.006-0.028,0.01-0.063,0.01-0.107v-3.214
			c0-0.043-0.004-0.079-0.01-0.107h-2.233c-0.006,0.028-0.01,0.063-0.01,0.107v3.214c0,0.043,0.004,0.079,0.01,0.107H102.29z
			 M91.784,114.357c0.006-0.028,0.01-0.063,0.01-0.107v-3.214c0-0.043-0.004-0.079-0.01-0.107h-2.232
			c-0.006,0.028-0.01,0.063-0.01,0.107v3.214c0,0.043,0.004,0.079,0.01,0.107H91.784z M81.279,114.357
			c0.006-0.028,0.01-0.063,0.01-0.107v-3.214c0-0.043-0.004-0.079-0.01-0.107h-2.233c-0.006,0.028-0.01,0.063-0.01,0.107v3.214
			c0,0.043,0.004,0.079,0.01,0.107H81.279z M112.795,101.5c0.006-0.028,0.01-0.063,0.01-0.107v-3.214
			c0-0.043-0.004-0.079-0.011-0.107h-2.231c-0.006,0.028-0.01,0.064-0.01,0.107v3.214c0,0.043,0.004,0.079,0.01,0.107H112.795z
			 M102.29,101.5c0.006-0.028,0.01-0.063,0.01-0.107v-3.214c0-0.043-0.004-0.079-0.011-0.107h-2.231
			c-0.007,0.028-0.011,0.064-0.011,0.107v3.214c0,0.043,0.004,0.079,0.01,0.107H102.29z M91.784,101.5
			c0.006-0.028,0.01-0.063,0.01-0.107v-3.214c0-0.043-0.004-0.079-0.01-0.107h-2.231c-0.007,0.028-0.011,0.064-0.011,0.107v3.214
			c0,0.043,0.004,0.079,0.01,0.107H91.784z M81.279,101.5c0.006-0.028,0.01-0.063,0.01-0.107v-3.214
			c0-0.043-0.004-0.079-0.011-0.107h-2.231c-0.007,0.028-0.011,0.064-0.011,0.107v3.214c0,0.043,0.004,0.079,0.01,0.107H81.279z
			 M112.794,88.643c0.007-0.028,0.011-0.064,0.011-0.107v-3.214c0-0.043-0.004-0.079-0.01-0.107h-2.232
			c-0.006,0.028-0.01,0.063-0.01,0.107v3.214c0,0.043,0.004,0.079,0.01,0.107H112.794z M102.289,88.643
			c0.007-0.028,0.011-0.064,0.011-0.107v-3.214c0-0.043-0.004-0.079-0.01-0.107h-2.233c-0.006,0.028-0.01,0.063-0.01,0.107v3.214
			c0,0.043,0.004,0.079,0.011,0.107H102.289z M91.784,88.643c0.006-0.028,0.01-0.064,0.01-0.107v-3.214
			c0-0.043-0.004-0.079-0.01-0.107h-2.232c-0.006,0.028-0.01,0.063-0.01,0.107v3.214c0,0.043,0.004,0.079,0.011,0.107H91.784z
			 M81.278,88.643c0.007-0.028,0.011-0.064,0.011-0.107v-3.214c0-0.043-0.004-0.079-0.01-0.107h-2.233
			c-0.006,0.028-0.01,0.063-0.01,0.107v3.214c0,0.043,0.004,0.079,0.011,0.107H81.278z M112.795,75.786
			c0.006-0.028,0.01-0.063,0.01-0.107v-3.214c0-0.043-0.004-0.079-0.011-0.107h-2.231c-0.006,0.028-0.01,0.064-0.01,0.107v3.214
			c0,0.043,0.004,0.079,0.01,0.107H112.795z M102.29,75.786c0.006-0.028,0.01-0.063,0.01-0.107v-3.214
			c0-0.043-0.004-0.079-0.011-0.107h-2.231c-0.007,0.028-0.011,0.064-0.011,0.107v3.214c0,0.043,0.004,0.079,0.01,0.107H102.29z
			 M91.784,75.786c0.006-0.028,0.01-0.063,0.01-0.107v-3.214c0-0.043-0.004-0.079-0.01-0.107h-2.231
			c-0.007,0.028-0.011,0.064-0.011,0.107v3.214c0,0.043,0.004,0.079,0.01,0.107H91.784z M81.279,75.786
			c0.006-0.028,0.01-0.063,0.01-0.107v-3.214c0-0.043-0.004-0.079-0.011-0.107h-2.231c-0.007,0.028-0.011,0.064-0.011,0.107v3.214
			c0,0.043,0.004,0.079,0.01,0.107H81.279z"/>
		<path fill="#FFFFFF" d="M122.184,58c1.437,0,2.626,1.456,2.626,3.214v83.571c0,1.758-1.19,3.214-2.626,3.214H69.658
			c-1.437,0-2.626-1.456-2.626-3.214V61.214c0-1.758,1.19-3.214,2.626-3.214H122.184 M110.365,77.286h2.626
			c0.738,0,1.313-0.704,1.313-1.607v-3.214c0-0.903-0.575-1.607-1.313-1.607h-2.626c-0.738,0-1.313,0.704-1.313,1.607v3.214
			C109.052,76.582,109.627,77.286,110.365,77.286 M99.86,77.286h2.626c0.738,0,1.313-0.704,1.313-1.607v-3.214
			c0-0.903-0.575-1.607-1.313-1.607H99.86c-0.738,0-1.313,0.704-1.313,1.607v3.214C98.547,76.582,99.122,77.286,99.86,77.286
			 M89.355,77.286h2.626c0.738,0,1.313-0.704,1.313-1.607v-3.214c0-0.903-0.575-1.607-1.313-1.607h-2.626
			c-0.738,0-1.313,0.704-1.313,1.607v3.214C88.042,76.582,88.617,77.286,89.355,77.286 M78.85,77.286h2.626
			c0.738,0,1.313-0.704,1.313-1.607v-3.214c0-0.903-0.575-1.607-1.313-1.607H78.85c-0.738,0-1.313,0.704-1.313,1.607v3.214
			C77.537,76.582,78.112,77.286,78.85,77.286 M110.365,90.143h2.626c0.738,0,1.313-0.704,1.313-1.607v-3.214
			c0-0.903-0.575-1.607-1.313-1.607h-2.626c-0.738,0-1.313,0.704-1.313,1.607v3.214C109.052,89.439,109.627,90.143,110.365,90.143
			 M99.86,90.143h2.626c0.738,0,1.313-0.704,1.313-1.607v-3.214c0-0.903-0.575-1.607-1.313-1.607H99.86
			c-0.738,0-1.313,0.704-1.313,1.607v3.214C98.547,89.439,99.122,90.143,99.86,90.143 M89.355,90.143h2.626
			c0.738,0,1.313-0.704,1.313-1.607v-3.214c0-0.903-0.575-1.607-1.313-1.607h-2.626c-0.738,0-1.313,0.704-1.313,1.607v3.214
			C88.042,89.439,88.617,90.143,89.355,90.143 M78.85,90.143h2.626c0.738,0,1.313-0.704,1.313-1.607v-3.214
			c0-0.903-0.575-1.607-1.313-1.607H78.85c-0.738,0-1.313,0.704-1.313,1.607v3.214C77.537,89.439,78.112,90.143,78.85,90.143
			 M110.365,103h2.626c0.738,0,1.313-0.704,1.313-1.607v-3.214c0-0.903-0.575-1.607-1.313-1.607h-2.626
			c-0.738,0-1.313,0.704-1.313,1.607v3.214C109.052,102.296,109.627,103,110.365,103 M99.86,103h2.626
			c0.738,0,1.313-0.704,1.313-1.607v-3.214c0-0.903-0.575-1.607-1.313-1.607H99.86c-0.738,0-1.313,0.704-1.313,1.607v3.214
			C98.547,102.296,99.122,103,99.86,103 M89.355,103h2.626c0.738,0,1.313-0.704,1.313-1.607v-3.214c0-0.903-0.575-1.607-1.313-1.607
			h-2.626c-0.738,0-1.313,0.704-1.313,1.607v3.214C88.042,102.296,88.617,103,89.355,103 M78.85,103h2.626
			c0.738,0,1.313-0.704,1.313-1.607v-3.214c0-0.903-0.575-1.607-1.313-1.607H78.85c-0.738,0-1.313,0.704-1.313,1.607v3.214
			C77.537,102.296,78.112,103,78.85,103 M110.365,115.857h2.626c0.738,0,1.313-0.704,1.313-1.607v-3.214
			c0-0.903-0.575-1.607-1.313-1.607h-2.626c-0.738,0-1.313,0.704-1.313,1.607v3.214
			C109.052,115.153,109.627,115.857,110.365,115.857 M99.86,115.857h2.626c0.738,0,1.313-0.704,1.313-1.607v-3.214
			c0-0.903-0.575-1.607-1.313-1.607H99.86c-0.738,0-1.313,0.704-1.313,1.607v3.214C98.547,115.153,99.122,115.857,99.86,115.857
			 M89.355,115.857h2.626c0.738,0,1.313-0.704,1.313-1.607v-3.214c0-0.903-0.575-1.607-1.313-1.607h-2.626
			c-0.738,0-1.313,0.704-1.313,1.607v3.214C88.042,115.153,88.617,115.857,89.355,115.857 M78.85,115.857h2.626
			c0.738,0,1.313-0.704,1.313-1.607v-3.214c0-0.903-0.575-1.607-1.313-1.607H78.85c-0.738,0-1.313,0.704-1.313,1.607v3.214
			C77.537,115.153,78.112,115.857,78.85,115.857 M110.365,128.714h2.626c0.738,0,1.313-0.704,1.313-1.607v-3.214
			c0-0.903-0.575-1.607-1.313-1.607h-2.626c-0.738,0-1.313,0.704-1.313,1.607v3.214C109.052,128.01,109.627,128.714,110.365,128.714
			 M78.85,128.714h2.626c0.738,0,1.313-0.704,1.313-1.607v-3.214c0-0.903-0.575-1.607-1.313-1.607H78.85
			c-0.738,0-1.313,0.704-1.313,1.607v3.214C77.537,128.01,78.112,128.714,78.85,128.714 M89.355,141.571h13.132
			c0.738,0,1.313-0.704,1.313-1.607v-9.643c0-0.903-0.575-1.607-1.313-1.607H89.355c-0.738,0-1.313,0.704-1.313,1.607v9.643
			C88.042,140.868,88.617,141.571,89.355,141.571 M122.184,55H69.658c-3.102,0-5.626,2.788-5.626,6.214v83.571
			c0,3.427,2.524,6.214,5.626,6.214h52.526c3.102,0,5.626-2.788,5.626-6.214V61.214C127.81,57.788,125.286,55,122.184,55L122.184,55
			z M91.042,131.714h9.758v6.857h-9.758V131.714L91.042,131.714z"/>
	</g>
	<g>
		<path fill="#989898" d="M126.875,145.5c-0.577,0-1.044-0.47-1.044-1.052v-11.307c0-0.582,0.467-1.052,1.044-1.052
			c0.577,0,1.044,0.47,1.044,1.052v11.307C127.919,145.03,127.452,145.5,126.875,145.5z"/>
		<path fill="#668700" stroke="#FFFFFF" stroke-miterlimit="10" d="M135.583,122.289c0.003-0.064,0.005-0.127,0.005-0.192
			c0-2.117-0.913-4.102-2.417-5.33c0.004-0.064,0.005-0.127,0.005-0.192c0-3.625-2.576-6.574-5.742-6.574s-5.742,2.949-5.742,6.574
			c0,0.065,0.002,0.129,0.005,0.192c-1.504,1.228-2.417,3.212-2.417,5.33c0,0.065,0.002,0.128,0.005,0.192
			c-1.504,1.228-2.417,3.211-2.417,5.33c0,3.625,2.576,6.574,5.743,6.574h9.647c3.167,0,5.743-2.949,5.743-6.574
			C138,125.5,137.087,123.516,135.583,122.289z"/>
	</g>
</g>
</svg>
