<?xml version="1.0" encoding="utf-8"?>
<!-- Generator: Adobe Illustrator 21.0.0, SVG Export Plug-In . SVG Version: 6.00 Build 0)  -->
<svg version="1.1" id="icons" xmlns="http://www.w3.org/2000/svg" xmlns:xlink="http://www.w3.org/1999/xlink" x="0px" y="0px" viewBox="0 0 200 200" enable-background="new 0 0 200 200" xml:space="preserve">
<g>
	<circle fill="#EDEDED" cx="100" cy="100" r="75"/>
	<path fill="#E8E8E8" d="M58.761,37.282c34.501-22.922,81.051-13.535,103.973,20.966s13.535,81.051-20.966,103.973"/>
	<polygon fill="#E4E0EE" points="16,60.381 16,63.535 81.309,140.439 85.763,140.439 85.761,127.196 29.022,60.381 	"/>
	<polygon fill="#E4E0EE" points="42,52.381 42,55.535 107.309,132.439 111.763,132.439 111.761,119.196 55.022,52.381 	"/>
	<polygon fill="#E4E0EE" points="51,26.381 51,29.535 116.309,106.438 120.763,106.438 120.761,93.196 64.022,26.381 	"/>
	<rect x="28" y="124" fill="#FFFFFF" width="30" height="27"/>
	<g id="Heart">
		<path fill="#994411" d="M99.704,43.419c-1.661-0.689-8.448-3.712-12.787-8.759c-3.966-4.614-5.24-10.073-3.323-14.248
			c1.404-3.058,4.322-4.883,7.805-4.883l0.113,0.001c4.379,0.048,7.256,4.348,7.283,4.391l0.909,1.5l0.908-1.5
			c0.026-0.044,2.901-4.343,7.282-4.391l0.113-0.001c3.483,0,6.401,1.825,7.805,4.883c1.917,4.175,0.643,9.635-3.323,14.248
			C108.152,39.708,101.365,42.73,99.704,43.419z"/>
	</g>
	<path fill="#CCCCCC" d="M59.95,119.9h-8.775v-5.85c0-1.609-1.316-2.925-2.925-2.925h-11.7c-1.609,0-2.925,1.316-2.925,2.925v5.85
		H24.85c-3.218,0-5.85,2.632-5.85,5.85v23.4c0,3.218,2.632,5.85,5.85,5.85h35.1c3.217,0,5.85-2.632,5.85-5.85v-23.4
		C65.8,122.533,63.167,119.9,59.95,119.9z M36.55,114.05h11.7v5.85h-11.7V114.05z M54.1,140.375h-8.775v8.775h-5.85v-8.775H30.7
		v-5.85h8.775v-8.775h5.85v8.775H54.1V140.375z"/>
	<path fill="#336688" stroke="#FFFFFF" stroke-width="3" stroke-miterlimit="10" d="M179.757,95.638c0-2.801-2.32-5.121-5.121-5.121
		s-5.121,2.32-5.121,5.121c0,2.801,2.32,5.121,5.121,5.121S179.757,98.439,179.757,95.638z M190,95.638
		c0,6.724-4.241,12.322-10.243,14.483v31.609c0,16.967-16.086,30.728-35.85,30.728s-35.85-13.766-35.85-30.728v-10.565
		c-17.367-2.161-30.728-14.965-30.728-30.411V59.783c0-2.801,2.32-5.121,5.121-5.121c0.481,0,0.881,0.082,1.28,0.159
		c1.762-3.119,5.121-5.28,8.962-5.28c5.68,0,10.243,4.563,10.243,10.243s-4.563,10.243-10.243,10.243
		c-1.839,0-3.6-0.558-5.121-1.439v32.167c0,11.282,11.523,20.486,25.607,20.486s25.607-9.203,25.607-20.486V68.587
		c-1.521,0.881-3.283,1.439-5.121,1.439c-5.68,0-10.243-4.563-10.243-10.243s4.563-10.243,10.243-10.243
		c3.841,0,7.201,2.161,8.962,5.28c0.399-0.082,0.799-0.159,1.28-0.159c2.801,0,5.121,2.32,5.121,5.121v40.971
		c0,15.446-13.362,28.25-30.728,30.411v10.565c0,11.282,11.523,20.486,25.607,20.486s25.607-9.203,25.607-20.486v-31.609
		c-6.002-2.161-10.243-7.764-10.243-14.483c0-8.481,6.883-15.364,15.364-15.364C183.117,80.274,190,87.157,190,95.638z"/>
</g>
</svg>
