<?xml version="1.0" encoding="utf-8"?>
<!-- Generator: Adobe Illustrator 20.1.0, SVG Export Plug-In . SVG Version: 6.00 Build 0)  -->
<svg version="1.1" id="Layer_1" xmlns="http://www.w3.org/2000/svg" xmlns:xlink="http://www.w3.org/1999/xlink" x="0px" y="0px"
	 viewBox="0 0 612 396" style="enable-background:new 0 0 612 396;" xml:space="preserve">
<style type="text/css">
	.st0{fill:#414042;}
	.st1{fill:#6D6E71;}
	.st2{clip-path:url(#SVGID_2_);fill:#E1B051;}
	.st3{clip-path:url(#SVGID_2_);fill:none;stroke:#FFFFFF;stroke-width:2.904;stroke-miterlimit:10;}
	.st4{clip-path:url(#SVGID_2_);fill:#006838;}
	.st5{clip-path:url(#SVGID_2_);fill:#8DC63F;}
	.st6{clip-path:url(#SVGID_2_);fill:#BE1E2D;}
	.st7{clip-path:url(#SVGID_2_);fill:#ED1C24;}
	.st8{clip-path:url(#SVGID_2_);fill:#00A651;}
	.st9{clip-path:url(#SVGID_2_);fill:#FFF200;}
	.st10{clip-path:url(#SVGID_2_);fill:#F1F2F2;}
	.st11{clip-path:url(#SVGID_2_);fill:none;stroke:#FFFFFF;stroke-width:1.936;stroke-miterlimit:10;}
	.st12{fill:#58595B;}
	.st13{fill:none;stroke:#414042;stroke-width:1.158;}
</style>
<g>
	<path class="st0" d="M31,25.5v15.9h-5V25.5h-6.5V21h18.1v4.5H31z"/>
	<path class="st0" d="M54.4,33.1v8.3h-4.9v-7.5c0-2.1-1.1-3.1-2.7-3.1c-0.9,0-1.8,0.5-2.6,1.4v9.1h-4.9V20.1h4.9v7.7
		c1.2-0.9,2.4-1.4,4-1.4C51.8,26.4,54.4,29,54.4,33.1z"/>
	<path class="st0" d="M56.9,21.8c0-1.6,1.3-2.8,2.9-2.8c1.6,0,2.8,1.2,2.8,2.8c0,1.6-1.3,2.7-2.8,2.7C58.1,24.6,56.9,23.4,56.9,21.8
		z M62.2,26.9v14.5h-4.9V26.9H62.2z"/>
	<path class="st0" d="M68.6,36.4c0.2,1.3,1.2,1.9,2.8,1.9c1.3,0,2.1-0.4,2.1-1.1c0-0.5-0.4-0.8-1.3-1l-3-0.5
		c-2.5-0.4-4.3-1.8-4.3-4.4c0-3.1,2.6-4.9,6.5-4.9c3.1,0,6.6,1.2,6.8,5h-4.4c-0.1-1.1-1.2-1.7-2.5-1.7c-1.2,0-1.8,0.5-1.8,1.1
		c0,0.5,0.4,1,1.5,1.2l2.7,0.5c2.7,0.5,4.6,1.7,4.6,4.3c0,3.4-2.9,5-6.8,5c-3.8,0-6.9-1.6-7.2-5.5L68.6,36.4z"/>
	<path class="st0" d="M91.4,36.4c0.2,1.3,1.2,1.9,2.8,1.9c1.3,0,2.1-0.4,2.1-1.1c0-0.5-0.4-0.8-1.3-1l-3-0.5
		c-2.5-0.4-4.3-1.8-4.3-4.4c0-3.1,2.6-4.9,6.5-4.9c3.1,0,6.6,1.2,6.8,5h-4.4c-0.1-1.1-1.2-1.7-2.5-1.7c-1.2,0-1.8,0.5-1.8,1.1
		c0,0.5,0.4,1,1.5,1.2l2.7,0.5c2.7,0.5,4.6,1.7,4.6,4.3c0,3.4-2.9,5-6.8,5c-3.8,0-6.9-1.6-7.2-5.5L91.4,36.4z"/>
	<path class="st0" d="M118.3,41.4h-4.9v-1c-1.2,0.9-2.4,1.4-4,1.4c-3.7,0-6.2-2.6-6.2-6.7v-8.3h4.9v7.6c0,2.1,1.1,3.1,2.7,3.1
		c0.9,0,1.8-0.5,2.7-1.4v-9.2h4.9V41.4z"/>
	<path class="st0" d="M145.5,33.1v8.3h-4.9v-7.5c0-2.1-1-3.1-2.6-3.1c-0.8,0-1.5,0.3-2.2,1.2c0,0.4,0.1,0.7,0.1,1.1v8.3H131v-7.5
		c0-2.1-1-3.1-2.6-3.1c-0.7,0-1.5,0.4-2.2,1.3v9.3h-4.9V26.9h4.9v0.8c1-0.8,2-1.3,3.6-1.3c1.8,0,3.4,0.7,4.5,2c1.5-1.4,3-2,5.2-2
		C143,26.4,145.5,29,145.5,33.1z"/>
	<path class="st0" d="M172.6,33.1v8.3h-4.9v-7.5c0-2.1-1-3.1-2.6-3.1c-0.8,0-1.5,0.3-2.2,1.2c0,0.4,0.1,0.7,0.1,1.1v8.3h-4.9v-7.5
		c0-2.1-1-3.1-2.6-3.1c-0.7,0-1.5,0.4-2.2,1.3v9.3h-4.9V26.9h4.9v0.8c1-0.8,2-1.3,3.6-1.3c1.8,0,3.4,0.7,4.5,2c1.5-1.4,3-2,5.2-2
		C170.1,26.4,172.6,29,172.6,33.1z"/>
	<path class="st0" d="M189.8,35.3h-10.3c0.3,1.4,1.3,2.6,3.3,2.6c1,0,1.8-0.4,2.2-1.1h4.8c-0.7,3-3.5,5-7.1,5
		c-4.8,0-7.9-3.3-7.9-7.7c0-4.5,3.1-7.7,7.7-7.7c4.3,0,7.5,2.9,7.5,7.4C189.9,34.4,189.9,34.9,189.8,35.3z M179.5,32.6h5.8
		c-0.3-1.6-1.2-2.5-2.7-2.5C180.9,30.2,179.9,31.1,179.5,32.6z"/>
	<path class="st0" d="M202,31.2c-2.4,0.1-3.9,0.7-5,1.8v8.3h-4.9V26.9h4.9v1.6c1.3-1.1,2.9-1.8,5-1.8V31.2z"/>
	<path class="st0" d="M203.2,41.5c-1.1-0.5-1.6-1.3-1.6-2.2c0-1.4,1.2-2.5,2.7-2.5s2.7,1.1,2.7,2.6c0,0.6,0,1-0.9,2.5l-1.8,3h-2.7
		L203.2,41.5z"/>
	<path class="st0" d="M231.1,35.3h-10.3c0.3,1.4,1.3,2.6,3.3,2.6c1,0,1.8-0.4,2.2-1.1h4.8c-0.7,3-3.5,5-7.1,5
		c-4.8,0-7.9-3.3-7.9-7.7c0-4.5,3.1-7.7,7.7-7.7c4.3,0,7.5,2.9,7.5,7.4C231.2,34.4,231.1,34.9,231.1,35.3z M220.8,32.6h5.8
		c-0.3-1.6-1.2-2.5-2.7-2.5C222.1,30.2,221.1,31.1,220.8,32.6z"/>
	<path class="st0" d="M248.3,33.1v8.3h-4.9v-7.5c0-2.1-1-3.1-2.7-3.1c-0.9,0-1.8,0.5-2.6,1.4v9.1h-4.9V26.9h4.9v1
		c1.2-0.9,2.4-1.4,4-1.4C245.8,26.4,248.3,29,248.3,33.1z"/>
	<path class="st0" d="M256.1,40.2c0,4.5-1.4,7.1-7.2,7.2l-0.4-4c2.1-0.2,2.7-0.8,2.7-2.5v-14h4.9V40.2z M250.8,21.8
		c0-1.6,1.3-2.8,2.9-2.8c1.6,0,2.8,1.2,2.8,2.8c0,1.6-1.3,2.7-2.8,2.7C252.1,24.6,250.8,23.4,250.8,21.8z"/>
	<path class="st0" d="M274.3,34.1c0,4.4-3.3,7.7-7.9,7.7c-4.6,0-7.9-3.3-7.9-7.7c0-4.4,3.3-7.6,7.9-7.6
		C271,26.5,274.3,29.7,274.3,34.1z M269.7,34.1c0-1.9-1.3-3.4-3.3-3.4c-2,0-3.3,1.5-3.3,3.4c0,2,1.3,3.5,3.3,3.5
		C268.4,37.6,269.7,36.1,269.7,34.1z"/>
	<path class="st0" d="M283.6,48.1h-5.1l2.8-6.5l-6.9-14.7h5.1l4.2,9l3.8-9h5.1L283.6,48.1z"/>
	<path class="st0" d="M314.9,26.9v14.5h-4.9v-0.8c-1.1,0.7-2.4,1.1-4,1.1c-3.9,0-7.2-3.3-7.2-7.6c0-4.4,3.3-7.6,7.2-7.6
		c1.6,0,2.9,0.4,4,1.1v-0.8H314.9z M310.1,36.4v-4.5c-0.9-1-2-1.3-3-1.3c-2,0-3.4,1.6-3.4,3.6c0,2,1.5,3.6,3.4,3.6
		C308.1,37.7,309.1,37.4,310.1,36.4z"/>
	<path class="st0" d="M333,33.1v8.3h-4.9v-7.5c0-2.1-1-3.1-2.7-3.1c-0.9,0-1.8,0.5-2.6,1.4v9.1h-4.9V26.9h4.9v1
		c1.2-0.9,2.4-1.4,4-1.4C330.5,26.4,333,29,333,33.1z"/>
</g>
<g>
	<path class="st0" d="M25.6,65.1h9.1v4.3h-9.1V73h10.3v4.4H20.5V57h15.4v4.4H25.6V65.1z"/>
	<path class="st0" d="M53.5,69.1v8.3h-4.9v-7.5c0-2.1-1-3.1-2.7-3.1c-0.9,0-1.8,0.5-2.6,1.4v9.1h-4.9V62.9h4.9v1
		c1.2-0.9,2.4-1.4,4-1.4C50.9,62.4,53.5,65,53.5,69.1z"/>
	<path class="st0" d="M71.5,62.9v14.3c0,4.6-3.2,7.2-7.8,7.2c-4.4,0-7.6-2.5-7.9-6.3h4.8c0.2,1.3,1.2,2.2,3,2.2c1.7,0,2.9-1,2.9-3
		V76c-1.1,0.6-2.4,1-4,1c-4,0-7.2-3.1-7.2-7.1c0-4.4,3.3-7.5,7.2-7.5c1.6,0,2.9,0.4,4,1.1v-0.6H71.5z M66.6,71.8v-4
		c-0.9-1-1.9-1.4-3-1.4c-2,0-3.5,1.4-3.5,3.5c0,1.6,1.5,3.2,3.5,3.2C64.7,73.1,65.7,72.8,66.6,71.8z"/>
	<path class="st0" d="M89.9,62.9v14.5H85v-0.8c-1.1,0.7-2.4,1.1-4,1.1c-3.9,0-7.2-3.3-7.2-7.6c0-4.4,3.3-7.6,7.2-7.6
		c1.6,0,2.9,0.4,4,1.1v-0.8H89.9z M85,72.4v-4.5c-0.9-1-1.9-1.3-3-1.3c-2,0-3.4,1.6-3.4,3.6c0,2,1.5,3.6,3.4,3.6
		C83.1,73.7,84.1,73.4,85,72.4z"/>
	<path class="st0" d="M108.4,62.9v14.3c0,4.6-3.2,7.2-7.8,7.2c-4.4,0-7.6-2.5-7.9-6.3h4.8c0.2,1.3,1.2,2.2,3,2.2c1.7,0,2.9-1,2.9-3
		V76c-1.1,0.6-2.4,1-4,1c-4,0-7.2-3.1-7.2-7.1c0-4.4,3.3-7.5,7.2-7.5c1.6,0,2.9,0.4,4,1.1v-0.6H108.4z M103.6,71.8v-4
		c-0.9-1-1.9-1.4-3-1.4c-2,0-3.5,1.4-3.5,3.5c0,1.6,1.5,3.2,3.5,3.2C101.6,73.1,102.7,72.8,103.6,71.8z"/>
	<path class="st0" d="M125.8,71.3h-10.3c0.3,1.4,1.3,2.6,3.3,2.6c1,0,1.8-0.4,2.2-1.1h4.8c-0.7,3-3.5,5-7.1,5
		c-4.8,0-7.9-3.3-7.9-7.7c0-4.5,3.1-7.7,7.7-7.7c4.3,0,7.5,2.9,7.5,7.4C125.9,70.4,125.9,70.9,125.8,71.3z M115.5,68.6h5.8
		c-0.3-1.6-1.2-2.5-2.7-2.5C116.8,66.2,115.9,67.1,115.5,68.6z"/>
	<path class="st0" d="M150.1,68.9h5.2c-0.7,5.3-4.7,8.9-10.2,8.9c-6.1,0-10.8-4.5-10.8-10.6c0-6.1,4.6-10.6,10.8-10.6
		c5.5,0,9.6,3.6,10.2,8.9h-5.2c-0.5-2.5-2.3-4.1-5-4.1c-3.3,0-5.6,2.5-5.6,5.9c0,3.4,2.3,5.9,5.6,5.9
		C147.7,73.1,149.5,71.5,150.1,68.9z"/>
	<path class="st0" d="M172.9,69.1v8.3h-4.9v-7.5c0-2.1-1-3.1-2.7-3.1c-0.9,0-1.8,0.5-2.6,1.4v9.1h-4.9V56.1h4.9v7.7
		c1.2-0.9,2.4-1.4,4-1.4C170.4,62.4,172.9,65,172.9,69.1z"/>
	<path class="st0" d="M175.4,57.8c0-1.6,1.3-2.8,2.9-2.8c1.6,0,2.8,1.2,2.8,2.8c0,1.6-1.3,2.7-2.8,2.7
		C176.7,60.6,175.4,59.4,175.4,57.8z M180.7,62.9v14.5h-4.9V62.9H180.7z"/>
	<path class="st0" d="M193.9,71.4h4.6c-0.4,3.8-3.4,6.3-7.5,6.3c-4.6,0-7.9-3.2-7.9-7.6c0-4.4,3.4-7.6,7.9-7.6c4,0,7.1,2.5,7.5,6.3
		h-4.6c-0.2-1.3-1.4-2.2-2.8-2.2c-2.1,0-3.3,1.5-3.3,3.5s1.2,3.5,3.3,3.5C192.6,73.6,193.7,72.8,193.9,71.4z"/>
	<path class="st0" d="M216.2,62.9v14.5h-4.9v-0.8c-1.1,0.7-2.4,1.1-4,1.1c-3.9,0-7.2-3.3-7.2-7.6c0-4.4,3.3-7.6,7.2-7.6
		c1.6,0,2.9,0.4,4,1.1v-0.8H216.2z M211.4,72.4v-4.5c-0.9-1-1.9-1.3-3-1.3c-2,0-3.4,1.6-3.4,3.6c0,2,1.5,3.6,3.4,3.6
		C209.4,73.7,210.4,73.4,211.4,72.4z"/>
	<path class="st0" d="M234.7,62.9v14.3c0,4.6-3.2,7.2-7.8,7.2c-4.4,0-7.6-2.5-7.9-6.3h4.8c0.2,1.3,1.2,2.2,3,2.2c1.7,0,2.9-1,2.9-3
		V76c-1.1,0.6-2.4,1-4,1c-4,0-7.2-3.1-7.2-7.1c0-4.4,3.3-7.5,7.2-7.5c1.6,0,2.9,0.4,4,1.1v-0.6H234.7z M229.9,71.8v-4
		c-0.9-1-1.9-1.4-3-1.4c-2,0-3.5,1.4-3.5,3.5c0,1.6,1.5,3.2,3.5,3.2C227.9,73.1,229,72.8,229.9,71.8z"/>
	<path class="st0" d="M252.8,70.1c0,4.4-3.3,7.7-7.9,7.7c-4.6,0-7.9-3.3-7.9-7.7c0-4.4,3.3-7.6,7.9-7.6
		C249.6,62.5,252.8,65.7,252.8,70.1z M248.2,70.1c0-1.9-1.3-3.4-3.3-3.4c-2,0-3.3,1.5-3.3,3.4c0,2,1.3,3.5,3.3,3.5
		C246.9,73.6,248.2,72.1,248.2,70.1z"/>
	<path class="st0" d="M267.3,72h-10.8v-4.6h10.8V72z"/>
	<path class="st0" d="M274.9,72.4c0.2,1.3,1.2,1.9,2.8,1.9c1.3,0,2.1-0.4,2.1-1.1c0-0.5-0.4-0.8-1.3-1l-3-0.5
		c-2.5-0.4-4.3-1.8-4.3-4.4c0-3.1,2.6-4.9,6.5-4.9c3.1,0,6.6,1.2,6.8,5h-4.4c-0.1-1.1-1.2-1.7-2.5-1.7c-1.2,0-1.8,0.5-1.8,1.1
		c0,0.5,0.4,1,1.5,1.2l2.7,0.5c2.7,0.5,4.6,1.7,4.6,4.3c0,3.4-2.9,5-6.8,5c-3.8,0-6.9-1.6-7.2-5.5L274.9,72.4z"/>
	<path class="st0" d="M298.6,77.1c-1.9,0.6-3,0.7-4.4,0.7c-3.5,0-5.8-2.6-5.8-6.5V67h-2.9v-4.2h2.9v-4.9h4.9v4.9h5V67h-5v4.2
		c0,1.5,0.8,2.2,2.3,2.2c0.7,0,1.5-0.1,2.6-0.4L298.6,77.1z"/>
	<path class="st0" d="M308.1,84.1H303l2.8-6.5l-6.9-14.7h5.1l4.2,9l3.8-9h5.1L308.1,84.1z"/>
	<path class="st0" d="M323.8,77.4h-4.9V56.1h4.9V77.4z"/>
	<path class="st0" d="M341.2,71.3h-10.3c0.3,1.4,1.3,2.6,3.3,2.6c1,0,1.8-0.4,2.2-1.1h4.8c-0.7,3-3.5,5-7.1,5
		c-4.8,0-7.9-3.3-7.9-7.7c0-4.5,3.1-7.7,7.7-7.7c4.3,0,7.5,2.9,7.5,7.4C341.3,70.4,341.2,70.9,341.2,71.3z M330.9,68.6h5.8
		c-0.3-1.6-1.2-2.5-2.7-2.5C332.2,66.2,331.2,67.1,330.9,68.6z"/>
</g>
<g>
	<path class="st0" d="M35.4,105.1v8.3h-4.9v-7.5c0-2.1-1.1-3.1-2.7-3.1c-0.9,0-1.8,0.5-2.6,1.4v9.1h-4.9V92.1h4.9v7.7
		c1.2-0.9,2.4-1.4,4-1.4C32.9,98.4,35.4,101,35.4,105.1z"/>
	<path class="st0" d="M53.2,106.1c0,4.4-3.3,7.7-7.9,7.7c-4.6,0-7.9-3.3-7.9-7.7c0-4.4,3.3-7.6,7.9-7.6
		C50,98.5,53.2,101.7,53.2,106.1z M48.7,106.1c0-1.9-1.3-3.4-3.3-3.4c-2,0-3.3,1.5-3.3,3.4c0,2,1.3,3.5,3.3,3.5
		C47.3,109.6,48.7,108.1,48.7,106.1z"/>
	<path class="st0" d="M67.3,113.1c-1.9,0.6-3,0.7-4.4,0.7c-3.5,0-5.8-2.6-5.8-6.5V103h-2.9v-4.2h2.9v-4.9h4.9v4.9h5v4.2h-5v4.2
		c0,1.5,0.8,2.2,2.3,2.2c0.7,0,1.5-0.1,2.6-0.4L67.3,113.1z"/>
	<path class="st0" d="M92.3,113.4h-4.9v-0.8c-1.1,0.7-2.4,1.1-4,1.1c-3.9,0-7.2-3.3-7.2-7.6c0-4.3,3.3-7.6,7.2-7.6
		c1.6,0,2.9,0.4,4,1.1v-7.6h4.9V113.4z M87.5,108.4v-4.5c-0.9-1-1.9-1.3-3-1.3c-2,0-3.4,1.6-3.4,3.6c0,2,1.5,3.6,3.4,3.6
		C85.5,109.8,86.5,109.5,87.5,108.4z"/>
	<path class="st0" d="M110.4,106.1c0,4.4-3.3,7.7-7.9,7.7c-4.6,0-7.9-3.3-7.9-7.7c0-4.4,3.3-7.6,7.9-7.6
		C107.1,98.5,110.4,101.7,110.4,106.1z M105.8,106.1c0-1.9-1.3-3.4-3.3-3.4c-2,0-3.3,1.5-3.3,3.4c0,2,1.3,3.5,3.3,3.5
		C104.5,109.6,105.8,108.1,105.8,106.1z"/>
	<path class="st0" d="M128,98.9v14.3c0,4.6-3.2,7.2-7.8,7.2c-4.4,0-7.6-2.5-7.9-6.3h4.8c0.2,1.3,1.2,2.2,3,2.2c1.7,0,2.9-1,2.9-3
		V112c-1.1,0.6-2.4,1-4,1c-4,0-7.2-3.1-7.2-7.1c0-4.4,3.3-7.5,7.2-7.5c1.6,0,2.9,0.4,4,1.1v-0.6H128z M123.1,107.8v-4
		c-0.9-1-1.9-1.4-3-1.4c-2,0-3.5,1.4-3.5,3.5c0,1.6,1.5,3.2,3.5,3.2C121.2,109.1,122.2,108.8,123.1,107.8z"/>
	<path class="st0" d="M130.2,111.3c0-1.5,1.2-2.6,2.7-2.6c1.5,0,2.8,1.1,2.8,2.6c0,1.5-1.3,2.6-2.8,2.6
		C131.5,113.9,130.2,112.8,130.2,111.3z"/>
</g>
<g>
	<path class="st1" d="M20.1,338.4c-1.6,1.7-2.6,3.2-2.6,5.7s1,4.1,2.6,5.7l-1.2,1.2c-2.2-1.9-3.3-4.2-3.3-6.9s1.2-5.1,3.3-6.9
		L20.1,338.4z"/>
	<path class="st1" d="M31.1,346c0,1.8-1.5,3-3.9,3h-5.3v-10.9H27c2.3,0,3.6,1.1,3.6,2.8c0,1.1-0.6,2.1-1.6,2.4
		C30.5,343.6,31.1,344.7,31.1,346z M23.8,342.7h2.9c1.3,0,2.1-0.6,2.1-1.5c0-0.9-0.7-1.4-2-1.4h-2.9V342.7z M27.1,347.2
		c1.4,0,2.1-0.7,2.1-1.5c0-0.9-0.8-1.4-2-1.4h-3.4v2.9H27.1z"/>
	<path class="st1" d="M40,348.9h-1.8v-0.6c-0.7,0.6-1.4,0.9-2.4,0.9c-2,0-3.3-1.4-3.3-3.6v-4.2h1.8v4.1c0,1.3,0.7,2.1,1.9,2.1
		c0.7,0,1.4-0.4,2-1.1v-5H40V348.9z"/>
	<path class="st1" d="M47.5,348.9c-0.8,0.3-1.2,0.3-1.9,0.3c-1.8,0-2.9-1.2-2.9-3.2v-3.1H41v-1.6h1.7v-2.8h1.8v2.8h2.8v1.6h-2.8v3.1
		c0,1,0.5,1.4,1.4,1.4c0.4,0,0.9-0.1,1.3-0.2L47.5,348.9z"/>
	<path class="st1" d="M59,341.4v1.6h-3v6h-1.9v-6H52v-1.6h2.1V340c0-1.9,1.2-3.2,3.1-3.2c0.5,0,1.2,0.1,1.8,0.2l-0.3,1.6
		c-0.4-0.1-0.8-0.1-1.1-0.1c-1,0-1.6,0.6-1.6,1.5v1.3H59z"/>
	<path class="st1" d="M67.4,345.2c0,2.3-1.7,4-4,4c-2.3,0-4-1.7-4-4c0-2.3,1.7-4,4-4C65.7,341.2,67.4,342.9,67.4,345.2z M65.5,345.2
		c0-1.3-0.9-2.3-2.2-2.3c-1.3,0-2.2,1-2.2,2.3c0,1.3,0.9,2.3,2.2,2.3C64.7,347.5,65.5,346.5,65.5,345.2z"/>
	<path class="st1" d="M70.7,342.3c0.7-0.7,1.6-1.1,2.8-1.1v1.7c-1.2,0-2.1,0.5-2.8,1.3v4.7h-1.9v-7.6h1.9V342.3z"/>
	<path class="st1" d="M86.2,344.8v4.2h-1.8v-4.1c0-1.3-0.7-2.1-1.9-2.1c-0.7,0-1.4,0.4-2,1.1v5h-1.9v-7.6h1.9v0.6
		c0.7-0.5,1.4-0.9,2.3-0.9C84.9,341.1,86.2,342.6,86.2,344.8z"/>
	<path class="st1" d="M95.7,345.2c0,2.3-1.7,4-4,4c-2.3,0-4-1.7-4-4c0-2.3,1.7-4,4-4C94,341.2,95.7,342.9,95.7,345.2z M93.9,345.2
		c0-1.3-0.9-2.3-2.2-2.3c-1.3,0-2.2,1-2.2,2.3c0,1.3,0.9,2.3,2.2,2.3C93,347.5,93.9,346.5,93.9,345.2z"/>
	<path class="st1" d="M105.3,348.9h-1.6l-1.6-4.6l-1.6,4.6H99l-2.8-7.6h2l1.6,4.6l1.6-4.6h1.6l1.6,4.6l1.6-4.6h2L105.3,348.9z"/>
	<path class="st1" d="M108.4,349c-0.5-0.2-0.7-0.5-0.7-0.9c0-0.6,0.5-1.1,1.1-1.1c0.6,0,1.1,0.5,1.1,1.1c0,0.3,0,0.4-0.4,1l-0.9,1.6
		h-1.1L108.4,349z"/>
	<path class="st1" d="M122.8,345.6L122.8,345.6H117c0.2,1.1,0.9,1.9,2.3,1.9c0.7,0,1.3-0.2,1.5-0.7h2c-0.4,1.4-1.8,2.3-3.6,2.3
		c-2.4,0-4-1.8-4-4c0-2.3,1.6-4,4-4c2.1,0,3.7,1.6,3.7,3.9C122.9,345.3,122.9,345.5,122.8,345.6z M117,344.5h4
		c-0.1-1.1-0.8-1.8-1.9-1.8C117.9,342.7,117.2,343.5,117,344.5z"/>
	<path class="st1" d="M131.9,344.8v4.2H130v-4.1c0-1.3-0.7-2.1-1.9-2.1c-0.7,0-1.4,0.4-2,1.1v5h-1.9v-7.6h1.9v0.6
		c0.7-0.5,1.4-0.9,2.3-0.9C130.6,341.1,131.9,342.6,131.9,344.8z"/>
	<path class="st1" d="M135.6,348.5c0,2.2-0.7,3.4-3.3,3.5l-0.1-1.6c1.2-0.1,1.6-0.4,1.6-1.6v-7.4h1.8V348.5z M133.5,338.6
		c0-0.7,0.5-1.1,1.2-1.1s1.2,0.5,1.2,1.1c0,0.6-0.5,1.1-1.2,1.1S133.5,339.3,133.5,338.6z"/>
	<path class="st1" d="M145.4,345.2c0,2.3-1.7,4-4,4c-2.3,0-4-1.7-4-4c0-2.3,1.7-4,4-4C143.7,341.2,145.4,342.9,145.4,345.2z
		 M143.6,345.2c0-1.3-0.9-2.3-2.2-2.3c-1.3,0-2.2,1-2.2,2.3c0,1.3,0.9,2.3,2.2,2.3C142.7,347.5,143.6,346.5,143.6,345.2z"/>
	<path class="st1" d="M149.9,352.7h-2l1.5-3.5l-3.8-7.8h2l2.7,5.7l2.5-5.7h2L149.9,352.7z"/>
	<path class="st1" d="M166.8,341.4v7.6H165v-0.5c-0.6,0.4-1.4,0.7-2.3,0.7c-2.1,0-3.8-1.8-3.8-4c0-2.2,1.7-4,3.8-4
		c0.9,0,1.7,0.3,2.3,0.7v-0.5H166.8z M165,346.4v-2.6c-0.5-0.8-1.3-1.1-2-1.1c-1.3,0-2.2,1.1-2.2,2.4c0,1.2,0.9,2.4,2.2,2.4
		C163.7,347.5,164.5,347.2,165,346.4z"/>
</g>
<g>
</g>
<g>
	<path class="st1" d="M23.6,361.5c0.7-0.7,1.6-1.1,2.8-1.1v1.7c-1.2,0-2.1,0.5-2.8,1.3v4.7h-1.9v-7.6h1.9V361.5z"/>
	<path class="st1" d="M34.8,364.8L34.8,364.8h-5.9c0.2,1.1,0.9,1.9,2.3,1.9c0.7,0,1.3-0.2,1.5-0.7h2c-0.4,1.4-1.8,2.3-3.6,2.3
		c-2.4,0-4-1.8-4-4c0-2.3,1.6-4,4-4c2.1,0,3.7,1.6,3.7,3.9C34.8,364.5,34.8,364.7,34.8,364.8z M28.9,363.7h4
		c-0.1-1.1-0.8-1.8-1.9-1.8C29.9,361.9,29.2,362.7,28.9,363.7z"/>
	<path class="st1" d="M44,360.6v7.6h-1.8v-0.5c-0.6,0.4-1.4,0.7-2.3,0.7c-2.1,0-3.8-1.8-3.8-4c0-2.2,1.7-4,3.8-4
		c0.9,0,1.7,0.3,2.3,0.7v-0.5H44z M42.2,365.6v-2.6c-0.5-0.8-1.3-1.1-2-1.1c-1.3,0-2.2,1.1-2.2,2.4c0,1.2,0.9,2.4,2.2,2.4
		C40.9,366.7,41.6,366.4,42.2,365.6z"/>
	<path class="st1" d="M47.9,368.1H46v-11.4h1.9V368.1z"/>
	<path class="st1" d="M61.5,364v4.2h-1.8v-4.1c0-1.3-0.7-2.1-1.9-2.1c-0.7,0-1.4,0.4-2,1.1v5H54v-11.4h1.9v4.4
		c0.7-0.5,1.4-0.9,2.3-0.9C60.2,360.3,61.5,361.8,61.5,364z"/>
	<path class="st1" d="M71,364.4c0,2.3-1.7,4-4,4c-2.3,0-4-1.7-4-4c0-2.3,1.7-4,4-4C69.2,360.4,71,362.1,71,364.4z M69.1,364.4
		c0-1.3-0.9-2.3-2.2-2.3c-1.3,0-2.2,1-2.2,2.3c0,1.3,0.9,2.3,2.2,2.3C68.3,366.7,69.1,365.7,69.1,364.4z"/>
	<path class="st1" d="M78.2,368.1c-0.8,0.3-1.2,0.3-1.9,0.3c-1.8,0-2.9-1.2-2.9-3.2v-3.1h-1.7v-1.6h1.7v-2.8h1.8v2.8H78v1.6h-2.8
		v3.1c0,1,0.5,1.4,1.4,1.4c0.4,0,0.9-0.1,1.3-0.2L78.2,368.1z"/>
	<path class="st1" d="M91.3,368.1h-1.8v-0.5c-0.6,0.5-1.4,0.7-2.3,0.7c-2.1,0-3.8-1.8-3.8-4c0-2.2,1.7-4,3.8-4
		c0.9,0,1.7,0.3,2.3,0.7v-4.3h1.8V368.1z M89.4,365.6v-2.6c-0.5-0.8-1.3-1.1-2-1.1c-1.3,0-2.2,1.1-2.2,2.4c0,1.3,0.9,2.4,2.2,2.4
		C88.2,366.7,88.9,366.4,89.4,365.6z"/>
	<path class="st1" d="M100.9,364.4c0,2.3-1.7,4-4,4c-2.3,0-4-1.7-4-4c0-2.3,1.7-4,4-4C99.2,360.4,100.9,362.1,100.9,364.4z
		 M99.1,364.4c0-1.3-0.9-2.3-2.2-2.3c-1.3,0-2.2,1-2.2,2.3c0,1.3,0.9,2.3,2.2,2.3C98.2,366.7,99.1,365.7,99.1,364.4z"/>
	<path class="st1" d="M110.1,360.6v7.6c0,2.4-1.6,3.8-3.8,3.8c-2.1,0-3.7-1.3-3.9-3.1h1.9c0.1,0.9,0.9,1.5,2,1.5s2-0.8,2-2.1v-0.9
		c-0.6,0.4-1.4,0.7-2.3,0.7c-2.1,0-3.8-1.7-3.8-3.7c0-2.3,1.7-3.9,3.8-3.9c0.9,0,1.7,0.3,2.3,0.7v-0.5H110.1z M108.2,365.3V363
		c-0.5-0.8-1.3-1.1-2.1-1.1c-1.3,0-2.2,1-2.2,2.3c0,1.1,0.9,2.2,2.2,2.2C106.9,366.4,107.7,366.1,108.2,365.3z"/>
	<path class="st1" d="M123.8,364.4c0,2.3-1.7,4-4,4c-2.3,0-4-1.7-4-4c0-2.3,1.7-4,4-4C122.1,360.4,123.8,362.1,123.8,364.4z
		 M122,364.4c0-1.3-0.9-2.3-2.2-2.3c-1.3,0-2.2,1-2.2,2.3c0,1.3,0.9,2.3,2.2,2.3C121.1,366.7,122,365.7,122,364.4z"/>
	<path class="st1" d="M132.8,364v4.2H131v-4.1c0-1.3-0.7-2.1-1.9-2.1c-0.7,0-1.4,0.4-2,1.1v5h-1.9v-7.6h1.9v0.6
		c0.7-0.5,1.4-0.9,2.3-0.9C131.5,360.3,132.8,361.8,132.8,364z"/>
	<path class="st1" d="M146.1,368.1h-1.8v-0.6c-0.7,0.6-1.4,0.9-2.4,0.9c-2,0-3.3-1.4-3.3-3.6v-4.2h1.8v4.1c0,1.3,0.7,2.1,1.9,2.1
		c0.7,0,1.4-0.4,2-1.1v-5h1.8V368.1z"/>
	<path class="st1" d="M149.3,365.6c0.2,0.9,0.8,1.3,1.9,1.3c0.9,0,1.5-0.3,1.5-0.8c0-0.4-0.3-0.7-0.9-0.8l-1.6-0.3
		c-1.2-0.2-2.2-0.8-2.2-2.2c0-1.5,1.3-2.4,3.2-2.4c1.3,0,3.2,0.4,3.3,2.5l-1.7,0c-0.1-0.8-0.8-1.1-1.6-1.1c-0.9,0-1.4,0.4-1.4,0.8
		c0,0.4,0.3,0.7,1.1,0.9l1.4,0.2c1.2,0.2,2.3,0.7,2.3,2.2c0,1.6-1.4,2.5-3.3,2.5c-1.7,0-3.3-0.7-3.5-2.8L149.3,365.6z"/>
	<path class="st1" d="M155.6,367.3c0-0.6,0.5-1.1,1.1-1.1c0.6,0,1.2,0.5,1.2,1.1c0,0.6-0.5,1.1-1.2,1.1
		C156.1,368.4,155.6,368,155.6,367.3z"/>
	<path class="st1" d="M160.5,356.4c2.2,1.9,3.3,4.2,3.3,6.9s-1.2,5.1-3.3,6.9l-1.2-1.2c1.6-1.7,2.6-3.2,2.6-5.7s-1-4.1-2.6-5.7
		L160.5,356.4z"/>
</g>
<g>
	<defs>
		<rect id="SVGID_1_" x="114.8" y="124.8" width="278.5" height="247.9"/>
	</defs>
	<clipPath id="SVGID_2_">
		<use xlink:href="#SVGID_1_"  style="overflow:visible;"/>
	</clipPath>
	<path class="st2" d="M154.9,184.6c-9.1-8.3-3.7-16.3-1.2-19.1c2.1-2.4,28.3-26.1,41.4-34.9c3.6-2.4,8.2-2.5,11.8-0.2
		c31.8,19.8,182.9,129.4,176.7,158.3c-6.8,31.6-30,40.8-36.4,37.6C339.2,329.3,181.2,208.8,154.9,184.6"/>
	<path class="st3" d="M154.9,184.6c-9.1-8.3-3.7-16.3-1.2-19.1c2.1-2.4,28.3-26.1,41.4-34.9c3.6-2.4,8.2-2.5,11.8-0.2
		c31.8,19.8,182.9,129.4,176.7,158.3c-6.8,31.6-30,40.8-36.4,37.6C339.2,329.3,181.2,208.8,154.9,184.6z"/>
	<path class="st4" d="M240.1,138.6c0,0-21.7,4-21,37.9c-5.2-4.2-6.1-8.5-6.1-8.5s-1.6-39,23.9-39
		C239.8,134.8,240.1,138.6,240.1,138.6"/>
	<path class="st5" d="M240.1,138.6c0,0,23.2,58.4,22.9,62.3c-0.3,3.9-33.6-10.3-33.6-10.3l-10.4-14.2
		C219.1,176.4,217.2,138.6,240.1,138.6"/>
	<path class="st6" d="M167.2,144.4c0,0,18.1-8.4,37.8,13.6c19.7,21.9,64.9,105.5,160,120.7c18.4,4.8,26.8,27.1,6.1,40.7
		C321.1,336.1,126.5,202.8,167.2,144.4"/>
	<path class="st7" d="M144.9,191.5c0,0,81,17.4,102.6,68.4c-2.3,6.1-5.2,8.9-6.5,8.9C235.5,265.3,150.1,198.3,144.9,191.5"/>
	<path class="st7" d="M253.7,249.6c0,0,76.8-17.1,61.3,78.7c-34.8-29.4-78.1-55.5-77.4-59C238.2,265.8,253.7,249.6,253.7,249.6"/>
	<path class="st4" d="M257.8,199.4c0,0,61.9,26.6,65.1,26.9c2.2,2.7,1.7,4.1-1.7,5.1c-3.4,1-30.7,11.4-70.7-19.6
		C246.4,200.6,257.8,199.4,257.8,199.4"/>
	<path class="st8" d="M341.8,259.6c-1.9-2.2-2.7-5.8-5.4-6.5c-0.1-0.2-0.3-0.5-0.5-0.7c-0.7-0.9-1.7-0.9-2.5-1.4
		c-1.1-0.7-0.6-0.5-1.8-1.9c-0.7-0.8-1.6-1.2-2.6-1.6c-2.2-0.7-3.2-1.4-4.9-2.9c-2.5-2.2-4.8-2.4-8.1-1.9c-1,0.1-1.5,0.7-1.7,1.4
		c-0.2,0-0.4,0.1-0.5,0.1c-3,0.8-1.7,5.4,1.3,4.7c-0.1,0,5.9,4.1,6.1,4.2c1.9,1.3,2.8,1.7,5,2.1c0.2,0,0.4,0,0.5,0
		c-0.2,0.2-0.5,0.5-0.8,0.8c-0.4,0.5-0.9,1.1-1.1,1.8c-0.2,0.8-0.1,1.5,0.2,2.1c-0.6,0.6-1.3,1.5-1.4,2c-0.4,1.4,0.1,3.1,1,4.2
		c1,1.2,2.4,1.7,3.9,1.9c0.1,0,0.1,0,0.2,0c0.2,1.1,1,2,2.3,2.1c1.2,0,2.4,0,3.7,0.1c1.7,0,2.6-1.6,2.3-3c1-1.3,2.1-3.4,3-3.4
		C342.3,263.6,343.3,261.2,341.8,259.6"/>
	<path class="st9" d="M330.5,260.5c0.4-2.8-1.3-6.1-4.6-5.7c-2.7,0.3-4.2,0-6-2c-1.4-1.5-2.8-3.1-4.4-4.4c-3.6-3.1-7-4.5-11.5-5.5
		c0-0.1-0.1-0.2-0.1-0.3c-0.4-0.8-0.9-1.5-1.4-2.2c-1.2-1.6-2.6-2.9-4.2-4.1c-2.6-1.9-4.6-4.2-7.2-5.7c-2.6-2.6-5.9-1.8-9.2-2.3
		c-4.1-0.7-8.3-3.6-12.2-5.3c-7.9-3.5-9-11.4-12.7-18.3c-0.1-0.1-0.1-0.2-0.2-0.4c-2-4.2-4.3-8.5-7.8-11.7c-1.7-1.5-3.4-2.6-5.5-3.5
		c-2.2-0.9-4.6-1.1-6.8-2c-2.4-1-5.2-0.7-6.6,1.7c-0.9,1.5-0.8,3.8,0.2,5.3c-3.6,3.6-4.2,10.1-1.7,14.9c-0.3,0.9-0.5,1.9-0.5,2.8
		c0,3.2,2,6.7,3.4,9.4c1.9,3.8,3.9,5.7,8.2,6.1c3.9,0.4,6.8,1.1,10.2,3.2c1.6,1,3.7,2.2,5,3.6c0,0.2,0.1,0.4,0.1,0.6
		c0,0.7,0.1,1.4,0.4,2c1,3.2,3.6,5.9,6.8,7c2.7,0.9,4.6,0.4,6.8-0.2c0.6,1.6,2,2.8,4.3,2.7c2.5-0.1,5.1,0.1,7.6,0.4
		c3.4,0.6,6.7,1.6,10.1,2.8c5.2,1.9,5.7,6.2,12.8,8.8c4.6,1.7,7.1,7.3,11.3,9.9c4.4,2.8,9.8,2.7,14.7,1.3
		C334.6,268.3,334.4,262.4,330.5,260.5"/>
	<path class="st8" d="M334.6,326.1c-0.2-0.1-0.3-0.2-0.5-0.3c-0.4-1.4-1.7-2.6-3.4-2.5c-1.2,0-2.4,0.7-3,1.6c-0.3,0-0.7,0.1-1,0.2
		c0.1-0.8,0.2-1.8,0.3-2.8c2,0.4,4.3-0.6,4.2-2.9c0-2.1,0.4-4,1.3-5.9c1.4-3.2-4.7-5.5-6.4-2.4c0,0,0,0,0,0
		c-0.1-0.1-0.3-0.1-0.4-0.2c-0.3-0.2-0.7-0.3-1.1-0.3c0,0-0.1,0-0.1,0c-1.5-2.7-6.3-1-6.4,1.7c0,0.6,0,1.1,0.3,1.7
		c0.1,0.1,0.1,0.2,0.1,0.3c-0.4,0.7-0.8,1.8-0.8,2c-0.2,1.1,0,2.2,0.8,3.1c0.1,0.1,0.2,0.2,0.3,0.3c-0.1,0.3-0.2,0.5-0.2,0.8
		c-2.4,0.9-3.4,4.4-0.6,5.5c1.2,0.5,2.3,1.1,3.4,1.8c1.1,0.7,2.2,0.6,3.2,0.1c0,0.8,0.4,1.5,1,2.1c1.5,1.4,3.4,2.7,5.8,2.6
		c1.6-0.1,3.1-0.8,4-2.1C336.3,329.2,336.1,327.1,334.6,326.1"/>
	<path class="st8" d="M349.9,318.7c-0.9-0.3-1.8,0.1-2.4,0.7c-0.5-0.2-1.1-0.4-1.7-0.4c-1.2,0-2.4,0.4-3.2,1.4
		c-0.4,0.5-0.6,1.1-0.6,1.8c-1.1,0.4-1.8,1.4-1.4,2.8c0.6,1.8,2,2.8,3.8,3.5c2.1,0.8,3.8,0,5.1-1.7c0.8-1,1.3-2.2,1.3-3.3
		c0.4-0.5,0.6-1.1,0.9-1.7C352,320.5,351.1,319.1,349.9,318.7"/>
	<polygon class="st10" points="252.1,203.8 258.2,201.4 263,213.6 257.1,214.6 	"/>
	<polygon class="st10" points="214,221.1 220.6,217.5 226.9,226.2 221.4,229 	"/>
	<polygon class="st10" points="265,235.3 275.3,229.3 277.9,235.9 272.2,240.3 	"/>
	<polygon class="st10" points="232.1,235.9 236.6,233.2 243.8,235.4 240.4,244.3 	"/>
	<polygon class="st10" points="269.6,202.5 283.7,209 288.4,207.2 275.4,198.5 	"/>
	<polygon class="st10" points="304,238.8 312.6,247.5 317.9,246.1 312.2,235.6 	"/>
	<polygon class="st10" points="312.1,238.2 320.9,234 323.7,242.8 313.2,241.6 	"/>
	<polygon class="st10" points="343.5,266.6 354.2,264.5 354.3,272.7 348.5,273.7 	"/>
	<polygon class="st10" points="325.8,312.1 329.5,315.3 334.5,311.9 333,306.2 	"/>
	<polygon class="st10" points="330.5,318.9 335.1,325.5 338.2,320.3 332.7,314.7 	"/>
	<polygon class="st10" points="335.5,334.3 345.2,335.1 340.8,330.9 336.3,331.7 	"/>
	<polygon class="st10" points="342.4,326.3 349,330.4 344,332.9 	"/>
	<polygon class="st10" points="323.2,323.5 330.8,322.4 331.7,327.4 326.3,328.7 	"/>
	<polygon class="st10" points="340.1,319.2 341.6,323.8 346.6,325.3 344.5,320.3 	"/>
	<polygon class="st10" points="316.3,251.7 325.4,258.4 330.3,255.1 317,247.5 	"/>
	<path class="st4" d="M238.1,231.1c-0.3-2,1.2-3.8,3.2-3.9c3.2,0,7.6,0.2,10.1,1.1c10.4,3.8,2.7,36.8,33.5,50.7
		c0.5,0.2,0.9,0.6,1.3,1c3.3,4.2,0.6,5.8-0.7,6.2c-0.3,0.1-0.6,0.2-1,0.2C280.5,286.7,247.5,287,238.1,231.1"/>
	<path class="st8" d="M236.1,226.7c-0.3-0.4-0.7-0.8-1.2-1c0.1-0.7-0.2-1.4-0.7-2c-0.3-0.3-0.6-0.6-0.9-0.8c0.1-1.8,0-3.6-1.6-4.6
		c-0.5-0.3-1-0.4-1.5-0.4c-0.2-0.4-0.5-0.7-0.9-0.9c-0.5-0.2-0.9-0.4-1.4-0.5c-0.6-0.5-1.2-0.8-2-0.7c-0.8,0-1.7,0.4-2.1,1.2
		c-0.1,0.3-0.2,0.5-0.3,0.8c-0.5,0.4-0.8,1-0.8,1.7c0.1,1.5,0.8,2.3,1.8,2.8c-0.5,0.4-0.9,1-0.9,1.9c0,1.4-0.2,2.5-0.6,3.7
		c-0.5,1.4,0.7,2.9,2.1,3.1c-0.4,1.5,0.9,2.6,2.3,2.8c1.1,0.8,1.9,1.9,3.5,2.2c1.9,0.3,3-0.9,4.7-1.3c1.4-0.3,1.9-1.6,1.7-2.7
		c0.2-0.2,0.4-0.5,0.6-0.9C238.9,229.1,237.8,227.5,236.1,226.7"/>
	<path class="st8" d="M275.7,194.6c-1.5-4.6-6.4-5.7-10-8.2c-2.1-1.5-1.3-2.5-2.1-4.4c-0.8-1.9-3.4-3.3-4.9-4.4
		c-1.8-1.3-4.1,0.8-3.6,2.7c0.3,1.1,0.1,2.2,0.7,3.2c0.3,0.5,1.4,1,1.5,1.5c0,0.3-0.9,2.7-1.9,4.8c-0.2,0.1-0.6,0.5-1.1,0.8
		c-0.7-0.3-1.5-0.7-2.2-1c-1.8-1-4.2,0.7-3.6,2.7c0.3,1,0.8,1.8,1.5,2.5c0.1,0.4,0.2,0.9,0.6,1.2c0.2,0.7,0.7,1.2,1.4,1.5
		c0,0.2,0,0.4,0.1,0.5c0.2,0.7,0.4,1.3,0.7,1.7c0,0.2,0.1,0.3,0.1,0.5c0.4,1.2,1.6,1.8,2.8,1.7c0.3,0.4,0.7,0.7,1.2,0.8
		c0.8,0.2,1.5,0.3,2.3,0.4c0.4,0,0.8-0.1,1.2-0.3c3.8,0.8,7.7,1.7,11.2-0.6C274.5,200.5,276.7,198,275.7,194.6"/>
	<path class="st8" d="M310.9,246c-0.4-0.3-0.8-0.6-1.2-0.9c-0.4-1.3-1.6-2.6-2.2-3.7c-1.7-2.6-5.9-0.2-4.2,2.4
		c0.2,0.3,0.4,0.6,0.6,1c-0.1,0.2-0.2,0.5-0.3,0.7c-0.2,0.8,0.1,1.9,0.7,2.5c-0.7,0.5-1.1,1.4-0.9,2.4c0.1,0.8,0.6,1.4,1.2,1.9
		c0.7,0.9,1.9,1.2,3.1,0.7c0.8-0.3,1.4-1,1.9-1.7c0.2-0.2,0.6-0.8,0.6-0.8C312.6,250,312.5,247.1,310.9,246"/>
	<path class="st8" d="M286.5,237.6c-0.7-0.2-1.4-0.1-2,0.2c-0.8,0-1.6,0.4-2.2,1.2c-0.3,0.5-0.5,1-0.5,1.6c-0.2,0.1-0.3,0.2-0.4,0.4
		c-0.8,0.9-1,2.5,0,3.4c1.5,1.4,3.7,0.9,4.6-0.9c1.2-0.4,2.1-1.5,2.4-2.7C288.7,239.3,287.8,237.9,286.5,237.6"/>
	<path class="st8" d="M303.1,235.4c-1.6-2.6-6.2-3.9-8.8-4.4c-2.3-0.4-4.1,2.4-2.5,4c-0.1,0.9,0,1.8,0.7,2.8
		c0.9,1.3,2.3,1.6,3.6,2.3c1.2,0.7,2.4,0.2,3.1-0.7c0.4,0.6,1.1,1,1.9,0.9c1.1-0.1,1.9-0.4,2.6-1.1
		C305.1,237.9,304.4,236.2,303.1,235.4"/>
	<path class="st8" d="M333.4,299.1c-0.2-1-1.1-1.6-2.1-1.8c-0.1-0.2-0.3-0.4-0.4-0.6c-1.3-1.6-3.7-0.4-4.1,1.3
		c-0.1,0.1-0.2,0.2-0.3,0.4c-0.5,0.6-0.9,1.2-1.1,1.9c-0.5,2.1,1.1,3.5,2.8,4.3c0.8,0.4,1.6,0.9,2.5,1.2c1.2,0.3,2.5-0.2,3.2-1.2
		C334.7,303,333.7,300.8,333.4,299.1"/>
	<path class="st8" d="M341.7,330.5c-1.2,0.1-2.3,0.9-2.4,2.2c-0.2,0.1-0.4,0.3-0.5,0.3c0,0-0.4,0.1-0.4,0.1c-0.1,0-0.8,0.1-0.3,0.1
		c-1.3,0.1-2.5,1-2.4,2.4c0.1,1.2,1.1,2.5,2.4,2.4c0.8-0.1,1.6-0.2,2.3-0.5c0.5,0.1,1,0,1.5-0.4c1.4-1,2.3-2.4,2.3-4.2
		C344.2,331.6,343,330.4,341.7,330.5"/>
	<path class="st2" d="M136.5,180.6c0,0,135.9,125.4,222.6,169.4C341.6,425.1,77.5,253.2,136.5,180.6"/>
	<path class="st11" d="M136.5,180.6c0,0,135.9,125.4,222.6,169.4C341.6,425.1,77.5,253.2,136.5,180.6z"/>
</g>
<g>
	<path class="st12" d="M273.9,137c-2.2,0-3.6-1.3-3.6-3.8v-6.2h1.2v6.3c0,1.6,0.7,2.6,2.4,2.6s2.4-1,2.4-2.6v-6.3h1.2v6.2
		C277.5,135.6,276.1,137,273.9,137z"/>
	<path class="st12" d="M284.4,136.8v-4.5c0-1.1-0.4-1.7-1.5-1.7c-0.7,0-1.2,0.4-1.5,1.1c-0.2,0.5-0.3,1.3-0.3,1.8v3.3h-1.2v-7h1
		l0.1,1.1c0.4-0.8,1.3-1.2,2.1-1.2c1.6,0,2.4,1,2.4,2.6v4.6H284.4z"/>
	<path class="st12" d="M289.5,136.9c-1,0-1.5-0.6-1.5-1.7v-8.4h1.2v8.3c0,0.5,0.2,0.7,0.6,0.7c0.4,0,0.5,0,0.5,0v1
		C290.3,136.8,290.1,136.9,289.5,136.9z"/>
	<path class="st12" d="M292,128.1v-1.4h1.4v1.4H292z M292.1,136.8v-7h1.2v7H292.1z"/>
	<path class="st12" d="M304.4,136.8v-4.5c0-1-0.3-1.7-1.4-1.7c-0.4,0-0.8,0.2-1.1,0.5c-0.5,0.5-0.6,1.2-0.6,1.9v3.7h-1.2v-4.5
		c0-1-0.3-1.7-1.4-1.7c-0.5,0-0.9,0.2-1.2,0.6c-0.3,0.4-0.5,1.2-0.5,1.8v3.7h-1.2v-7h1l0.1,1c0.4-0.8,1.2-1.2,2-1.2
		c1,0,1.8,0.5,2.1,1.3c0.4-0.9,1.3-1.3,2.2-1.3c1.6,0,2.3,1,2.3,2.6v4.6H304.4z"/>
	<path class="st12" d="M308,128.1v-1.4h1.4v1.4H308z M308.1,136.8v-7h1.2v7H308.1z"/>
	<path class="st12" d="M314.1,136.9c-1.5,0-1.9-1-1.9-1.9v-4.2h-1.4v-1h1.4V128l1.2-0.3v2.1h2.1v1h-2.1v4.1c0,0.7,0.3,1,0.9,1
		c0.5,0,1.2-0.1,1.2-0.1v1C315.2,136.8,314.8,136.9,314.1,136.9z"/>
	<path class="st12" d="M322.8,133.7h-5c0,0.6,0.2,1.3,0.7,1.8c0.3,0.3,0.8,0.5,1.3,0.5c0.6,0,1-0.2,1.3-0.5c0.2-0.2,0.3-0.4,0.4-0.8
		h1.2c-0.1,0.7-0.5,1.3-1.1,1.7c-0.5,0.3-1.1,0.5-1.8,0.5c-1,0-1.8-0.4-2.3-1.1c-0.6-0.7-0.9-1.6-0.9-2.6c0-0.8,0.2-1.6,0.5-2.3
		c0.5-0.8,1.4-1.5,2.7-1.5c0.9,0,1.6,0.3,2.1,0.9c0.6,0.6,0.9,1.5,0.9,2.5L322.8,133.7z M321.2,131.2c-0.3-0.4-0.8-0.6-1.4-0.6
		c-1.3,0-1.9,1-1.9,2.1h3.8C321.6,132.1,321.4,131.6,321.2,131.2z"/>
	<path class="st12" d="M329.4,136.8l-0.1-0.9c-0.4,0.7-1.3,1.1-2.1,1.1c-0.9,0-1.5-0.3-2-0.8c-0.7-0.7-1-1.8-1-2.9
		c0-1.2,0.4-2.3,1.1-3c0.5-0.4,1.1-0.7,1.9-0.7c0.8,0,1.7,0.4,2,1v-3.8h1.2v10H329.4z M328.6,131c-0.3-0.3-0.6-0.5-1.1-0.5
		c-1.6,0-2,1.4-2,2.7c0,1.3,0.4,2.7,2,2.7c0.5,0,0.9-0.2,1.1-0.5c0.6-0.5,0.8-1.4,0.8-2.2C329.4,132.4,329.2,131.6,328.6,131z"/>
	<path class="st12" d="M342.2,135.9c-0.6,0.6-1.6,1.1-2.6,1.1c-1,0-2-0.4-2.7-1.1c-1.1-1-1.2-2.5-1.2-4.1s0.2-3,1.2-4.1
		c0.7-0.7,1.7-1.1,2.7-1.1c1.1,0,2,0.4,2.6,1c0.6,0.6,0.9,1.3,1,2.3h-1.3c0-0.5-0.2-1-0.5-1.4c-0.4-0.4-1-0.7-1.8-0.7
		c-0.7,0-1.3,0.3-1.8,0.8c-0.8,0.8-0.8,2.2-0.8,3.2s0,2.4,0.8,3.2c0.5,0.5,1.1,0.8,1.8,0.8c0.8,0,1.4-0.3,1.8-0.8
		c0.3-0.4,0.5-0.9,0.5-1.4h1.3C343.2,134.6,342.8,135.3,342.2,135.9z"/>
	<path class="st12" d="M347.8,128.1v8.7h-1.3v-8.7h-2.9v-1.2h7.1v1.2H347.8z"/>
	<path class="st12" d="M357.2,136.8l-0.8-2.3h-4.3l-0.8,2.3H350l3.5-9.9h1.4l3.5,9.9H357.2z M354.2,128.2l-1.7,5.1h3.5L354.2,128.2z
		"/>
	<path class="st12" d="M366.2,130.9c-0.6,0-1,0.2-1.3,0.6c-0.6,0.5-0.6,1.5-0.6,2.3v3.1h-1.2v-7h1l0.1,1.2c0.4-0.9,1.2-1.3,2.1-1.3
		c0.2,0,0.4,0,0.6,0v1.2C366.6,130.9,366.4,130.9,366.2,130.9z"/>
	<path class="st12" d="M368.3,128.1v-1.4h1.4v1.4H368.3z M368.4,136.8v-7h1.2v7H368.4z"/>
	<path class="st12" d="M376.8,136.8l-0.1-0.9c-0.4,0.7-1.3,1.1-2.1,1.1c-0.9,0-1.5-0.3-2-0.8c-0.7-0.7-1-1.8-1-2.9
		c0-1.2,0.4-2.3,1.1-3c0.5-0.4,1.1-0.7,1.9-0.7c0.8,0,1.7,0.4,2,1v-3.8h1.2v10H376.8z M376,131c-0.3-0.3-0.6-0.5-1.1-0.5
		c-1.6,0-2,1.4-2,2.7c0,1.3,0.4,2.7,2,2.7c0.5,0,0.9-0.2,1.1-0.5c0.6-0.5,0.8-1.4,0.8-2.2C376.8,132.4,376.6,131.6,376,131z"/>
	<path class="st12" d="M386.1,133.7h-5c0,0.6,0.3,1.3,0.7,1.8c0.3,0.3,0.8,0.5,1.3,0.5c0.6,0,1-0.2,1.3-0.5c0.2-0.2,0.3-0.4,0.4-0.8
		h1.2c-0.1,0.7-0.5,1.3-1.1,1.7c-0.5,0.3-1.1,0.5-1.8,0.5c-1,0-1.8-0.4-2.3-1.1c-0.6-0.7-0.9-1.6-0.9-2.6c0-0.8,0.2-1.6,0.5-2.3
		c0.5-0.8,1.4-1.5,2.7-1.5c0.9,0,1.6,0.3,2.1,0.9c0.6,0.6,0.9,1.5,0.9,2.5L386.1,133.7z M384.5,131.2c-0.3-0.4-0.8-0.6-1.4-0.6
		c-1.3,0-1.9,1-1.9,2.1h3.8C384.9,132.1,384.8,131.6,384.5,131.2z"/>
	<path class="st12" d="M392.8,136.2c-0.5,0.6-1.4,0.8-2.3,0.8c-0.9,0-1.7-0.2-2.3-0.8c-0.4-0.4-0.7-1-0.7-1.6h1.2
		c0,0.5,0.2,0.8,0.6,1.1c0.3,0.2,0.8,0.3,1.3,0.3c0.5,0,0.9-0.1,1.3-0.4c0.2-0.2,0.3-0.4,0.3-0.8c0-0.5-0.4-0.9-1.1-1l-1.6-0.2
		c-1.1-0.2-1.7-0.8-1.7-1.9c0-0.5,0.3-1.1,0.6-1.4c0.5-0.5,1.2-0.8,2.1-0.8c0.9,0,1.8,0.3,2.2,0.9c0.3,0.4,0.5,0.8,0.5,1.3H392
		c0-0.4-0.2-0.7-0.4-0.9c-0.3-0.3-0.7-0.4-1.2-0.4c-0.3,0-0.5,0-0.8,0.1c-0.4,0.2-0.7,0.6-0.7,0.9c0,0.6,0.4,0.8,0.9,0.9
		c0.4,0.1,0.9,0.1,1.7,0.2c1,0.2,1.8,0.9,1.8,1.9C393.3,135.4,393.1,135.8,392.8,136.2z"/>
</g>
<g>
	<path class="st12" d="M308.6,164.3V156l-3.1,8.2h-1l-3.1-8.2v8.4h-1.2v-9.9h1.8l3,8l3-8h1.7v9.9H308.6z"/>
	<path class="st12" d="M318.1,161.2h-5c0,0.6,0.2,1.3,0.7,1.8c0.3,0.3,0.8,0.5,1.3,0.5c0.6,0,1-0.2,1.3-0.5c0.2-0.2,0.3-0.4,0.4-0.8
		h1.2c-0.1,0.7-0.5,1.3-1.1,1.7c-0.5,0.3-1.1,0.5-1.8,0.5c-1,0-1.8-0.4-2.3-1.1c-0.6-0.7-0.9-1.6-0.9-2.6c0-0.8,0.2-1.6,0.5-2.3
		c0.5-0.8,1.4-1.5,2.7-1.5c0.9,0,1.6,0.3,2.1,0.9c0.6,0.6,0.9,1.5,0.9,2.5L318.1,161.2z M316.5,158.7c-0.3-0.4-0.8-0.6-1.4-0.6
		c-1.3,0-1.9,1-1.9,2.1h3.8C316.9,159.6,316.7,159.1,316.5,158.7z"/>
	<path class="st12" d="M325.2,164.4c-0.6,0-1-0.5-1-1.1h0c-0.4,0.7-1.3,1.2-2.3,1.2c-1.6,0-2.4-1.1-2.4-2.2c0-0.9,0.6-2.1,2.5-2.2
		l2.1-0.1v-0.5c0-0.3,0-0.8-0.4-1.1c-0.2-0.2-0.6-0.4-1.2-0.4c-0.6,0-1,0.2-1.3,0.4c-0.2,0.2-0.3,0.5-0.3,0.8h-1.2
		c0-0.6,0.3-1.1,0.6-1.5c0.5-0.5,1.3-0.8,2.2-0.8c1.4,0,2.1,0.6,2.5,1.3c0.1,0.3,0.2,0.7,0.2,1.1v3.4c0,0.4,0.2,0.5,0.4,0.5
		c0.1,0,0.3,0,0.3,0v0.9C325.7,164.4,325.5,164.4,325.2,164.4z M324.1,160.9l-1.9,0.1c-0.7,0-1.5,0.4-1.5,1.3c0,0.6,0.4,1.2,1.4,1.2
		c0.5,0,1.1-0.2,1.4-0.6c0.4-0.4,0.6-1,0.6-1.6V160.9z"/>
	<path class="st12" d="M332.4,164.3v-4.5c0-1.1-0.4-1.7-1.5-1.7c-0.7,0-1.2,0.4-1.5,1.1c-0.2,0.5-0.2,1.3-0.2,1.8v3.3h-1.2v-7h1
		l0.1,1.1c0.4-0.8,1.3-1.2,2.1-1.2c1.6,0,2.4,1,2.4,2.6v4.6H332.4z"/>
	<path class="st12" d="M335.9,155.7v-1.4h1.4v1.4H335.9z M336,164.3v-7h1.2v7H336z"/>
	<path class="st12" d="M344.3,164.3v-4.5c0-1.1-0.4-1.7-1.5-1.7c-0.7,0-1.2,0.4-1.5,1.1c-0.2,0.5-0.2,1.3-0.2,1.8v3.3h-1.2v-7h1
		l0.1,1.1c0.4-0.8,1.3-1.2,2.1-1.2c1.6,0,2.4,1,2.4,2.6v4.6H344.3z"/>
	<path class="st12" d="M353.3,166.8c-0.7,0.7-1.8,0.8-2.8,0.8c-0.9,0-2-0.1-2.7-0.8c-0.3-0.3-0.5-0.7-0.5-1.3c0-0.7,0.4-1.3,1-1.6
		c-0.5-0.2-0.8-0.6-0.8-1.2c0-0.6,0.4-1.1,0.9-1.4c-0.5-0.5-0.8-1.2-0.8-1.8c0-0.8,0.3-1.3,0.7-1.7c0.5-0.5,1.2-0.8,2.1-0.8
		c0.7,0,1.2,0.2,1.6,0.4c0.2-0.6,0.8-1,1.4-1c0.1,0,0.2,0,0.3,0v1c-0.1,0-0.2,0-0.3,0c-0.5,0-0.8,0.3-0.9,0.6
		c0.3,0.4,0.5,0.8,0.5,1.5c0,0.7-0.2,1.3-0.6,1.7c-0.5,0.5-1.2,0.8-2.1,0.8c-0.5,0-0.7,0-1.2-0.2c-0.3,0.1-0.6,0.3-0.6,0.6
		c0,0.6,0.6,0.7,1.1,0.7h1.4c0.8,0,1.8,0.2,2.3,0.7c0.3,0.3,0.6,0.8,0.6,1.4C353.9,166,353.7,166.4,353.3,166.8z M350.9,164.2h-1.6
		c-0.5,0.2-0.9,0.6-0.9,1.1c0,0.3,0.1,0.6,0.3,0.7c0.5,0.5,1.3,0.5,1.9,0.5c0.6,0,1.5-0.1,1.9-0.5c0.2-0.2,0.3-0.4,0.3-0.7
		C352.8,164.3,351.8,164.2,350.9,164.2z M350.4,158.1c-1,0-1.6,0.7-1.6,1.5s0.6,1.6,1.6,1.6c1,0,1.6-0.7,1.6-1.6
		S351.4,158.1,350.4,158.1z"/>
	<path class="st12" d="M358,155.1c-0.6,0-1,0.4-1,1v1.2h2v1h-2v6h-1.2v-6h-1.3v-1h1.3V156c0-1.1,0.8-1.9,2-1.9
		c0.5,0,0.9,0.1,1.3,0.1v1C358.8,155.2,358.5,155.1,358,155.1z"/>
	<path class="st12" d="M364.9,164.3l-0.1-1.1c-0.4,0.8-1.3,1.2-2.1,1.2c-1.6,0-2.4-1-2.4-2.6v-4.6h1.2v4.4c0,1.1,0.4,1.7,1.5,1.7
		c0.5,0,0.9-0.2,1.2-0.5c0.4-0.5,0.6-1.2,0.6-1.9v-3.7h1.2v7H364.9z"/>
	<path class="st12" d="M369.9,164.4c-1,0-1.5-0.6-1.5-1.7v-8.4h1.2v8.3c0,0.5,0.2,0.7,0.6,0.7c0.4,0,0.5,0,0.5,0v1
		C370.7,164.3,370.5,164.4,369.9,164.4z"/>
	<path class="st12" d="M375.6,155.7v-1.4h1.4v1.4H375.6z M375.7,164.3v-7h1.2v7H375.7z"/>
	<path class="st12" d="M384,164.3v-4.5c0-1.1-0.4-1.7-1.5-1.7c-0.7,0-1.2,0.4-1.5,1.1c-0.2,0.5-0.2,1.3-0.2,1.8v3.3h-1.2v-7h1
		l0.1,1.1c0.4-0.8,1.3-1.2,2.1-1.2c1.6,0,2.4,1,2.4,2.6v4.6H384z"/>
	<path class="st12" d="M389.9,164.4c-1.5,0-1.9-1-1.9-1.9v-4.2h-1.4v-1h1.4v-1.8l1.2-0.3v2.1h2.1v1h-2.1v4.1c0,0.7,0.3,1,0.9,1
		c0.5,0,1.2-0.1,1.2-0.1v1C391,164.3,390.5,164.4,389.9,164.4z"/>
	<path class="st12" d="M398.5,161.2h-5c0,0.6,0.2,1.3,0.7,1.8c0.3,0.3,0.8,0.5,1.3,0.5c0.6,0,1-0.2,1.3-0.5c0.2-0.2,0.3-0.4,0.4-0.8
		h1.2c-0.1,0.7-0.5,1.3-1.1,1.7c-0.5,0.3-1.1,0.5-1.8,0.5c-1,0-1.8-0.4-2.3-1.1c-0.6-0.7-0.9-1.6-0.9-2.6c0-0.8,0.2-1.6,0.5-2.3
		c0.5-0.8,1.4-1.5,2.7-1.5c0.9,0,1.6,0.3,2.1,0.9c0.6,0.6,0.9,1.5,0.9,2.5L398.5,161.2z M396.9,158.7c-0.3-0.4-0.8-0.6-1.4-0.6
		c-1.3,0-1.9,1-1.9,2.1h3.8C397.3,159.6,397.2,159.1,396.9,158.7z"/>
	<path class="st12" d="M403.7,158.4c-0.6,0-1,0.2-1.3,0.6c-0.6,0.5-0.6,1.5-0.6,2.3v3.1h-1.2v-7h1l0.1,1.2c0.4-0.9,1.2-1.3,2.1-1.3
		c0.2,0,0.4,0,0.6,0v1.2C404.1,158.4,403.9,158.4,403.7,158.4z"/>
	<path class="st12" d="M410.4,164.3v-4.5c0-1.1-0.4-1.7-1.5-1.7c-0.7,0-1.2,0.4-1.5,1.1c-0.2,0.5-0.2,1.3-0.2,1.8v3.3h-1.2v-7h1
		l0.1,1.1c0.4-0.8,1.3-1.2,2.1-1.2c1.6,0,2.4,1,2.4,2.6v4.6H410.4z"/>
	<path class="st12" d="M418.7,163.7c-0.5,0.6-1.4,0.8-2.3,0.8c-0.9,0-1.7-0.2-2.3-0.8c-0.4-0.4-0.7-1-0.7-1.6h1.2
		c0,0.5,0.2,0.8,0.6,1.1c0.3,0.2,0.8,0.3,1.3,0.3c0.5,0,0.9-0.1,1.3-0.4c0.2-0.2,0.3-0.4,0.3-0.8c0-0.5-0.4-0.9-1.1-1l-1.6-0.2
		c-1.1-0.2-1.7-0.8-1.7-1.9c0-0.5,0.3-1.1,0.6-1.4c0.5-0.5,1.2-0.8,2.1-0.8c0.9,0,1.8,0.3,2.2,0.9c0.3,0.4,0.5,0.8,0.5,1.3h-1.2
		c0-0.4-0.2-0.7-0.4-0.9c-0.3-0.3-0.7-0.4-1.2-0.4c-0.3,0-0.5,0-0.8,0.1c-0.4,0.2-0.7,0.6-0.7,0.9c0,0.6,0.4,0.8,0.9,0.9
		c0.4,0.1,0.9,0.1,1.7,0.2c1,0.2,1.8,0.9,1.8,1.9C419.3,162.9,419.1,163.4,418.7,163.7z"/>
	<path class="st12" d="M425.8,164.3v-4.5c0-1.1-0.4-1.7-1.5-1.7c-0.7,0-1.2,0.4-1.5,1.1c-0.2,0.5-0.2,1.3-0.2,1.8v3.3h-1.2v-10h1.2
		v3.9c0.4-0.7,1.3-1.1,2.1-1.1c1.6,0,2.4,1,2.4,2.6v4.6H425.8z"/>
	<path class="st12" d="M429.4,155.7v-1.4h1.4v1.4H429.4z M429.5,164.3v-7h1.2v7H429.5z"/>
	<path class="st12" d="M438.4,163.8c-0.5,0.4-1.1,0.7-1.9,0.7c-0.8,0-1.7-0.4-2-1v3.8h-1.2v-10h1l0.1,0.9c0.4-0.7,1.3-1.1,2.1-1.1
		c0.9,0,1.5,0.3,2,0.8c0.7,0.7,1,1.8,1,2.9C439.5,162,439.1,163.1,438.4,163.8z M436.3,158.1c-0.5,0-0.9,0.2-1.1,0.5
		c-0.6,0.5-0.8,1.4-0.8,2.2c0,0.9,0.2,1.7,0.8,2.2c0.3,0.3,0.6,0.5,1.1,0.5c1.6,0,2-1.4,2-2.7C438.3,159.5,437.9,158.1,436.3,158.1z
		"/>
</g>
<g>
	<path class="st12" d="M334.5,191.8l-0.8-2.3h-4.3l-0.8,2.3h-1.3l3.5-9.9h1.4l3.5,9.9H334.5z M331.5,183.2l-1.7,5.1h3.5L331.5,183.2
		z"/>
	<path class="st12" d="M341.8,191.3c-0.5,0.5-1.2,0.8-2,0.8c-1.3,0-2.1-0.6-2.6-1.3c-0.4-0.6-0.6-1.3-0.6-2.4c0-1.1,0.2-1.8,0.6-2.4
		c0.5-0.7,1.3-1.3,2.6-1.3c0.8,0,1.5,0.3,2,0.8c0.5,0.5,0.8,1,0.8,1.8h-1.2c-0.1-0.5-0.2-0.8-0.5-1.1c-0.3-0.3-0.7-0.4-1.1-0.4
		c-0.5,0-0.9,0.2-1.2,0.5c-0.6,0.5-0.7,1.3-0.7,2.2s0.2,1.7,0.7,2.2c0.3,0.3,0.7,0.5,1.2,0.5c0.5,0,0.9-0.2,1.2-0.5
		c0.2-0.3,0.4-0.6,0.5-1h1.2C342.5,190.2,342.3,190.8,341.8,191.3z"/>
	<path class="st12" d="M349.6,191.9c-0.6,0-1-0.5-1-1.1h0c-0.4,0.7-1.3,1.2-2.3,1.2c-1.6,0-2.4-1.1-2.4-2.2c0-0.9,0.6-2.1,2.5-2.2
		l2.1-0.1V187c0-0.3,0-0.8-0.4-1.1c-0.2-0.2-0.6-0.4-1.2-0.4c-0.6,0-1,0.2-1.3,0.4c-0.2,0.2-0.3,0.5-0.3,0.8h-1.2
		c0-0.6,0.3-1.1,0.6-1.5c0.5-0.5,1.3-0.8,2.2-0.8c1.4,0,2.1,0.6,2.5,1.3c0.1,0.3,0.2,0.7,0.2,1.1v3.4c0,0.4,0.2,0.5,0.4,0.5
		c0.1,0,0.3,0,0.3,0v0.9C350.2,191.9,349.9,191.9,349.6,191.9z M348.6,188.4l-1.9,0.1c-0.7,0-1.5,0.4-1.5,1.3c0,0.6,0.4,1.2,1.4,1.2
		c0.5,0,1.1-0.2,1.4-0.6c0.4-0.4,0.6-1,0.6-1.6V188.4z"/>
	<path class="st12" d="M356.9,191.8l-0.1-0.9c-0.4,0.7-1.3,1.1-2.1,1.1c-0.9,0-1.5-0.3-2-0.8c-0.7-0.7-1-1.8-1-2.9
		c0-1.2,0.4-2.3,1.1-3c0.5-0.4,1.1-0.7,1.9-0.7c0.8,0,1.7,0.4,2,1v-3.8h1.2v10H356.9z M356.1,186.1c-0.3-0.3-0.6-0.5-1.1-0.5
		c-1.6,0-2,1.4-2,2.7c0,1.3,0.4,2.7,2,2.7c0.5,0,0.9-0.2,1.1-0.5c0.6-0.5,0.8-1.4,0.8-2.2C356.9,187.4,356.7,186.6,356.1,186.1z"/>
	<path class="st12" d="M366.2,188.7h-5c0,0.6,0.2,1.3,0.7,1.8c0.3,0.3,0.8,0.5,1.3,0.5c0.6,0,1-0.2,1.3-0.5c0.2-0.2,0.3-0.4,0.4-0.8
		h1.2c-0.1,0.7-0.5,1.3-1.1,1.7c-0.5,0.3-1.1,0.5-1.8,0.5c-1,0-1.8-0.4-2.3-1.1c-0.6-0.7-0.9-1.6-0.9-2.6c0-0.8,0.2-1.6,0.5-2.3
		c0.5-0.8,1.4-1.5,2.7-1.5c0.9,0,1.6,0.3,2.1,0.9c0.6,0.6,0.9,1.5,0.9,2.5L366.2,188.7z M364.6,186.3c-0.3-0.4-0.8-0.6-1.4-0.6
		c-1.3,0-1.9,1-1.9,2.1h3.8C365,187.2,364.9,186.6,364.6,186.3z"/>
	<path class="st12" d="M376.8,191.8v-4.5c0-1-0.3-1.7-1.4-1.7c-0.4,0-0.8,0.2-1.1,0.5c-0.5,0.5-0.6,1.2-0.6,1.9v3.7h-1.2v-4.5
		c0-1-0.3-1.7-1.4-1.7c-0.5,0-0.9,0.2-1.2,0.6c-0.3,0.4-0.5,1.2-0.5,1.8v3.7h-1.2v-7h1l0.1,1c0.4-0.8,1.2-1.2,2-1.2
		c1,0,1.8,0.5,2.1,1.3c0.4-0.9,1.3-1.3,2.2-1.3c1.6,0,2.3,1,2.3,2.6v4.6H376.8z"/>
	<path class="st12" d="M380.4,183.2v-1.4h1.4v1.4H380.4z M380.4,191.8v-7h1.2v7H380.4z"/>
	<path class="st12" d="M388.9,191.3c-0.5,0.5-1.2,0.8-2,0.8c-1.3,0-2.1-0.6-2.6-1.3c-0.4-0.6-0.6-1.3-0.6-2.4c0-1.1,0.2-1.8,0.6-2.4
		c0.5-0.7,1.3-1.3,2.6-1.3c0.8,0,1.5,0.3,2,0.8c0.5,0.5,0.8,1,0.8,1.8h-1.2c-0.1-0.5-0.2-0.8-0.5-1.1c-0.3-0.3-0.7-0.4-1.1-0.4
		c-0.5,0-0.9,0.2-1.2,0.5c-0.6,0.5-0.7,1.3-0.7,2.2s0.2,1.7,0.7,2.2c0.3,0.3,0.7,0.5,1.2,0.5c0.5,0,0.9-0.2,1.2-0.5
		c0.2-0.3,0.4-0.6,0.5-1h1.2C389.6,190.2,389.3,190.8,388.9,191.3z"/>
	<path class="st12" d="M399.5,191.3c-0.5,0.5-1.2,0.8-2,0.8c-1.3,0-2.1-0.6-2.6-1.3c-0.4-0.6-0.6-1.3-0.6-2.4c0-1.1,0.2-1.8,0.6-2.4
		c0.5-0.7,1.3-1.3,2.6-1.3c0.8,0,1.5,0.3,2,0.8c0.5,0.5,0.8,1,0.8,1.8h-1.2c-0.1-0.5-0.2-0.8-0.5-1.1c-0.3-0.3-0.7-0.4-1.1-0.4
		c-0.5,0-0.9,0.2-1.2,0.5c-0.6,0.5-0.7,1.3-0.7,2.2s0.2,1.7,0.7,2.2c0.3,0.3,0.7,0.5,1.2,0.5c0.5,0,0.9-0.2,1.2-0.5
		c0.2-0.3,0.4-0.6,0.5-1h1.2C400.2,190.2,399.9,190.8,399.5,191.3z"/>
	<path class="st12" d="M405.4,185.9c-0.6,0-1,0.2-1.3,0.6c-0.6,0.5-0.6,1.5-0.6,2.3v3.1h-1.2v-7h1l0.1,1.2c0.4-0.9,1.2-1.3,2.1-1.3
		c0.2,0,0.4,0,0.6,0v1.2C405.8,185.9,405.6,185.9,405.4,185.9z"/>
	<path class="st12" d="M413.1,188.7h-5c0,0.6,0.3,1.3,0.7,1.8c0.3,0.3,0.8,0.5,1.3,0.5c0.6,0,1-0.2,1.3-0.5c0.2-0.2,0.3-0.4,0.4-0.8
		h1.2c-0.1,0.7-0.5,1.3-1.1,1.7c-0.5,0.3-1.1,0.5-1.8,0.5c-1,0-1.8-0.4-2.3-1.1c-0.6-0.7-0.9-1.6-0.9-2.6c0-0.8,0.2-1.6,0.5-2.3
		c0.5-0.8,1.4-1.5,2.7-1.5c0.9,0,1.6,0.3,2.1,0.9c0.6,0.6,0.9,1.5,0.9,2.5L413.1,188.7z M411.5,186.3c-0.3-0.4-0.8-0.6-1.4-0.6
		c-1.3,0-1.9,1-1.9,2.1h3.8C411.9,187.2,411.7,186.6,411.5,186.3z"/>
	<path class="st12" d="M419.7,191.8l-0.1-0.9c-0.4,0.7-1.3,1.1-2.1,1.1c-0.9,0-1.5-0.3-2-0.8c-0.7-0.7-1-1.8-1-2.9
		c0-1.2,0.4-2.3,1.1-3c0.5-0.4,1.1-0.7,1.9-0.7c0.8,0,1.7,0.4,2,1v-3.8h1.2v10H419.7z M418.9,186.1c-0.3-0.3-0.6-0.5-1.1-0.5
		c-1.6,0-2,1.4-2,2.7c0,1.3,0.4,2.7,2,2.7c0.5,0,0.9-0.2,1.1-0.5c0.6-0.5,0.8-1.4,0.8-2.2C419.7,187.4,419.5,186.6,418.9,186.1z"/>
	<path class="st12" d="M423.3,183.2v-1.4h1.4v1.4H423.3z M423.4,191.8v-7h1.2v7H423.4z"/>
	<path class="st12" d="M429.4,191.9c-1.5,0-1.9-1-1.9-1.9v-4.2h-1.4v-1h1.4V183l1.2-0.3v2.1h2.1v1h-2.1v4.1c0,0.7,0.3,1,0.9,1
		c0.5,0,1.2-0.1,1.2-0.1v1C430.5,191.8,430,191.9,429.4,191.9z"/>
	<path class="st12" d="M437.2,191.2c-0.5,0.6-1.4,0.8-2.3,0.8c-0.9,0-1.7-0.2-2.3-0.8c-0.4-0.4-0.7-1-0.7-1.6h1.2
		c0,0.5,0.2,0.8,0.6,1.1c0.3,0.2,0.8,0.3,1.3,0.3c0.5,0,0.9-0.1,1.3-0.4c0.2-0.2,0.3-0.4,0.3-0.8c0-0.5-0.4-0.9-1.1-1l-1.6-0.2
		c-1.1-0.2-1.7-0.8-1.7-1.9c0-0.5,0.3-1.1,0.6-1.4c0.5-0.5,1.2-0.8,2.1-0.8c0.9,0,1.8,0.3,2.2,0.9c0.3,0.4,0.5,0.8,0.5,1.3h-1.2
		c0-0.4-0.2-0.7-0.4-0.9c-0.3-0.3-0.7-0.4-1.2-0.4c-0.3,0-0.5,0-0.8,0.1c-0.4,0.2-0.7,0.6-0.7,0.9c0,0.6,0.4,0.8,0.9,0.9
		c0.4,0.1,0.9,0.1,1.7,0.2c1,0.2,1.8,0.9,1.8,1.9C437.7,190.4,437.5,190.9,437.2,191.2z"/>
</g>
<g>
	<path class="st12" d="M366.2,217l-0.8-2.3h-4.3l-0.8,2.3h-1.3l3.5-9.9h1.4l3.5,9.9H366.2z M363.2,208.4l-1.7,5.1h3.5L363.2,208.4z"
		/>
	<path class="st12" d="M373.5,217l-0.1-0.9c-0.4,0.7-1.3,1.1-2.1,1.1c-0.9,0-1.5-0.3-2-0.8c-0.7-0.7-1-1.8-1-2.9
		c0-1.2,0.4-2.3,1.1-3c0.5-0.4,1.1-0.7,1.9-0.7c0.8,0,1.7,0.4,2,1V207h1.2v10H373.5z M372.6,211.3c-0.3-0.2-0.6-0.5-1.1-0.5
		c-1.6,0-2,1.4-2,2.7s0.4,2.7,2,2.7c0.5,0,0.9-0.2,1.1-0.5c0.6-0.5,0.8-1.4,0.8-2.2C373.4,212.6,373.2,211.8,372.6,211.3z"/>
	<path class="st12" d="M379.9,217h-1.3l-2.6-7h1.2l2,5.6l2-5.6h1.2L379.9,217z"/>
	<path class="st12" d="M389.4,213.9h-5c0,0.6,0.2,1.3,0.7,1.8c0.3,0.3,0.8,0.5,1.3,0.5c0.6,0,1-0.2,1.3-0.5c0.2-0.2,0.3-0.4,0.4-0.8
		h1.2c-0.1,0.7-0.5,1.3-1.1,1.7c-0.5,0.3-1.1,0.5-1.8,0.5c-1,0-1.8-0.4-2.3-1.1c-0.6-0.7-0.9-1.6-0.9-2.6c0-0.8,0.2-1.6,0.5-2.3
		c0.5-0.8,1.4-1.5,2.7-1.5c0.9,0,1.6,0.3,2.1,0.9c0.6,0.6,0.9,1.5,0.9,2.5L389.4,213.9z M387.8,211.5c-0.3-0.4-0.8-0.6-1.4-0.6
		c-1.3,0-1.9,1-1.9,2.1h3.8C388.2,212.4,388.1,211.8,387.8,211.5z"/>
	<path class="st12" d="M395.9,217v-4.5c0-1.1-0.4-1.7-1.5-1.7c-0.7,0-1.2,0.4-1.5,1.1c-0.2,0.5-0.2,1.3-0.2,1.8v3.3h-1.2v-7h1
		l0.1,1.1c0.4-0.8,1.3-1.2,2.1-1.2c1.6,0,2.4,1,2.4,2.6v4.6H395.9z"/>
	<path class="st12" d="M401.8,217.1c-1.5,0-1.9-1-1.9-1.9V211h-1.4v-1h1.4v-1.8l1.2-0.3v2.1h2.1v1h-2.1v4.1c0,0.7,0.3,1,0.9,1
		c0.5,0,1.2-0.1,1.2-0.1v1C402.9,217,402.5,217.1,401.8,217.1z"/>
	<path class="st12" d="M409.4,217l-0.1-1.1c-0.4,0.8-1.3,1.2-2.1,1.2c-1.6,0-2.4-1-2.4-2.6V210h1.2v4.4c0,1.1,0.4,1.7,1.5,1.7
		c0.5,0,0.9-0.2,1.2-0.5c0.4-0.5,0.6-1.2,0.6-1.9V210h1.2v7H409.4z"/>
	<path class="st12" d="M416.2,211.1c-0.6,0-1,0.2-1.3,0.6c-0.6,0.5-0.6,1.5-0.6,2.3v3.1H413v-7h1l0.1,1.2c0.4-0.9,1.2-1.3,2.1-1.3
		c0.2,0,0.4,0,0.6,0v1.2C416.6,211.1,416.4,211.1,416.2,211.1z"/>
	<path class="st12" d="M423.9,213.9h-5c0,0.6,0.2,1.3,0.7,1.8c0.3,0.3,0.8,0.5,1.3,0.5c0.6,0,1-0.2,1.3-0.5c0.2-0.2,0.3-0.4,0.4-0.8
		h1.2c-0.1,0.7-0.5,1.3-1.1,1.7c-0.5,0.3-1.1,0.5-1.8,0.5c-1,0-1.8-0.4-2.3-1.1c-0.6-0.7-0.9-1.6-0.9-2.6c0-0.8,0.2-1.6,0.5-2.3
		c0.5-0.8,1.4-1.5,2.7-1.5c0.9,0,1.6,0.3,2.1,0.9c0.6,0.6,0.9,1.5,0.9,2.5L423.9,213.9z M422.3,211.5c-0.3-0.4-0.8-0.6-1.4-0.6
		c-1.3,0-1.9,1-1.9,2.1h3.8C422.7,212.4,422.5,211.8,422.3,211.5z"/>
	<path class="st12" d="M430.5,216.4c-0.5,0.6-1.4,0.8-2.3,0.8c-0.9,0-1.7-0.2-2.3-0.8c-0.4-0.4-0.7-1-0.7-1.6h1.2
		c0,0.5,0.2,0.8,0.6,1.1c0.3,0.2,0.8,0.3,1.3,0.3c0.5,0,0.9-0.1,1.3-0.4c0.2-0.2,0.3-0.4,0.3-0.8c0-0.5-0.4-0.9-1.1-1l-1.6-0.2
		c-1.1-0.2-1.7-0.8-1.7-1.9c0-0.5,0.3-1.1,0.6-1.4c0.5-0.5,1.2-0.8,2.1-0.8c0.9,0,1.8,0.3,2.2,0.9c0.3,0.4,0.5,0.8,0.5,1.3h-1.2
		c0-0.4-0.2-0.7-0.4-0.9c-0.3-0.3-0.7-0.4-1.2-0.4c-0.3,0-0.5,0-0.8,0.1c-0.4,0.2-0.7,0.6-0.7,0.9c0,0.6,0.4,0.8,0.9,0.9
		c0.4,0.1,0.9,0.1,1.7,0.2c1,0.2,1.8,0.9,1.8,1.9C431.1,215.6,430.9,216.1,430.5,216.4z"/>
	<path class="st12" d="M443.3,217h-1.1l-1.8-5.4l-1.9,5.4h-1.1l-1.8-7h1.2l1.3,5.3l1.8-5.2h1l1.8,5.2l1.4-5.3h1.2L443.3,217z"/>
	<path class="st12" d="M446.9,208.4V207h1.4v1.4H446.9z M447,217v-7h1.2v7H447z"/>
	<path class="st12" d="M453,217.1c-1.5,0-1.9-1-1.9-1.9V211h-1.4v-1h1.4v-1.8l1.2-0.3v2.1h2.1v1h-2.1v4.1c0,0.7,0.3,1,0.9,1
		c0.5,0,1.2-0.1,1.2-0.1v1C454.1,217,453.7,217.1,453,217.1z"/>
	<path class="st12" d="M460.6,217v-4.5c0-1.1-0.4-1.7-1.5-1.7c-0.7,0-1.2,0.4-1.5,1.1c-0.2,0.5-0.2,1.3-0.2,1.8v3.3h-1.2v-10h1.2
		v3.9c0.4-0.7,1.3-1.1,2.1-1.1c1.6,0,2.4,1,2.4,2.6v4.6H460.6z"/>
	<path class="st12" d="M472,217v-4.5c0-1.1-0.4-1.7-1.5-1.7c-0.7,0-1.2,0.4-1.5,1.1c-0.2,0.5-0.2,1.3-0.2,1.8v3.3h-1.2v-7h1l0.1,1.1
		c0.4-0.8,1.3-1.2,2.1-1.2c1.6,0,2.4,1,2.4,2.6v4.6H472z"/>
	<path class="st12" d="M481.3,213.9h-5c0,0.6,0.2,1.3,0.7,1.8c0.3,0.3,0.8,0.5,1.3,0.5c0.6,0,1-0.2,1.3-0.5c0.2-0.2,0.3-0.4,0.4-0.8
		h1.2c-0.1,0.7-0.5,1.3-1.1,1.7c-0.5,0.3-1.1,0.5-1.8,0.5c-1,0-1.8-0.4-2.3-1.1c-0.6-0.7-0.9-1.6-0.9-2.6c0-0.8,0.2-1.6,0.5-2.3
		c0.5-0.8,1.4-1.5,2.7-1.5c0.9,0,1.6,0.3,2.1,0.9c0.6,0.6,0.9,1.5,0.9,2.5L481.3,213.9z M479.7,211.5c-0.3-0.4-0.8-0.6-1.4-0.6
		c-1.3,0-1.9,1-1.9,2.1h3.8C480.1,212.4,479.9,211.8,479.7,211.5z"/>
	<path class="st12" d="M490.2,217h-1.1l-1.8-5.4l-1.9,5.4h-1.1l-1.8-7h1.2l1.3,5.3l1.8-5.2h1l1.8,5.2l1.4-5.3h1.2L490.2,217z"/>
	<path class="st12" d="M499.6,207.9c-0.6,0-1,0.4-1,1v1.2h2v1h-2v6h-1.2v-6h-1.3v-1h1.3v-1.3c0-1.1,0.8-1.9,2-1.9
		c0.5,0,0.9,0.1,1.3,0.1v1C500.4,207.9,500.1,207.9,499.6,207.9z"/>
	<path class="st12" d="M505.3,211.1c-0.6,0-1,0.2-1.3,0.6c-0.6,0.5-0.6,1.5-0.6,2.3v3.1h-1.2v-7h1l0.1,1.2c0.4-0.9,1.2-1.3,2.1-1.3
		c0.2,0,0.4,0,0.6,0v1.2C505.7,211.1,505.5,211.1,505.3,211.1z"/>
	<path class="st12" d="M507.4,208.4V207h1.4v1.4H507.4z M507.5,217v-7h1.2v7H507.5z"/>
	<path class="st12" d="M516.9,213.9h-5c0,0.6,0.3,1.3,0.7,1.8c0.3,0.3,0.8,0.5,1.3,0.5c0.6,0,1-0.2,1.3-0.5c0.2-0.2,0.3-0.4,0.4-0.8
		h1.2c-0.1,0.7-0.5,1.3-1.1,1.7c-0.5,0.3-1.1,0.5-1.8,0.5c-1,0-1.8-0.4-2.3-1.1c-0.6-0.7-0.9-1.6-0.9-2.6c0-0.8,0.2-1.6,0.5-2.3
		c0.5-0.8,1.4-1.5,2.7-1.5c0.9,0,1.6,0.3,2.1,0.9c0.6,0.6,0.9,1.5,0.9,2.5L516.9,213.9z M515.3,211.5c-0.3-0.4-0.8-0.6-1.4-0.6
		c-1.3,0-1.9,1-1.9,2.1h3.8C515.7,212.4,515.6,211.8,515.3,211.5z"/>
	<path class="st12" d="M523.4,217v-4.5c0-1.1-0.4-1.7-1.5-1.7c-0.7,0-1.2,0.4-1.5,1.1c-0.2,0.5-0.2,1.3-0.2,1.8v3.3h-1.2v-7h1
		l0.1,1.1c0.4-0.8,1.3-1.2,2.1-1.2c1.6,0,2.4,1,2.4,2.6v4.6H523.4z"/>
	<path class="st12" d="M531.7,217l-0.1-0.9c-0.4,0.7-1.3,1.1-2.1,1.1c-0.9,0-1.5-0.3-2-0.8c-0.7-0.7-1-1.8-1-2.9
		c0-1.2,0.4-2.3,1.1-3c0.5-0.4,1.1-0.7,1.9-0.7c0.8,0,1.7,0.4,2,1V207h1.2v10H531.7z M530.9,211.3c-0.3-0.2-0.6-0.5-1.1-0.5
		c-1.6,0-2,1.4-2,2.7s0.4,2.7,2,2.7c0.5,0,0.9-0.2,1.1-0.5c0.6-0.5,0.8-1.4,0.8-2.2C531.7,212.6,531.5,211.8,530.9,211.3z"/>
	<path class="st12" d="M540,216.4c-0.5,0.6-1.4,0.8-2.3,0.8c-0.9,0-1.7-0.2-2.3-0.8c-0.4-0.4-0.7-1-0.7-1.6h1.2
		c0,0.5,0.2,0.8,0.6,1.1c0.3,0.2,0.8,0.3,1.3,0.3c0.5,0,0.9-0.1,1.3-0.4c0.2-0.2,0.3-0.4,0.3-0.8c0-0.5-0.4-0.9-1.1-1l-1.6-0.2
		c-1.1-0.2-1.7-0.8-1.7-1.9c0-0.5,0.3-1.1,0.6-1.4c0.5-0.5,1.2-0.8,2.1-0.8c0.9,0,1.8,0.3,2.2,0.9c0.3,0.4,0.5,0.8,0.5,1.3h-1.2
		c0-0.4-0.2-0.7-0.4-0.9c-0.3-0.3-0.7-0.4-1.2-0.4c-0.3,0-0.5,0-0.8,0.1c-0.4,0.2-0.7,0.6-0.7,0.9c0,0.6,0.4,0.8,0.9,0.9
		c0.4,0.1,0.9,0.1,1.7,0.2c1,0.2,1.8,0.9,1.8,1.9C540.6,215.6,540.3,216.1,540,216.4z"/>
</g>
<g>
	<path class="st12" d="M396.9,242.5c-0.6,0.6-1.6,1.1-2.6,1.1c-1,0-2-0.4-2.7-1.1c-1.1-1-1.2-2.5-1.2-4.1c0-1.6,0.2-3,1.2-4.1
		c0.7-0.7,1.7-1.1,2.7-1.1c1.1,0,2,0.4,2.6,1c0.6,0.6,0.9,1.3,1,2.3h-1.3c0-0.5-0.2-1-0.5-1.4c-0.4-0.4-1-0.7-1.8-0.7
		c-0.7,0-1.3,0.3-1.8,0.8c-0.8,0.8-0.8,2.2-0.8,3.2s0,2.4,0.8,3.2c0.5,0.5,1.1,0.8,1.8,0.8c0.8,0,1.4-0.3,1.8-0.8
		c0.3-0.4,0.5-0.9,0.5-1.4h1.3C397.8,241.2,397.5,242,396.9,242.5z"/>
	<path class="st12" d="M404.2,243.4v-4.5c0-1.1-0.4-1.7-1.5-1.7c-0.7,0-1.2,0.4-1.5,1.1c-0.2,0.5-0.2,1.3-0.2,1.8v3.3h-1.2v-10h1.2
		v3.9c0.4-0.7,1.3-1.1,2.1-1.1c1.6,0,2.4,1,2.4,2.6v4.6H404.2z"/>
	<path class="st12" d="M413,243.5c-0.6,0-1-0.5-1-1.1h0c-0.4,0.7-1.3,1.2-2.3,1.2c-1.6,0-2.4-1.1-2.4-2.2c0-0.9,0.6-2.1,2.5-2.2
		l2.1-0.1v-0.5c0-0.3,0-0.8-0.4-1.1c-0.2-0.2-0.6-0.4-1.2-0.4c-0.6,0-1,0.2-1.3,0.4c-0.2,0.2-0.3,0.5-0.3,0.8h-1.2
		c0-0.6,0.3-1.1,0.6-1.5c0.5-0.5,1.3-0.8,2.2-0.8c1.4,0,2.1,0.6,2.5,1.3c0.1,0.3,0.2,0.7,0.2,1.1v3.4c0,0.4,0.2,0.5,0.4,0.5
		c0.1,0,0.3,0,0.3,0v0.9C413.5,243.5,413.3,243.5,413,243.5z M411.9,240l-1.9,0.1c-0.7,0-1.5,0.4-1.5,1.3c0,0.6,0.4,1.2,1.4,1.2
		c0.5,0,1.1-0.2,1.4-0.6c0.4-0.4,0.6-1,0.6-1.6V240z"/>
	<path class="st12" d="M417.1,243.5c-1,0-1.5-0.6-1.5-1.7v-8.4h1.2v8.3c0,0.5,0.2,0.7,0.6,0.7c0.4,0,0.5,0,0.5,0v1
		C417.9,243.4,417.6,243.5,417.1,243.5z"/>
	<path class="st12" d="M421.1,243.5c-1,0-1.5-0.6-1.5-1.7v-8.4h1.2v8.3c0,0.5,0.2,0.7,0.6,0.7c0.4,0,0.5,0,0.5,0v1
		C422,243.4,421.7,243.5,421.1,243.5z"/>
	<path class="st12" d="M429.3,240.3h-5c0,0.6,0.3,1.3,0.7,1.8c0.3,0.3,0.8,0.5,1.3,0.5c0.6,0,1-0.2,1.3-0.5c0.2-0.2,0.3-0.4,0.4-0.8
		h1.2c-0.1,0.7-0.5,1.3-1.1,1.7c-0.5,0.3-1.1,0.5-1.8,0.5c-1,0-1.8-0.4-2.3-1.1c-0.6-0.7-0.9-1.6-0.9-2.6c0-0.8,0.2-1.6,0.5-2.3
		c0.5-0.8,1.4-1.5,2.7-1.5c0.9,0,1.6,0.3,2.1,0.9c0.6,0.6,0.9,1.5,0.9,2.5L429.3,240.3z M427.7,237.8c-0.3-0.4-0.8-0.6-1.4-0.6
		c-1.3,0-1.9,1-1.9,2.1h3.8C428.1,238.7,428,238.2,427.7,237.8z"/>
	<path class="st12" d="M435.8,243.4v-4.5c0-1.1-0.4-1.7-1.5-1.7c-0.7,0-1.2,0.4-1.5,1.1c-0.2,0.5-0.2,1.3-0.2,1.8v3.3h-1.2v-7h1
		l0.1,1.1c0.4-0.8,1.3-1.2,2.1-1.2c1.6,0,2.4,1,2.4,2.6v4.6H435.8z"/>
	<path class="st12" d="M444.9,245.9c-0.7,0.7-1.8,0.8-2.8,0.8c-0.9,0-2-0.1-2.7-0.8c-0.3-0.3-0.5-0.7-0.5-1.3c0-0.7,0.4-1.3,1-1.6
		c-0.5-0.2-0.8-0.6-0.8-1.2c0-0.6,0.4-1.1,0.9-1.4c-0.5-0.5-0.8-1.2-0.8-1.8c0-0.8,0.3-1.3,0.7-1.7c0.5-0.5,1.2-0.8,2.1-0.8
		c0.7,0,1.2,0.2,1.6,0.4c0.2-0.6,0.8-1,1.4-1c0.1,0,0.2,0,0.3,0v1c-0.1,0-0.2,0-0.3,0c-0.5,0-0.8,0.2-0.9,0.6
		c0.3,0.4,0.5,0.8,0.5,1.5c0,0.7-0.2,1.3-0.6,1.7c-0.5,0.5-1.2,0.8-2.1,0.8c-0.5,0-0.7,0-1.2-0.2c-0.3,0.1-0.6,0.3-0.6,0.6
		c0,0.6,0.6,0.7,1.1,0.7h1.4c0.8,0,1.8,0.2,2.3,0.7c0.3,0.3,0.6,0.8,0.6,1.4C445.5,245.1,445.2,245.5,444.9,245.9z M442.5,243.3
		h-1.6c-0.5,0.2-0.9,0.6-0.9,1.1c0,0.3,0.1,0.6,0.3,0.7c0.5,0.5,1.3,0.5,1.9,0.5c0.6,0,1.5-0.1,1.9-0.5c0.2-0.2,0.3-0.4,0.3-0.7
		C444.3,243.4,443.3,243.3,442.5,243.3z M441.9,237.2c-1,0-1.6,0.7-1.6,1.5s0.6,1.6,1.6,1.6c1,0,1.6-0.7,1.6-1.6
		S442.9,237.2,441.9,237.2z"/>
	<path class="st12" d="M446.9,234.8v-1.4h1.4v1.4H446.9z M447,243.4v-7h1.2v7H447z"/>
	<path class="st12" d="M455.3,243.4v-4.5c0-1.1-0.4-1.7-1.5-1.7c-0.7,0-1.2,0.4-1.5,1.1c-0.2,0.5-0.2,1.3-0.2,1.8v3.3h-1.2v-7h1
		l0.1,1.1c0.4-0.8,1.3-1.2,2.1-1.2c1.6,0,2.4,1,2.4,2.6v4.6H455.3z"/>
	<path class="st12" d="M464.3,245.9c-0.7,0.7-1.8,0.8-2.8,0.8c-0.9,0-2-0.1-2.7-0.8c-0.3-0.3-0.5-0.7-0.5-1.3c0-0.7,0.4-1.3,1-1.6
		c-0.5-0.2-0.8-0.6-0.8-1.2c0-0.6,0.4-1.1,0.9-1.4c-0.5-0.5-0.8-1.2-0.8-1.8c0-0.8,0.3-1.3,0.7-1.7c0.5-0.5,1.2-0.8,2.1-0.8
		c0.7,0,1.2,0.2,1.6,0.4c0.2-0.6,0.8-1,1.4-1c0.1,0,0.2,0,0.3,0v1c-0.1,0-0.2,0-0.3,0c-0.5,0-0.8,0.2-0.9,0.6
		c0.3,0.4,0.5,0.8,0.5,1.5c0,0.7-0.2,1.3-0.6,1.7c-0.5,0.5-1.2,0.8-2.1,0.8c-0.5,0-0.7,0-1.2-0.2c-0.3,0.1-0.6,0.3-0.6,0.6
		c0,0.6,0.6,0.7,1.1,0.7h1.4c0.8,0,1.8,0.2,2.3,0.7c0.3,0.3,0.6,0.8,0.6,1.4C464.9,245.1,464.6,245.5,464.3,245.9z M461.9,243.3
		h-1.6c-0.5,0.2-0.9,0.6-0.9,1.1c0,0.3,0.1,0.6,0.3,0.7c0.5,0.5,1.3,0.5,1.9,0.5c0.6,0,1.5-0.1,1.9-0.5c0.2-0.2,0.3-0.4,0.3-0.7
		C463.8,243.4,462.7,243.3,461.9,243.3z M461.3,237.2c-1,0-1.6,0.7-1.6,1.5s0.6,1.6,1.6,1.6c1,0,1.6-0.7,1.6-1.6
		S462.3,237.2,461.3,237.2z"/>
	<path class="st12" d="M474.3,242.8c-0.5,0.6-1.4,0.8-2.3,0.8c-0.9,0-1.7-0.2-2.3-0.8c-0.4-0.4-0.7-1-0.7-1.6h1.2
		c0,0.5,0.2,0.8,0.6,1.1c0.3,0.2,0.8,0.3,1.3,0.3c0.5,0,0.9-0.1,1.3-0.4c0.2-0.2,0.3-0.4,0.3-0.8c0-0.5-0.4-0.9-1.1-1l-1.6-0.2
		c-1.1-0.2-1.7-0.8-1.7-1.9c0-0.5,0.3-1.1,0.6-1.4c0.5-0.5,1.2-0.8,2.1-0.8c0.9,0,1.8,0.3,2.2,0.9c0.3,0.4,0.5,0.8,0.5,1.3h-1.2
		c0-0.4-0.2-0.7-0.4-0.9c-0.3-0.3-0.7-0.4-1.2-0.4c-0.3,0-0.5,0-0.8,0.1c-0.4,0.2-0.7,0.6-0.7,0.9c0,0.6,0.4,0.8,0.9,0.9
		c0.4,0.1,0.9,0.1,1.7,0.2c1,0.2,1.8,0.9,1.8,1.9C474.8,242,474.6,242.4,474.3,242.8z"/>
	<path class="st12" d="M481.6,242.8c-0.5,0.5-1.2,0.8-2.1,0.8s-1.6-0.3-2.1-0.8c-0.8-0.8-1-1.8-1-2.9c0-1.1,0.2-2.1,1-2.9
		c0.5-0.5,1.2-0.8,2.1-0.8s1.6,0.3,2.1,0.8c0.8,0.8,1,1.8,1,2.9C482.6,241,482.3,242,481.6,242.8z M480.7,237.7
		c-0.3-0.3-0.7-0.5-1.3-0.5c-0.6,0-1,0.2-1.3,0.5c-0.5,0.5-0.7,1.4-0.7,2.2s0.2,1.7,0.7,2.2c0.3,0.3,0.7,0.5,1.3,0.5
		c0.6,0,1-0.2,1.3-0.5c0.5-0.5,0.7-1.4,0.7-2.2S481.2,238.2,480.7,237.7z"/>
	<path class="st12" d="M489.2,242.8c-0.5,0.5-1.2,0.8-2,0.8c-1.3,0-2.1-0.6-2.6-1.3c-0.4-0.6-0.6-1.3-0.6-2.4s0.2-1.8,0.6-2.4
		c0.5-0.7,1.3-1.3,2.6-1.3c0.8,0,1.5,0.3,2,0.8c0.5,0.5,0.8,1,0.8,1.8h-1.2c-0.1-0.5-0.2-0.8-0.5-1.1c-0.3-0.3-0.7-0.4-1.1-0.4
		c-0.5,0-0.9,0.2-1.2,0.5c-0.6,0.5-0.7,1.3-0.7,2.2c0,0.9,0.2,1.7,0.7,2.2c0.3,0.3,0.7,0.5,1.2,0.5c0.5,0,0.9-0.2,1.2-0.5
		c0.2-0.3,0.4-0.6,0.5-1h1.2C490,241.8,489.7,242.4,489.2,242.8z"/>
	<path class="st12" d="M491.9,234.8v-1.4h1.4v1.4H491.9z M492,243.4v-7h1.2v7H492z"/>
	<path class="st12" d="M500.9,243.5c-0.6,0-1-0.5-1-1.1h0c-0.4,0.7-1.3,1.2-2.3,1.2c-1.6,0-2.4-1.1-2.4-2.2c0-0.9,0.6-2.1,2.5-2.2
		l2.1-0.1v-0.5c0-0.3,0-0.8-0.4-1.1c-0.2-0.2-0.6-0.4-1.2-0.4c-0.6,0-1,0.2-1.3,0.4c-0.2,0.2-0.3,0.5-0.3,0.8h-1.2
		c0-0.6,0.3-1.1,0.6-1.5c0.5-0.5,1.3-0.8,2.2-0.8c1.4,0,2.1,0.6,2.5,1.3c0.1,0.3,0.2,0.7,0.2,1.1v3.4c0,0.4,0.2,0.5,0.4,0.5
		c0.1,0,0.3,0,0.3,0v0.9C501.4,243.5,501.2,243.5,500.9,243.5z M499.8,240l-1.9,0.1c-0.7,0-1.5,0.4-1.5,1.3c0,0.6,0.4,1.2,1.4,1.2
		c0.5,0,1.1-0.2,1.4-0.6c0.4-0.4,0.6-1,0.6-1.6V240z"/>
	<path class="st12" d="M505,243.5c-1,0-1.5-0.6-1.5-1.7v-8.4h1.2v8.3c0,0.5,0.2,0.7,0.6,0.7c0.4,0,0.5,0,0.5,0v1
		C505.8,243.4,505.6,243.5,505,243.5z"/>
	<path class="st12" d="M510.7,234.8v-1.4h1.4v1.4H510.7z M510.8,243.4v-7h1.2v7H510.8z"/>
	<path class="st12" d="M519.3,242.8c-0.5,0.6-1.4,0.8-2.3,0.8c-0.9,0-1.7-0.2-2.3-0.8c-0.4-0.4-0.7-1-0.7-1.6h1.2
		c0,0.5,0.2,0.8,0.6,1.1c0.3,0.2,0.8,0.3,1.3,0.3c0.5,0,0.9-0.1,1.3-0.4c0.2-0.2,0.3-0.4,0.3-0.8c0-0.5-0.4-0.9-1.1-1l-1.6-0.2
		c-1.1-0.2-1.7-0.8-1.7-1.9c0-0.5,0.3-1.1,0.6-1.4c0.5-0.5,1.2-0.8,2.1-0.8c0.9,0,1.8,0.3,2.2,0.9c0.3,0.4,0.5,0.8,0.5,1.3h-1.2
		c0-0.4-0.2-0.7-0.4-0.9c-0.3-0.3-0.7-0.4-1.2-0.4c-0.3,0-0.5,0-0.8,0.1c-0.4,0.2-0.7,0.6-0.7,0.9c0,0.6,0.4,0.8,0.9,0.9
		c0.4,0.1,0.9,0.1,1.7,0.2c1,0.2,1.8,0.9,1.8,1.9C519.8,242,519.6,242.4,519.3,242.8z"/>
	<path class="st12" d="M526.5,242.8c-0.5,0.6-1.4,0.8-2.3,0.8c-0.9,0-1.7-0.2-2.3-0.8c-0.4-0.4-0.7-1-0.7-1.6h1.2
		c0,0.5,0.2,0.8,0.6,1.1c0.3,0.2,0.8,0.3,1.3,0.3c0.5,0,0.9-0.1,1.3-0.4c0.2-0.2,0.3-0.4,0.3-0.8c0-0.5-0.4-0.9-1.1-1l-1.6-0.2
		c-1.1-0.2-1.7-0.8-1.7-1.9c0-0.5,0.3-1.1,0.6-1.4c0.5-0.5,1.2-0.8,2.1-0.8c0.9,0,1.8,0.3,2.2,0.9c0.3,0.4,0.5,0.8,0.5,1.3h-1.2
		c0-0.4-0.2-0.7-0.4-0.9c-0.3-0.3-0.7-0.4-1.2-0.4c-0.3,0-0.5,0-0.8,0.1c-0.4,0.2-0.7,0.6-0.7,0.9c0,0.6,0.4,0.8,0.9,0.9
		c0.4,0.1,0.9,0.1,1.7,0.2c1,0.2,1.8,0.9,1.8,1.9C527.1,242,526.8,242.4,526.5,242.8z"/>
	<path class="st12" d="M533.6,243.4l-0.1-1.1c-0.4,0.8-1.3,1.2-2.1,1.2c-1.6,0-2.4-1-2.4-2.6v-4.6h1.2v4.4c0,1.1,0.4,1.7,1.5,1.7
		c0.5,0,0.9-0.2,1.2-0.5c0.4-0.5,0.6-1.2,0.6-1.9v-3.7h1.2v7H533.6z"/>
	<path class="st12" d="M542.8,240.3h-5c0,0.6,0.2,1.3,0.7,1.8c0.3,0.3,0.8,0.5,1.3,0.5c0.6,0,1-0.2,1.3-0.5c0.2-0.2,0.3-0.4,0.4-0.8
		h1.2c-0.1,0.7-0.5,1.3-1.1,1.7c-0.5,0.3-1.1,0.5-1.8,0.5c-1,0-1.8-0.4-2.3-1.1c-0.6-0.7-0.9-1.6-0.9-2.6c0-0.8,0.2-1.6,0.5-2.3
		c0.5-0.8,1.4-1.5,2.7-1.5c0.9,0,1.6,0.3,2.1,0.9c0.6,0.6,0.9,1.5,0.9,2.5L542.8,240.3z M541.2,237.8c-0.3-0.4-0.8-0.6-1.4-0.6
		c-1.3,0-1.9,1-1.9,2.1h3.8C541.6,238.7,541.5,238.2,541.2,237.8z"/>
	<path class="st12" d="M549.5,242.8c-0.5,0.6-1.4,0.8-2.3,0.8c-0.9,0-1.7-0.2-2.3-0.8c-0.4-0.4-0.7-1-0.7-1.6h1.2
		c0,0.5,0.2,0.8,0.6,1.1c0.3,0.2,0.8,0.3,1.3,0.3c0.5,0,0.9-0.1,1.3-0.4c0.2-0.2,0.3-0.4,0.3-0.8c0-0.5-0.4-0.9-1.1-1l-1.6-0.2
		c-1.1-0.2-1.7-0.8-1.7-1.9c0-0.5,0.3-1.1,0.6-1.4c0.5-0.5,1.2-0.8,2.1-0.8c0.9,0,1.8,0.3,2.2,0.9c0.3,0.4,0.5,0.8,0.5,1.3h-1.2
		c0-0.4-0.2-0.7-0.4-0.9c-0.3-0.3-0.7-0.4-1.2-0.4c-0.3,0-0.5,0-0.8,0.1c-0.4,0.2-0.7,0.6-0.7,0.9c0,0.6,0.4,0.8,0.9,0.9
		c0.4,0.1,0.9,0.1,1.7,0.2c1,0.2,1.8,0.9,1.8,1.9C550,242,549.8,242.4,549.5,242.8z"/>
</g>
<g>
	<path class="st12" d="M413.7,261.1v8.7h-1.3v-8.7h-2.9v-1.2h7.1v1.2H413.7z"/>
	<path class="st12" d="M422.6,269.8v-4.5c0-1.1-0.4-1.7-1.5-1.7c-0.7,0-1.2,0.4-1.5,1.1c-0.2,0.5-0.2,1.3-0.2,1.8v3.3h-1.2v-10h1.2
		v3.9c0.4-0.7,1.3-1.1,2.1-1.1c1.6,0,2.4,1,2.4,2.6v4.6H422.6z"/>
	<path class="st12" d="M431,269.1c-0.5,0.5-1.2,0.8-2.1,0.8s-1.6-0.3-2.1-0.8c-0.8-0.8-1-1.8-1-2.9c0-1.1,0.2-2.1,1-2.9
		c0.5-0.5,1.2-0.8,2.1-0.8s1.6,0.3,2.1,0.8c0.8,0.8,1,1.8,1,2.9C432,267.4,431.7,268.4,431,269.1z M430.1,264.1
		c-0.3-0.3-0.7-0.5-1.3-0.5c-0.6,0-1,0.2-1.3,0.5c-0.5,0.5-0.7,1.4-0.7,2.2s0.2,1.7,0.7,2.2c0.3,0.3,0.7,0.5,1.3,0.5
		c0.6,0,1-0.2,1.3-0.5c0.5-0.5,0.7-1.4,0.7-2.2S430.6,264.6,430.1,264.1z"/>
	<path class="st12" d="M438.5,269.8l-0.1-1.1c-0.4,0.8-1.3,1.2-2.1,1.2c-1.6,0-2.4-1-2.4-2.6v-4.6h1.2v4.4c0,1.1,0.4,1.7,1.5,1.7
		c0.5,0,0.9-0.2,1.2-0.5c0.4-0.5,0.6-1.2,0.6-1.9v-3.7h1.2v7H438.5z"/>
	<path class="st12" d="M447.5,272.2c-0.7,0.7-1.8,0.8-2.8,0.8c-0.9,0-2-0.1-2.7-0.8c-0.3-0.3-0.5-0.7-0.5-1.3c0-0.7,0.4-1.3,1-1.6
		c-0.5-0.2-0.8-0.6-0.8-1.2c0-0.6,0.4-1.1,0.9-1.4c-0.5-0.5-0.8-1.2-0.8-1.8c0-0.8,0.3-1.3,0.7-1.7c0.5-0.5,1.2-0.8,2.1-0.8
		c0.7,0,1.2,0.2,1.6,0.4c0.2-0.6,0.8-1,1.4-1c0.1,0,0.2,0,0.3,0v1c-0.1,0-0.2,0-0.3,0c-0.5,0-0.8,0.2-0.9,0.6
		c0.3,0.4,0.5,0.8,0.5,1.5c0,0.7-0.2,1.3-0.6,1.7c-0.5,0.5-1.2,0.8-2.1,0.8c-0.5,0-0.7,0-1.2-0.2c-0.3,0.1-0.6,0.3-0.6,0.6
		c0,0.6,0.6,0.7,1.1,0.7h1.4c0.8,0,1.8,0.2,2.3,0.7c0.3,0.3,0.6,0.8,0.6,1.4C448.1,271.4,447.8,271.9,447.5,272.2z M445.1,269.7
		h-1.6c-0.5,0.2-0.9,0.6-0.9,1.1c0,0.3,0.1,0.6,0.3,0.7c0.5,0.5,1.3,0.5,1.9,0.5c0.6,0,1.5-0.1,1.9-0.5c0.2-0.2,0.3-0.4,0.3-0.7
		C446.9,269.8,445.9,269.7,445.1,269.7z M444.5,263.5c-1,0-1.6,0.7-1.6,1.5s0.6,1.6,1.6,1.6c1,0,1.6-0.7,1.6-1.6
		S445.5,263.5,444.5,263.5z"/>
	<path class="st12" d="M454.1,269.8v-4.5c0-1.1-0.4-1.7-1.5-1.7c-0.7,0-1.2,0.4-1.5,1.1c-0.2,0.5-0.2,1.3-0.2,1.8v3.3h-1.2v-10h1.2
		v3.9c0.4-0.7,1.3-1.1,2.1-1.1c1.6,0,2.4,1,2.4,2.6v4.6H454.1z"/>
	<path class="st12" d="M459.9,269.9c-1.5,0-1.9-1-1.9-1.9v-4.2h-1.4v-1h1.4v-1.8l1.2-0.3v2.1h2.1v1h-2.1v4.1c0,0.7,0.3,1,0.9,1
		c0.5,0,1.2-0.1,1.2-0.1v1C461,269.8,460.6,269.9,459.9,269.9z"/>
	<path class="st12" d="M465.6,260.6c-0.6,0-1,0.4-1,1v1.2h2v1h-2v6h-1.2v-6h-1.3v-1h1.3v-1.3c0-1.1,0.8-1.9,2-1.9
		c0.5,0,0.9,0.1,1.3,0.1v1C466.4,260.7,466.1,260.6,465.6,260.6z"/>
	<path class="st12" d="M472.5,269.8l-0.1-1.1c-0.4,0.8-1.3,1.2-2.1,1.2c-1.6,0-2.4-1-2.4-2.6v-4.6h1.2v4.4c0,1.1,0.4,1.7,1.5,1.7
		c0.5,0,0.9-0.2,1.2-0.5c0.4-0.5,0.6-1.2,0.6-1.9v-3.7h1.2v7H472.5z"/>
	<path class="st12" d="M477.5,269.9c-1,0-1.5-0.6-1.5-1.7v-8.4h1.2v8.3c0,0.5,0.2,0.7,0.6,0.7c0.4,0,0.5,0,0.5,0v1
		C478.4,269.8,478.1,269.9,477.5,269.9z"/>
	<path class="st12" d="M486.5,263.8c-0.6,0-1,0.2-1.3,0.6c-0.6,0.5-0.6,1.5-0.6,2.3v3.1h-1.2v-7h1l0.1,1.2c0.4-0.9,1.2-1.3,2.1-1.3
		c0.2,0,0.4,0,0.6,0v1.2C486.9,263.9,486.7,263.8,486.5,263.8z"/>
	<path class="st12" d="M494.2,266.6h-5c0,0.6,0.2,1.3,0.7,1.8c0.3,0.3,0.8,0.5,1.3,0.5c0.6,0,1-0.2,1.3-0.5c0.2-0.2,0.3-0.4,0.4-0.8
		h1.2c-0.1,0.7-0.5,1.3-1.1,1.7c-0.5,0.3-1.1,0.5-1.8,0.5c-1,0-1.8-0.4-2.3-1.1c-0.6-0.7-0.9-1.6-0.9-2.6c0-0.8,0.2-1.6,0.5-2.3
		c0.5-0.8,1.4-1.5,2.7-1.5c0.9,0,1.6,0.3,2.1,0.9c0.6,0.6,0.9,1.5,0.9,2.5L494.2,266.6z M492.6,264.2c-0.3-0.4-0.8-0.6-1.4-0.6
		c-1.3,0-1.9,1-1.9,2.1h3.8C493,265.1,492.9,264.6,492.6,264.2z"/>
	<path class="st12" d="M498.7,260.6c-0.6,0-1,0.4-1,1v1.2h2v1h-2v6h-1.2v-6h-1.3v-1h1.3v-1.3c0-1.1,0.8-1.9,2-1.9
		c0.5,0,0.9,0.1,1.3,0.1v1C499.5,260.7,499.2,260.6,498.7,260.6z M502.8,269.9c-1,0-1.5-0.6-1.5-1.7v-8.4h1.2v8.3
		c0,0.5,0.2,0.7,0.6,0.7c0.4,0,0.5,0,0.5,0v1C503.6,269.8,503.3,269.9,502.8,269.9z"/>
	<path class="st12" d="M511,266.6h-5c0,0.6,0.2,1.3,0.7,1.8c0.3,0.3,0.8,0.5,1.3,0.5c0.6,0,1-0.2,1.3-0.5c0.2-0.2,0.3-0.4,0.4-0.8
		h1.2c-0.1,0.7-0.5,1.3-1.1,1.7c-0.5,0.3-1.1,0.5-1.8,0.5c-1,0-1.8-0.4-2.3-1.1c-0.6-0.7-0.9-1.6-0.9-2.6c0-0.8,0.2-1.6,0.5-2.3
		c0.5-0.8,1.4-1.5,2.7-1.5c0.9,0,1.6,0.3,2.1,0.9c0.6,0.6,0.9,1.5,0.9,2.5L511,266.6z M509.3,264.2c-0.3-0.4-0.8-0.6-1.4-0.6
		c-1.3,0-1.9,1-1.9,2.1h3.8C509.8,265.1,509.6,264.6,509.3,264.2z"/>
	<path class="st12" d="M517.6,269.2c-0.5,0.5-1.2,0.8-2,0.8c-1.3,0-2.1-0.6-2.6-1.3c-0.4-0.6-0.6-1.3-0.6-2.4s0.2-1.8,0.6-2.4
		c0.5-0.7,1.3-1.3,2.6-1.3c0.8,0,1.5,0.3,2,0.8c0.5,0.5,0.8,1,0.8,1.8h-1.2c-0.1-0.5-0.2-0.8-0.5-1.1c-0.3-0.3-0.7-0.4-1.1-0.4
		c-0.5,0-0.9,0.2-1.2,0.5c-0.6,0.5-0.7,1.3-0.7,2.2c0,0.9,0.2,1.7,0.7,2.2c0.3,0.3,0.7,0.5,1.2,0.5c0.5,0,0.9-0.2,1.2-0.5
		c0.2-0.3,0.4-0.6,0.5-1h1.2C518.4,268.2,518.1,268.7,517.6,269.2z"/>
	<path class="st12" d="M522.5,269.9c-1.5,0-1.9-1-1.9-1.9v-4.2h-1.4v-1h1.4v-1.8l1.2-0.3v2.1h2.1v1h-2.1v4.1c0,0.7,0.3,1,0.9,1
		c0.5,0,1.2-0.1,1.2-0.1v1C523.6,269.8,523.2,269.9,522.5,269.9z"/>
	<path class="st12" d="M525.6,261.1v-1.4h1.4v1.4H525.6z M525.6,269.8v-7h1.2v7H525.6z"/>
	<path class="st12" d="M534.2,269.1c-0.5,0.5-1.2,0.8-2.1,0.8s-1.6-0.3-2.1-0.8c-0.8-0.8-1-1.8-1-2.9c0-1.1,0.2-2.1,1-2.9
		c0.5-0.5,1.2-0.8,2.1-0.8s1.6,0.3,2.1,0.8c0.8,0.8,1,1.8,1,2.9C535.2,267.4,534.9,268.4,534.2,269.1z M533.3,264.1
		c-0.3-0.3-0.7-0.5-1.3-0.5c-0.6,0-1,0.2-1.3,0.5c-0.5,0.5-0.7,1.4-0.7,2.2s0.2,1.7,0.7,2.2c0.3,0.3,0.7,0.5,1.3,0.5
		c0.6,0,1-0.2,1.3-0.5c0.5-0.5,0.7-1.4,0.7-2.2S533.8,264.6,533.3,264.1z"/>
	<path class="st12" d="M541.7,269.8v-4.5c0-1.1-0.4-1.7-1.5-1.7c-0.7,0-1.2,0.4-1.5,1.1c-0.2,0.5-0.2,1.3-0.2,1.8v3.3h-1.2v-7h1
		l0.1,1.1c0.4-0.8,1.3-1.2,2.1-1.2c1.6,0,2.4,1,2.4,2.6v4.6H541.7z"/>
</g>
<g>
	<path class="st12" d="M434.6,305.4v-9.9h6.6v1.1h-5.4v3h4.7v1.2h-4.7v3.4h5.4v1.1H434.6z"/>
	<path class="st12" d="M447.1,305.4l-1.8-2.8l-1.8,2.8h-1.3l2.4-3.6l-2.4-3.4h1.4l1.8,2.7l1.8-2.7h1.4l-2.4,3.4l2.4,3.6H447.1z"/>
	<path class="st12" d="M455.2,304.8c-0.5,0.4-1.1,0.7-1.9,0.7c-0.8,0-1.7-0.4-2-1v3.8h-1.2v-10h1l0.1,0.9c0.4-0.7,1.3-1.1,2.1-1.1
		c0.9,0,1.5,0.3,2,0.8c0.7,0.7,1,1.8,1,2.9C456.3,303.1,456,304.2,455.2,304.8z M453.1,299.2c-0.5,0-0.9,0.2-1.1,0.5
		c-0.6,0.5-0.8,1.4-0.8,2.2s0.2,1.7,0.8,2.2c0.3,0.2,0.6,0.5,1.1,0.5c1.6,0,2-1.4,2-2.7S454.7,299.2,453.1,299.2z"/>
	<path class="st12" d="M464,302.2h-5c0,0.6,0.2,1.3,0.7,1.8c0.3,0.3,0.8,0.5,1.3,0.5c0.6,0,1-0.2,1.3-0.5c0.2-0.2,0.3-0.4,0.4-0.8
		h1.2c-0.1,0.7-0.5,1.3-1.1,1.7c-0.5,0.3-1.1,0.5-1.8,0.5c-1,0-1.8-0.4-2.3-1.1c-0.6-0.7-0.9-1.6-0.9-2.6c0-0.8,0.2-1.6,0.5-2.3
		c0.5-0.8,1.4-1.5,2.7-1.5c0.9,0,1.6,0.3,2.1,0.9c0.6,0.6,0.9,1.5,0.9,2.5L464,302.2z M462.4,299.8c-0.3-0.4-0.8-0.6-1.4-0.6
		c-1.3,0-1.9,1-1.9,2.1h3.8C462.8,300.7,462.7,300.2,462.4,299.8z"/>
	<path class="st12" d="M469.2,299.4c-0.6,0-1,0.2-1.3,0.6c-0.6,0.5-0.6,1.5-0.6,2.3v3.1H466v-7h1l0.1,1.2c0.4-0.9,1.2-1.3,2.1-1.3
		c0.2,0,0.4,0,0.6,0v1.2C469.6,299.4,469.4,299.4,469.2,299.4z"/>
	<path class="st12" d="M471.3,296.7v-1.4h1.4v1.4H471.3z M471.4,305.4v-7h1.2v7H471.4z"/>
	<path class="st12" d="M480.8,302.2h-5c0,0.6,0.2,1.3,0.7,1.8c0.3,0.3,0.8,0.5,1.3,0.5c0.6,0,1-0.2,1.3-0.5c0.2-0.2,0.3-0.4,0.4-0.8
		h1.2c-0.1,0.7-0.5,1.3-1.1,1.7c-0.5,0.3-1.1,0.5-1.8,0.5c-1,0-1.8-0.4-2.3-1.1c-0.6-0.7-0.9-1.6-0.9-2.6c0-0.8,0.2-1.6,0.5-2.3
		c0.5-0.8,1.4-1.5,2.7-1.5c0.9,0,1.6,0.3,2.1,0.9c0.6,0.6,0.9,1.5,0.9,2.5L480.8,302.2z M479.2,299.8c-0.3-0.4-0.8-0.6-1.4-0.6
		c-1.3,0-1.9,1-1.9,2.1h3.8C479.6,300.7,479.5,300.2,479.2,299.8z"/>
	<path class="st12" d="M487.3,305.4v-4.5c0-1.1-0.4-1.7-1.5-1.7c-0.7,0-1.2,0.4-1.5,1.1c-0.2,0.5-0.2,1.3-0.2,1.8v3.3h-1.2v-7h1
		l0.1,1.1c0.4-0.8,1.3-1.2,2.1-1.2c1.6,0,2.4,1,2.4,2.6v4.6H487.3z"/>
	<path class="st12" d="M495.6,304.8c-0.5,0.5-1.2,0.8-2,0.8c-1.3,0-2.1-0.6-2.6-1.3c-0.4-0.6-0.6-1.3-0.6-2.4s0.2-1.8,0.6-2.4
		c0.5-0.7,1.3-1.3,2.6-1.3c0.8,0,1.5,0.3,2,0.8c0.5,0.5,0.8,1,0.8,1.8h-1.2c-0.1-0.5-0.2-0.8-0.5-1.1c-0.3-0.3-0.7-0.4-1.1-0.4
		c-0.5,0-0.9,0.2-1.2,0.5c-0.6,0.5-0.7,1.3-0.7,2.2c0,0.9,0.2,1.7,0.7,2.2c0.3,0.3,0.7,0.5,1.2,0.5c0.5,0,0.9-0.2,1.2-0.5
		c0.2-0.3,0.4-0.6,0.5-1h1.2C496.3,303.7,496.1,304.3,495.6,304.8z"/>
	<path class="st12" d="M504,302.2h-5c0,0.6,0.3,1.3,0.7,1.8c0.3,0.3,0.8,0.5,1.3,0.5c0.6,0,1-0.2,1.3-0.5c0.2-0.2,0.3-0.4,0.4-0.8
		h1.2c-0.1,0.7-0.5,1.3-1.1,1.7c-0.5,0.3-1.1,0.5-1.8,0.5c-1,0-1.8-0.4-2.3-1.1c-0.6-0.7-0.9-1.6-0.9-2.6c0-0.8,0.2-1.6,0.5-2.3
		c0.5-0.8,1.4-1.5,2.7-1.5c0.9,0,1.6,0.3,2.1,0.9c0.6,0.6,0.9,1.5,0.9,2.5L504,302.2z M502.4,299.8c-0.3-0.4-0.8-0.6-1.4-0.6
		c-1.3,0-1.9,1-1.9,2.1h3.8C502.8,300.7,502.6,300.2,502.4,299.8z"/>
	<path class="st12" d="M513.9,304.7c-0.5,0.5-1.2,0.8-2.1,0.8s-1.6-0.3-2.1-0.8c-0.8-0.8-1-1.8-1-2.9c0-1.1,0.2-2.1,1-2.9
		c0.5-0.5,1.2-0.8,2.1-0.8s1.6,0.3,2.1,0.8c0.8,0.8,1,1.8,1,2.9C514.9,303,514.7,304,513.9,304.7z M513,299.7
		c-0.3-0.3-0.7-0.5-1.3-0.5c-0.6,0-1,0.2-1.3,0.5c-0.5,0.5-0.7,1.4-0.7,2.2s0.2,1.7,0.7,2.2c0.3,0.3,0.7,0.5,1.3,0.5
		c0.6,0,1-0.2,1.3-0.5c0.5-0.5,0.7-1.4,0.7-2.2S513.5,300.2,513,299.7z"/>
	<path class="st12" d="M519.4,296.2c-0.6,0-1,0.4-1,1v1.2h2v1h-2v6h-1.2v-6H516v-1h1.3v-1.3c0-1.1,0.8-1.9,2-1.9
		c0.5,0,0.9,0.1,1.3,0.1v1C520.2,296.3,519.9,296.2,519.4,296.2z"/>
	<path class="st12" d="M530.3,305.5c-0.6,0-1-0.5-1-1.1h0c-0.4,0.7-1.3,1.2-2.3,1.2c-1.6,0-2.4-1.1-2.4-2.2c0-0.9,0.6-2.1,2.5-2.2
		l2.1-0.1v-0.5c0-0.3,0-0.8-0.4-1.1c-0.2-0.2-0.6-0.4-1.2-0.4c-0.6,0-1,0.2-1.3,0.4c-0.2,0.2-0.3,0.5-0.3,0.8h-1.2
		c0-0.6,0.3-1.1,0.6-1.5c0.5-0.5,1.3-0.8,2.2-0.8c1.4,0,2.1,0.6,2.5,1.3c0.1,0.3,0.2,0.7,0.2,1.1v3.4c0,0.4,0.2,0.5,0.4,0.5
		c0.1,0,0.3,0,0.3,0v0.9C530.8,305.4,530.6,305.5,530.3,305.5z M529.2,302l-1.9,0.1c-0.7,0-1.5,0.4-1.5,1.3c0,0.6,0.4,1.2,1.4,1.2
		c0.5,0,1.1-0.2,1.4-0.6c0.4-0.4,0.6-1,0.6-1.6V302z"/>
	<path class="st12" d="M537.6,305.4c-1,0-1.5-0.6-1.5-1.7v-8.4h1.2v8.3c0,0.5,0.2,0.7,0.6,0.7c0.4,0,0.5,0,0.5,0v1
		C538.4,305.4,538.1,305.4,537.6,305.4z"/>
	<path class="st12" d="M540.1,296.7v-1.4h1.4v1.4H540.1z M540.2,305.4v-7h1.2v7H540.2z"/>
	<path class="st12" d="M546.5,296.2c-0.6,0-1,0.4-1,1v1.2h2v1h-2v6h-1.2v-6h-1.3v-1h1.3v-1.3c0-1.1,0.8-1.9,2-1.9
		c0.5,0,0.9,0.1,1.3,0.1v1C547.3,296.3,547,296.2,546.5,296.2z"/>
	<path class="st12" d="M554.7,302.2h-5c0,0.6,0.2,1.3,0.7,1.8c0.3,0.3,0.8,0.5,1.3,0.5c0.6,0,1-0.2,1.3-0.5c0.2-0.2,0.3-0.4,0.4-0.8
		h1.2c-0.1,0.7-0.5,1.3-1.1,1.7c-0.5,0.3-1.1,0.5-1.8,0.5c-1,0-1.8-0.4-2.3-1.1c-0.6-0.7-0.9-1.6-0.9-2.6c0-0.8,0.2-1.6,0.5-2.3
		c0.5-0.8,1.4-1.5,2.7-1.5c0.9,0,1.6,0.3,2.1,0.9c0.6,0.6,0.9,1.5,0.9,2.5L554.7,302.2z M553,299.8c-0.3-0.4-0.8-0.6-1.4-0.6
		c-1.3,0-1.9,1-1.9,2.1h3.8C553.5,300.7,553.3,300.2,553,299.8z"/>
	<path class="st12" d="M558.8,305.5c-1.5,0-1.9-1-1.9-1.9v-4.2h-1.4v-1h1.4v-1.8l1.2-0.3v2.1h2.1v1h-2.1v4.1c0,0.7,0.3,1,0.9,1
		c0.5,0,1.2-0.1,1.2-0.1v1C559.9,305.3,559.5,305.5,558.8,305.5z"/>
	<path class="st12" d="M561.9,296.7v-1.4h1.4v1.4H561.9z M562,305.4v-7h1.2v7H562z"/>
	<path class="st12" d="M574.3,305.4v-4.5c0-1-0.3-1.7-1.4-1.7c-0.4,0-0.8,0.2-1.1,0.5c-0.5,0.5-0.6,1.2-0.6,1.9v3.7H570v-4.5
		c0-1-0.3-1.7-1.4-1.7c-0.5,0-0.9,0.3-1.2,0.6c-0.3,0.4-0.5,1.2-0.5,1.8v3.7h-1.2v-7h1l0.1,1c0.4-0.8,1.2-1.2,2-1.2
		c1,0,1.8,0.5,2.1,1.3c0.4-0.9,1.3-1.3,2.2-1.3c1.6,0,2.3,1,2.3,2.6v4.6H574.3z"/>
	<path class="st12" d="M583.6,302.2h-5c0,0.6,0.2,1.3,0.7,1.8c0.3,0.3,0.8,0.5,1.3,0.5c0.6,0,1-0.2,1.3-0.5c0.2-0.2,0.3-0.4,0.4-0.8
		h1.2c-0.1,0.7-0.5,1.3-1.1,1.7c-0.5,0.3-1.1,0.5-1.8,0.5c-1,0-1.8-0.4-2.3-1.1c-0.6-0.7-0.9-1.6-0.9-2.6c0-0.8,0.2-1.6,0.5-2.3
		c0.5-0.8,1.4-1.5,2.7-1.5c0.9,0,1.6,0.3,2.1,0.9c0.6,0.6,0.9,1.5,0.9,2.5L583.6,302.2z M582,299.8c-0.3-0.4-0.8-0.6-1.4-0.6
		c-1.3,0-1.9,1-1.9,2.1h3.8C582.4,300.7,582.3,300.2,582,299.8z"/>
</g>
<g>
	<path class="st0" d="M466.6,358.4l-0.6-1.9H462l-0.6,1.9h-1.8l3.5-9.9h2l3.5,9.9H466.6z M464,350.7l-1.4,4.2h2.8L464,350.7z"/>
	<path class="st0" d="M475.6,358.4l-4.3-6.8v6.8h-1.8v-9.9h1.9l4.2,6.7v-6.7h1.8v9.9H475.6z"/>
	<path class="st0" d="M486.4,357.3c-0.7,0.7-1.6,1.1-2.8,1.1h-3.8v-9.9h3.8c1.1,0,2.1,0.4,2.8,1.1c1,1,1.2,2.5,1.2,3.9
		S487.4,356.3,486.4,357.3z M485,350.7c-0.3-0.3-0.8-0.6-1.4-0.6h-2v6.6h2c0.6,0,1.1-0.2,1.4-0.6c0.7-0.7,0.7-1.9,0.7-2.8
		S485.7,351.4,485,350.7z"/>
	<path class="st0" d="M498.2,358.4l-4.3-6.8v6.8h-1.8v-9.9h1.9l4.2,6.7v-6.7h1.8v9.9H498.2z"/>
	<path class="st0" d="M508.7,357.5c-0.8,0.8-1.8,1.1-2.8,1.1s-2.1-0.4-2.8-1.1c-1.1-1.1-1.3-2.4-1.3-4s0.2-2.9,1.3-4
		c0.8-0.8,1.8-1.1,2.8-1.1s2.1,0.4,2.8,1.1c1.1,1.1,1.3,2.4,1.3,4S509.8,356.4,508.7,357.5z M507.5,350.6c-0.4-0.4-1-0.7-1.6-0.7
		c-0.6,0-1.2,0.2-1.6,0.7c-0.7,0.7-0.7,1.9-0.7,2.8s0,2.1,0.7,2.8c0.4,0.4,1,0.7,1.6,0.7c0.6,0,1.2-0.2,1.6-0.7
		c0.7-0.7,0.7-1.9,0.7-2.8S508.1,351.4,507.5,350.6z"/>
	<path class="st0" d="M520.8,358.4l-2.7-4.7l-1.7,2v2.7h-1.8v-9.9h1.8v4.5l3.9-4.5h2.2l-3.2,3.7l3.5,6.1H520.8z"/>
	<path class="st0" d="M524,358.4v-9.9h7v1.6h-5.2v2.3h4.6v1.6h-4.6v2.7h5.2v1.6H524z"/>
	<path class="st0" d="M536.4,350.2v8.2h-1.8v-8.2h-2.9v-1.7h7.6v1.7H536.4z"/>
	<path class="st0" d="M546.6,357.4c-0.7,0.8-1.8,1.2-2.8,1.2s-2-0.3-2.8-1.1c-1.1-1.1-1.2-2.4-1.2-4s0.2-2.9,1.2-4
		c0.8-0.8,1.7-1.1,2.8-1.1s2.1,0.4,2.8,1.1c0.6,0.6,0.9,1.4,0.9,2.1h-1.8c0-0.4-0.2-0.7-0.4-1c-0.3-0.4-0.9-0.6-1.5-0.6
		c-0.6,0-1.1,0.2-1.5,0.7c-0.7,0.7-0.7,1.9-0.7,2.8s0,2.1,0.7,2.8c0.4,0.4,0.9,0.7,1.5,0.7c0.6,0,1.2-0.2,1.5-0.6
		c0.2-0.3,0.4-0.7,0.4-1.1h1.8C547.4,356,547.1,356.8,546.6,357.4z"/>
	<path class="st0" d="M554.9,358.4v-4.3h-4v4.3H549v-9.9h1.8v3.9h4v-3.9h1.8v9.9H554.9z"/>
	<path class="st0" d="M562.6,358.6c-2.5,0-3.9-1.6-3.9-4v-6.1h1.8v6c0,1.4,0.6,2.4,2.1,2.4s2.1-1,2.1-2.4v-6h1.8v6.1
		C566.4,357,565.1,358.6,562.6,358.6z"/>
	<path class="st0" d="M572.3,354.9h-2.1v3.5h-1.8v-9.9h3.9c2.3,0,3.5,1.3,3.5,3.2S574.6,354.9,572.3,354.9z M572.3,350.1h-2v3.2h2
		c1.2,0,1.7-0.6,1.7-1.6S573.4,350.1,572.3,350.1z"/>
	<path class="st0" d="M579.1,355.5h-1l-0.4-3.8v-3.1h1.8v3.1L579.1,355.5z M577.6,358.4v-1.8h1.8v1.8H577.6z"/>
</g>
<line class="st13" x1="201.2" y1="133.1" x2="261" y2="133.1"/>
<line class="st13" x1="232.7" y1="161.4" x2="289.6" y2="161.4"/>
<line class="st13" x1="232.7" y1="189.8" x2="318.6" y2="189.8"/>
<line class="st13" x1="276.1" y1="214.2" x2="349" y2="214.2"/>
<line class="st13" x1="295.7" y1="240.5" x2="381.6" y2="240.5"/>
<line class="st13" x1="347.2" y1="266.9" x2="400.7" y2="266.9"/>
<line class="st13" x1="375.5" y1="301.4" x2="424.9" y2="301.4"/>
</svg>
