<?xml version="1.0" encoding="utf-8"?>
<!-- Generator: Adobe Illustrator 20.1.0, SVG Export Plug-In . SVG Version: 6.00 Build 0)  -->
<svg version="1.1" id="Layer_1" xmlns="http://www.w3.org/2000/svg" xmlns:xlink="http://www.w3.org/1999/xlink" x="0px" y="0px"
	 viewBox="0 0 792 1224" style="enable-background:new 0 0 792 1224;" xml:space="preserve">
<style type="text/css">
	.st0{fill:#056839;}
	.st1{clip-path:url(#SVGID_2_);fill:#E1AF51;}
	.st2{clip-path:url(#SVGID_2_);fill:none;stroke:#FFFFFF;stroke-width:42.568;stroke-miterlimit:10;}
	.st3{clip-path:url(#SVGID_2_);fill:#006838;}
	.st4{clip-path:url(#SVGID_2_);fill:#8BC53F;}
	.st5{clip-path:url(#SVGID_2_);fill:#BE1E2D;}
	.st6{clip-path:url(#SVGID_2_);fill:#EC1C24;}
	.st7{clip-path:url(#SVGID_2_);fill:#00A551;}
	.st8{clip-path:url(#SVGID_2_);fill:#FFF100;}
	.st9{clip-path:url(#SVGID_2_);fill:#F1F1F2;}
	.st10{clip-path:url(#SVGID_2_);fill:none;stroke:#FFFFFF;stroke-width:28.378;stroke-miterlimit:10;}
	.st11{fill:#FFFFFF;}
	.st12{clip-path:url(#SVGID_4_);fill:#006838;}
	.st13{clip-path:url(#SVGID_6_);fill:none;stroke:#E1AF51;stroke-width:34;}
	.st14{clip-path:url(#SVGID_8_);fill:#FFFFFF;}
	.st15{clip-path:url(#SVGID_8_);fill:none;stroke:#FFFFFF;stroke-width:0.41;stroke-linejoin:round;stroke-miterlimit:10;}
	.st16{clip-path:url(#SVGID_8_);fill:none;stroke:#FFFFFF;stroke-width:0.733;stroke-linejoin:round;stroke-miterlimit:10;}
	.st17{clip-path:url(#SVGID_8_);fill:none;stroke:#FFFFFF;stroke-width:0.733;stroke-miterlimit:10;}
	.st18{clip-path:url(#SVGID_8_);fill:none;stroke:#FFFFFF;stroke-width:1.759;stroke-miterlimit:10;}
	.st19{clip-path:url(#SVGID_8_);fill:none;stroke:#FFFFFF;stroke-width:0.586;stroke-linejoin:round;stroke-miterlimit:10;}
	.st20{clip-path:url(#SVGID_10_);fill:#FFFFFF;}
	.st21{clip-path:url(#SVGID_12_);fill:#FFFFFF;}
	.st22{clip-path:url(#SVGID_14_);fill:#FFFFFF;}
	.st23{fill:none;stroke:#FFFFFF;stroke-width:0.814;}
</style>
<rect class="st0" width="792" height="1224"/>
<g>
	<defs>
		<rect id="SVGID_1_" width="792" height="1224"/>
	</defs>
	<clipPath id="SVGID_2_">
		<use xlink:href="#SVGID_1_"  style="overflow:visible;"/>
	</clipPath>
	<path class="st1" d="M-493.6,308.7c-128.1-127.3-45-240.8-6.7-280.7c32.6-34,429.9-365.8,627-487.3c53.4-32.9,121.3-31.3,173.3,3.9
		c455.1,308.2,2604.7,2000,2497.3,2419.9c-117.4,459.3-462.7,580.3-555.4,529.3C2122.2,2534.6-122.3,677.6-493.6,308.7"/>
	<path class="st2" d="M-493.6,308.7c-128.1-127.3-45-240.8-6.7-280.7c32.6-34,429.9-365.8,627-487.3c53.4-32.9,121.3-31.3,173.3,3.9
		c455.1,308.2,2604.7,2000,2497.3,2419.9c-117.4,459.3-462.7,580.3-555.4,529.3C2122.2,2534.6-122.3,677.6-493.6,308.7z"/>
	<path class="st3" d="M780.5-315.8c0,0-319.8,45.7-329.9,542.3c-73.2-64.4-84-127.8-84-127.8s-1.2-572.8,372.2-558.1
		C778-372.7,780.5-315.8,780.5-315.8"/>
	<path class="st4" d="M780.5-315.8c0,0,306.7,868.8,299.7,925.3c-7,56.5-485.6-170.5-485.6-170.5L450.4,225.7
		C450.4,225.7,445-329,780.5-315.8"/>
	<path class="st5" d="M-290.9-272.7c0,0,269.5-112.5,545.2,220.2c275.7,332.7,889.2,1582.8,2274.7,1859.7
		c266.6,81.5,376.7,412.4,66.4,599C1853.1,2623.2-920,559.4-290.9-272.7"/>
	<path class="st6" d="M-644.1,404.5c0,0,1176.2,301.8,1463.5,1061c-36.6,88.5-81.9,126.9-100.8,126.2
		C640.3,1536.6-572.4,506.8-644.1,404.5"/>
	<path class="st6" d="M915.2,1317.8c0,0,1134.6-206.3,852.6,1188.4C1274.3,2056.1,656,1648.4,667.5,1596.8
		C679,1545.2,915.2,1317.8,915.2,1317.8"/>
	<path class="st3" d="M1004.3,584.1c0,0,892.1,425.6,938,430.9c30.4,40.2,22.4,61.2-27.7,73.5c-50.2,12.2-456.7,148.9-1023.7-327.8
		C837,595.3,1004.3,584.1,1004.3,584.1"/>
	<path class="st7" d="M2201.1,1514.6c-26.7-32.6-36.7-87-74.6-98.7c-1.6-3.6-3.6-7.2-6.4-11c-10.1-13.7-23.8-13.8-36.2-22.6
		c-16.2-11.4-8.2-7.5-24.7-28.3c-9.4-11.9-22.7-19.1-36.7-24.4c-31.4-12.1-46.6-22.1-70.7-45.3c-35.7-34.3-69.1-37.9-117.6-32.4
		c-14.2,1.6-22.4,9.6-25.4,19.6c-2.6,0.4-5.2,0.7-8,1.3c-44.6,9.4-28.6,78.5,16.2,69.1c-1.1,0.2,83.7,62.9,86.6,65
		c27.8,19.8,40,27,72.5,33c2.7,0.5,5.2,0.3,7.7-0.1c-3.4,3.1-7.1,6.7-11.7,11.4c-6.7,6.9-14,16.1-16.8,25.6
		c-3.6,11.9-2.3,21.7,1.4,30.6c-8.8,8.4-19.5,21.3-21.9,28.7c-6.8,20.8-1.1,45.8,12,62.8c13.7,17.8,34.8,26.4,56.2,30.8
		c1,0.2,2,0.2,3.1,0.3c2.1,15.8,13.5,30.6,32.9,31.6c17.9,1,35.8,1.9,53.6,2.9c24.3,1.3,39-21.2,35.6-42
		c15.1-19,33.3-47.9,45.7-48.3C2205,1573.3,2221.1,1539,2201.1,1514.6"/>
	<path class="st8" d="M2033.6,1521.6c7.6-41.4-15.4-90.6-64.8-86.3c-39.3,3.5-61-1.8-87.2-32.7c-19.7-23.3-38.7-46.7-61.3-67.5
		c-50.8-46.9-99.9-69.4-165-87.8c-0.3-1.1-0.8-2.3-1.5-3.8c-5.6-11.6-12.2-22.3-19.5-32.9c-16.3-23.7-35.7-44.5-58.6-61.9
		c-37.6-28.6-64.4-63.8-102.4-87.3c-36.7-39.6-85.3-29.2-132.7-39.3c-59.9-12.7-120-58-175.1-85.3
		c-113.8-56.3-124.8-171.5-174.8-275.8c-0.9-1.9-1.9-3.6-2.9-5.4c-27.3-63.1-57.4-127.4-107.7-175.6c-23.4-22.4-48.7-40.6-78-54.3
		c-31.7-14.8-67.5-18.4-98.8-33.3c-34.9-16.5-75.2-13.3-98,21.6c-13.8,21.1-14.3,54.6-0.3,77.7c-55,50.4-67.6,145.7-33.9,218
		c-5,13.3-8.4,27.2-8.8,41c-1.5,46.2,26.2,98.9,44.2,140c24.9,57,53.7,86.2,117.2,94.6c56.5,7.4,98.7,20.2,147,53.3
		c22.7,15.6,53.5,34.4,71.9,55.6c0.3,2.5,0.6,5.2,0.9,8.3c-0.5,10.2,1.3,19.9,5.2,29.2c12.9,48.1,49.7,88.5,96.2,106.3
		c38.4,14.7,67.8,9.1,100.3,0.7c8,23.5,28.2,42,61.8,42.1c36.4,0.1,73.9,4.3,111.6,10.7c49.5,10.6,97.5,27.7,146,47.5
		c75.1,30.7,79.3,94.3,183,136.5c66.4,27,100.3,110.5,159.6,151.9c62.6,43.6,142.4,44.7,214.3,27.5
		C2089.9,1638.4,2089.7,1550.8,2033.6,1521.6"/>
	<path class="st7" d="M2057.2,2484.3c-2.2-1.8-4.6-3.4-7.1-4.9c-4.7-20.3-22.7-38.4-48-38.4c-17.7,0-35.8,8.3-45.5,21.4
		c-4.9,0.3-9.6,1.2-14.2,2.8c1.2-11.2,4-25.7,6.1-41.2c28.6,6.4,63-6.2,63.9-39.9c0.8-31.2,8-57.8,21.9-86.3
		c22.6-46.4-66-84-91.7-38.4c0,0,0,0,0,0c-2.1-0.9-4.2-1.9-6.5-2.8c-5-2.4-10.4-4.2-16-5.2c-0.7-0.2-1.2-0.4-1.9-0.6
		c-21-40.1-92.4-18.6-94.3,21.8c-0.4,8.7-0.2,16.8,3.4,25c0.7,1.7,1.4,3.1,2,4.4c-6,10.1-12.6,26.1-13.2,28.6
		c-4,16.2-1,32.3,9.6,46.2c1.1,1.5,2.5,2.9,4,4.3c-1.6,3.7-2.9,7.6-3.4,12c-36,12-52.9,61.9-11.6,80.4c18,8.1,33.8,17.2,49.4,28.5
		c15,10.8,32.1,10.3,46.6,3.8c-0.1,11.1,4.4,22.2,13.2,31.5c20.8,22,48.8,42.1,82.9,41.7c24.1-0.3,46.3-9.6,59.3-27.9
		C2080.3,2531.2,2077.5,2500.6,2057.2,2484.3"/>
	<path class="st7" d="M2284.5,2385.6c-13.7-4.3-26.4,0.1-35.4,9.2c-7.6-3.8-15.9-6.3-24.4-6.9c-17.7-1.1-35.7,4.9-48,18
		c-6.5,6.9-9.7,16.1-10,25.3c-15.7,5.1-27.8,19.4-22.1,40c7.5,27.3,28.2,42.5,53.3,52.9c29.8,12.4,55.6,1.5,75.7-21.9
		c11.8-13.8,20.1-31.1,20.4-48.2c5.6-7,10-15.2,13.6-23.9C2314.8,2412.4,2301.8,2391,2284.5,2385.6"/>
	<polygon class="st9" points="917.9,645.8 1009.1,613.9 1072.9,796.2 984.9,807 	"/>
	<polygon class="st9" points="378,962.7 436.7,869.6 579.9,935.1 529.8,1009.8 	"/>
	<polygon class="st9" points="1088.8,1114 1243.5,1032.5 1277.5,1130.9 1192.3,1191.4 	"/>
	<polygon class="st9" points="583.8,1121.4 674.1,1066.9 837.4,1173.9 709.5,1266.5 	"/>
	<polygon class="st9" points="1176.2,637 1378.1,739.6 1447.6,716.3 1263.6,581.2 	"/>
	<polygon class="st9" points="1658.6,1188.4 1778.9,1321 1857.7,1302.8 1781,1145.9 	"/>
	<polygon class="st9" points="1777.2,1183.6 1909.6,1127.3 1944.6,1258.8 1791.8,1233.9 	"/>
	<polygon class="st9" points="2221.6,1617.6 2378.8,1593 2376.4,1713.6 2290.8,1724.5 	"/>
	<polygon class="st9" points="1935.5,2273.8 1988,2323.2 2063.2,2276.4 2045.2,2192.9 	"/>
	<polygon class="st9" points="2000.1,2376.3 2064.8,2475.9 2112.7,2402.1 2035.6,2316.2 	"/>
	<polygon class="st9" points="2065.1,2604.6 2206.4,2622 2145,2558 2078.4,2567.3 	"/>
	<polygon class="st9" points="2170.7,2491.3 2265.2,2556.6 2190.6,2589.1 	"/>
	<polygon class="st9" points="1891.1,2440.1 2002.8,2427.9 2014.1,2501.7 1933,2517.5 	"/>
	<polygon class="st9" points="2141.7,2386 2160.3,2455.4 2232.7,2479.5 2204.9,2405.1 	"/>
	<polygon class="st9" points="1832,1384.5 1961.1,1487.9 2033.9,1441.6 1844.7,1323.6 	"/>
	<path class="st3" d="M698,1037.7c-3.8-29.6,19.9-55.7,49.7-54.6c46.6,1.6,110.8,6.7,146.7,21.5c150.2,62.3,18.3,540.2,461.6,761.5
		c7.1,3.5,13.3,8.8,18,15.2c45.8,62.9,4.9,84.8-13.6,91.1c-4.6,1.6-9.2,2.3-14.1,2.4C1286.2,1876.3,802.9,1861.9,698,1037.7"/>
	<path class="st7" d="M737.8,991.8c-5.8-7.1-14.1-13.3-24.4-17.2c1.7-11.1-2.5-23-12.2-33c-5.4-5.6-11.3-9.6-17.3-12.9
		c2.7-28.4,3.2-58.8-30.5-75.3c-9.8-4.8-19.4-7.1-29.5-7.8c-3.9-6.3-9.5-11.8-17.2-15c-9.7-4-19-7-28.1-8.9
		c-11.2-8.9-24-13.4-40.2-13.8c-16.2-0.3-35.5,5.6-43.3,17.8c-2.8,4.4-4.8,8.6-6.4,12.7c-10.3,6.6-17.3,15.7-17.2,27.5
		c0.3,24,14.5,38.4,35.1,47.4c-10.9,5.8-18.7,15.5-18.8,29.5c-0.2,22-4.7,39.7-14.4,60.2c-10.9,22.9,13.3,47.2,41.1,51.3
		c-9.6,23.8,17,43.2,44.5,46.9c22.4,14.6,37.4,33.1,69,38.8c38,6.9,61.5-11.5,96.6-16.8c28-4.2,39.3-24.1,35.6-43
		c4.6-3.9,8.6-8.5,12-14.1C792.3,1032.3,770.6,1006.7,737.8,991.8"/>
	<path class="st7" d="M1268.9,524.8c-19-68.3-90.4-86.8-141.3-125.2c-30.4-22.9-17.6-37.8-28.3-66c-10.6-28-47.3-49.8-69.8-67.2
		c-25.4-19.6-60.1,9.7-53.6,38c3.6,15.9,0.3,33,8.9,47.9c4.5,7.8,20.1,15.1,21,23.4c0.5,4.3-15.1,39.4-30.5,69.3
		c-2.4,1.3-9.2,6.6-16.1,11.2c-10.5-5.3-21-10.6-31.5-15.9c-25.6-15.6-61.8,7.3-53.6,38c3.8,14.3,11.1,27.2,20.8,37.5
		c0.6,6.6,3.2,12.6,8.1,17.3c2.6,10,9,18.5,19.1,22.1c0,2.6,0.1,5.2,0.6,7.9c1.9,10.3,5.3,18.6,9.7,25.4c0.5,2.2,0.9,4.4,1.6,6.8
		c5.7,17.4,23,28,39.4,26.7c4.2,5.7,10,10.3,17.5,12.9c10.9,3.8,22.4,5.9,33.9,7c6.3,0.6,12.4-1.1,18-4.2
		c54.9,13.9,112.3,29.4,163.8-1.8C1248.6,610.1,1282.8,575,1268.9,524.8"/>
	<path class="st7" d="M1756.1,1297.8c-5.5-4.3-11.1-9.3-16.9-14.4c-5.3-19.9-21.2-39.3-30.7-55.3c-23.2-39.1-86-6-62.6,33.4
		c2.8,4.7,5.8,9.5,8.9,14.3c-2,3.2-3.8,6.5-4.9,10.3c-3.8,12.1,0.1,27.7,9.5,37c-10,7.3-16.7,19.3-14.2,34.9
		c1.8,11.1,7.6,21.1,16.1,27.8c9.3,13.6,26.8,18.7,45.3,11.6c12-4.6,20.7-13.4,28.7-23.2c2.7-3.3,9.2-11.9,9.9-12
		C1778.3,1357.4,1777.7,1314.8,1756.1,1297.8"/>
	<path class="st7" d="M1402.6,1160.2c-9.5-3-20.3-2.2-29.8,1.6c-12.3-0.8-23.9,5.1-32.4,15.9c-5.4,6.8-7.7,14.7-7.7,22.5
		c-2.4,1.3-4.6,2.9-6.6,5c-12.9,13-16.3,36.4-2,50.1c21.7,20.8,53.6,15.3,67.9-10.3c17.1-5.3,31.4-20.1,36.4-37.7
		C1434.1,1187.4,1422.3,1166.3,1402.6,1160.2"/>
	<path class="st7" d="M1647.9,1138.3c-21.6-39.4-88.8-61.2-126.3-69.2c-33-7-61.3,33.2-38.8,56.7c-2.1,13.5-1.2,26,8.7,40.7
		c12.8,19.1,32.7,25.1,51.5,36.4c17.8,10.7,35.3,4.2,45.5-8.3c6.1,9.2,16,15.7,27.4,15c15.5-1,27.4-4.4,39-15.3
		C1674.7,1175.6,1665.6,1149.7,1647.9,1138.3"/>
	<path class="st7" d="M2054.1,2088.9c-2.7-14.5-15.8-24.7-29.9-26.8c-1.7-2.8-3.5-5.7-5.6-8.5c-17.6-24-54.5-8.2-60.6,16.8
		c-1.8,1.7-3.5,3.5-5.2,5.3c-7.5,8-13.9,16.3-16.9,27.1c-8.8,31.1,13.8,51.7,38.3,65.1c11.2,6.1,23.2,14.8,35.4,18.5
		c17.2,5.1,37.1-1,46.9-16.4C2071.3,2146.9,2058.7,2113.5,2054.1,2088.9"/>
	<path class="st7" d="M2158.6,2552.5c-18,0.1-33.6,12.4-36.3,30.2c-3.2,1.9-6.2,3.5-7.7,4.1c-0.3,0-6.7,1.8-6.6,1.8
		c-1.3,0.3-11.2,1.3-5.1,0.9c-18.5,1-36.9,13.6-36.8,34.1c0.1,17.7,14.2,37.9,34.1,36.8c11.8-0.6,23.4-2.5,34.4-5.9
		c7.4,1.6,15.2,0.6,22.4-4.4c21.1-14.5,34.7-34.4,35.7-60.7C2193.4,2570.8,2177.8,2552.4,2158.6,2552.5"/>
	<path class="st1" d="M-760.7,239c0,0,1918,1915.1,3163.5,2609.3C2102,3939.4-1667.3,1268.8-760.7,239"/>
	<path class="st10" d="M-760.7,239c0,0,1918,1915.1,3163.5,2609.3C2102,3939.4-1667.3,1268.8-760.7,239z"/>
</g>
<g>
	<path class="st11" d="M104.9,758h-9.6l-0.5-6.2c-3.7,4.6-9.1,7.3-16.3,7.3c-16.2,0-27.5-11.6-27.5-26.4c0-16.1,11.9-27.4,27.6-27.4
		c12.7,0,23.6,7.1,25.8,19.5H90.8c-2.2-6-7.4-7.7-12-7.7c-8.9,0-14.9,6.2-14.9,15.4c0,8.1,5.9,14.7,15,14.7c6,0,10.6-3,13.1-7.9
		l-14.8-0.2V729h27.7V758z"/>
	<path class="st11" d="M149.8,742.6h-26.2c0.8,3.6,3.3,6.5,8.3,6.5c2.6,0,4.6-1,5.6-2.7h12.2c-1.8,7.6-8.9,12.6-18,12.6
		c-12.1,0-20.1-8.3-20.1-19.5c0-11.4,7.8-19.5,19.5-19.5c10.8,0,18.9,7.4,18.9,18.8C150,740.2,150,741.4,149.8,742.6z M123.7,735.7
		h14.6c-0.7-4.2-3.1-6.2-6.9-6.2C127.1,729.5,124.6,731.9,123.7,735.7z"/>
	<path class="st11" d="M186.4,757.3c-4.8,1.5-7.5,1.8-11.2,1.8c-8.9,0-14.8-6.5-14.8-16.5v-10.9h-7.2v-10.6h7.2v-12.5h12.3v12.5
		h12.5v10.6h-12.5v10.6c0,3.7,2.1,5.5,5.8,5.5c1.7,0,3.8-0.4,6.5-0.9L186.4,757.3z"/>
	<path class="st11" d="M232.7,775h-13l7-16.6l-17.5-37.3h13l10.6,22.7l9.6-22.7h12.9L232.7,775z"/>
	<path class="st11" d="M296.9,721.1V758h-12.3v-2.1c-2.7,1.7-6,2.8-10.1,2.8c-10,0-18.3-8.3-18.3-19.2c0-11,8.4-19.2,18.3-19.2
		c4.1,0,7.4,1.1,10.1,2.8v-2H296.9z M284.6,745.2v-11.5c-2.4-2.6-4.9-3.4-7.6-3.4c-5,0-8.7,4.1-8.7,9.2c0,5.1,3.7,9.1,8.7,9.1
		C279.6,748.7,282.2,747.9,284.6,745.2z"/>
</g>
<g>
	<path class="st11" d="M89.9,814.9V836H77.6v-19.1c0-5.2-2.7-7.8-6.8-7.8c-2.2,0-4.6,1.2-6.7,3.6V836H51.8v-54h12.4v19.5
		c3-2.3,6.2-3.6,10.1-3.6C83.5,798,89.9,804.4,89.9,814.9z"/>
	<path class="st11" d="M135.8,817.5c0,11.2-8.3,19.6-19.9,19.6c-11.7,0-20.1-8.4-20.1-19.6c0-11.1,8.4-19.2,20.1-19.2
		C127.6,798.3,135.8,806.4,135.8,817.5z M124.2,817.6c0-4.8-3.3-8.7-8.3-8.7c-5.1,0-8.4,3.9-8.4,8.7c0,4.9,3.3,8.9,8.4,8.9
		C120.9,826.5,124.2,822.5,124.2,817.6z"/>
	<path class="st11" d="M172.2,835.3c-4.8,1.5-7.5,1.8-11.2,1.8c-8.9,0-14.8-6.5-14.8-16.5v-10.9H139v-10.6h7.2v-12.5h12.3v12.5H171
		v10.6h-12.5v10.6c0,3.7,2.1,5.5,5.8,5.5c1.7,0,3.8-0.4,6.5-0.9L172.2,835.3z"/>
	<path class="st11" d="M236.9,836h-12.3v-1.9c-2.7,1.7-6,2.8-10.1,2.8c-10,0-18.3-8.3-18.3-19.3c0-10.9,8.4-19.2,18.3-19.2
		c4.1,0,7.4,1.1,10.1,2.8V782h12.3V836z M224.6,823.4v-11.5c-2.4-2.6-4.9-3.4-7.6-3.4c-5,0-8.7,4.1-8.7,9.1c0,5.2,3.7,9.2,8.7,9.2
		C219.7,826.8,222.2,826,224.6,823.4z"/>
	<path class="st11" d="M283.4,817.5c0,11.2-8.3,19.6-19.9,19.6c-11.7,0-20.1-8.4-20.1-19.6c0-11.1,8.4-19.2,20.1-19.2
		C275.1,798.3,283.4,806.4,283.4,817.5z M271.8,817.6c0-4.8-3.3-8.7-8.3-8.7c-5.1,0-8.4,3.9-8.4,8.7c0,4.9,3.3,8.9,8.4,8.9
		C268.5,826.5,271.8,822.5,271.8,817.6z"/>
	<path class="st11" d="M328.9,799.1v36.3c0,11.6-8.1,18.2-19.7,18.2c-11.2,0-19.4-6.4-20-16h12.2c0.5,3.4,3.1,5.5,7.7,5.5
		c4.3,0,7.4-2.6,7.4-7.6v-3.3c-2.7,1.6-6,2.6-10,2.6c-10,0-18.3-8-18.3-17.9c0-11.2,8.3-19,18.3-19c4,0,7.3,1.1,10,2.7v-1.6H328.9z
		 M316.6,821.7v-10.2c-2.3-2.7-4.9-3.4-7.6-3.4c-5,0-8.7,3.6-8.7,8.9c0,4,3.7,8.1,8.7,8.1C311.6,825.1,314.3,824.3,316.6,821.7z"/>
	<path class="st11" d="M345.4,823.4c0.5,3.2,3.1,4.7,7.1,4.7c3.2,0,5.2-1,5.2-2.7c0-1.2-1.1-2.1-3.3-2.5l-7.7-1.4
		c-6.3-1-10.9-4.6-10.9-11c0-7.8,6.7-12.4,16.5-12.4c7.8,0,16.6,3,17.3,12.8h-11c-0.2-2.8-3-4.3-6.2-4.3c-3.1,0-4.6,1.2-4.6,2.7
		c0,1.2,0.9,2.4,3.9,3l6.8,1.1c6.9,1.3,11.6,4.3,11.6,10.9c0,8.5-7.4,12.7-17.3,12.7c-9.6,0-17.4-4-18.2-13.8L345.4,823.4z"/>
</g>
<g>
	<path class="st11" d="M89.9,892.9V914H77.6v-19.1c0-5.2-2.7-7.8-6.8-7.8c-2.2,0-4.6,1.2-6.7,3.6V914H51.8v-54h12.4v19.5
		c3-2.3,6.2-3.6,10.1-3.6C83.5,875.9,89.9,882.4,89.9,892.9z"/>
	<path class="st11" d="M134.1,898.5h-26.2c0.8,3.6,3.3,6.5,8.3,6.5c2.6,0,4.6-1,5.6-2.7H134c-1.8,7.6-8.9,12.6-18,12.6
		c-12.1,0-20.1-8.3-20.1-19.5c0-11.4,7.8-19.5,19.5-19.5c10.8,0,18.9,7.4,18.9,18.8C134.3,896.2,134.2,897.4,134.1,898.5z
		 M107.9,891.7h14.6c-0.7-4.2-3.1-6.2-6.9-6.2C111.4,885.4,108.9,887.9,107.9,891.7z"/>
	<path class="st11" d="M165.6,888.2c-6,0.2-9.8,1.8-12.7,4.6V914h-12.4v-36.9h12.4v4c3.3-2.8,7.2-4.6,12.7-4.6V888.2z"/>
	<path class="st11" d="M207.1,898.5h-26.2c0.8,3.6,3.3,6.5,8.3,6.5c2.6,0,4.6-1,5.6-2.7H207c-1.8,7.6-8.9,12.6-18,12.6
		c-12.1,0-20.1-8.3-20.1-19.5c0-11.4,7.8-19.5,19.5-19.5c10.8,0,18.9,7.4,18.9,18.8C207.4,896.2,207.3,897.4,207.1,898.5z
		 M181,891.7h14.6c-0.7-4.2-3.1-6.2-6.9-6.2C184.4,885.4,181.9,887.9,181,891.7z"/>
	<path class="st11" d="M214.5,908.4c0-3.6,3-6.4,6.6-6.4c3.6,0,6.7,2.7,6.7,6.4c0,3.6-3,6.4-6.7,6.4
		C217.5,914.8,214.5,912.1,214.5,908.4z M215.7,897.1l-1.1-34.8h12.9l-1.1,34.8H215.7z"/>
</g>
<g>
	<defs>
		<rect id="SVGID_3_" width="792" height="1224"/>
	</defs>
	<clipPath id="SVGID_4_">
		<use xlink:href="#SVGID_3_"  style="overflow:visible;"/>
	</clipPath>
	<path class="st12" d="M381-43.2c-4.3,8.6-16.1,116.1-13.6,144.9C350.2,77.2,287.8-7.6,279.2-25.2C270.8-42.6,381-43.2,381-43.2"/>
</g>
<g>
	<path class="st11" d="M181.1,311.4h-33.3v-50.5H92.9v50.5H59.5V176.8h33.5v54.1h54.8v-54.1h33.3V311.4z"/>
	<path class="st11" d="M299.8,263.3c0,29.3-21.6,51.1-51.9,51.1c-30.5,0-52.3-21.8-52.3-51.1c0-28.9,21.8-50.1,52.3-50.1
		C278.3,213.2,299.8,234.4,299.8,263.3z M269.6,263.5c0-12.5-8.7-22.6-21.6-22.6c-13.3,0-21.8,10.1-21.8,22.6
		c0,12.9,8.5,23.2,21.8,23.2C260.8,286.6,269.6,276.4,269.6,263.5z"/>
	<path class="st11" d="M390.7,309.6c-12.5,4-19.6,4.8-29.1,4.8c-23.2,0-38.6-17-38.6-43v-28.5h-18.8v-27.5H323v-32.7h32.1v32.7h32.7
		v27.5h-32.7v27.5c0,9.7,5.5,14.5,15,14.5c4.6,0,9.9-1,17-2.4L390.7,309.6z"/>
</g>
<g>
	<path class="st11" d="M160.3,482.5h-32.1v-5c-7.1,4.6-15.6,7.3-26.3,7.3c-25.9,0-47.7-21.6-47.7-50.3c0-28.5,21.8-49.9,47.7-49.9
		c10.7,0,19.2,2.8,26.3,7.3v-50.1h32.1V482.5z M128.2,449.6v-29.9c-6.1-6.7-12.9-8.9-19.8-8.9c-13.1,0-22.8,10.7-22.8,23.8
		c0,13.5,9.7,24,22.8,24C115.3,458.5,122,456.5,128.2,449.6z"/>
	<path class="st11" d="M281.8,434.4c0,29.3-21.6,51.1-51.9,51.1c-30.5,0-52.3-21.8-52.3-51.1c0-28.9,21.8-50.1,52.3-50.1
		C260.2,384.3,281.8,405.4,281.8,434.4z M251.5,434.6c0-12.5-8.7-22.6-21.6-22.6c-13.3,0-21.8,10.1-21.8,22.6
		c0,12.9,8.5,23.2,21.8,23.2C242.8,457.7,251.5,447.4,251.5,434.6z"/>
	<path class="st11" d="M398.1,386.4v94.4c0,30.1-21.2,47.5-51.3,47.5c-29.3,0-50.5-16.6-52.1-41.6h31.9c1.4,8.9,8.1,14.5,20,14.5
		c11.1,0,19.4-6.7,19.4-19.8V473c-7.1,4.2-15.6,6.7-26.1,6.7c-26.1,0-47.7-20.8-47.7-46.7c0-29.3,21.6-49.5,47.7-49.5
		c10.5,0,19,2.8,26.1,7.1v-4.2H398.1z M366,445.2v-26.5c-5.9-6.9-12.9-8.9-19.8-8.9c-13.1,0-22.8,9.3-22.8,23.2
		c0,10.5,9.7,21.2,22.8,21.2C353.1,454.2,360,452,366,445.2z"/>
	<path class="st11" d="M441,449.6c1.4,8.3,8.1,12.3,18.4,12.3c8.3,0,13.7-2.6,13.7-6.9c0-3.2-2.8-5.5-8.7-6.5l-20-3.6
		c-16.4-2.6-28.3-12.1-28.3-28.7c0-20.4,17.4-32.3,43-32.3c20.4,0,43.4,7.9,44.9,33.3h-28.7c-0.6-7.3-7.7-11.1-16.2-11.1
		c-8.1,0-12.1,3.2-12.1,7.1c0,3.2,2.4,6.3,10.1,7.7l17.8,3c18,3.4,30.1,11.3,30.1,28.5c0,22.2-19.4,33.1-45.1,33.1
		c-24.9,0-45.3-10.5-47.3-36L441,449.6z"/>
	<path class="st11" d="M527,468c0-9.5,7.7-16.6,17.2-16.6s17.4,7.1,17.4,16.6s-7.9,16.6-17.4,16.6S527,477.5,527,468z M530.1,438.5
		l-2.8-90.7H561l-2.8,90.7H530.1z"/>
</g>
<g>
	<defs>
		<rect id="SVGID_5_" width="792" height="1224"/>
	</defs>
	<clipPath id="SVGID_6_">
		<use xlink:href="#SVGID_5_"  style="overflow:visible;"/>
	</clipPath>
	<path class="st13" d="M294.7,1234c-73.5-3.4-147-6.7-220.4-10.1C36.5,1175.6-1.3,1127.3-39,1079c10.5-40.1,21-80.1,31.4-120.2
		C54.8,1015.6,239.1,1183.5,294.7,1234z"/>
</g>
<g>
	<defs>
		<rect id="SVGID_7_" x="33.9" y="1117.4" width="153" height="71.9"/>
	</defs>
	<clipPath id="SVGID_8_">
		<use xlink:href="#SVGID_7_"  style="overflow:visible;"/>
	</clipPath>
	<path class="st14" d="M87.3,1146.4c-0.1,0.3-0.1,0.5-0.2,0.7c-0.1,0.2-0.1,0.3-0.2,0.5c-0.1,0.1-0.2,0.2-0.2,0.3
		c-0.1,0.1-0.2,0.1-0.3,0.1h-9.6c-0.3,0-0.6-0.1-0.8-0.3s-0.2-0.5-0.2-0.9l3.2-16.7c0.1-0.4,0.3-0.7,0.5-0.9
		c0.3-0.2,0.6-0.3,0.9-0.3h9.6c0.1,0,0.2,0,0.2,0.1c0.1,0.1,0.1,0.1,0.1,0.3c0,0.1,0,0.3,0,0.5c0,0.2,0,0.4-0.1,0.7
		c-0.1,0.3-0.1,0.5-0.2,0.7c-0.1,0.2-0.1,0.3-0.2,0.5c-0.1,0.1-0.1,0.2-0.2,0.3c-0.1,0.1-0.2,0.1-0.3,0.1h-6.8l-0.9,4.7h5.8
		c0.1,0,0.2,0,0.2,0.1c0.1,0.1,0.1,0.1,0.1,0.3c0,0.1,0,0.3,0,0.5c0,0.2,0,0.4-0.1,0.7c-0.1,0.3-0.1,0.5-0.2,0.7
		c-0.1,0.2-0.1,0.3-0.2,0.5c-0.1,0.1-0.1,0.2-0.2,0.2c-0.1,0-0.2,0.1-0.3,0.1h-5.8l-1,5.4H87c0.1,0,0.2,0,0.2,0.1
		c0.1,0.1,0.1,0.1,0.1,0.3s0,0.3,0,0.5C87.4,1145.9,87.3,1146.1,87.3,1146.4"/>
	<path class="st14" d="M103.2,1147.4c0,0.1-0.1,0.2-0.1,0.3c-0.1,0.1-0.2,0.1-0.3,0.2c-0.1,0.1-0.3,0.1-0.6,0.1c-0.2,0-0.5,0-0.9,0
		c-0.4,0-0.7,0-0.9,0c-0.2,0-0.4-0.1-0.5-0.1c-0.1,0-0.2-0.1-0.3-0.2c0-0.1-0.1-0.2,0-0.3l1.5-7.5c0.1-0.6,0.2-1.1,0.2-1.5
		c0-0.4-0.1-0.7-0.2-0.9s-0.3-0.5-0.6-0.6c-0.3-0.1-0.6-0.2-0.9-0.2c-0.5,0-1,0.2-1.5,0.5c-0.6,0.3-1.2,0.8-1.8,1.5l-1.7,8.8
		c0,0.1-0.1,0.2-0.1,0.3c-0.1,0.1-0.2,0.1-0.3,0.2c-0.2,0.1-0.3,0.1-0.6,0.1c-0.2,0-0.5,0-0.9,0c-0.4,0-0.7,0-0.9,0
		c-0.2,0-0.4-0.1-0.5-0.1c-0.1,0-0.2-0.1-0.3-0.2c0-0.1-0.1-0.2,0-0.3l2.6-13.2c0-0.1,0.1-0.2,0.1-0.3c0.1-0.1,0.2-0.1,0.3-0.2
		c0.1,0,0.3-0.1,0.5-0.1c0.2,0,0.5,0,0.8,0c0.3,0,0.6,0,0.8,0c0.2,0,0.4,0.1,0.5,0.1c0.1,0.1,0.2,0.1,0.2,0.2c0,0.1,0,0.2,0,0.3
		l-0.3,1.5c0.9-0.8,1.7-1.4,2.6-1.8c0.8-0.4,1.7-0.6,2.5-0.6c0.9,0,1.6,0.1,2.2,0.4c0.6,0.3,1,0.7,1.3,1.2c0.3,0.5,0.4,1.1,0.5,1.8
		c0,0.7,0,1.5-0.2,2.5L103.2,1147.4z"/>
	<path class="st14" d="M121.5,1135.1c-0.1,0.5-0.2,0.8-0.4,1.1c-0.2,0.2-0.3,0.3-0.5,0.3h-1.6c0.2,0.2,0.3,0.5,0.3,0.8
		c0,0.3,0,0.6,0,0.9c-0.2,0.8-0.4,1.5-0.8,2.1c-0.4,0.6-0.8,1.1-1.4,1.5c-0.6,0.4-1.2,0.7-1.9,0.9c-0.7,0.2-1.5,0.3-2.3,0.3
		c-0.4,0-0.8-0.1-1.2-0.2c-0.4-0.1-0.6-0.2-0.8-0.4c-0.1,0.1-0.3,0.3-0.4,0.5c-0.1,0.2-0.2,0.4-0.3,0.6c-0.1,0.3,0,0.5,0.2,0.7
		c0.2,0.2,0.5,0.3,1,0.3l3.2,0.1c0.7,0,1.4,0.1,1.9,0.3c0.6,0.2,1,0.4,1.3,0.8c0.3,0.3,0.6,0.7,0.7,1.2c0.1,0.5,0.1,1,0,1.6
		c-0.1,0.7-0.4,1.3-0.8,1.8c-0.4,0.6-0.9,1.1-1.6,1.5c-0.7,0.4-1.4,0.8-2.4,1c-0.9,0.2-1.9,0.4-3.1,0.4c-1.1,0-2.1-0.1-2.8-0.3
		c-0.8-0.2-1.4-0.4-1.8-0.7c-0.4-0.3-0.7-0.7-0.9-1.1c-0.1-0.4-0.2-0.9-0.1-1.4c0.1-0.3,0.2-0.6,0.3-0.9c0.1-0.3,0.3-0.6,0.5-0.9
		c0.2-0.3,0.5-0.5,0.8-0.8c0.3-0.2,0.6-0.5,1-0.7c-0.4-0.2-0.6-0.5-0.8-0.9c-0.2-0.4-0.2-0.8-0.1-1.3c0.1-0.6,0.3-1.1,0.7-1.6
		c0.4-0.5,0.8-0.9,1.3-1.3c-0.3-0.3-0.5-0.8-0.6-1.2c-0.1-0.5-0.1-1.1,0-1.8c0.1-0.8,0.4-1.5,0.8-2.1c0.4-0.6,0.9-1.1,1.4-1.5
		c0.6-0.4,1.2-0.7,1.9-1c0.7-0.2,1.5-0.3,2.3-0.3c0.4,0,0.8,0,1.2,0.1c0.4,0,0.7,0.1,1,0.2h4.2c0.2,0,0.3,0.1,0.3,0.3
		C121.6,1134.2,121.6,1134.6,121.5,1135.1 M114.9,1148.8c0.1-0.4,0-0.8-0.3-1c-0.3-0.2-0.8-0.4-1.4-0.4l-2.6-0.1
		c-0.3,0.2-0.5,0.4-0.7,0.5c-0.2,0.2-0.3,0.3-0.5,0.5c-0.1,0.2-0.2,0.3-0.3,0.5c-0.1,0.1-0.1,0.3-0.1,0.5c-0.1,0.5,0.1,0.9,0.5,1.1
		c0.4,0.3,1.1,0.4,2,0.4c0.6,0,1-0.1,1.5-0.2c0.4-0.1,0.7-0.3,1-0.5c0.3-0.2,0.5-0.4,0.6-0.6
		C114.8,1149.3,114.9,1149.1,114.9,1148.8 M116.1,1138.3c0.1-0.7,0-1.3-0.3-1.7c-0.3-0.4-0.8-0.6-1.6-0.6c-0.4,0-0.7,0.1-1,0.2
		c-0.3,0.1-0.6,0.3-0.8,0.5c-0.2,0.2-0.4,0.5-0.6,0.7c-0.1,0.3-0.2,0.6-0.3,0.9c-0.1,0.7,0,1.2,0.3,1.6c0.3,0.4,0.8,0.6,1.5,0.6
		c0.4,0,0.7-0.1,1-0.2c0.3-0.1,0.6-0.3,0.8-0.5c0.2-0.2,0.4-0.4,0.6-0.7C115.9,1138.8,116,1138.5,116.1,1138.3"/>
	<path class="st14" d="M132.6,1147.5c0,0.1-0.1,0.2-0.2,0.3c-0.1,0.1-0.3,0.1-0.5,0.2c-0.2,0-0.5,0.1-1,0.1c-0.4,0-0.8,0-1-0.1
		c-0.2,0-0.3-0.1-0.4-0.2c-0.1-0.1-0.1-0.2-0.1-0.3l0.2-1.1c-0.7,0.6-1.4,1-2.1,1.4c-0.8,0.3-1.6,0.5-2.4,0.5
		c-0.7,0-1.3-0.1-1.9-0.3c-0.6-0.2-1-0.5-1.4-0.8c-0.4-0.4-0.6-0.8-0.7-1.3c-0.1-0.5-0.1-1.2,0-1.9c0.2-0.8,0.4-1.4,0.8-2
		c0.4-0.6,1-1,1.6-1.4c0.7-0.4,1.5-0.6,2.4-0.8c0.9-0.2,2-0.3,3.1-0.3h1.3l0.2-0.8c0.1-0.4,0.1-0.8,0.1-1.1c0-0.3-0.1-0.6-0.3-0.8
		c-0.2-0.2-0.4-0.4-0.7-0.5c-0.3-0.1-0.7-0.1-1.2-0.1c-0.6,0-1.2,0.1-1.7,0.2c-0.5,0.1-1,0.3-1.4,0.5c-0.4,0.2-0.8,0.3-1,0.5
		c-0.3,0.1-0.5,0.2-0.7,0.2c-0.1,0-0.2,0-0.3-0.1c-0.1-0.1-0.1-0.2-0.1-0.3c0-0.1,0-0.3,0-0.5c0-0.2,0-0.4,0.1-0.6
		c0.1-0.3,0.1-0.5,0.2-0.7c0.1-0.2,0.2-0.3,0.4-0.5c0.2-0.1,0.4-0.3,0.8-0.5c0.4-0.2,0.8-0.3,1.3-0.5c0.5-0.1,1-0.3,1.6-0.4
		c0.6-0.1,1.1-0.1,1.7-0.1c1,0,1.9,0.1,2.6,0.3c0.7,0.2,1.2,0.5,1.6,0.9c0.4,0.4,0.6,1,0.7,1.6c0.1,0.7,0,1.4-0.1,2.4L132.6,1147.5z
		 M130.1,1141.8h-1.4c-0.6,0-1.1,0-1.6,0.1s-0.8,0.2-1.1,0.4c-0.3,0.2-0.5,0.4-0.7,0.6c-0.2,0.3-0.3,0.5-0.4,0.9
		c-0.1,0.6,0,1,0.3,1.3c0.3,0.3,0.7,0.5,1.4,0.5c0.5,0,1-0.1,1.5-0.4c0.5-0.3,1-0.7,1.6-1.2L130.1,1141.8z"/>
	<path class="st14" d="M151,1135.1c-0.1,0.5-0.2,0.8-0.4,1.1c-0.2,0.2-0.3,0.3-0.5,0.3h-1.6c0.2,0.2,0.3,0.5,0.3,0.8
		c0,0.3,0,0.6,0,0.9c-0.1,0.8-0.4,1.5-0.8,2.1c-0.4,0.6-0.8,1.1-1.4,1.5c-0.6,0.4-1.2,0.7-1.9,0.9c-0.7,0.2-1.5,0.3-2.3,0.3
		c-0.4,0-0.8-0.1-1.2-0.2c-0.4-0.1-0.6-0.2-0.8-0.4c-0.1,0.1-0.3,0.3-0.4,0.5c-0.1,0.2-0.2,0.4-0.3,0.6c-0.1,0.3,0,0.5,0.2,0.7
		c0.2,0.2,0.5,0.3,1,0.3l3.2,0.1c0.7,0,1.4,0.1,1.9,0.3c0.6,0.2,1,0.4,1.3,0.8c0.3,0.3,0.6,0.7,0.7,1.2c0.1,0.5,0.1,1,0,1.6
		c-0.1,0.7-0.4,1.3-0.8,1.8c-0.4,0.6-0.9,1.1-1.6,1.5c-0.7,0.4-1.4,0.8-2.4,1c-0.9,0.2-1.9,0.4-3.1,0.4c-1.1,0-2.1-0.1-2.8-0.3
		c-0.8-0.2-1.4-0.4-1.8-0.7c-0.4-0.3-0.7-0.7-0.9-1.1c-0.1-0.4-0.2-0.9-0.1-1.4c0.1-0.3,0.2-0.6,0.3-0.9c0.1-0.3,0.3-0.6,0.5-0.9
		c0.2-0.3,0.5-0.5,0.8-0.8c0.3-0.2,0.6-0.5,1-0.7c-0.4-0.2-0.6-0.5-0.8-0.9c-0.2-0.4-0.2-0.8-0.1-1.3c0.1-0.6,0.3-1.1,0.7-1.6
		c0.4-0.5,0.8-0.9,1.3-1.3c-0.3-0.3-0.5-0.8-0.6-1.2c-0.1-0.5-0.1-1.1,0-1.8c0.1-0.8,0.4-1.5,0.8-2.1c0.4-0.6,0.9-1.1,1.4-1.5
		c0.6-0.4,1.2-0.7,1.9-1c0.7-0.2,1.5-0.3,2.3-0.3c0.4,0,0.8,0,1.2,0.1c0.4,0,0.7,0.1,1,0.2h4.2c0.2,0,0.3,0.1,0.3,0.3
		C151.1,1134.2,151.1,1134.6,151,1135.1 M144.4,1148.8c0.1-0.4,0-0.8-0.3-1c-0.3-0.2-0.8-0.4-1.4-0.4l-2.6-0.1
		c-0.3,0.2-0.5,0.4-0.7,0.5c-0.2,0.2-0.3,0.3-0.5,0.5c-0.1,0.2-0.2,0.3-0.3,0.5c-0.1,0.1-0.1,0.3-0.1,0.5c-0.1,0.5,0.1,0.9,0.5,1.1
		c0.4,0.3,1.1,0.4,2,0.4c0.6,0,1-0.1,1.5-0.2c0.4-0.1,0.7-0.3,1-0.5c0.3-0.2,0.5-0.4,0.6-0.6
		C144.2,1149.3,144.3,1149.1,144.4,1148.8 M145.6,1138.3c0.1-0.7,0-1.3-0.3-1.7c-0.3-0.4-0.8-0.6-1.6-0.6c-0.4,0-0.7,0.1-1,0.2
		c-0.3,0.1-0.6,0.3-0.8,0.5s-0.4,0.5-0.6,0.7c-0.1,0.3-0.2,0.6-0.3,0.9c-0.1,0.7,0,1.2,0.3,1.6c0.3,0.4,0.8,0.6,1.5,0.6
		c0.4,0,0.7-0.1,1-0.2c0.3-0.1,0.6-0.3,0.8-0.5c0.2-0.2,0.4-0.4,0.6-0.7C145.4,1138.8,145.5,1138.5,145.6,1138.3"/>
	<path class="st14" d="M164.6,1140.4c-0.1,0.5-0.3,0.8-0.5,1c-0.2,0.2-0.5,0.3-0.9,0.3h-8c-0.1,0.6-0.1,1.1-0.1,1.5
		c0,0.5,0.2,0.8,0.4,1.2c0.2,0.3,0.6,0.6,1,0.7s1,0.3,1.6,0.3c0.7,0,1.2,0,1.7-0.1c0.5-0.1,1-0.2,1.3-0.3c0.4-0.1,0.7-0.2,1-0.3
		c0.3-0.1,0.5-0.1,0.6-0.1c0.1,0,0.2,0,0.2,0.1c0.1,0,0.1,0.1,0.1,0.2c0,0.1,0,0.2,0,0.4c0,0.2,0,0.4-0.1,0.6c0,0.2-0.1,0.4-0.1,0.6
		c0,0.2-0.1,0.3-0.1,0.4c0,0.1-0.1,0.2-0.1,0.3c-0.1,0.1-0.1,0.1-0.2,0.2c-0.1,0.1-0.3,0.2-0.6,0.3c-0.3,0.1-0.7,0.2-1.2,0.3
		c-0.5,0.1-1,0.2-1.6,0.3c-0.6,0.1-1.2,0.1-1.9,0.1c-1.2,0-2.2-0.1-3-0.4c-0.8-0.3-1.5-0.7-2-1.3c-0.5-0.6-0.8-1.4-0.9-2.3
		c-0.1-0.9-0.1-2,0.2-3.2c0.2-1.2,0.6-2.2,1.1-3.2c0.5-0.9,1.1-1.7,1.8-2.4c0.7-0.7,1.5-1.2,2.4-1.5c0.9-0.3,1.9-0.5,2.9-0.5
		c1.1,0,2,0.2,2.7,0.5c0.7,0.3,1.3,0.8,1.7,1.4c0.4,0.6,0.6,1.3,0.7,2.1c0.1,0.8,0,1.7-0.1,2.6L164.6,1140.4z M161.2,1139.4
		c0.2-1,0.2-1.9-0.2-2.5c-0.3-0.6-1-0.9-1.9-0.9c-0.5,0-0.9,0.1-1.3,0.3c-0.4,0.2-0.7,0.4-1,0.7c-0.3,0.3-0.5,0.7-0.7,1.1
		c-0.2,0.4-0.4,0.8-0.5,1.3H161.2z"/>
	<path class="st14" d="M95.6,1170.2c0,0.2,0,0.4,0,0.6c0,0.2,0,0.3-0.1,0.4s-0.1,0.2-0.1,0.3c0,0.1-0.1,0.2-0.2,0.3
		c-0.1,0.1-0.3,0.2-0.6,0.4c-0.3,0.2-0.6,0.3-1.1,0.5c-0.4,0.2-0.9,0.3-1.4,0.4c-0.5,0.1-1.1,0.2-1.7,0.2c-1.2,0-2.3-0.2-3.3-0.6
		c-1-0.4-1.8-0.9-2.5-1.7c-0.7-0.7-1.2-1.7-1.6-2.8c-0.4-1.1-0.5-2.4-0.5-3.9c0-1.5,0.2-2.9,0.6-4c0.4-1.2,1-2.2,1.7-3
		s1.6-1.4,2.6-1.8s2.1-0.6,3.3-0.6c0.5,0,1,0,1.4,0.1c0.5,0.1,0.9,0.2,1.3,0.3c0.4,0.1,0.7,0.3,1.1,0.5c0.3,0.2,0.5,0.3,0.7,0.4
		c0.1,0.1,0.2,0.2,0.3,0.3c0,0.1,0.1,0.2,0.1,0.3c0,0.1,0,0.3,0.1,0.5c0,0.2,0,0.4,0,0.6c0,0.3,0,0.5,0,0.7c0,0.2-0.1,0.3-0.1,0.5
		c0,0.1-0.1,0.2-0.2,0.3c-0.1,0.1-0.1,0.1-0.2,0.1c-0.1,0-0.3-0.1-0.5-0.2c-0.2-0.2-0.5-0.3-0.8-0.5c-0.3-0.2-0.7-0.4-1.2-0.5
		c-0.5-0.2-1-0.2-1.7-0.2c-0.7,0-1.3,0.1-1.9,0.4c-0.6,0.3-1,0.7-1.4,1.2c-0.4,0.5-0.7,1.2-0.9,1.9c-0.2,0.8-0.3,1.6-0.3,2.6
		c0,1,0.1,1.9,0.3,2.7c0.2,0.8,0.5,1.4,0.9,1.9c0.4,0.5,0.9,0.9,1.4,1.1c0.6,0.2,1.2,0.4,1.9,0.4c0.6,0,1.2-0.1,1.7-0.2
		c0.5-0.2,0.9-0.3,1.2-0.5c0.3-0.2,0.6-0.3,0.8-0.5c0.2-0.1,0.4-0.2,0.5-0.2c0.1,0,0.2,0,0.2,0.1s0.1,0.1,0.1,0.2
		c0,0.1,0.1,0.3,0.1,0.5C95.6,1169.6,95.6,1169.8,95.6,1170.2"/>
	<path class="st14" d="M111.9,1172.3c0,0.1,0,0.2-0.1,0.2c-0.1,0.1-0.2,0.1-0.3,0.2c-0.1,0-0.3,0.1-0.6,0.1c-0.2,0-0.5,0-0.9,0
		c-0.4,0-0.7,0-0.9,0c-0.2,0-0.4-0.1-0.6-0.1c-0.1,0-0.2-0.1-0.3-0.2c-0.1-0.1-0.1-0.2-0.1-0.2v-7.2h-6.7v7.2c0,0.1,0,0.2-0.1,0.2
		c-0.1,0.1-0.2,0.1-0.3,0.2c-0.1,0-0.3,0.1-0.6,0.1c-0.2,0-0.5,0-0.9,0c-0.3,0-0.6,0-0.9,0c-0.2,0-0.4-0.1-0.6-0.1
		c-0.1,0-0.2-0.1-0.3-0.2c-0.1-0.1-0.1-0.2-0.1-0.2v-16.8c0-0.1,0-0.2,0.1-0.2c0.1-0.1,0.2-0.1,0.3-0.2s0.3-0.1,0.6-0.1
		c0.2,0,0.5,0,0.9,0c0.4,0,0.7,0,0.9,0c0.2,0,0.4,0.1,0.6,0.1s0.2,0.1,0.3,0.2c0.1,0.1,0.1,0.2,0.1,0.2v6.5h6.7v-6.5
		c0-0.1,0-0.2,0.1-0.2c0.1-0.1,0.2-0.1,0.3-0.2c0.1,0,0.3-0.1,0.6-0.1c0.2,0,0.5,0,0.9,0c0.3,0,0.6,0,0.9,0c0.2,0,0.4,0.1,0.6,0.1
		c0.1,0,0.2,0.1,0.3,0.2s0.1,0.2,0.1,0.2V1172.3z"/>
	<path class="st14" d="M119.3,1172.3c0,0.1,0,0.2-0.1,0.2c-0.1,0.1-0.2,0.1-0.3,0.2c-0.1,0-0.3,0.1-0.6,0.1c-0.2,0-0.5,0-0.9,0
		c-0.3,0-0.6,0-0.9,0c-0.2,0-0.4-0.1-0.6-0.1c-0.1,0-0.2-0.1-0.3-0.2c-0.1-0.1-0.1-0.2-0.1-0.2v-16.8c0-0.1,0-0.2,0.1-0.2
		c0.1-0.1,0.2-0.1,0.3-0.2c0.1,0,0.3-0.1,0.6-0.1c0.2,0,0.5,0,0.9,0c0.4,0,0.7,0,0.9,0c0.2,0,0.4,0.1,0.6,0.1s0.2,0.1,0.3,0.2
		c0.1,0.1,0.1,0.2,0.1,0.2L119.3,1172.3L119.3,1172.3z"/>
	<path class="st14" d="M135.3,1170.2c0,0.2,0,0.4,0,0.6c0,0.2,0,0.3-0.1,0.4c0,0.1-0.1,0.2-0.1,0.3c0,0.1-0.1,0.2-0.2,0.3
		c-0.1,0.1-0.3,0.2-0.6,0.4c-0.3,0.2-0.6,0.3-1.1,0.5c-0.4,0.2-0.9,0.3-1.4,0.4c-0.5,0.1-1.1,0.2-1.7,0.2c-1.2,0-2.3-0.2-3.3-0.6
		c-1-0.4-1.8-0.9-2.5-1.7c-0.7-0.7-1.2-1.7-1.6-2.8c-0.4-1.1-0.5-2.4-0.5-3.9c0-1.5,0.2-2.9,0.6-4c0.4-1.2,1-2.2,1.7-3
		s1.6-1.4,2.6-1.8c1-0.4,2.1-0.6,3.3-0.6c0.5,0,1,0,1.4,0.1c0.5,0.1,0.9,0.2,1.3,0.3c0.4,0.1,0.7,0.3,1.1,0.5
		c0.3,0.2,0.5,0.3,0.7,0.4c0.1,0.1,0.2,0.2,0.3,0.3c0,0.1,0.1,0.2,0.1,0.3c0,0.1,0,0.3,0.1,0.5c0,0.2,0,0.4,0,0.6c0,0.3,0,0.5,0,0.7
		c0,0.2-0.1,0.3-0.1,0.5c0,0.1-0.1,0.2-0.2,0.3c-0.1,0.1-0.1,0.1-0.2,0.1c-0.1,0-0.3-0.1-0.5-0.2c-0.2-0.2-0.5-0.3-0.8-0.5
		c-0.3-0.2-0.7-0.4-1.2-0.5c-0.5-0.2-1-0.2-1.7-0.2c-0.7,0-1.3,0.1-1.9,0.4c-0.6,0.3-1,0.7-1.4,1.2c-0.4,0.5-0.7,1.2-0.9,1.9
		c-0.2,0.8-0.3,1.6-0.3,2.6c0,1,0.1,1.9,0.3,2.7c0.2,0.8,0.5,1.4,0.9,1.9c0.4,0.5,0.9,0.9,1.4,1.1c0.6,0.2,1.2,0.4,1.9,0.4
		c0.6,0,1.2-0.1,1.7-0.2s0.9-0.3,1.2-0.5c0.3-0.2,0.6-0.3,0.8-0.5c0.2-0.1,0.4-0.2,0.5-0.2c0.1,0,0.2,0,0.2,0.1
		c0.1,0,0.1,0.1,0.1,0.2c0,0.1,0.1,0.3,0.1,0.5C135.3,1169.6,135.3,1169.8,135.3,1170.2"/>
	<path class="st14" d="M152.3,1171.5c0.1,0.3,0.2,0.6,0.2,0.8c0,0.2,0,0.3-0.1,0.4c-0.1,0.1-0.3,0.2-0.5,0.2c-0.3,0-0.6,0-1.1,0
		c-0.5,0-0.8,0-1.1,0c-0.3,0-0.5,0-0.6-0.1c-0.1,0-0.2-0.1-0.3-0.2c-0.1-0.1-0.1-0.2-0.1-0.3l-1.2-3.6h-6.7l-1.1,3.5
		c0,0.1-0.1,0.2-0.1,0.3c-0.1,0.1-0.2,0.2-0.3,0.2c-0.1,0.1-0.3,0.1-0.6,0.1c-0.2,0-0.6,0-1,0c-0.4,0-0.8,0-1,0
		c-0.2,0-0.4-0.1-0.5-0.2c-0.1-0.1-0.1-0.3-0.1-0.4c0-0.2,0.1-0.4,0.2-0.8l5.5-15.8c0.1-0.2,0.1-0.3,0.2-0.4
		c0.1-0.1,0.2-0.2,0.3-0.2c0.2-0.1,0.4-0.1,0.7-0.1c0.3,0,0.7,0,1.1,0c0.5,0,1,0,1.3,0c0.3,0,0.6,0,0.7,0.1c0.2,0.1,0.3,0.1,0.4,0.2
		c0.1,0.1,0.1,0.2,0.2,0.4L152.3,1171.5z M144.2,1158.5L144.2,1158.5l-2.5,7.6h5L144.2,1158.5z"/>
	<path class="st14" d="M168.6,1157.8c0,0.3,0,0.5,0,0.7c0,0.2-0.1,0.3-0.1,0.5c0,0.1-0.1,0.2-0.2,0.2c-0.1,0-0.1,0.1-0.2,0.1
		c-0.1,0-0.3-0.1-0.6-0.2c-0.3-0.2-0.6-0.3-1.1-0.5s-1-0.4-1.6-0.5c-0.6-0.2-1.3-0.2-2.1-0.2c-0.9,0-1.6,0.1-2.3,0.4
		c-0.7,0.3-1.3,0.7-1.8,1.3c-0.5,0.5-0.9,1.2-1.1,2c-0.3,0.8-0.4,1.6-0.4,2.5c0,1,0.1,1.9,0.4,2.7c0.3,0.8,0.6,1.4,1.1,1.9
		c0.5,0.5,1.1,0.9,1.8,1.2c0.7,0.3,1.4,0.4,2.3,0.4c0.4,0,0.8,0,1.2-0.1c0.4-0.1,0.8-0.2,1.1-0.4v-4.1h-3.4c-0.2,0-0.3-0.1-0.4-0.3
		c-0.1-0.2-0.1-0.6-0.1-1.1c0-0.3,0-0.5,0-0.6c0-0.2,0.1-0.3,0.1-0.4c0-0.1,0.1-0.2,0.2-0.2c0.1-0.1,0.1-0.1,0.2-0.1h6
		c0.1,0,0.3,0,0.4,0.1c0.1,0.1,0.2,0.1,0.3,0.2s0.2,0.2,0.2,0.4c0,0.1,0.1,0.3,0.1,0.5v7.1c0,0.3,0,0.5-0.1,0.7
		c-0.1,0.2-0.3,0.4-0.6,0.5c-0.3,0.1-0.7,0.2-1.1,0.4c-0.4,0.1-0.9,0.2-1.4,0.3c-0.5,0.1-0.9,0.2-1.4,0.2c-0.5,0-1,0.1-1.5,0.1
		c-1.4,0-2.7-0.2-3.8-0.6c-1.1-0.4-2.1-1-2.9-1.8c-0.8-0.8-1.4-1.7-1.8-2.8c-0.4-1.1-0.6-2.4-0.6-3.8c0-1.5,0.2-2.8,0.7-3.9
		c0.4-1.2,1.1-2.1,1.9-3c0.8-0.8,1.8-1.4,2.9-1.9c1.1-0.4,2.4-0.6,3.8-0.6c0.8,0,1.5,0.1,2.1,0.2c0.6,0.1,1.2,0.2,1.7,0.4
		c0.5,0.2,0.9,0.3,1.2,0.5c0.3,0.2,0.5,0.3,0.7,0.5c0.1,0.1,0.2,0.3,0.3,0.5S168.6,1157.4,168.6,1157.8"/>
	<path class="st14" d="M188.1,1163.7c0,1.5-0.2,2.8-0.6,4c-0.4,1.2-0.9,2.2-1.6,3c-0.7,0.8-1.6,1.4-2.7,1.9
		c-1.1,0.4-2.3,0.6-3.7,0.6c-1.4,0-2.6-0.2-3.6-0.5c-1-0.4-1.9-0.9-2.6-1.7c-0.7-0.7-1.2-1.7-1.5-2.8c-0.3-1.1-0.5-2.5-0.5-4.1
		c0-1.4,0.2-2.7,0.6-3.9s0.9-2.1,1.6-2.9c0.7-0.8,1.6-1.4,2.7-1.9c1.1-0.4,2.3-0.6,3.7-0.6c1.3,0,2.5,0.2,3.6,0.5
		c1,0.4,1.9,0.9,2.6,1.6c0.7,0.7,1.2,1.7,1.6,2.8C187.9,1160.9,188.1,1162.2,188.1,1163.7 M184.3,1163.9c0-0.9-0.1-1.8-0.2-2.5
		c-0.1-0.8-0.4-1.4-0.7-2c-0.4-0.5-0.8-1-1.4-1.3c-0.6-0.3-1.3-0.4-2.2-0.4c-0.9,0-1.6,0.2-2.2,0.5c-0.6,0.3-1.1,0.8-1.4,1.3
		c-0.4,0.6-0.6,1.2-0.8,2s-0.2,1.5-0.2,2.4c0,1,0.1,1.8,0.2,2.6c0.1,0.8,0.4,1.4,0.7,2c0.3,0.6,0.8,1,1.4,1.3
		c0.6,0.3,1.3,0.4,2.2,0.4c0.9,0,1.6-0.2,2.2-0.5c0.6-0.3,1.1-0.8,1.4-1.3c0.4-0.6,0.6-1.2,0.8-2
		C184.3,1165.6,184.3,1164.8,184.3,1163.9"/>
	<path class="st15" d="M71.5,1160.1v-3.3h-2.7v3.3h2.6H71.5z M71.6,1161.2h-2.9c-0.6,0-1.1-0.5-1.1-1.1l0-4l-0.7-0.5h4.5h0.1
		c0.6,0,1.2,0.6,1.2,1.2v-0.1v3.5C72.7,1160.7,72.2,1161.2,71.6,1161.2z M68,1156h3.5c0.5,0,0.8,0.4,0.8,0.8v3.3
		c0,0.4-0.3,0.8-0.8,0.8h-2.8c-0.4,0-0.7-0.3-0.7-0.7v-6.5 M72,1163.6l0-1.4c0,0,0-0.3,0.1-0.5c0.6-0.6,1-1,1-1.5l0-3.3
		c0-0.9-0.8-1.7-1.7-1.7h-4.5 M68.5,1156.4h3c0.2,0,0.4,0.2,0.4,0.4v3.3c0,0.2-0.2,0.4-0.4,0.4l-2.7,0c-0.2,0-0.4-0.2-0.4-0.4v-5.7
		 M71.5,1163.7v-3.7 M66.8,1157.2h2.4l0.4,0.2v4.8l-0.2,0.4h-2.7 M70.5,1154.4v2.5v6.9"/>
	<path class="st16" d="M72.1,1163.6v8.3c0,0.3,0,0.6,0.4,0.9l0.9,0.5c0.3,0.1,0.4,0.2,0.4,0.5v6.6v1c0,0.3,0.2,0.5,0.5,0.7h3.8
		 M60,1117.6l3,11.2l0,9.9c0,0.2,0,0.5,0.1,0.7c0.2,0.3,0.4,0.7,0.7,0.8c0.4,0.1,0.9,0,1.3,0.3c0.2,0.2,0.3,0.4,0.3,0.7v6.2
		c0,0.1,0.1,0.2,0.1,0.2l0.2,0.2c0.1,0.1,0.3,0.2,0.4,0.2h1.1c0.1,0,0.2,0,0.3,0.1l0.9,0.8c0.1,0.1,0.2,0.2,0.2,0.4v5.2
		 M61.6,1124.8H47.4c-0.3,0-0.6-0.2-0.8-0.5l-1.2-3 M67.9,1154.5v-5.1l-0.8-0.7l-1.1,0c-0.2,0-0.5-0.1-0.7-0.3l-0.5-0.7
		c-0.1-0.1-0.2-0.3-0.2-0.4v-5.2c-0.1-0.3-0.3-0.4-0.5-0.4h-3.9c-0.2,0-0.4-0.2-0.4-0.4l0-3.7c0-0.2-0.2-0.4-0.4-0.4h-6.8
		 M61.7,1124.8l0.6,0c0.2,0,0.3,0.1,0.3,0.3l0.9,3.7l0,9.3c0,0.2,0,0.9,0.1,1.1c0.2,0.4,0.4,0.4,0.8,0.4c0.4,0,0.7,0.1,1.1,0.4
		c0.3,0.2,0.5,0.7,0.5,1.1v8c0,0.1,0,0.2,0.1,0.3l1.1,1.4c0.1,0.1,0.2,0.2,0.3,0.2l2.5,0c0.2,0,0.4,0.2,0.4,0.4v3.3"/>
	<line class="st17" x1="70.3" y1="1188.7" x2="70.3" y2="1163.6"/>
	<path class="st16" d="M50.3,1181.1v-1.4c0-0.2,0.1-0.3,0.2-0.4l4.6-2.1c0.1,0,0.1,0,0.2,0h2.1c0.1,0,0.3,0,0.4-0.1l0.2-0.2
		c0.1-0.1,0.2-0.3,0.2-0.4v-2.3c0-0.1,0-0.2,0.1-0.3l0.4-0.5c0-0.1,0.1-0.1,0.2-0.2l12.1-7.3c0.1,0,0.1-0.1,0.2-0.2l0.2-0.4
		c0-0.1,0-0.1,0-0.2v-1.4v-0.1 M45.6,1167.5h14.2c0.7,0,1.3-0.6,1.3-1.3v-10c0-0.2,0.2-0.4,0.4-0.4h5.4 M38.5,1155.1h28.4
		 M66.9,1157h-1.3c-0.1,0-0.2,0-0.3-0.1l-13.1-13c-0.1-0.1-0.1-0.2-0.1-0.3v-2c0-0.1,0-0.2-0.1-0.3l-8.7-8.7
		c-0.1-0.1-0.2-0.1-0.3-0.1H32.7 M36.1,1162.4h30.8"/>
	<path class="st18" d="M66.2,1117.6c3.4,18.4,11.2,52,23.3,71.3"/>
	<path class="st19" d="M63.1,1181.9h5.2c0.2,0,0.4-0.1,0.5-0.3l0.4-0.7c0.1-0.3,0.4-0.4,0.7-0.4h4"/>
</g>
<polygon class="st11" points="243.8,1129 243.8,1129.7 245.3,1131.4 245.3,1143.5 243.2,1144.1 243.2,1144.8 249,1144.8 249,1144.1 
	247.2,1143.6 246.7,1143 246.7,1133 256.7,1144.9 257.6,1144.9 257.6,1130.6 259.7,1129.9 259.7,1129.2 253.9,1129.2 253.9,1130 
	255.8,1130.5 256.2,1131 256.2,1140.6 256.2,1140.6 256.1,1140.6 246.4,1129 "/>
<g>
	<defs>
		<rect id="SVGID_9_" x="243.1" y="1127.9" width="137.5" height="49.6"/>
	</defs>
	<clipPath id="SVGID_10_">
		<use xlink:href="#SVGID_9_"  style="overflow:visible;"/>
	</clipPath>
	<path class="st20" d="M265.3,1145.1c-2.8,0-5.5-1.8-5.5-5.7c0-3.8,2.9-5.8,5.5-5.8c2.8,0,5.6,1.7,5.6,5.6
		C270.9,1142.9,267.9,1145.1,265.3,1145.1 M268.7,1139.5c0-2.6-1.4-4.9-3.7-4.9c-2,0-3,1.8-3,4.4c0,2.6,1.3,5,3.7,5
		C267.6,1144,268.7,1142.2,268.7,1139.5"/>
	<path class="st20" d="M299.4,1138.4c0-2.6-1.5-3.2-3.2-3.2c-1.5,0-2.4,1.1-2.4,1.1l0,1.7v5.1l0.5,0.6l1.5,0.5l0,0.6h-5.5v-0.6
		l1.6-0.6l0-11.4c0-2.1-0.5-2.6-1.7-2.6v-0.5l3.5-1.2h0.2c0,0-0.1,2.4-0.1,4.3v3.3c0,0,2.3-1.8,3.8-1.8c1.9,0,3.7,0.8,3.7,3.7l0,5.9
		l0.5,0.6l1.5,0.5l0,0.6h-5.5v-0.6l1.5-0.6L299.4,1138.4z"/>
	<path class="st20" d="M321.7,1138.7c0,3.3,1.9,4.7,4,4.7c1.3,0,2.9-0.5,2.9-0.5l0.2,0.4c-0.6,0.6-2.1,1.8-4.1,1.8
		c-2.7,0-5.1-2-5.1-5.7c0-3.4,2.3-5.8,5.2-5.8c2.2,0,4,1.3,4,3.9c0,0.7-0.1,1.3-0.1,1.3H321.7z M325.2,1137.8c1.1,0,1.5-0.3,1.5-1.4
		c0-1-0.7-1.7-2.2-1.7c-1.6,0-2.8,1.4-2.8,3.3L325.2,1137.8z"/>
	<path class="st20" d="M331.4,1144.6c-0.2-0.1-0.6-0.3-0.6-0.8l-0.1-2.2h1c0.3,1.5,1.3,2.5,2.7,2.5c1.4,0,1.9-0.7,1.9-1.7
		c0-0.9-0.7-1.4-1.6-1.8l-1.2-0.6c-1.7-0.9-2.6-1.6-2.6-3.3c0-2.1,1.5-3.1,3.9-3.1c1.7,0,3,0.6,3,0.6l-0.3,2.8h-1
		c0-1.7-0.7-2.4-2.1-2.4c-1,0-1.9,0.4-1.9,1.3c0,0.8,0.3,1.1,2.2,2.1l1.1,0.5c1.9,1,2.5,1.8,2.5,3.4c0,1.9-1.9,3.1-3.8,3.1
		C333.1,1145.1,332,1144.9,331.4,1144.6"/>
	<path class="st20" d="M349.9,1138.7c0,3.3,1.9,4.7,4,4.7c1.3,0,2.9-0.5,2.9-0.5l0.2,0.4c-0.6,0.6-2.1,1.8-4.1,1.8
		c-2.7,0-5.1-2-5.1-5.7c0-3.4,2.3-5.8,5.2-5.8c2.2,0,4,1.3,4,3.9c0,0.7-0.1,1.3-0.1,1.3H349.9z M353.4,1137.8c1.1,0,1.5-0.3,1.5-1.4
		c0-1-0.7-1.7-2.2-1.7c-1.6,0-2.8,1.4-2.8,3.3L353.4,1137.8z"/>
	<path class="st20" d="M379,1143.7l-0.5-0.6l0-6c0-2.8-1.8-3.5-3.6-3.5c-1.6,0-3.8,1.8-3.8,1.8c0-1,0-1.9,0-1.9H371l-3.4,1.3v0.6
		c1.3,0,1.7,1.2,1.7,3.3v5l-1.6,0.6v0.6h5.4l0-0.6l-1.5-0.5l-0.5-0.6l0-6.8c0,0,0.8-1.1,2.3-1.1c1.5,0,3.1,0.5,3.1,3.2l-0.1,5.2
		l-1.5,0.6v0.6h5.4l0-0.6L379,1143.7z"/>
	<path class="st20" d="M313.5,1144.9l-2.5-7l-2.9,7h-1l-2.8-8.7c-0.4-1.1-0.6-1.7-1.4-1.7v-0.7h4.7v0.7l-1.4,0.5l2.1,7.2l1.9-4.5
		l0.4-1.1l-0.6-1.8l-0.8-0.2v-0.7h4.5v0.7l-1.4,0.4l2.4,7.2l2.5-7.1l-1.6-0.6v-0.6h4.2v0.7c-1,0.1-1.4,0.4-2.2,2.3l-2.8,8.1H313.5z"
		/>
	<path class="st20" d="M288.9,1143.2c0,0-0.7,0.4-1.7,0.4c-1.1,0-2-0.6-2-2.1l0.1-6.2h3.5l0,0h0l0-0.4h0l0.2-1.9l-0.4-0.1l-0.3,0.7
		l-0.2,0.2l-2.8,0.1v0l0,0v-2.8l-1.4,0.2l-0.6,2.7l-1.9,0.2v0.9c1.1,0,1.9,0.1,1.9,1.1c0,1-0.1,4.2-0.1,5.5c0,2.4,0.9,3.3,2.5,3.3
		c1.3,0,2.4-0.5,3.4-1.3L288.9,1143.2z"/>
	<path class="st20" d="M346.7,1143.2c0,0-0.7,0.4-1.7,0.4c-1.1,0-2-0.6-2-2.1l0.1-6.2h3.5v0h0l0-0.4h0l0.2-1.9l-0.4-0.1l-0.3,0.7
		l-0.2,0.2l-2.8,0.1v0h0v-2.8l-1.4,0.2l-0.6,2.7l-1.9,0.2v0.9c1.1,0,1.9,0.1,1.9,1.1c0,1-0.1,4.2-0.1,5.5c0,2.4,0.9,3.3,2.5,3.3
		c1.3,0,2.4-0.5,3.4-1.3L346.7,1143.2z"/>
	<path class="st20" d="M280.1,1133.7L280.1,1133.7L280.1,1133.7c0,0-0.4-0.1-1.2-0.1c-1.7,0-3.4,2.6-3.4,2.6c0-1.4,0-2.7,0-2.7h-0.2
		l-3.4,1.3v0.6c1.3,0,1.7,1.2,1.7,3.1v5.1l-1.6,0.6v0.6h5.4l0-0.6l-1.5-0.5l-0.5-0.6v-5.1c0-1.6,1.2-2.4,2.6-2.4
		c0.3,0,0.5,0.1,0.8,0.1l0.4,0.5l0.5,0L280.1,1133.7z"/>
	<path class="st20" d="M366.5,1133.7L366.5,1133.7L366.5,1133.7c0,0-0.4-0.1-1.2-0.1c-1.7,0-3.4,2.6-3.4,2.6c0-1.4,0-2.7,0-2.7h-0.2
		l-3.4,1.3v0.6c1.3,0,1.7,1.2,1.7,3.1v5.1l-1.6,0.6v0.6h5.4l0-0.6l-1.5-0.5l-0.5-0.6v-5.1c0-1.6,1.2-2.4,2.5-2.4
		c0.3,0,0.5,0.1,0.8,0.1l0.4,0.5l0.5,0L366.5,1133.7z"/>
	<rect x="243.2" y="1150.2" class="st20" width="137.3" height="0.8"/>
	<path class="st20" d="M250,1162.5c0,0.8-0.3,1.5-0.9,2.1c-0.3,0.3-0.6,0.5-1.1,0.7c-0.4,0.2-0.9,0.3-1.3,0.3c-1,0-1.8-0.3-2.4-1
		c-0.4-0.4-0.7-0.9-0.9-1.5c-0.2-0.6-0.2-1.3-0.2-2.1c0-0.8,0.1-1.5,0.2-2.1c0.1-0.6,0.4-1.1,0.9-1.5c0.7-0.6,1.5-1,2.4-1
		c1,0,1.8,0.3,2.4,0.9c0.6,0.6,0.8,1.2,0.9,2h-1.2c0-0.5-0.2-0.9-0.5-1.2c-0.4-0.4-0.9-0.7-1.6-0.7c-0.6,0-1.2,0.2-1.6,0.7
		c-0.2,0.2-0.4,0.5-0.5,0.9c-0.1,0.4-0.2,0.7-0.2,1c0,0.3,0,0.6,0,1c0,0.4,0,0.8,0,1c0,0.3,0.1,0.6,0.2,1s0.3,0.7,0.5,0.9
		c0.4,0.5,1,0.7,1.6,0.7c0.7,0,1.2-0.2,1.6-0.7c0.3-0.4,0.5-0.8,0.5-1.3H250z"/>
	<polygon class="st20" points="257.7,1165.4 251.8,1165.4 251.8,1156.5 257.7,1156.5 257.7,1157.5 252.9,1157.5 252.9,1160.2 
		257.1,1160.2 257.1,1161.3 252.9,1161.3 252.9,1164.3 257.7,1164.3 	"/>
	<polygon class="st20" points="266.3,1165.4 265,1165.4 260.7,1158.2 260.7,1165.4 259.6,1165.4 259.6,1156.5 260.9,1156.5 
		265.2,1163.6 265.2,1156.5 266.3,1156.5 	"/>
	<polygon class="st20" points="274.1,1157.5 271.5,1157.5 271.5,1165.4 270.3,1165.4 270.3,1157.5 267.7,1157.5 267.7,1156.5 
		274.1,1156.5 	"/>
	<polygon class="st20" points="281.5,1165.4 275.5,1165.4 275.5,1156.5 281.5,1156.5 281.5,1157.5 276.6,1157.5 276.6,1160.2 
		280.9,1160.2 280.9,1161.3 276.6,1161.3 276.6,1164.3 281.5,1164.3 	"/>
	<path class="st20" d="M289.8,1165.4h-1.2l-1.7-3.7h-2.5v3.7h-1.1v-8.9h3.5c1,0,1.7,0.3,2.3,0.8c0.5,0.5,0.7,1.1,0.7,1.8
		c0,0.7-0.2,1.3-0.7,1.8c-0.3,0.3-0.6,0.5-1.1,0.6L289.8,1165.4z M288.7,1159.1c0-1-0.6-1.6-1.8-1.6h-2.4v3.1h2.4
		C288,1160.6,288.7,1160.1,288.7,1159.1"/>
	<polygon class="st20" points="300.3,1157.5 295.7,1157.5 295.7,1160.4 299.8,1160.4 299.8,1161.5 295.7,1161.5 295.7,1165.4 
		294.5,1165.4 294.5,1156.5 300.3,1156.5 	"/>
	<path class="st20" d="M308.1,1158.8c0.2,0.6,0.2,1.3,0.2,2.1c0,0.8-0.1,1.5-0.2,2.1c-0.2,0.6-0.5,1.1-0.9,1.5c-0.7,0.6-1.4,1-2.4,1
		s-1.7-0.3-2.4-1c-0.4-0.4-0.7-0.9-0.9-1.5c-0.2-0.6-0.2-1.3-0.2-2.1c0-0.8,0.1-1.5,0.2-2.1s0.5-1.1,0.9-1.5c0.7-0.6,1.4-1,2.4-1
		s1.7,0.3,2.4,1C307.7,1157.7,308,1158.2,308.1,1158.8 M307.2,1161.9c0-0.3,0-0.6,0-1s0-0.7,0-1c0-0.3-0.1-0.6-0.2-1
		c-0.1-0.4-0.3-0.7-0.5-0.9c-0.4-0.4-1-0.7-1.6-0.7c-0.7,0-1.2,0.2-1.6,0.7c-0.2,0.2-0.4,0.5-0.5,0.9c-0.1,0.4-0.2,0.7-0.2,1
		c0,0.3,0,0.6,0,1s0,0.7,0,1c0,0.3,0.1,0.6,0.2,1c0.1,0.4,0.3,0.7,0.5,0.9c0.4,0.4,1,0.7,1.6,0.7c0.7,0,1.2-0.2,1.6-0.7
		c0.2-0.2,0.4-0.5,0.5-0.9C307.1,1162.5,307.2,1162.2,307.2,1161.9"/>
	<path class="st20" d="M316.8,1165.4h-1.2l-1.7-3.7h-2.5v3.7h-1.1v-8.9h3.5c1,0,1.7,0.3,2.3,0.8c0.5,0.5,0.7,1.1,0.7,1.8
		c0,0.7-0.2,1.3-0.7,1.8c-0.3,0.3-0.6,0.5-1.1,0.6L316.8,1165.4z M315.6,1159.1c0-1-0.6-1.6-1.8-1.6h-2.4v3.1h2.4
		C315,1160.6,315.6,1160.1,315.6,1159.1"/>
	<path class="st20" d="M250.1,1174.4c-0.1,0.8-0.4,1.4-0.9,1.9c-0.7,0.7-1.5,1.1-2.5,1.1c-1,0-1.9-0.3-2.5-1
		c-0.4-0.4-0.7-0.9-0.9-1.5c-0.1-0.6-0.2-1.3-0.2-2.1c0-0.8,0.1-1.5,0.2-2.1c0.1-0.6,0.4-1.1,0.9-1.5c0.7-0.7,1.5-1,2.5-1
		c1,0,1.9,0.3,2.5,1c0.5,0.5,0.8,1.1,0.9,1.9h-1.7c0-0.3-0.2-0.7-0.4-0.9c-0.3-0.4-0.7-0.6-1.3-0.6c-0.5,0-1,0.2-1.4,0.6
		c-0.2,0.2-0.3,0.5-0.4,0.8c-0.1,0.3-0.1,0.6-0.2,0.8c0,0.2,0,0.5,0,0.9c0,0.4,0,0.7,0,0.9c0,0.2,0.1,0.5,0.2,0.8
		c0.1,0.3,0.2,0.6,0.4,0.8c0.4,0.4,0.8,0.6,1.4,0.6c0.6,0,1-0.2,1.3-0.6c0.2-0.3,0.4-0.6,0.4-1H250.1z"/>
	<rect x="251.5" y="1168.4" class="st20" width="1.6" height="8.9"/>
	<polygon class="st20" points="261.8,1168.4 258.9,1177.3 257.1,1177.3 254.2,1168.4 255.9,1168.4 258,1175.2 260.2,1168.4 	"/>
	<rect x="262.8" y="1168.4" class="st20" width="1.6" height="8.9"/>
	<path class="st20" d="M273,1174.4c-0.1,0.8-0.4,1.4-0.9,1.9c-0.7,0.7-1.5,1.1-2.5,1.1c-1,0-1.9-0.3-2.5-1c-0.4-0.4-0.7-0.9-0.9-1.5
		c-0.1-0.6-0.2-1.3-0.2-2.1c0-0.8,0.1-1.5,0.2-2.1c0.1-0.6,0.4-1.1,0.9-1.5c0.7-0.7,1.5-1,2.5-1c1,0,1.9,0.3,2.5,1
		c0.5,0.5,0.8,1.1,0.9,1.9h-1.7c0-0.3-0.2-0.7-0.4-0.9c-0.3-0.4-0.7-0.6-1.3-0.6c-0.5,0-1,0.2-1.4,0.6c-0.2,0.2-0.3,0.5-0.4,0.8
		c-0.1,0.3-0.1,0.6-0.2,0.8c0,0.2,0,0.5,0,0.9c0,0.4,0,0.7,0,0.9c0,0.2,0.1,0.5,0.2,0.8c0.1,0.3,0.2,0.6,0.4,0.8
		c0.4,0.4,0.8,0.6,1.4,0.6c0.6,0,1-0.2,1.3-0.6c0.2-0.3,0.4-0.6,0.4-1H273z"/>
	<polygon class="st20" points="283.4,1177.3 277,1177.3 277,1168.4 283.4,1168.4 283.4,1169.8 278.7,1169.8 278.7,1171.9 
		282.8,1171.9 282.8,1173.4 278.7,1173.4 278.7,1175.8 283.4,1175.8 	"/>
</g>
<g>
	<defs>
		<rect id="SVGID_11_" x="243.1" y="1127.9" width="137.5" height="49.6"/>
	</defs>
	<clipPath id="SVGID_12_">
		<use xlink:href="#SVGID_11_"  style="overflow:visible;"/>
	</clipPath>
	<polygon class="st21" points="292,1177.3 290.4,1177.3 286.5,1171.2 286.5,1177.3 284.9,1177.3 284.9,1168.4 286.6,1168.4 
		290.4,1174.4 290.4,1168.4 292,1168.4 	"/>
	<path class="st21" d="M300.8,1177.3h-1l-0.2-1c-0.1,0.3-0.4,0.5-0.8,0.8c-0.4,0.2-0.9,0.4-1.4,0.4c-1.1,0-2-0.3-2.6-1
		c-0.4-0.5-0.7-1-0.9-1.5c-0.2-0.6-0.3-1.3-0.3-2.1c0-0.8,0.1-1.5,0.2-2.1c0.2-0.6,0.5-1.1,0.9-1.5c0.3-0.3,0.7-0.6,1.2-0.8
		c0.5-0.2,1-0.3,1.4-0.3c1.1,0,2,0.3,2.6,1c0.5,0.5,0.8,1.1,0.8,1.8h-1.7c0-0.3-0.1-0.5-0.4-0.8c-0.3-0.4-0.8-0.5-1.4-0.5
		c-0.6,0-1.1,0.2-1.5,0.6c-0.5,0.5-0.7,1.3-0.7,2.6c0,1.2,0.2,2.1,0.7,2.6c0.4,0.4,0.8,0.6,1.4,0.6c0.6,0,1-0.2,1.3-0.5
		c0.4-0.4,0.6-1,0.6-1.7h-2.1v-1.3h3.7V1177.3z"/>
	<path class="st21" d="M309.6,1177.3h-1.7l-0.6-1.7h-3.5l-0.6,1.7h-1.6l3.1-8.9h1.8L309.6,1177.3z M306.9,1174.1l-1.3-3.7l-1.3,3.7
		H306.9z"/>
	<path class="st21" d="M317.4,1177.3h-1l-0.2-1c-0.1,0.3-0.4,0.5-0.8,0.8c-0.4,0.2-0.9,0.4-1.4,0.4c-1.1,0-2-0.3-2.6-1
		c-0.4-0.5-0.7-1-0.9-1.5c-0.2-0.6-0.3-1.3-0.3-2.1c0-0.8,0.1-1.5,0.2-2.1c0.2-0.6,0.5-1.1,0.9-1.5c0.3-0.3,0.7-0.6,1.2-0.8
		c0.5-0.2,1-0.3,1.4-0.3c1.1,0,2,0.3,2.6,1c0.5,0.5,0.8,1.1,0.8,1.8h-1.7c0-0.3-0.1-0.5-0.4-0.8c-0.3-0.4-0.8-0.5-1.4-0.5
		c-0.6,0-1.1,0.2-1.5,0.6c-0.5,0.5-0.7,1.3-0.7,2.6c0,1.2,0.2,2.1,0.7,2.6c0.4,0.4,0.8,0.6,1.4,0.6c0.6,0,1-0.2,1.3-0.5
		c0.4-0.4,0.6-1,0.6-1.7h-2.1v-1.3h3.7V1177.3z"/>
</g>
<g>
	<defs>
		<rect id="SVGID_13_" x="243.1" y="1127.9" width="137.5" height="49.6"/>
	</defs>
	<clipPath id="SVGID_14_">
		<use xlink:href="#SVGID_13_"  style="overflow:visible;"/>
	</clipPath>
	<polygon class="st22" points="325.6,1177.3 319.2,1177.3 319.2,1168.4 325.6,1168.4 325.6,1169.8 320.9,1169.8 320.9,1171.9 
		325,1171.9 325,1173.4 320.9,1173.4 320.9,1175.8 325.6,1175.8 	"/>
	<polygon class="st22" points="336,1177.3 334.5,1177.3 334.5,1170.9 332.2,1177.1 331,1177.1 328.7,1170.8 328.7,1177.3 
		327.1,1177.3 327.1,1168.4 329.3,1168.4 331.6,1174.7 334,1168.4 336,1168.4 	"/>
	<polygon class="st22" points="344.4,1177.3 338.1,1177.3 338.1,1168.4 344.4,1168.4 344.4,1169.8 339.7,1169.8 339.7,1171.9 
		343.9,1171.9 343.9,1173.4 339.7,1173.4 339.7,1175.8 344.4,1175.8 	"/>
	<polygon class="st22" points="353.1,1177.3 351.4,1177.3 347.6,1171.2 347.6,1177.3 346,1177.3 346,1168.4 347.7,1168.4 
		351.5,1174.4 351.5,1168.4 353.1,1168.4 	"/>
	<polygon class="st22" points="361.1,1169.9 358.4,1169.9 358.4,1177.3 356.8,1177.3 356.8,1169.9 354.2,1169.9 354.2,1168.4 
		361.1,1168.4 	"/>
</g>
<line class="st23" x1="215" y1="1188.6" x2="215" y2="1115.8"/>
</svg>
