<?xml version="1.0" encoding="utf-8"?>
<!-- Generator: Adobe Illustrator 21.0.0, SVG Export Plug-In . SVG Version: 6.00 Build 0)  -->
<svg version="1.1" id="icons" xmlns="http://www.w3.org/2000/svg" xmlns:xlink="http://www.w3.org/1999/xlink" x="0px" y="0px" viewBox="0 0 200 200" enable-background="new 0 0 200 200" xml:space="preserve">
<g>
	<circle fill="#EDEDED" cx="100" cy="100" r="75"/>
	<path fill="#E8E8E8" d="M100,25c41.421,0,75,33.579,75,75s-33.579,75-75,75"/>
	<polygon fill="#E4E0EE" points="90.41,87.029 87.256,87.029 10.353,152.337 10.353,156.791 23.595,156.79 90.41,100.051 	"/>
	<polygon fill="#E4E0EE" points="136.41,74.029 133.256,74.029 56.353,139.337 56.353,143.791 69.595,143.79 136.41,87.051 	"/>
	<polygon fill="#E4E0EE" points="151.41,96.029 148.256,96.029 71.353,161.337 71.353,165.791 84.595,165.79 151.41,109.051 	"/>
	<g id="Notepad">
		
			<rect x="132.336" y="44.405" transform="matrix(-1.836970e-16 1 -1 -1.836970e-16 204.9741 -92.8879)" fill="#CCCCCC" width="33.19" height="23.276"/>
		<path fill="none" stroke="#999999" stroke-width="2" stroke-miterlimit="10" d="M159,73.069h-21c-1.105,0-2-0.895-2-2V39.724
			c0-1.105,0.895-2,2-2h21c1.105,0,2,0.895,2,2v31.345C161,72.174,160.105,73.069,159,73.069z"/>
		<line fill="none" stroke="#999999" stroke-width="2" stroke-miterlimit="10" x1="137.724" y1="45.052" x2="160.569" y2="45.052"/>
		<line fill="none" stroke="#999999" stroke-width="2" stroke-miterlimit="10" x1="137.724" y1="52.379" x2="160.569" y2="52.379"/>
		<line fill="none" stroke="#999999" stroke-width="2" stroke-miterlimit="10" x1="137.724" y1="59.276" x2="160.569" y2="59.276"/>
		<line fill="none" stroke="#999999" stroke-width="2" stroke-miterlimit="10" x1="137.724" y1="66.172" x2="160.569" y2="66.172"/>
		<g>
			<line fill="none" stroke="#555E65" stroke-width="2" stroke-miterlimit="10" x1="140.31" y1="36" x2="140.31" y2="39.879"/>
			<line fill="none" stroke="#555E65" stroke-width="2" stroke-miterlimit="10" x1="144.621" y1="36" x2="144.621" y2="39.879"/>
			<line fill="none" stroke="#555E65" stroke-width="2" stroke-miterlimit="10" x1="148.5" y1="36" x2="148.5" y2="39.879"/>
			<line fill="none" stroke="#555E65" stroke-width="2" stroke-miterlimit="10" x1="152.379" y1="36" x2="152.379" y2="39.879"/>
			<line fill="none" stroke="#555E65" stroke-width="2" stroke-miterlimit="10" x1="156.69" y1="36" x2="156.69" y2="39.879"/>
		</g>
		<g>
			<line fill="none" stroke="#FFFFFF" stroke-width="2" stroke-miterlimit="10" x1="139.448" y1="36" x2="139.448" y2="39.879"/>
			<line fill="none" stroke="#FFFFFF" stroke-width="2" stroke-miterlimit="10" x1="143.759" y1="36" x2="143.759" y2="39.879"/>
			<line fill="none" stroke="#FFFFFF" stroke-width="2" stroke-miterlimit="10" x1="147.638" y1="36" x2="147.638" y2="39.879"/>
			<line fill="none" stroke="#FFFFFF" stroke-width="2" stroke-miterlimit="10" x1="151.517" y1="36" x2="151.517" y2="39.879"/>
			<line fill="none" stroke="#FFFFFF" stroke-width="2" stroke-miterlimit="10" x1="155.828" y1="36" x2="155.828" y2="39.879"/>
		</g>
	</g>
	<g>
		<path fill="#336688" d="M142.307,141.407c-1.429,0-2.854-0.609-3.913-1.67L90.763,91.965l-1.703,1.551
			c-2.026,1.846-4.663,3.016-7.494,3.338l-6.185,9.033l-0.186,0.144c-0.987,0.767-2.263,1.189-3.59,1.189
			c-1.502,0-2.9-0.521-3.939-1.466l-17.494-15.93c-1.021-0.929-1.613-2.198-1.668-3.574c-0.055-1.366,0.43-2.666,1.361-3.66
			l0.156-0.166l9.882-5.614c0.385-2.599,1.681-5.005,3.706-6.85l9.516-8.665c2.025-1.845,4.661-3.015,7.493-3.337l6.186-9.034
			l0.186-0.144c0.987-0.767,2.263-1.189,3.591-1.189c1.501,0,2.9,0.521,3.939,1.466l17.493,15.93c1.02,0.927,1.611,2.195,1.667,3.57
			c0.055,1.367-0.428,2.667-1.359,3.664l-0.156,0.167l-9.88,5.613c-0.384,2.599-1.68,5.006-3.706,6.851l-1.215,1.106l52.241,43.191
			c1.171,0.967,1.86,2.298,1.894,3.652c0.027,1.164-0.429,2.233-1.283,3.012l-4.919,4.479
			C144.51,141.011,143.447,141.407,142.307,141.407z"/>
		<path fill="#FFFFFF" d="M90.58,49.092c1.073,0,2.146,0.362,2.929,1.075l17.493,15.929c1.484,1.351,1.581,3.647,0.222,5.1
			l-10.056,5.713c-0.091,0.048-0.191,0.088-0.288,0.128c-0.169,2.446-1.272,4.847-3.312,6.706l-2.494,2.27l53.577,44.295
			l-0.003-0.003c1.553,1.283,1.803,3.264,0.556,4.399l-4.919,4.478c-0.534,0.488-1.238,0.724-1.98,0.724
			c-0.99,0-2.046-0.421-2.851-1.229L90.812,89.89l-2.762,2.517c-2.041,1.859-4.678,2.864-7.362,3.017
			c-0.044,0.091-0.087,0.179-0.141,0.264l-6.272,9.158c-0.754,0.585-1.712,0.874-2.67,0.874c-1.073,0-2.146-0.362-2.929-1.076
			L51.182,88.716c-1.484-1.351-1.584-3.647-0.222-5.1l10.056-5.713c0.094-0.045,0.194-0.088,0.291-0.128
			c0.169-2.446,1.272-4.847,3.312-6.706l9.515-8.664c2.041-1.859,4.678-2.864,7.362-3.017c0.044-0.091,0.091-0.179,0.141-0.264
			l6.272-9.158C88.663,49.381,89.621,49.092,90.58,49.092 M90.58,46.092L90.58,46.092c-1.659,0-3.261,0.534-4.511,1.505l-0.37,0.288
			l-0.265,0.387l-5.678,8.292c-2.88,0.46-5.549,1.718-7.641,3.624l-9.515,8.664c-2.092,1.905-3.493,4.346-4.048,7.002l-9.073,5.154
			l-0.395,0.225l-0.311,0.332c-1.209,1.29-1.837,2.975-1.766,4.745c0.071,1.781,0.837,3.424,2.158,4.626l17.493,15.929
			c1.316,1.198,3.074,1.857,4.949,1.857c1.659,0,3.261-0.534,4.511-1.505l0.37-0.288l0.265-0.387l5.678-8.292
			c2.88-0.46,5.549-1.718,7.641-3.624l0.643-0.586l46.618,46.756c1.338,1.342,3.151,2.111,4.976,2.111
			c1.515,0,2.937-0.536,4.002-1.508l4.916-4.476c1.182-1.076,1.811-2.552,1.772-4.158c-0.043-1.789-0.932-3.529-2.438-4.773
			L99.651,85.904c2.058-1.898,3.437-4.317,3.986-6.947l9.069-5.152l0.397-0.226l0.312-0.333c1.208-1.291,1.834-2.977,1.763-4.748
			c-0.072-1.779-0.837-3.42-2.156-4.62L95.529,47.949C94.213,46.751,92.456,46.092,90.58,46.092L90.58,46.092L90.58,46.092z"/>
	</g>
	<path fill="#989898" d="M66.294,124.706l-9.176,16.824h18.353L66.294,124.706z M35.706,124.706l-9.176,16.824h18.353
		L35.706,124.706z M55.325,120.118c-0.454,1.291-1.505,2.342-2.796,2.796v30.851h14.529c0.43,0,0.765,0.335,0.765,0.765v1.529
		c0,0.43-0.335,0.765-0.765,0.765H34.941c-0.43,0-0.765-0.335-0.765-0.765v-1.529c0-0.43,0.335-0.765,0.765-0.765h14.529v-30.851
		c-1.291-0.454-2.342-1.505-2.796-2.796H34.941c-0.43,0-0.765-0.335-0.765-0.765v-1.529c0-0.43,0.335-0.765,0.765-0.765h11.734
		C47.32,115.266,48.993,114,51,114s3.68,1.266,4.325,3.059h11.734c0.43,0,0.765,0.335,0.765,0.765v1.529
		c0,0.43-0.335,0.765-0.765,0.765H55.325z M51,120.5c1.052,0,1.912-0.86,1.912-1.912c0-1.052-0.86-1.912-1.912-1.912
		s-1.912,0.86-1.912,1.912C49.088,119.64,49.948,120.5,51,120.5z M77,141.529c0,4.923-6.81,6.882-10.706,6.882
		c-3.895,0-10.706-1.959-10.706-6.882l0,0c0-0.931,8.34-15.701,9.368-17.564c0.263-0.479,0.789-0.789,1.338-0.789
		c0.549,0,1.075,0.31,1.338,0.789C68.66,125.83,77,140.598,77,141.529L77,141.529z M46.412,141.529c0,4.923-6.81,6.882-10.706,6.882
		S25,146.453,25,141.529l0,0c0-0.931,8.34-15.701,9.368-17.564c0.263-0.479,0.789-0.789,1.338-0.789c0.549,0,1.075,0.31,1.338,0.789
		C38.072,125.83,46.412,140.598,46.412,141.529z"/>
	<rect x="162" y="27" transform="matrix(0.7071 0.7071 -0.7071 0.7071 76.1974 -105.9569)" fill="#FFFFFF" width="8" height="24"/>
	<path fill="#CCAA55" d="M176.852,32.968l-4.774-4.774c-0.361-0.361-0.834-0.54-1.306-0.54c-0.473,0-0.944,0.18-1.305,0.54
		l-13.462,13.462c-0.361,0.361-0.687,0.895-0.923,1.462c-0.236,0.57-0.383,1.18-0.383,1.69v5.538h5.538
		c0.509,0,1.117-0.146,1.687-0.383c0.57-0.236,1.103-0.562,1.463-0.923l13.464-13.462c0.361-0.361,0.54-0.834,0.54-1.306
		C177.392,33.8,177.212,33.328,176.852,32.968z M158.106,43.037l10.206-10.206l1.516,1.516l-10.206,10.206L158.106,43.037z
		 M160.238,47.885h-1.846l-1.231-1.231v-1.846c0-0.095,0.041-0.375,0.194-0.745c0.012-0.025,3.651,3.616,3.651,3.616
		C160.611,47.844,160.333,47.885,160.238,47.885z M162.009,46.94l-1.516-1.516l10.206-10.206l1.516,1.516L162.009,46.94z
		 M173.085,35.864l-3.904-3.904l1.591-1.591l3.901,3.904L173.085,35.864z"/>
	<g>
		<g>
			<path fill="#CCAA55" d="M118.753,44.773c1.297-0.038,4.606-0.594,5.823-0.169c1.247,0.436,1.483,1.623,2.285,2.348
				c1.08,0.976,0.717,0.924,2.24,1.33c0.412,0.11,1.141-0.334,1.554-0.342c1.377,0.049,2.754,0.098,4.13,0.147
				c0.109,0.406,0.289,0.769,0.54,1.088c1.246,0.696,0.55,1.109,2.144,1.364c1.975,0.316,3.922-1.568,5.782-1.85
				c1.28-0.883,2.488-0.733,3.623,0.452c1.413,0.199,2.256,0.94,2.527,2.223c0.627,0.719,0.581,1.65,1.548,2.163
				c1.866,0.99,2.051-0.684,3.415-1.669c0.388-0.28,0.014-0.931-0.379-0.648c-3.442,2.483-4.076-2.487-6.285-3.68
				c-1.593-0.86-3.021-0.103-4.65,0.436c-1.195,0.395-2.619,1.401-3.838,1.454c-2.107,0.091-2.843-1.905-4.403-2.683
				c-1.894-0.945-3.302-0.037-5.546-0.611c-2.562-0.656-1.992-1.312-3.762-2.183c-1.584-0.78-5.135,0.035-6.75,0.082
				C118.271,44.036,118.269,44.787,118.753,44.773L118.753,44.773z"/>
		</g>
	</g>
	<g>
		<g>
			<path fill="#CCAA55" d="M117.753,49.773c1.297-0.038,4.606-0.594,5.823-0.169c1.247,0.436,1.483,1.623,2.285,2.348
				c1.08,0.976,0.717,0.924,2.24,1.33c0.412,0.11,1.141-0.334,1.554-0.342c1.377,0.049,2.754,0.098,4.13,0.147
				c0.109,0.406,0.289,0.769,0.54,1.088c1.246,0.696,0.55,1.109,2.144,1.364c1.975,0.316,3.922-1.568,5.782-1.85
				c1.28-0.883,2.488-0.733,3.623,0.452c1.413,0.199,2.256,0.94,2.527,2.223c0.627,0.719,0.581,1.65,1.548,2.163
				c1.866,0.99,2.051-0.684,3.415-1.669c0.388-0.28,0.014-0.931-0.379-0.648c-3.442,2.483-4.076-2.487-6.285-3.68
				c-1.593-0.86-3.021-0.103-4.65,0.436c-1.195,0.395-2.619,1.401-3.838,1.454c-2.107,0.091-2.843-1.905-4.403-2.683
				c-1.894-0.945-3.302-0.037-5.546-0.611c-2.562-0.656-1.992-1.312-3.762-2.183c-1.584-0.78-5.135,0.035-6.75,0.082
				C117.271,49.036,117.269,49.787,117.753,49.773L117.753,49.773z"/>
		</g>
	</g>
	<g>
		<g>
			<path fill="#CCAA55" d="M116.753,54.773c1.297-0.038,4.606-0.594,5.823-0.169c1.247,0.436,1.483,1.623,2.285,2.348
				c1.08,0.976,0.717,0.924,2.24,1.33c0.412,0.11,1.141-0.334,1.554-0.342c1.377,0.049,2.754,0.098,4.13,0.147
				c0.109,0.406,0.289,0.769,0.54,1.088c1.246,0.696,0.55,1.109,2.144,1.364c1.975,0.316,3.922-1.568,5.782-1.85
				c1.28-0.883,2.488-0.733,3.623,0.452c1.413,0.199,2.256,0.94,2.527,2.223c0.627,0.719,0.581,1.65,1.548,2.163
				c1.866,0.99,2.051-0.684,3.415-1.669c0.388-0.28,0.014-0.931-0.379-0.648c-3.442,2.483-4.076-2.487-6.285-3.68
				c-1.593-0.86-3.021-0.103-4.65,0.436c-1.195,0.395-2.619,1.401-3.838,1.454c-2.107,0.091-2.843-1.905-4.403-2.683
				c-1.894-0.945-3.302-0.037-5.546-0.611c-2.562-0.656-1.992-1.312-3.762-2.183c-1.584-0.78-5.135,0.035-6.75,0.082
				C116.271,54.036,116.269,54.787,116.753,54.773L116.753,54.773z"/>
		</g>
	</g>
	<line fill="#EEEEEE" stroke="#FFFFFF" stroke-miterlimit="10" x1="59.5" y1="76.5" x2="81.5" y2="96.5"/>
	<line fill="#EEEEEE" stroke="#FFFFFF" stroke-miterlimit="10" x1="80.5" y1="58.5" x2="102.5" y2="78.5"/>
</g>
</svg>
