<?xml version="1.0" encoding="utf-8"?>
<!-- Generator: Adobe Illustrator 20.1.0, SVG Export Plug-In . SVG Version: 6.00 Build 0)  -->
<svg version="1.1" id="Layer_1" xmlns="http://www.w3.org/2000/svg" xmlns:xlink="http://www.w3.org/1999/xlink" x="0px" y="0px"
	 viewBox="0 0 266.9 122.7" style="enable-background:new 0 0 266.9 122.7;" xml:space="preserve">
<style type="text/css">
	.st0{display:none;}
	.st1{fill:#FFFFFF;}
	.st2{fill:none;stroke:#FFFFFF;stroke-width:0.7;stroke-linejoin:round;stroke-miterlimit:10;}
	.st3{fill:none;stroke:#FFFFFF;stroke-width:1.25;stroke-linejoin:round;stroke-miterlimit:10;}
	.st4{fill:none;stroke:#FFFFFF;stroke-width:1.25;stroke-miterlimit:10;}
	.st5{fill:none;stroke:#FFFFFF;stroke-width:3;stroke-miterlimit:10;}
	.st6{fill:none;stroke:#FFFFFF;stroke-linejoin:round;stroke-miterlimit:10;}
</style>
<g id="wordmark">
</g>
<g id="tagline" class="st0">
</g>
<g id="graphic-outter">
	<g>
		<path class="st1" d="M93,49.5c-0.1,0.5-0.2,0.9-0.3,1.2c-0.1,0.3-0.2,0.6-0.3,0.8c-0.1,0.2-0.3,0.3-0.4,0.4
			c-0.1,0.1-0.3,0.1-0.4,0.1H75.1c-0.6,0-1-0.2-1.3-0.5s-0.4-0.9-0.3-1.6l5.5-28.5c0.1-0.7,0.4-1.3,0.9-1.6c0.4-0.3,0.9-0.5,1.5-0.5
			h16.3c0.2,0,0.3,0,0.4,0.1s0.2,0.2,0.2,0.4s0.1,0.5,0,0.8c0,0.3-0.1,0.7-0.2,1.3c-0.1,0.5-0.2,0.9-0.3,1.2
			c-0.1,0.3-0.2,0.6-0.3,0.8c-0.1,0.2-0.3,0.4-0.4,0.4c-0.1,0.1-0.3,0.1-0.4,0.1H85.1l-1.5,8h9.9c0.2,0,0.3,0,0.4,0.1
			c0.1,0.1,0.2,0.2,0.2,0.4c0,0.2,0.1,0.5,0,0.8c0,0.3-0.1,0.7-0.2,1.2c-0.1,0.5-0.2,0.9-0.3,1.2c-0.1,0.3-0.2,0.6-0.3,0.8
			c-0.1,0.2-0.3,0.3-0.4,0.4c-0.1,0.1-0.3,0.1-0.4,0.1h-9.9l-1.8,9.2h11.8c0.2,0,0.3,0,0.4,0.1c0.1,0.1,0.2,0.2,0.2,0.4
			c0,0.2,0.1,0.5,0,0.8C93.2,48.6,93.1,49,93,49.5z"/>
		<path class="st1" d="M120.2,51.2c0,0.2-0.1,0.3-0.2,0.4c-0.1,0.1-0.3,0.2-0.6,0.3c-0.3,0.1-0.6,0.1-1,0.2c-0.4,0-0.9,0.1-1.5,0.1
			c-0.6,0-1.1,0-1.5-0.1c-0.4,0-0.7-0.1-0.9-0.2c-0.2-0.1-0.4-0.2-0.4-0.3c-0.1-0.1-0.1-0.3-0.1-0.4l2.5-12.9c0.2-1.1,0.3-2,0.3-2.6
			c0-0.6-0.2-1.2-0.4-1.6c-0.2-0.4-0.5-0.8-1-1c-0.4-0.2-1-0.4-1.6-0.4c-0.8,0-1.7,0.3-2.6,0.9c-0.9,0.6-2,1.5-3.1,2.6l-2.9,15
			c0,0.2-0.1,0.3-0.2,0.4c-0.1,0.1-0.3,0.2-0.6,0.3c-0.3,0.1-0.6,0.1-1,0.2c-0.4,0-0.9,0.1-1.6,0.1c-0.6,0-1.1,0-1.5-0.1
			c-0.4,0-0.7-0.1-0.9-0.2c-0.2-0.1-0.4-0.2-0.5-0.3c-0.1-0.1-0.1-0.3-0.1-0.4l4.4-22.5c0-0.2,0.1-0.3,0.2-0.4
			c0.1-0.1,0.3-0.2,0.5-0.3s0.5-0.1,0.9-0.2c0.4,0,0.8-0.1,1.3-0.1c0.5,0,1,0,1.3,0.1s0.6,0.1,0.8,0.2s0.3,0.2,0.4,0.3
			c0.1,0.1,0.1,0.3,0,0.4l-0.5,2.6c1.5-1.3,3-2.4,4.4-3c1.4-0.7,2.8-1,4.2-1c1.5,0,2.8,0.3,3.7,0.8c1,0.5,1.7,1.2,2.2,2.1
			c0.5,0.9,0.8,1.9,0.8,3c0.1,1.2-0.1,2.6-0.4,4.2L120.2,51.2z"/>
		<path class="st1" d="M151.4,30.2c-0.2,0.8-0.4,1.4-0.6,1.8c-0.3,0.4-0.5,0.6-0.8,0.6h-2.7c0.3,0.4,0.5,0.9,0.5,1.4
			c0.1,0.5,0,1-0.1,1.6c-0.3,1.3-0.7,2.5-1.3,3.5c-0.6,1-1.4,1.9-2.4,2.6c-1,0.7-2,1.2-3.3,1.6c-1.2,0.4-2.5,0.5-4,0.5
			c-0.7,0-1.4-0.1-2-0.3c-0.6-0.2-1.1-0.4-1.4-0.6c-0.2,0.2-0.5,0.5-0.7,0.8c-0.2,0.3-0.4,0.6-0.4,1c-0.1,0.5,0,0.9,0.4,1.2
			c0.4,0.3,0.9,0.5,1.7,0.5l5.4,0.2c1.3,0,2.4,0.2,3.3,0.5c0.9,0.3,1.7,0.8,2.3,1.3c0.6,0.6,1,1.2,1.2,2c0.2,0.8,0.2,1.7,0,2.7
			c-0.2,1.1-0.7,2.2-1.3,3.1c-0.7,1-1.6,1.8-2.7,2.6c-1.1,0.7-2.5,1.3-4,1.7c-1.6,0.4-3.3,0.6-5.3,0.6c-1.9,0-3.5-0.2-4.8-0.5
			c-1.3-0.3-2.3-0.7-3.1-1.3c-0.8-0.5-1.3-1.2-1.5-1.9c-0.3-0.8-0.3-1.6-0.1-2.5c0.1-0.6,0.3-1.1,0.5-1.6c0.2-0.5,0.5-1,0.9-1.5
			c0.4-0.5,0.8-0.9,1.3-1.3c0.5-0.4,1-0.8,1.6-1.2c-0.6-0.4-1.1-0.9-1.4-1.6s-0.3-1.4-0.2-2.2c0.2-1,0.6-1.9,1.2-2.7
			c0.6-0.8,1.3-1.6,2.2-2.2c-0.5-0.6-0.8-1.3-1-2.1c-0.2-0.8-0.2-1.9,0.1-3.1c0.3-1.3,0.7-2.5,1.4-3.5c0.7-1,1.5-1.9,2.4-2.6
			c1-0.7,2.1-1.3,3.3-1.6c1.2-0.4,2.5-0.6,3.9-0.6c0.7,0,1.4,0,2,0.1c0.6,0.1,1.2,0.2,1.7,0.4h7.2c0.3,0,0.5,0.2,0.6,0.6
			C151.6,28.7,151.6,29.4,151.4,30.2z M140.2,53.6c0.1-0.8,0-1.3-0.6-1.7c-0.5-0.4-1.3-0.6-2.4-0.7l-4.5-0.1
			c-0.5,0.3-0.9,0.6-1.2,0.9c-0.3,0.3-0.6,0.6-0.8,0.8c-0.2,0.3-0.4,0.5-0.5,0.8c-0.1,0.3-0.2,0.5-0.2,0.8c-0.2,0.8,0.1,1.5,0.9,1.9
			s1.9,0.7,3.5,0.7c1,0,1.8-0.1,2.5-0.3s1.3-0.5,1.7-0.8c0.5-0.3,0.8-0.7,1.1-1.1C139.9,54.4,140.1,54,140.2,53.6z M142.2,35.6
			c0.2-1.2,0.1-2.2-0.5-2.8c-0.5-0.7-1.4-1-2.7-1c-0.6,0-1.2,0.1-1.7,0.3c-0.5,0.2-1,0.5-1.3,0.9c-0.4,0.4-0.7,0.8-0.9,1.3
			c-0.2,0.5-0.4,1-0.5,1.5c-0.2,1.1-0.1,2.1,0.5,2.7c0.5,0.7,1.4,1,2.6,1c0.6,0,1.2-0.1,1.7-0.3c0.5-0.2,1-0.5,1.3-0.8
			s0.7-0.8,0.9-1.2C141.9,36.6,142.1,36.1,142.2,35.6z"/>
		<path class="st1" d="M170.4,51.3c0,0.2-0.2,0.4-0.4,0.6c-0.2,0.1-0.5,0.2-0.9,0.3c-0.4,0.1-0.9,0.1-1.6,0.1c-0.8,0-1.3,0-1.6-0.1
			c-0.3-0.1-0.6-0.2-0.7-0.3c-0.1-0.1-0.2-0.3-0.1-0.6l0.3-1.8c-1.1,1-2.3,1.8-3.6,2.3s-2.7,0.8-4.1,0.8c-1.2,0-2.3-0.2-3.2-0.5
			c-0.9-0.3-1.7-0.8-2.3-1.4c-0.6-0.6-1-1.4-1.3-2.3c-0.2-0.9-0.2-2,0-3.2c0.3-1.3,0.7-2.5,1.4-3.4c0.7-1,1.6-1.8,2.8-2.4
			c1.1-0.6,2.5-1.1,4.1-1.4c1.6-0.3,3.4-0.5,5.4-0.5h2.2l0.3-1.4c0.1-0.7,0.2-1.3,0.1-1.9c0-0.5-0.2-1-0.5-1.3
			c-0.3-0.4-0.6-0.6-1.2-0.8c-0.5-0.2-1.2-0.3-2-0.3c-1.1,0-2,0.1-2.9,0.4c-0.9,0.2-1.7,0.5-2.4,0.8s-1.3,0.5-1.8,0.8
			c-0.5,0.2-0.8,0.4-1.1,0.4c-0.2,0-0.3-0.1-0.5-0.2c-0.1-0.1-0.2-0.3-0.3-0.5c-0.1-0.2-0.1-0.5-0.1-0.8c0-0.3,0.1-0.7,0.1-1.1
			c0.1-0.5,0.2-0.9,0.4-1.2s0.4-0.6,0.6-0.8c0.3-0.2,0.7-0.5,1.4-0.8c0.6-0.3,1.4-0.6,2.2-0.8c0.8-0.3,1.7-0.5,2.7-0.6
			c1-0.2,1.9-0.2,2.9-0.2c1.8,0,3.2,0.2,4.4,0.5c1.2,0.3,2.1,0.9,2.8,1.6c0.7,0.7,1.1,1.6,1.2,2.8c0.2,1.1,0.1,2.5-0.2,4L170.4,51.3
			z M166,41.6h-2.4c-1,0-1.9,0.1-2.7,0.2c-0.8,0.2-1.4,0.4-1.9,0.7c-0.5,0.3-0.9,0.7-1.2,1.1c-0.3,0.4-0.5,0.9-0.6,1.5
			c-0.2,0.9,0,1.7,0.5,2.2c0.5,0.5,1.3,0.8,2.3,0.8c0.9,0,1.8-0.2,2.6-0.7c0.8-0.5,1.7-1.1,2.7-2L166,41.6z"/>
		<path class="st1" d="M201.6,30.2c-0.2,0.8-0.4,1.4-0.6,1.8c-0.3,0.4-0.5,0.6-0.8,0.6h-2.7c0.3,0.4,0.5,0.9,0.5,1.4
			c0.1,0.5,0,1-0.1,1.6c-0.3,1.3-0.7,2.5-1.3,3.5c-0.6,1-1.4,1.9-2.4,2.6c-1,0.7-2,1.2-3.3,1.6c-1.2,0.4-2.5,0.5-4,0.5
			c-0.7,0-1.4-0.1-2-0.3c-0.6-0.2-1.1-0.4-1.4-0.6c-0.2,0.2-0.5,0.5-0.7,0.8c-0.2,0.3-0.4,0.6-0.4,1c-0.1,0.5,0,0.9,0.4,1.2
			c0.4,0.3,0.9,0.5,1.7,0.5l5.4,0.2c1.3,0,2.4,0.2,3.3,0.5c0.9,0.3,1.7,0.8,2.3,1.3s1,1.2,1.2,2c0.2,0.8,0.2,1.7,0,2.7
			c-0.2,1.1-0.7,2.2-1.3,3.1c-0.7,1-1.6,1.8-2.7,2.6c-1.1,0.7-2.5,1.3-4,1.7c-1.6,0.4-3.3,0.6-5.3,0.6c-1.9,0-3.5-0.2-4.8-0.5
			c-1.3-0.3-2.3-0.7-3.1-1.3c-0.8-0.5-1.3-1.2-1.5-1.9c-0.3-0.8-0.3-1.6-0.1-2.5c0.1-0.6,0.3-1.1,0.5-1.6c0.2-0.5,0.5-1,0.9-1.5
			c0.4-0.5,0.8-0.9,1.3-1.3c0.5-0.4,1-0.8,1.6-1.2c-0.6-0.4-1.1-0.9-1.4-1.6s-0.3-1.4-0.2-2.2c0.2-1,0.6-1.9,1.2-2.7
			c0.6-0.8,1.3-1.6,2.2-2.2c-0.5-0.6-0.8-1.3-1-2.1c-0.2-0.8-0.2-1.9,0.1-3.1c0.3-1.3,0.7-2.5,1.4-3.5c0.7-1,1.5-1.9,2.4-2.6
			s2.1-1.3,3.3-1.6c1.2-0.4,2.5-0.6,3.9-0.6c0.7,0,1.4,0,2,0.1c0.6,0.1,1.2,0.2,1.7,0.4h7.2c0.3,0,0.5,0.2,0.6,0.6
			C201.8,28.7,201.8,29.4,201.6,30.2z M190.4,53.6c0.1-0.8,0-1.3-0.6-1.7c-0.5-0.4-1.3-0.6-2.4-0.7L183,51c-0.5,0.3-0.9,0.6-1.2,0.9
			c-0.3,0.3-0.6,0.6-0.8,0.8c-0.2,0.3-0.4,0.5-0.5,0.8c-0.1,0.3-0.2,0.5-0.2,0.8c-0.2,0.8,0.1,1.5,0.9,1.9s1.9,0.7,3.5,0.7
			c1,0,1.8-0.1,2.5-0.3c0.7-0.2,1.3-0.5,1.7-0.8c0.5-0.3,0.8-0.7,1.1-1.1C190.2,54.4,190.4,54,190.4,53.6z M192.4,35.6
			c0.2-1.2,0.1-2.2-0.5-2.8c-0.5-0.7-1.4-1-2.7-1c-0.6,0-1.2,0.1-1.7,0.3c-0.5,0.2-1,0.5-1.3,0.9c-0.4,0.4-0.7,0.8-0.9,1.3
			c-0.2,0.5-0.4,1-0.5,1.5c-0.2,1.1-0.1,2.1,0.5,2.7s1.4,1,2.6,1c0.6,0,1.2-0.1,1.7-0.3s1-0.5,1.3-0.8s0.7-0.8,0.9-1.2
			C192.2,36.6,192.3,36.1,192.4,35.6z"/>
		<path class="st1" d="M224.9,39.3c-0.1,0.8-0.4,1.3-0.9,1.7c-0.4,0.4-0.9,0.6-1.5,0.6h-13.7c-0.2,1-0.2,1.8-0.2,2.6
			c0.1,0.8,0.3,1.5,0.7,2c0.4,0.5,0.9,1,1.7,1.3s1.6,0.4,2.7,0.4c1.1,0,2.1-0.1,3-0.2c0.9-0.2,1.6-0.3,2.3-0.5
			c0.7-0.2,1.2-0.4,1.6-0.5c0.4-0.2,0.8-0.2,1-0.2c0.2,0,0.3,0,0.4,0.1c0.1,0.1,0.2,0.2,0.2,0.3c0,0.2,0,0.4,0,0.6s-0.1,0.6-0.2,1
			c-0.1,0.4-0.1,0.7-0.2,0.9c-0.1,0.3-0.1,0.5-0.2,0.7c-0.1,0.2-0.2,0.3-0.2,0.5s-0.2,0.2-0.3,0.4s-0.5,0.3-1,0.5
			c-0.5,0.2-1.2,0.4-2,0.6s-1.7,0.4-2.7,0.5c-1,0.1-2.1,0.2-3.2,0.2c-2,0-3.7-0.3-5.1-0.8c-1.4-0.5-2.5-1.3-3.3-2.3
			s-1.3-2.3-1.5-3.9c-0.2-1.6-0.1-3.4,0.3-5.5c0.4-2,1-3.8,1.8-5.4c0.8-1.6,1.9-3,3.1-4.1c1.2-1.1,2.6-2,4.1-2.6
			c1.5-0.6,3.2-0.9,5-0.9c1.9,0,3.4,0.3,4.7,0.8c1.2,0.6,2.2,1.3,2.9,2.3c0.7,1,1.1,2.2,1.2,3.5c0.1,1.3,0.1,2.8-0.2,4.4L224.9,39.3
			z M219.1,37.5c0.4-1.8,0.3-3.2-0.3-4.2s-1.7-1.5-3.3-1.5c-0.8,0-1.5,0.2-2.2,0.5c-0.7,0.3-1.2,0.7-1.7,1.2
			c-0.5,0.5-0.9,1.1-1.3,1.8c-0.3,0.7-0.6,1.4-0.8,2.2H219.1z"/>
	</g>
	<g>
		<path class="st1" d="M107.2,90c0,0.4,0,0.7,0,1s-0.1,0.5-0.1,0.7s-0.1,0.4-0.2,0.5s-0.2,0.3-0.4,0.5s-0.5,0.4-1,0.7
			s-1.1,0.6-1.8,0.8s-1.5,0.5-2.4,0.6s-1.9,0.3-3,0.3c-2.1,0-4-0.3-5.6-1s-3.1-1.6-4.3-2.9s-2.1-2.9-2.7-4.8s-0.9-4.1-0.9-6.7
			c0-2.6,0.3-4.9,1-6.9s1.6-3.7,2.9-5s2.7-2.4,4.4-3.1s3.6-1.1,5.7-1.1c0.8,0,1.7,0.1,2.4,0.2s1.5,0.3,2.2,0.6s1.3,0.5,1.8,0.8
			s0.9,0.6,1.1,0.8s0.4,0.4,0.4,0.5s0.1,0.3,0.2,0.5s0.1,0.5,0.1,0.8s0,0.7,0,1.1c0,0.5,0,0.9,0,1.2s-0.1,0.6-0.2,0.8
			s-0.2,0.4-0.3,0.4s-0.2,0.1-0.4,0.1c-0.2,0-0.5-0.1-0.9-0.4s-0.8-0.6-1.4-0.9s-1.2-0.6-2-0.9s-1.7-0.4-2.8-0.4
			c-1.2,0-2.3,0.2-3.2,0.7s-1.8,1.2-2.4,2.1s-1.2,2-1.5,3.3s-0.5,2.8-0.5,4.4c0,1.8,0.2,3.3,0.6,4.6s0.9,2.4,1.6,3.2
			s1.5,1.5,2.5,1.9s2,0.6,3.2,0.6c1.1,0,2-0.1,2.8-0.4s1.5-0.5,2.1-0.9s1-0.6,1.4-0.8s0.7-0.4,0.9-0.4c0.2,0,0.3,0,0.4,0.1
			s0.2,0.2,0.2,0.4s0.1,0.4,0.1,0.8S107.2,89.4,107.2,90z"/>
		<path class="st1" d="M135,93.7c0,0.2-0.1,0.3-0.2,0.4s-0.3,0.2-0.5,0.3s-0.5,0.1-0.9,0.2s-0.9,0.1-1.5,0.1c-0.6,0-1.1,0-1.5-0.1
			s-0.7-0.1-0.9-0.2s-0.4-0.2-0.5-0.3s-0.2-0.3-0.2-0.4V81.5h-11.3v12.3c0,0.2,0,0.3-0.1,0.4s-0.3,0.2-0.5,0.3s-0.5,0.1-0.9,0.2
			s-0.9,0.1-1.5,0.1c-0.6,0-1.1,0-1.5-0.1s-0.7-0.1-0.9-0.2s-0.4-0.2-0.5-0.3s-0.2-0.3-0.2-0.4V65.1c0-0.2,0.1-0.3,0.2-0.4
			s0.3-0.2,0.5-0.3s0.6-0.1,0.9-0.2s0.9-0.1,1.5-0.1c0.6,0,1.1,0,1.5,0.1s0.7,0.1,0.9,0.2s0.4,0.2,0.5,0.3s0.1,0.3,0.1,0.4v11.1
			h11.3V65.1c0-0.2,0.1-0.3,0.2-0.4s0.3-0.2,0.5-0.3s0.5-0.1,0.9-0.2s0.9-0.1,1.5-0.1c0.6,0,1.1,0,1.5,0.1s0.7,0.1,0.9,0.2
			s0.4,0.2,0.5,0.3s0.2,0.3,0.2,0.4V93.7z"/>
		<path class="st1" d="M147.6,93.7c0,0.2-0.1,0.3-0.2,0.4s-0.3,0.2-0.5,0.3s-0.5,0.1-0.9,0.2s-0.9,0.1-1.5,0.1c-0.6,0-1.1,0-1.5-0.1
			s-0.7-0.1-0.9-0.2s-0.4-0.2-0.5-0.3s-0.2-0.3-0.2-0.4V65.1c0-0.2,0.1-0.3,0.2-0.4s0.3-0.2,0.5-0.3s0.6-0.1,0.9-0.2
			s0.9-0.1,1.5-0.1c0.6,0,1.1,0,1.5,0.1s0.7,0.1,0.9,0.2s0.4,0.2,0.5,0.3s0.2,0.3,0.2,0.4L147.6,93.7L147.6,93.7z"/>
		<path class="st1" d="M174.9,90c0,0.4,0,0.7,0,1s-0.1,0.5-0.1,0.7s-0.1,0.4-0.2,0.5s-0.2,0.3-0.4,0.5s-0.5,0.4-1,0.7
			s-1.1,0.6-1.8,0.8s-1.5,0.5-2.4,0.6s-1.9,0.3-3,0.3c-2.1,0-4-0.3-5.6-1s-3.1-1.6-4.3-2.9c-1.2-1.3-2.1-2.9-2.7-4.8
			s-0.9-4.1-0.9-6.7c0-2.6,0.3-4.9,1-6.9s1.6-3.7,2.9-5s2.7-2.4,4.4-3.1s3.6-1.1,5.7-1.1c0.8,0,1.7,0.1,2.4,0.2s1.5,0.3,2.2,0.6
			s1.3,0.5,1.8,0.8s0.9,0.6,1.1,0.8s0.4,0.4,0.4,0.5s0.1,0.3,0.2,0.5s0.1,0.5,0.1,0.8s0,0.7,0,1.1c0,0.5,0,0.9,0,1.2
			s-0.1,0.6-0.2,0.8s-0.2,0.4-0.3,0.4s-0.2,0.1-0.4,0.1c-0.2,0-0.5-0.1-0.9-0.4s-0.8-0.6-1.4-0.9s-1.2-0.6-2-0.9s-1.7-0.4-2.8-0.4
			c-1.2,0-2.3,0.2-3.2,0.7s-1.8,1.2-2.4,2.1s-1.2,2-1.5,3.3s-0.5,2.8-0.5,4.4c0,1.8,0.2,3.3,0.6,4.6s0.9,2.4,1.6,3.2
			s1.5,1.5,2.5,1.9s2,0.6,3.2,0.6c1.1,0,2-0.1,2.8-0.4s1.5-0.5,2.1-0.9s1-0.6,1.4-0.8s0.7-0.4,0.9-0.4c0.2,0,0.3,0,0.4,0.1
			s0.2,0.2,0.2,0.4s0.1,0.4,0.1,0.8S174.9,89.4,174.9,90z"/>
		<path class="st1" d="M204,92.3c0.2,0.6,0.3,1,0.4,1.3s0,0.6-0.2,0.7s-0.5,0.3-0.9,0.3s-1,0.1-1.8,0.1c-0.8,0-1.4,0-1.9,0
			s-0.8-0.1-1-0.1s-0.4-0.2-0.5-0.3s-0.2-0.3-0.2-0.5l-2-6.1h-11.4l-1.9,5.9c-0.1,0.2-0.1,0.4-0.2,0.6s-0.3,0.3-0.5,0.4
			s-0.5,0.1-1,0.2s-1,0-1.6,0c-0.7,0-1.3,0-1.7-0.1s-0.7-0.2-0.8-0.3s-0.2-0.4-0.2-0.8s0.2-0.8,0.4-1.3l9.4-26.9
			c0.1-0.3,0.2-0.5,0.3-0.6s0.3-0.3,0.6-0.4s0.7-0.1,1.1-0.2s1.1,0,1.9,0c0.9,0,1.7,0,2.2,0s1,0.1,1.3,0.2s0.5,0.2,0.7,0.4
			s0.2,0.4,0.3,0.7L204,92.3z M190.1,70L190.1,70l-4.3,12.9h8.6L190.1,70z"/>
		<path class="st1" d="M231.7,68.9c0,0.5,0,0.8-0.1,1.2s-0.1,0.6-0.2,0.8s-0.2,0.3-0.3,0.4s-0.2,0.1-0.4,0.1c-0.2,0-0.5-0.1-1-0.4
			s-1.1-0.6-1.8-0.9s-1.6-0.6-2.7-0.9s-2.2-0.4-3.6-0.4c-1.5,0-2.8,0.3-4,0.8s-2.2,1.2-3,2.2s-1.5,2-1.9,3.4s-0.7,2.7-0.7,4.3
			c0,1.7,0.2,3.3,0.7,4.6s1.1,2.4,1.9,3.3s1.8,1.6,3,2s2.4,0.7,3.9,0.7c0.7,0,1.4-0.1,2-0.2s1.3-0.4,1.9-0.7v-7h-5.7
			c-0.3,0-0.5-0.2-0.7-0.5s-0.2-0.9-0.2-1.8c0-0.4,0-0.8,0.1-1.1s0.1-0.5,0.2-0.7s0.2-0.3,0.3-0.4s0.2-0.1,0.4-0.1H230
			c0.2,0,0.5,0,0.7,0.1s0.4,0.2,0.5,0.4s0.3,0.4,0.3,0.6s0.1,0.5,0.1,0.8v12.1c0,0.5-0.1,0.9-0.2,1.2s-0.5,0.6-1,0.8
			s-1.1,0.4-1.9,0.6s-1.5,0.4-2.3,0.6s-1.6,0.3-2.4,0.4s-1.6,0.1-2.5,0.1c-2.4,0-4.6-0.3-6.5-1s-3.5-1.7-4.9-3s-2.3-2.9-3-4.8
			s-1.1-4.1-1.1-6.5c0-2.5,0.4-4.7,1.1-6.7s1.8-3.7,3.2-5s3-2.4,5-3.2s4.1-1.1,6.5-1.1c1.3,0,2.5,0.1,3.6,0.3s2,0.4,2.8,0.7
			s1.5,0.5,2,0.8s0.9,0.6,1.1,0.8s0.4,0.5,0.5,0.9S231.7,68.2,231.7,68.9z"/>
		<path class="st1" d="M265,79.1c0,2.5-0.3,4.8-0.9,6.8s-1.6,3.7-2.8,5.1c-1.2,1.4-2.8,2.4-4.6,3.2c-1.8,0.7-3.9,1.1-6.3,1.1
			c-2.4,0-4.4-0.3-6.2-0.9s-3.2-1.6-4.4-2.8c-1.2-1.3-2.1-2.9-2.6-4.8s-0.9-4.3-0.9-6.9c0-2.5,0.3-4.7,0.9-6.6s1.6-3.6,2.8-5
			c1.2-1.4,2.8-2.4,4.6-3.2s3.9-1.1,6.3-1.1c2.3,0,4.3,0.3,6.1,0.9s3.2,1.5,4.4,2.8s2.1,2.9,2.7,4.8S265,76.4,265,79.1z M258.5,79.4
			c0-1.6-0.1-3-0.4-4.3s-0.7-2.4-1.3-3.4s-1.4-1.6-2.4-2.2s-2.2-0.8-3.8-0.8c-1.5,0-2.8,0.3-3.8,0.9s-1.8,1.3-2.5,2.3
			s-1.1,2.1-1.3,3.3s-0.4,2.6-0.4,4c0,1.7,0.1,3.1,0.4,4.5s0.7,2.4,1.3,3.4s1.4,1.7,2.4,2.1s2.3,0.7,3.8,0.7s2.8-0.3,3.8-0.8
			s1.8-1.3,2.5-2.3s1.1-2.1,1.3-3.4S258.5,80.8,258.5,79.4z"/>
	</g>
	<polyline class="st2" points="64.4,63.2 64.4,67.4 64.4,79.1 	"/>
	<polyline class="st2" points="58.1,67.9 62.2,67.9 62.9,68.2 62.9,76.4 62.5,77.1 57.9,77.1 	"/>
	<line class="st2" x1="66.2" y1="78.9" x2="66.2" y2="72.6"/>
	<path class="st2" d="M61,66.5h5.1c0.4,0,0.7,0.3,0.7,0.7v5.5c0,0.4-0.3,0.8-0.8,0.7l-4.5,0c-0.4,0-0.7-0.3-0.7-0.7v-9.6"/>
	<path class="st2" d="M66.9,78.8l0-2.4c0,0,0-0.5,0.2-0.8c1-1,1.8-1.7,1.8-2.6l0-5.6c0-1.6-1.3-2.9-2.9-2.9h-7.8"/>
	<path class="st2" d="M60.1,65.8h6c0.8,0,1.4,0.6,1.4,1.4v5.6c0,0.7-0.6,1.3-1.3,1.3h-4.8c-0.7,0-1.3-0.6-1.3-1.3v-11"/>
	<path class="st2" d="M66.3,74.7h-5c-1,0-1.8-0.8-1.8-1.8l0-6.8l-1.2-0.9h7.7h0.2c1,0,2.1,1,2.1,2v-0.2v5.9
		C68.2,73.9,67.3,74.7,66.3,74.7z"/>
	<polygon class="st2" points="66.1,72.8 66.1,67.2 61.5,67.2 61.5,72.8 65.9,72.8 	"/>
	<path class="st3" d="M49.5,12.6l1.1,0c0.3,0,0.5,0.2,0.6,0.4l1.6,6.3l0.1,15.9c0,0.3,0,1.5,0.1,1.8c0.3,0.7,0.7,0.7,1.3,0.8
		c0.7,0,1.2,0.1,1.8,0.7c0.5,0.4,0.9,1.3,0.9,1.9V54c0,0.2,0.1,0.3,0.2,0.5l1.9,2.3c0.1,0.2,0.3,0.3,0.6,0.3l4.3,0
		c0.4,0,0.7,0.3,0.7,0.7v5.7"/>
	<path class="st3" d="M60,63.2v-8.6l-1.3-1.2l-1.9,0c-0.3,0-0.9-0.2-1.1-0.5l-0.9-1.2c-0.2-0.2-0.3-0.5-0.3-0.8v-8.9
		c-0.1-0.4-0.5-0.8-0.9-0.8h-6.7c-0.4,0-0.7-0.3-0.7-0.7l0-6.3c0-0.4-0.3-0.8-0.8-0.8H33.9"/>
	<path class="st3" d="M49.2,12.6H25c-0.6,0-1.1-0.4-1.3-0.9l-2-5.1"/>
	<path class="st3" d="M46.5,0.3l5.1,19.2l0.1,16.9c0,0.3,0,0.9,0.1,1.2c0.3,0.5,0.6,1.1,1.2,1.3c0.7,0.2,1.6,0,2.3,0.5
		c0.3,0.3,0.5,0.7,0.5,1.2v10.5c0,0.2,0.1,0.3,0.2,0.4l0.3,0.4c0.2,0.2,0.4,0.3,0.7,0.3h1.9c0.2,0,0.4,0.1,0.5,0.2l1.6,1.4
		c0.2,0.2,0.3,0.4,0.3,0.6v8.8"/>
	<path class="st3" d="M67.2,78.8V93c0,0.6,0,1,0.7,1.5l1.5,0.8c0.5,0.2,0.7,0.4,0.7,0.8v11.2v1.7c0,0.5,0.4,0.9,0.9,1.2h6.5"/>
	<line class="st4" x1="64.1" y1="121.6" x2="64.1" y2="78.8"/>
	<line class="st3" x1="5.8" y1="76.8" x2="58.3" y2="76.8"/>
	<path class="st3" d="M58.3,67.6h-2.2c-0.2,0-0.4-0.1-0.5-0.2L33.4,45.2c-0.1-0.1-0.2-0.3-0.2-0.5v-3.4c0-0.2-0.1-0.4-0.2-0.5
		L18.1,26c-0.1-0.1-0.3-0.2-0.5-0.2H0"/>
	<line class="st3" x1="9.9" y1="64.2" x2="58.3" y2="64.2"/>
	<path class="st3" d="M21.9,85.4h24.2c1.3,0,2.3-1,2.3-2.3v-17c0-0.4,0.3-0.7,0.7-0.7h9.2"/>
	<path class="st3" d="M29.9,108.7v-2.4c0-0.3,0.2-0.5,0.4-0.7l7.8-3.6c0.1,0,0.2-0.1,0.3-0.1H42c0.2,0,0.5-0.1,0.7-0.2l0.4-0.3
		c0.2-0.2,0.4-0.5,0.4-0.8v-3.9c0-0.2,0.1-0.4,0.2-0.6l0.6-0.9c0.1-0.1,0.2-0.2,0.3-0.3l20.7-12.4c0.1-0.1,0.2-0.2,0.3-0.3l0.3-0.6
		c0-0.1,0.1-0.2,0.1-0.3V79v-0.2"/>
	<path class="st5" d="M57.1,0.3C62.9,31.7,76.2,89,96.7,121.9"/>
	<path class="st6" d="M51.8,110h8.8c0.4,0,0.7-0.2,0.9-0.5l0.7-1.3c0.2-0.5,0.6-0.8,1.1-0.8h6.7"/>
	<g id="the_loop">
	</g>
</g>
</svg>
