<?xml version="1.0" encoding="utf-8"?>
<!-- Generator: Adobe Illustrator 21.0.0, SVG Export Plug-In . SVG Version: 6.00 Build 0)  -->
<svg version="1.1" id="icons" xmlns="http://www.w3.org/2000/svg" xmlns:xlink="http://www.w3.org/1999/xlink" x="0px" y="0px" viewBox="0 0 200 200" enable-background="new 0 0 200 200" xml:space="preserve">
<g>
	<circle fill="#EDEDED" cx="96" cy="100" r="75"/>
	<path fill="#E8E8E8" d="M43.95,46.483c29.289-29.289,76.777-29.289,106.066,0s29.289,76.777,0,106.066"/>
	<polygon fill="#E4E0EE" points="139.763,115.438 139.763,112.285 74.454,35.381 70,35.381 70.001,48.624 126.74,115.438 	"/>
	<polygon fill="#E4E0EE" points="103.763,111.438 103.763,108.285 38.454,31.381 34,31.381 34.001,44.624 90.74,111.438 	"/>
	<polygon fill="#E4E0EE" points="92.763,136.438 92.763,133.285 27.454,56.381 23,56.381 23.001,69.624 79.74,136.438 	"/>
	<path fill="#998855" d="M120.969,140.964c2.03,0,2.03-3.093,0-3.093S118.94,140.964,120.969,140.964z M156.56,139.563
		c-1.909-2.489-3.769-5.026-5.944-7.297l-3.02,3.383c-2.657,3.02-7.418,2.947-10.003-0.145c-1.836-2.223-1.836-5.412,0.049-7.611
		l4.277-4.977c-1.498-0.773-3.31-0.507-4.929-0.507c-1.426,0-2.803,0.58-3.818,1.594l-3.818,3.818h-3.745v13.144
		c1.063,0,2.03-0.145,2.876,0.677l7.176,7.055c1.474,1.426,3.383,2.682,5.485,2.682c1.087,0,2.247-0.363,3.02-1.136
		c1.812,0.628,3.914-0.387,4.47-2.247c1.16,0.097,2.223-0.266,3.069-1.063c0.556-0.507,1.28-1.522,1.208-2.32
		c0.217,0.217,0.749,0.241,1.039,0.241C156.826,144.855,158.324,141.835,156.56,139.563z M160.402,140.964h2.32v-12.371h-2.247
		l-3.793-4.349c-1.015-1.16-2.537-1.836-4.083-1.836h-4.035c-1.353,0-2.657,0.604-3.528,1.619l-5.05,5.872
		c-0.894,1.063-0.894,2.561-0.024,3.624c1.377,1.643,3.914,1.667,5.34,0.073l4.663-5.267c1.112-1.232,3.141-0.073,2.633,1.498
		c0.918,1.063,1.909,2.102,2.803,3.165c1.208,1.498,2.368,3.069,3.552,4.59C159.702,138.549,160.257,139.709,160.402,140.964
		L160.402,140.964z M167.361,140.964c2.03,0,2.03-3.093,0-3.093S165.331,140.964,167.361,140.964z M172,127.047v15.464
		c0,0.846-0.701,1.546-1.546,1.546h-10.487c-0.87,2.102-2.779,3.503-5.002,3.818c-1.039,1.522-2.633,2.682-4.422,3.069
		c-1.329,1.692-3.479,2.706-5.63,2.561c-3.987,2.247-8.481,0.29-11.453-2.633l-6.935-6.814h-8.65c-0.846,0-1.546-0.701-1.546-1.546
		v-16.237c0-0.846,0.701-1.546,1.546-1.546h10.172c2.803-2.803,4.736-5.412,8.94-5.412h2.827c1.57,0,3.093,0.483,4.373,1.353
		c1.28-0.87,2.803-1.353,4.373-1.353h4.035c4.59,0,6.499,2.996,9.278,6.186h8.578C171.299,125.501,172,126.201,172,127.047z"/>
	<path fill="#989898" d="M52.046,52.4c-2.112,0.061-4.022,0.975-5.382,2.6h-2.721c-2.031,0-3.94-0.975-3.94-3.23
		c0-1.645-0.061-7.17,2.519-7.17c0.426,0,2.539,1.726,5.281,1.726c0.935,0,1.828-0.162,2.701-0.467
		c-0.061,0.447-0.101,0.894-0.101,1.34C50.402,49.048,50.99,50.876,52.046,52.4L52.046,52.4z M73.8,65.338
		c0,3.29-2.173,5.261-5.423,5.261H50.624c-3.25,0-5.423-1.97-5.423-5.261c0-4.591,1.076-11.638,7.027-11.638
		c0.691,0,3.21,2.823,7.271,2.823S66.08,53.7,66.77,53.7c5.951,0,7.027,7.048,7.027,11.638H73.8z M53.001,39.401
		c0,2.864-2.336,5.2-5.2,5.2s-5.2-2.336-5.2-5.2s2.336-5.2,5.2-5.2S53.001,36.537,53.001,39.401z M67.3,47.2
		c0,4.306-3.494,7.8-7.8,7.8s-7.8-3.494-7.8-7.8s3.494-7.8,7.8-7.8S67.3,42.894,67.3,47.2z M78.999,51.77
		c0,2.255-1.909,3.23-3.94,3.23h-2.721c-1.361-1.625-3.27-2.539-5.382-2.6c1.056-1.524,1.645-3.351,1.645-5.2
		c0-0.447-0.041-0.894-0.101-1.34c0.874,0.305,1.767,0.467,2.701,0.467c2.742,0,4.855-1.726,5.281-1.726
		C79.061,44.601,79,50.126,78.999,51.77L78.999,51.77z M76.399,39.401c0,2.864-2.336,5.2-5.2,5.2s-5.2-2.336-5.2-5.2
		s2.336-5.2,5.2-5.2S76.399,36.537,76.399,39.401z"/>
	<g>
		<g>
			<g>
				<g>
					<path fill="#FFFFFF" d="M115.392,66.178l11.086,11.394l-35.272,36.255l-11.085-11.394L115.392,66.178 M115.392,60.442
						l-2.867,2.947L77.253,99.644l-2.714,2.789l2.714,2.789l11.085,11.394l2.867,2.947l2.867-2.947l35.272-36.255l2.714-2.789
						l-2.714-2.789l-11.086-11.394L115.392,60.442L115.392,60.442z"/>
				</g>
			</g>
			<g>
				<g>
					<path fill="#FFFFFF" d="M125.335,44c0.99,0,1.98,0.388,2.735,1.165l18.851,19.377c1.511,1.553,1.511,4.071,0,5.623
						l-5.822,5.984c-2.085,2.143-4.818,3.215-7.551,3.215s-5.466-1.072-7.551-3.215l-9.22-9.477c-4.17-4.287-4.17-11.237,0-15.524
						l5.822-5.984C123.354,44.388,124.344,44,125.335,44 M125.335,40c-2.123,0-4.112,0.844-5.602,2.375l-5.822,5.984
						c-5.66,5.818-5.66,15.284,0,21.102l9.22,9.477c2.777,2.854,6.477,4.426,10.418,4.426c3.942,0,7.642-1.572,10.418-4.426
						l5.822-5.984c3.005-3.088,3.005-8.114,0-11.202l-18.851-19.377C129.447,40.844,127.457,40,125.335,40L125.335,40z"/>
				</g>
			</g>
			<g>
				<g>
					<path fill="#FFFFFF" d="M69.35,95.691c1.745,0,3.491,0.684,4.823,2.053l21.595,22.197c2.663,2.738,2.663,7.177,0,9.914
						L82.64,143.349C78.326,147.783,72.673,150,67.02,150c-5.653,0-11.307-2.217-15.62-6.651c-8.627-8.867-8.627-23.244,0-32.112
						l13.128-13.494C65.859,96.375,67.604,95.691,69.35,95.691 M69.35,91.691c-2.911,0-5.642,1.159-7.69,3.264l-13.128,13.494
						c-10.109,10.391-10.109,27.299,0,37.69C53.464,151.208,60.03,154,67.02,154s13.556-2.792,18.487-7.861l13.128-13.494
						c4.156-4.271,4.156-11.221,0-15.493L77.04,94.955C74.992,92.85,72.261,91.691,69.35,91.691L69.35,91.691z"/>
				</g>
			</g>
		</g>
		<g>
			<path fill="#336688" d="M115.392,74.967l2.534,2.605l-25.454,26.163c-0.7,0.719-1.834,0.719-2.534,0v0
				c-0.7-0.719-0.7-1.886,0-2.605L115.392,74.967 M115.392,66.178l-35.272,36.255l11.085,11.394l35.272-36.255L115.392,66.178
				L115.392,66.178z"/>
			<path fill="#336688" d="M125.335,51.143l15.771,16.211l-4.282,4.401c-0.875,0.899-2.038,1.395-3.276,1.395
				c-1.237,0-2.401-0.495-3.276-1.395l-9.22-9.477c-1.806-1.857-1.806-4.877,0-6.734L125.335,51.143 M125.335,44
				c-0.99,0-1.98,0.388-2.735,1.165l-5.822,5.984c-4.17,4.287-4.17,11.237,0,15.524l9.22,9.477c2.085,2.143,4.818,3.215,7.551,3.215
				c2.733,0,5.466-1.072,7.551-3.215l5.822-5.984c1.511-1.553,1.511-4.071,0-5.623L128.07,45.165
				C127.315,44.388,126.325,44,125.335,44L125.335,44z"/>
			<path fill="#336688" d="M95.768,119.941L74.172,97.744c-2.663-2.738-6.982-2.738-9.645,0l-13.128,13.494
				c-8.627,8.867-8.627,23.244,0,32.112s22.614,8.867,31.241,0l13.128-13.494C98.431,127.118,98.431,122.679,95.768,119.941z
				 M88.418,119.209c0.268,0.275,0.537,0.538,0.8,0.793c1.29,1.254,2.625,2.553,2.65,4.461c0.024,1.758-1.04,3.648-3.45,6.124
				L75.29,144.082l0.087-3.019l11.616-11.941c1.913-1.967,2.875-3.524,2.86-4.631c-0.013-0.983-0.776-1.774-2.02-2.984"/>
		</g>
	</g>
</g>
</svg>
