<?xml version="1.0" encoding="utf-8"?>
<!-- Generator: Adobe Illustrator 20.1.0, SVG Export Plug-In . SVG Version: 6.00 Build 0)  -->
<svg version="1.1" id="icons" xmlns="http://www.w3.org/2000/svg" xmlns:xlink="http://www.w3.org/1999/xlink" x="0px" y="0px" viewBox="0 0 200 200" style="enable-background:new 0 0 200 200;" xml:space="preserve">
<style type="text/css">
	.st0{fill:#EDEDED;}
	.st1{fill:#E8E8E8;}
	.st2{fill:#E4E0EE;}
	.st3{fill:#FFFFFF;}
	.st4{fill:#994411;}
	.st5{fill:#CCCCCC;}
	.st6{fill:#336688;stroke:#FFFFFF;stroke-width:3;stroke-miterlimit:10;}
	.st7{fill:#989898;}
	.st8{fill:#666666;}
	.st9{fill:#FFFFFF;stroke:#989898;stroke-width:3;stroke-miterlimit:10;}
	.st10{fill:#FFFFFF;stroke:#CCCCCC;stroke-width:3;stroke-miterlimit:10;}
	.st11{fill:#336688;}
	.st12{fill:#668700;stroke:#FFFFFF;stroke-miterlimit:10;}
	.st13{fill:none;stroke:#999999;stroke-width:2;stroke-miterlimit:10;}
	.st14{fill:none;stroke:#555E65;stroke-width:2;stroke-miterlimit:10;}
	.st15{fill:none;stroke:#FFFFFF;stroke-width:2;stroke-miterlimit:10;}
	.st16{fill:#CCAA55;}
	.st17{fill:#2A5775;stroke:#FFFFFF;stroke-width:3;stroke-miterlimit:10;}
	.st18{fill:#EEEEEE;stroke:#FFFFFF;stroke-miterlimit:10;}
	.st19{fill:#998855;}
	.st20{fill:none;stroke:#FFFFFF;stroke-width:4;stroke-miterlimit:10;}
	.st21{opacity:0.6;}
	.st22{fill:none;stroke:#FFFFFF;stroke-width:0.75;stroke-linecap:round;stroke-miterlimit:10;}
</style>
<g id="urban">
	<circle class="st0" cx="100" cy="100" r="75"/>
	<path class="st1" d="M58.761,37.282c34.501-22.922,81.051-13.535,103.973,20.966s13.535,81.051-20.966,103.973"/>
	<polygon class="st2" points="52.353,190.791 55.507,190.791 132.41,125.483 132.41,121.029 119.167,121.03 52.353,177.769 	"/>
	<polygon class="st2" points="44.353,164.791 47.507,164.791 124.41,99.483 124.41,95.029 111.167,95.03 44.353,151.769 	"/>
	<polygon class="st2" points="18.353,155.791 21.507,155.791 98.41,90.483 98.41,86.029 85.167,86.03 18.353,142.769 	"/>
</g>
<g>
	<g>
		<path class="st7" d="M70.9,150.773c-1.031,0-2.025,0.152-2.973,0.416l-3.375-8.799h6.617c1.077,0,1.953,0.876,1.953,1.953
			c0,1.077-0.876,1.953-1.953,1.953c-0.58,0-1.05,0.47-1.05,1.05c0,0.58,0.47,1.05,1.05,1.05c2.234,0,4.053-1.818,4.053-4.053
			s-1.818-4.053-4.053-4.053h-8.104c-0.003,0-0.006,0-0.01,0h-0.03c-0.019,0-0.038,0.005-0.057,0.006
			c-0.045,0.003-0.09,0.005-0.135,0.014c-0.038,0.007-0.074,0.019-0.111,0.03c-0.024,0.007-0.049,0.011-0.073,0.02
			c-0.005,0.002-0.009,0.005-0.014,0.007c-0.041,0.016-0.077,0.037-0.115,0.058c-0.024,0.013-0.048,0.024-0.071,0.039
			c-0.031,0.021-0.058,0.045-0.087,0.068c-0.024,0.02-0.051,0.038-0.073,0.061c-0.024,0.024-0.044,0.052-0.066,0.078
			c-0.021,0.025-0.044,0.049-0.063,0.075c-0.021,0.03-0.036,0.063-0.053,0.095c-0.015,0.027-0.032,0.053-0.044,0.081
			c-0.014,0.032-0.022,0.065-0.033,0.098c-0.01,0.032-0.023,0.064-0.03,0.097c-0.006,0.028-0.008,0.058-0.012,0.086
			c-0.005,0.041-0.012,0.081-0.012,0.122c0,0.005-0.001,0.01-0.001,0.016c0,0.026,0.006,0.05,0.008,0.075
			c0.003,0.039,0.005,0.077,0.012,0.115c0.007,0.04,0.02,0.078,0.032,0.116c0.007,0.023,0.01,0.046,0.019,0.07l1.624,4.233
			l-17.144,0.32l-1.739-5.503h3.551c0.58,0,1.05-0.47,1.05-1.05c0-0.58-0.47-1.05-1.05-1.05h-8.076c-0.58,0-1.05,0.47-1.05,1.05
			c0,0.58,0.47,1.05,1.05,1.05h2.323l1.958,6.2l-3.793,5.205c-1.658-0.986-3.586-1.563-5.65-1.563
			c-6.12,0.001-11.1,4.98-11.1,11.101c0,6.121,4.98,11.1,11.1,11.1c5.766,0,10.515-4.42,11.046-10.049h1.043
			c0.193,0.638,0.582,1.188,1.105,1.576l-0.61,2.051c-0.166,0.556,0.151,1.14,0.707,1.306c0.1,0.03,0.2,0.044,0.3,0.044
			c0.452,0,0.87-0.295,1.006-0.751l0.612-2.054c1.608-0.099,2.89-1.426,2.89-3.058c0-0.437-0.095-0.851-0.26-1.228l11.738-12.069
			l1.292,3.368c-3.649,1.821-6.167,5.582-6.167,9.929c0,6.121,4.98,11.1,11.1,11.1S82,167.993,82,161.873
			S77.02,150.773,70.9,150.773z M45.329,149.455l3.111,9.846c-0.503,0.33-0.904,0.8-1.144,1.357h-1.149
			c-0.271-2.878-1.65-5.432-3.7-7.249L45.329,149.455z M44.033,160.659h-6.868l4.039-5.544
			C42.737,156.535,43.777,158.476,44.033,160.659z M35.1,170.708c-4.962,0-9-4.037-9-9c0-4.963,4.037-9,9-9
			c1.603,0,3.106,0.426,4.411,1.164l-5.259,7.218c-0.233,0.32-0.266,0.742-0.087,1.094c0.179,0.353,0.541,0.574,0.936,0.574h8.933
			C43.51,167.228,39.706,170.708,35.1,170.708z M50.121,162.849c-0.539,0-0.977-0.438-0.977-0.977s0.438-0.977,0.977-0.977
			c0.539,0,0.977,0.438,0.977,0.977S50.659,162.849,50.121,162.849z M52.276,158.313l0.284-0.953
			c0.166-0.556-0.151-1.14-0.707-1.306c-0.556-0.168-1.14,0.151-1.306,0.707l-0.343,1.154l-3.019-9.556l15.046-0.281L52.276,158.313
			z M70.9,170.872c-4.962,0-9-4.037-9-9c0-3.454,1.958-6.455,4.82-7.963l3.198,8.339c0.16,0.418,0.558,0.674,0.981,0.674
			c0.125,0,0.252-0.022,0.376-0.07c0.541-0.208,0.812-0.815,0.604-1.357l-3.197-8.336c0.711-0.181,1.451-0.287,2.217-0.287
			c4.962,0,9,4.037,9,9C79.9,166.835,75.862,170.872,70.9,170.872z"/>
	</g>
</g>
<g>
	<g class="st21">
		<path class="st11" d="M108.38,110.979c-0.742,0-1.446-0.239-2.037-0.69l-6.971-5.333c-1.469-1.125-1.75-3.234-0.626-4.703
			l5.334-6.971c0.64-0.836,1.611-1.316,2.666-1.316c0.742,0,1.446,0.239,2.037,0.69l6.971,5.333c1.469,1.125,1.75,3.234,0.626,4.703
			l-5.334,6.971C110.406,110.5,109.435,110.979,108.38,110.979z"/>
		<path class="st3" d="M106.746,92.715c0.552,0,1.109,0.175,1.581,0.536l6.971,5.334c1.143,0.874,1.36,2.509,0.486,3.652
			l-5.334,6.971c-0.513,0.67-1.287,1.022-2.071,1.022c-0.552,0-1.109-0.175-1.581-0.536l-6.971-5.334
			c-1.143-0.874-1.36-2.509-0.486-3.652l5.334-6.971C105.188,93.067,105.963,92.715,106.746,92.715 M106.746,91.215L106.746,91.215
			c-1.29,0-2.479,0.587-3.262,1.611l-5.334,6.971c-1.375,1.798-1.032,4.379,0.766,5.754l6.971,5.334
			c0.722,0.553,1.584,0.845,2.492,0.845c1.29,0,2.479-0.587,3.262-1.611l5.334-6.971c0.666-0.871,0.954-1.949,0.809-3.036
			c-0.145-1.087-0.704-2.052-1.575-2.719l-6.971-5.334C108.516,91.507,107.654,91.215,106.746,91.215L106.746,91.215z"/>
	</g>
	<g>
		<path class="st11" d="M118.162,98.194c-0.742,0-1.446-0.239-2.037-0.691l-6.971-5.333c-0.712-0.544-1.169-1.333-1.287-2.222
			c-0.118-0.889,0.117-1.77,0.662-2.481l5.333-6.97c0.64-0.837,1.611-1.317,2.666-1.317c0.742,0,1.446,0.239,2.037,0.691
			l6.971,5.333c1.469,1.124,1.75,3.233,0.626,4.703l-5.334,6.971C120.188,97.714,119.217,98.194,118.162,98.194z"/>
		<path class="st3" d="M116.529,79.93c0.552,0,1.109,0.175,1.581,0.536l6.971,5.334c1.143,0.874,1.36,2.509,0.486,3.652
			l-5.334,6.971c-0.513,0.67-1.287,1.022-2.071,1.022c-0.552,0-1.109-0.175-1.581-0.536l-6.971-5.334
			c-1.143-0.874-1.36-2.509-0.486-3.652l5.334-6.971C114.971,80.282,115.745,79.93,116.529,79.93 M116.529,78.43L116.529,78.43
			c-1.29,0-2.479,0.587-3.262,1.611l-5.334,6.971c-0.666,0.871-0.954,1.949-0.809,3.036c0.145,1.087,0.704,2.052,1.575,2.719
			l6.971,5.334c0.722,0.553,1.584,0.845,2.492,0.845c1.29,0,2.479-0.587,3.262-1.611l5.334-6.971
			c0.666-0.871,0.954-1.949,0.809-3.036c-0.145-1.087-0.704-2.052-1.575-2.719l-6.971-5.334
			C118.299,78.722,117.437,78.43,116.529,78.43L116.529,78.43z"/>
	</g>
	<path class="st12" d="M105.324,70.684l6.971,5.334c1.143,0.874,1.36,2.509,0.486,3.652l-5.334,6.971
		c-0.874,1.143-2.509,1.36-3.652,0.486l-6.971-5.334c-1.143-0.874-1.36-2.509-0.486-3.652l5.334-6.971
		C102.547,70.027,104.182,69.809,105.324,70.684z"/>
	<g>
		<path class="st3" d="M81.176,73.15c0.552,0,1.109,0.175,1.581,0.536l6.971,5.334c1.143,0.874,1.36,2.509,0.486,3.652l-5.334,6.971
			c-0.513,0.67-1.287,1.022-2.071,1.022c-0.552,0-1.109-0.175-1.581-0.536l-6.971-5.334c-1.143-0.874-1.36-2.509-0.486-3.652
			l5.334-6.971C79.618,73.502,80.392,73.15,81.176,73.15 M81.176,71.65L81.176,71.65c-1.29,0-2.479,0.587-3.262,1.611l-5.334,6.971
			c-1.375,1.798-1.032,4.379,0.766,5.754l6.971,5.334c0.722,0.553,1.584,0.845,2.492,0.845c1.29,0,2.479-0.587,3.262-1.611
			l5.334-6.971c0.666-0.871,0.954-1.949,0.809-3.036c-0.145-1.087-0.704-2.052-1.575-2.719l-6.971-5.334
			C82.946,71.942,82.084,71.65,81.176,71.65L81.176,71.65z"/>
	</g>
	<g>
		<path class="st3" d="M129.314,89.712c0.552,0,1.109,0.175,1.581,0.536l6.971,5.334c1.142,0.874,1.36,2.509,0.486,3.652
			l-5.334,6.971c-0.513,0.67-1.287,1.022-2.071,1.022c-0.552,0-1.109-0.175-1.581-0.536l-6.971-5.334
			c-1.143-0.874-1.36-2.509-0.486-3.652l5.333-6.971C127.756,90.064,128.531,89.712,129.314,89.712 M129.314,88.212L129.314,88.212
			c-1.29,0-2.479,0.587-3.262,1.611l-5.333,6.971c-1.375,1.798-1.032,4.379,0.766,5.754l6.971,5.334
			c0.722,0.553,1.584,0.845,2.493,0.845c1.29,0,2.479-0.587,3.262-1.611l5.334-6.971c1.375-1.798,1.032-4.379-0.766-5.754
			l-6.971-5.334C131.084,88.505,130.222,88.212,129.314,88.212L129.314,88.212z"/>
	</g>
	<g>
		<path class="st11" d="M81.176,74.65L81.176,74.65c0.17,0,0.424,0.04,0.669,0.228l6.971,5.334c0.234,0.179,0.385,0.439,0.424,0.732
			c0.039,0.293-0.038,0.583-0.218,0.817l-5.334,6.971c-0.211,0.276-0.531,0.434-0.879,0.434c-0.17,0-0.424-0.039-0.669-0.228
			l-6.971-5.334c-0.484-0.37-0.576-1.065-0.206-1.549l5.334-6.971C80.507,74.808,80.828,74.65,81.176,74.65 M81.176,73.15
			c-0.783,0-1.558,0.352-2.071,1.022l-5.334,6.971c-0.874,1.143-0.657,2.777,0.486,3.652l6.971,5.334
			c0.472,0.361,1.029,0.536,1.581,0.536c0.783,0,1.558-0.352,2.071-1.022l5.334-6.971c0.874-1.143,0.657-2.777-0.486-3.652
			l-6.971-5.334C82.284,73.325,81.728,73.15,81.176,73.15L81.176,73.15z"/>
	</g>
	<g>
		<path class="st11" d="M129.314,91.212L129.314,91.212c0.17,0,0.423,0.039,0.669,0.228l6.971,5.334
			c0.484,0.37,0.576,1.065,0.206,1.549l-5.334,6.971c-0.211,0.276-0.531,0.434-0.879,0.434c-0.17,0-0.424-0.039-0.67-0.228
			l-6.971-5.334c-0.484-0.37-0.576-1.065-0.206-1.549l5.333-6.971C128.646,91.371,128.966,91.212,129.314,91.212 M129.314,89.712
			c-0.783,0-1.558,0.352-2.071,1.022l-5.333,6.971c-0.874,1.143-0.657,2.777,0.486,3.652l6.971,5.334
			c0.472,0.361,1.029,0.536,1.581,0.536c0.783,0,1.558-0.352,2.071-1.022l5.334-6.971c0.874-1.143,0.657-2.777-0.486-3.652
			l-6.971-5.334C130.423,89.887,129.866,89.712,129.314,89.712L129.314,89.712z"/>
	</g>
	<g>
		<path class="st11" d="M114.828,154.946c-0.741,0-1.446-0.239-2.037-0.691L93.454,139.46c-1.463-1.12-1.747-3.225-0.634-4.693
			l24.045-31.687c0.641-0.843,1.615-1.327,2.675-1.327c0.741,0,1.446,0.239,2.037,0.691l19.337,14.795
			c1.463,1.12,1.747,3.225,0.634,4.692l-24.045,31.687C116.863,154.462,115.888,154.946,114.828,154.946z"/>
		<path class="st3" d="M119.54,102.504c0.552,0,1.108,0.175,1.581,0.536l19.337,14.796c1.139,0.872,1.359,2.501,0.492,3.643
			l-24.045,31.686c-0.512,0.675-1.29,1.03-2.077,1.03c-0.552,0-1.108-0.175-1.581-0.536L93.91,138.864
			c-1.139-0.872-1.359-2.501-0.492-3.643l24.045-31.686C117.975,102.859,118.753,102.504,119.54,102.504 M119.54,101.004
			L119.54,101.004c-1.296,0-2.489,0.592-3.272,1.624l-24.045,31.686c-1.363,1.796-1.015,4.371,0.776,5.741l19.337,14.796
			c0.722,0.553,1.584,0.845,2.492,0.845c1.296,0,2.489-0.592,3.272-1.624l24.045-31.686c1.363-1.796,1.015-4.372-0.776-5.741
			l-19.337-14.796C121.31,101.296,120.448,101.004,119.54,101.004L119.54,101.004z"/>
	</g>
	<g>
		<path class="st11" d="M70.064,81.663c-0.741,0-1.446-0.239-2.037-0.69l-6.97-5.333c-0.722-0.552-1.18-1.353-1.291-2.254
			c-0.111-0.902,0.14-1.791,0.706-2.501l7.077-8.875c0.769-0.965,2.335-2.977,3.088-3.96l14.314-18.708
			c0.64-0.836,1.611-1.316,2.666-1.316c0.742,0,1.446,0.239,2.037,0.69l19.338,14.796c0.711,0.544,1.168,1.333,1.286,2.222
			s-0.117,1.77-0.661,2.481L95.304,76.922c-0.641,0.836-1.612,1.316-2.666,1.316l0,0c-0.742,0-1.446-0.239-2.037-0.69l-8.89-6.802
			c-0.188-0.145-0.414-0.221-0.651-0.221c-0.339,0-0.651,0.154-0.856,0.424l-0.427,0.562L72.69,80.4
			C72.049,81.203,71.093,81.663,70.064,81.663z"/>
		<path class="st3" d="M87.618,38.775c0.552,0,1.109,0.175,1.581,0.536l19.337,14.796c1.143,0.874,1.36,2.509,0.486,3.652
			L94.708,76.467c-0.513,0.67-1.287,1.022-2.071,1.022c-0.552,0-1.109-0.175-1.581-0.536l-8.89-6.802
			c-0.331-0.253-0.72-0.375-1.107-0.375c-0.55,0-1.094,0.248-1.453,0.72l-0.428,0.563l-7.076,8.875
			c-0.514,0.644-1.272,0.981-2.038,0.981c-0.552,0-1.109-0.175-1.581-0.536l-6.97-5.333c-1.159-0.887-1.363-2.552-0.454-3.693
			l7.076-8.875c0.772-0.969,2.344-2.986,3.098-3.972l14.314-18.708C86.061,39.127,86.835,38.775,87.618,38.775 M87.618,37.275
			c-1.29,0-2.479,0.587-3.262,1.611L70.042,57.594c-0.727,0.951-2.291,2.959-3.08,3.948l-7.076,8.875
			c-0.693,0.869-1,1.956-0.865,3.06c0.136,1.104,0.697,2.084,1.58,2.759l6.97,5.333c0.722,0.553,1.584,0.845,2.493,0.845
			c1.257,0,2.428-0.563,3.211-1.546l7.076-8.875l0.449-0.59c0.088-0.115,0.21-0.128,0.259-0.128c0.072,0,0.138,0.022,0.195,0.067
			l8.89,6.802c0.722,0.553,1.584,0.845,2.492,0.845c1.29,0,2.479-0.587,3.262-1.611l14.314-18.708
			c1.375-1.798,1.032-4.379-0.766-5.754L90.111,38.12C89.388,37.567,88.527,37.275,87.618,37.275L87.618,37.275z"/>
	</g>
	<g>
		<path class="st11" d="M99.139,122.519c-0.742,0-1.446-0.239-2.037-0.69L58.849,92.56c-1.468-1.125-1.749-3.234-0.625-4.703
			l4.853-6.342c0.64-0.837,1.611-1.317,2.666-1.317c0.742,0,1.446,0.239,2.037,0.691l38.253,29.269
			c0.711,0.544,1.169,1.333,1.287,2.222s-0.117,1.77-0.661,2.481l-4.854,6.342C101.165,122.04,100.193,122.519,99.139,122.519z"/>
		<path class="st3" d="M65.743,80.949c0.552,0,1.109,0.175,1.581,0.536l38.253,29.268c1.143,0.874,1.36,2.509,0.486,3.652
			l-4.853,6.342c-0.513,0.67-1.287,1.022-2.071,1.022c-0.552,0-1.109-0.175-1.581-0.536L59.305,91.965
			c-1.143-0.874-1.36-2.509-0.486-3.652l4.853-6.342C64.185,81.3,64.959,80.949,65.743,80.949 M65.743,79.448L65.743,79.448
			c-1.29,0-2.479,0.587-3.262,1.611l-4.853,6.342c-0.666,0.871-0.954,1.949-0.809,3.036c0.145,1.087,0.704,2.052,1.575,2.719
			l38.253,29.268c0.722,0.553,1.584,0.845,2.492,0.845c1.29,0,2.479-0.587,3.262-1.611l4.853-6.342
			c0.666-0.871,0.954-1.949,0.809-3.036c-0.145-1.087-0.704-2.052-1.575-2.719L68.235,80.293
			C67.513,79.741,66.651,79.448,65.743,79.448L65.743,79.448z"/>
	</g>
	<g class="st21">
		<path class="st11" d="M150.558,94.558c-0.742,0-1.446-0.239-2.037-0.69l-38.252-29.269c-1.469-1.125-1.75-3.234-0.626-4.703
			l4.853-6.342c0.641-0.837,1.612-1.316,2.667-1.316c0.742,0,1.446,0.239,2.037,0.69l38.252,29.269
			c1.469,1.124,1.75,3.233,0.626,4.703l-4.853,6.343C152.584,94.078,151.611,94.558,150.558,94.558z"/>
		<path class="st3" d="M117.162,52.987c0.552,0,1.109,0.175,1.581,0.536l38.253,29.268c1.142,0.874,1.36,2.509,0.486,3.652
			l-4.853,6.342c-0.513,0.67-1.287,1.022-2.071,1.022c-0.552,0-1.109-0.175-1.581-0.536l-38.253-29.268
			c-1.143-0.874-1.36-2.509-0.486-3.652l4.853-6.342C115.604,53.339,116.379,52.987,117.162,52.987 M117.162,51.487L117.162,51.487
			c-1.29,0-2.479,0.587-3.262,1.611l-4.853,6.342c-0.666,0.871-0.954,1.949-0.809,3.036c0.145,1.087,0.704,2.052,1.575,2.719
			l38.253,29.268c0.722,0.553,1.584,0.845,2.493,0.845c1.29,0,2.479-0.587,3.262-1.611l4.853-6.342
			c1.375-1.798,1.032-4.379-0.766-5.754l-38.253-29.268C118.932,51.779,118.07,51.487,117.162,51.487L117.162,51.487z"/>
	</g>
	<g class="st21">
		<path class="st11" d="M76.738,125.843c-0.742,0-1.446-0.239-2.037-0.691l-32.538-24.896c-0.711-0.544-1.169-1.333-1.287-2.222
			s0.117-1.77,0.661-2.481l4.853-6.342c0.641-0.837,1.613-1.317,2.667-1.317c0.742,0,1.446,0.239,2.037,0.691l32.538,24.896
			c0.711,0.544,1.168,1.333,1.286,2.222c0.118,0.888-0.117,1.769-0.661,2.48l-4.853,6.342
			C78.765,125.363,77.793,125.843,76.738,125.843z"/>
		<path class="st3" d="M49.056,88.645c0.552,0,1.109,0.175,1.581,0.536l32.538,24.896c1.143,0.874,1.36,2.509,0.486,3.652
			l-4.853,6.342c-0.513,0.67-1.287,1.022-2.071,1.022c-0.552,0-1.109-0.175-1.581-0.536L42.619,99.661
			c-1.143-0.874-1.36-2.509-0.486-3.652l4.853-6.342C47.499,88.997,48.273,88.645,49.056,88.645 M49.056,87.145L49.056,87.145
			c-1.29,0-2.479,0.587-3.262,1.611l-4.853,6.342c-1.375,1.798-1.032,4.379,0.766,5.754l32.538,24.896
			c0.722,0.553,1.584,0.845,2.492,0.845c1.29,0,2.479-0.587,3.262-1.611l4.853-6.342c0.666-0.871,0.954-1.949,0.809-3.036
			c-0.145-1.087-0.704-2.052-1.575-2.719L51.549,87.99C50.826,87.437,49.965,87.145,49.056,87.145L49.056,87.145z"/>
	</g>
	<g>
		<path class="st11" d="M149.28,121.588c-0.742,0-1.446-0.239-2.037-0.69l-6.971-5.334c-1.469-1.124-1.749-3.233-0.625-4.703
			l5.333-6.971c0.641-0.837,1.613-1.317,2.667-1.317c0.742,0,1.446,0.239,2.037,0.691l6.971,5.333
			c0.711,0.544,1.168,1.333,1.286,2.222c0.118,0.888-0.117,1.769-0.661,2.48l-5.333,6.971
			C151.308,121.108,150.335,121.588,149.28,121.588z"/>
		<path class="st3" d="M147.647,103.324c0.552,0,1.109,0.175,1.581,0.536l6.971,5.334c1.142,0.874,1.36,2.509,0.486,3.652
			l-5.334,6.971c-0.513,0.67-1.287,1.022-2.071,1.022c-0.552,0-1.109-0.175-1.581-0.536l-6.971-5.334
			c-1.142-0.874-1.36-2.509-0.486-3.652l5.334-6.971C146.089,103.675,146.864,103.324,147.647,103.324 M147.647,101.824
			L147.647,101.824c-1.29,0-2.479,0.587-3.262,1.611l-5.334,6.971c-1.375,1.798-1.032,4.379,0.766,5.754l6.971,5.334
			c0.722,0.553,1.584,0.845,2.492,0.845c1.29,0,2.479-0.587,3.262-1.611l5.334-6.971c1.375-1.798,1.032-4.379-0.766-5.754
			l-6.971-5.334C149.417,102.116,148.555,101.824,147.647,101.824L147.647,101.824z"/>
	</g>
	<g>
		<path class="st11" d="M83.733,143.478c-0.742,0-1.446-0.239-2.037-0.691l-6.971-5.333c-1.469-1.124-1.749-3.233-0.625-4.703
			l5.333-6.971c0.641-0.837,1.613-1.317,2.667-1.317c0.742,0,1.446,0.239,2.037,0.691l6.971,5.333
			c1.469,1.124,1.749,3.233,0.625,4.703l-5.333,6.971C85.76,142.998,84.787,143.478,83.733,143.478z"/>
		<path class="st3" d="M82.1,125.213c0.552,0,1.109,0.175,1.581,0.536l6.971,5.334c1.143,0.874,1.36,2.509,0.486,3.652l-5.334,6.971
			c-0.513,0.67-1.287,1.022-2.071,1.022c-0.552,0-1.109-0.175-1.581-0.536l-6.971-5.334c-1.143-0.874-1.36-2.509-0.486-3.652
			l5.334-6.971C80.542,125.565,81.317,125.213,82.1,125.213 M82.1,123.713L82.1,123.713c-1.29,0-2.479,0.587-3.262,1.611
			l-5.334,6.971c-0.666,0.871-0.954,1.949-0.809,3.036c0.145,1.087,0.704,2.052,1.575,2.719l6.971,5.334
			c0.722,0.553,1.584,0.845,2.492,0.845c1.29,0,2.479-0.587,3.262-1.611l5.334-6.971c1.375-1.798,1.032-4.379-0.766-5.754
			l-6.971-5.334C83.87,124.005,83.008,123.713,82.1,123.713L82.1,123.713z"/>
	</g>
</g>
<g>
	<g id="XMLID_1_">
		<g>
			<path class="st3" d="M147.127,33.523c-3.1,0.54-8.68,2.78-11.28,11.71c-0.05,0.15-0.18,0.26-0.33,0.29
				c-0.06,0.01-0.12,0.01-0.18-0.01c-0.22-0.07-0.34-0.29-0.28-0.51c2.73-9.35,8.65-11.71,11.93-12.28c4.56-0.8,9.59,1.5,11.02,2.22
				c0.2,0.1,0.28,0.35,0.18,0.55c-0.1,0.2-0.35,0.28-0.55,0.18C156.267,34.983,151.447,32.773,147.127,33.523z"/>
			<path class="st16" d="M146.987,32.723c-3.28,0.57-9.2,2.93-11.93,12.28c-0.06,0.22,0.06,0.44,0.28,0.51
				c0.06,0.02,0.12,0.02,0.18,0.01c0.15-0.03,0.28-0.14,0.33-0.29c2.6-8.93,8.18-11.17,11.28-11.71c4.32-0.75,9.14,1.46,10.51,2.15
				c0.2,0.1,0.45,0.02,0.55-0.18c0.1-0.2,0.02-0.45-0.18-0.55C156.577,34.223,151.547,31.923,146.987,32.723z M134.097,47.163
				c0.07-7.56,5.52-13.99,12.99-15.29c8.52-1.49,16.67,4.23,18.16,12.76c0.04,0.24,0.08,0.49,0.11,0.74c0,0.04,0.01,0.07,0.02,0.1
				c0.37,0.94,0.64,1.58,0.84,1.98c0.32,0.68,1.23,0.94,2.29,1.24c1.08,0.31,2.3,0.66,2.73,1.49c0.24,0.46,0.22,1.06-0.05,1.84
				c-1.19,3.41-3.58,4.1-6.12,4.54l-0.87,0.15l-0.53,0.09c-0.48,0.09-0.96,0.17-1.42,0.24c-13.01,2.1-21.96,1.14-26.61-2.85
				c-0.93-0.79-1.53-1.56-2.01-2.17c-0.18-0.24-0.35-0.45-0.5-0.62c-0.92-1.03-0.23-2.43,0.48-3.41c0.95,1.61,4.36,5.87,14.19,6.58
				c0.04,0,0.07,0,0.1,0c0.18-0.03,0.32-0.19,0.34-0.38c0.01-0.22-0.15-0.42-0.38-0.43
				C137.177,52.993,134.397,47.803,134.097,47.163z"/>
			<path class="st16" d="M166.767,46.343l1.68-0.01l-1.52-6.59l-1.9,0.92L166.767,46.343z M133.277,47.093
				c0.1-7.93,5.83-14.66,13.67-16.03c7.36-1.28,14.45,2.54,17.62,8.92l2.47-1.2c0.11-0.05,0.24-0.05,0.35,0
				c0.12,0.05,0.2,0.16,0.23,0.28l1.72,7.5c0.01,0.03,0.02,0.04,0.02,0.07c0.04,0.22-0.11,0.4-0.33,0.44c-0.01,0-0.01,0-0.01,0.01
				c-0.02,0-0.04,0.03-0.06,0.03l-1.97,0.03c0.22,0.32,0.99,0.55,1.75,0.76c1.24,0.36,2.64,0.77,3.23,1.9c0.34,0.67,0.34,1.5,0,2.49
				c-1.34,3.83-4.08,4.61-6.76,5.08l-0.86,0.14l-0.53,0.1c-0.49,0.08-0.97,0.16-1.44,0.24c-13.25,2.14-22.43,1.12-27.28-3.04
				c-0.98-0.85-1.64-1.68-2.11-2.28c-0.18-0.23-0.33-0.43-0.47-0.59C131.427,50.733,131.697,49.013,133.277,47.093z M147.797,54.573
				c-9.83-0.71-13.24-4.97-14.19-6.58c-0.71,0.98-1.4,2.38-0.48,3.41c0.15,0.17,0.32,0.38,0.5,0.62c0.48,0.61,1.08,1.38,2.01,2.17
				c4.65,3.99,13.6,4.95,26.61,2.85c0.46-0.07,0.94-0.15,1.42-0.24l0.53-0.09l0.87-0.15c2.54-0.44,4.93-1.13,6.12-4.54
				c0.27-0.78,0.29-1.38,0.05-1.84c-0.43-0.83-1.65-1.18-2.73-1.49c-1.06-0.3-1.97-0.56-2.29-1.24c-0.2-0.4-0.47-1.04-0.84-1.98
				c-0.01-0.03-0.02-0.06-0.02-0.1c-0.03-0.25-0.07-0.5-0.11-0.74c-1.49-8.53-9.64-14.25-18.16-12.76
				c-7.47,1.3-12.92,7.73-12.99,15.29c0.3,0.64,3.08,5.83,13.76,6.6c0.23,0.01,0.39,0.21,0.38,0.43c-0.02,0.19-0.16,0.35-0.34,0.38
				C147.867,54.573,147.837,54.573,147.797,54.573z"/>
		</g>
	</g>
	<path class="st22" d="M134.141,47.922c0,0,1.901,5.161,13.714,6.266"/>
</g>
</svg>
